<?xml version="1.0" encoding="utf-8"?>
<!-- Generator: Adobe Illustrator 17.0.0, SVG Export Plug-In . SVG Version: 6.00 Build 0)  -->
<!DOCTYPE svg PUBLIC "-//W3C//DTD SVG 1.1//EN" "http://www.w3.org/Graphics/SVG/1.1/DTD/svg11.dtd">
<svg version="1.1" id="Layer_1" xmlns="http://www.w3.org/2000/svg" xmlns:xlink="http://www.w3.org/1999/xlink" x="0px" y="0px"
	 width="640px" height="508.919px" viewBox="0 0 640 508.919" enable-background="new 0 0 640 508.919" xml:space="preserve">
<path fill="#274C1A" d="M252.622,345.716c0,0,54.15-112.988,161.904-85.624c0,0,168.621,10.566,108.55,206.95L252.622,345.716z"/>
<path fill="#C8CE7E" d="M404.339,279.241c0,0-8.137,46.954-36.838,65.374l17.24,26.758c0,0,38.48-32.577,44.694-92.132
	L404.339,279.241L404.339,279.241z"/>
<path fill="#39602B" d="M384.742,355.678c0,0-198.192-144.872-231.921,92.124"/>
<path fill="#60964B" d="M104.624,497.58c0,0,113.361-152.824,309.902-141.28c0,0,78.207,11.77,153.248,129.03L104.624,497.58z"/>
<path fill="#C8CE7E" d="M156.081,496.219c0,0,161.679-130.051,339.118-96.021c0,0,19.207,17.272,26.284,25.04
	c0,0-169.37,11.276-231.261,67.433L156.081,496.219z"/>
<path fill="#C8CE7E" d="M266.911,311.86c0,0-59.913,49.251-58.951,84.366c0.962,35.116,23.571,17.798,23.571,17.798
	s71.378-93.728,58.813-99.791C288.052,313.128,272.799,311.803,266.911,311.86z"/>
<path fill="#808080" d="M442.857,218.353c0,0-27.447-12.626,0-25.252c0,0-11.528-24.381,20.311-18.504c0,0,9.332-23.786,20.86-5.386
	c0,0,29.094,10.166,7.685,27.732c0,0,18.115,23.605-2.196,21.409c0,0-1.647,24.703-16.468,9.332c0,0-15.645,17.303-21.134-4.66
	C451.915,223.025,440.661,232.626,442.857,218.353z"/>
<rect x="383.873" y="234.053" fill="#B3B3B3" width="91.125" height="45.188"/>
<polyline fill="#B3B3B3" points="451.394,235.015 451.394,224.596 465.117,222.149 465.117,235.015 "/>
<polyline fill="#FFFFFF" points="411.869,279.554 411.869,261.762 420.652,261.762 420.652,279.554 "/>
<polyline fill="#FFFFFF" points="389.789,243.845 404.428,243.845 404.428,251.644 389.789,251.644 389.789,244.746 "/>
<polyline fill="#FFFFFF" points="411.259,243.845 425.898,243.845 425.898,251.644 411.259,251.644 411.259,244.746 "/>
<polyline fill="#FFFFFF" points="430.658,243.652 445.297,243.652 445.297,251.451 430.658,251.451 430.658,244.553 "/>
<path fill="#EDFF00" d="M217.069,382.475c0,0-4.307-11.305,11.843-10.766c0,0,9.69-1.077,9.42,9.421L217.069,382.475z"/>
<polyline fill="#FFFFFF" points="452.003,243.652 466.642,243.652 466.642,251.451 452.003,251.451 452.003,244.553 "/>
<path fill="#941E00" d="M166.982,403.036c0,0,36.09-31.51,70.689-23.699l29.513,29.53l31.501-8.04l16.223,32.301l-138.063,39.255
	L166.982,403.036z"/>
<ellipse transform="matrix(-0.2735 -0.9619 0.9619 -0.2735 -184.8289 788.8878)" cx="205.511" cy="464.245" rx="14.139" ry="16.926"/>
<ellipse transform="matrix(-0.2735 -0.9619 0.9619 -0.2735 -63.9318 835.7591)" cx="283.66" cy="442.024" rx="14.139" ry="16.926"/>
<path fill="#FFFFFF" d="M238.412,381.942c0,0-6.358,21.438-3.48,36.512l28.454-8.09"/>
<g>
	<path fill="#FFFFFF" d="M198.157,423.021l-7.184,2.043l-1.574-5.535l7.184-2.043l-2.037-7.164l5.494-1.562l2.037,7.164l7.165-2.037
		l1.574,5.535l-7.165,2.037l2.014,7.082l-5.494,1.562L198.157,423.021z"/>
</g>
<line fill="none" stroke="#000000" stroke-width="1.6149" stroke-miterlimit="10" x1="148.059" y1="447.802" x2="73.929" y2="471.51"/>
<line fill="none" stroke="#000000" stroke-width="1.6149" stroke-miterlimit="10" x1="164.339" y1="459.925" x2="90.209" y2="483.633"/>
<line fill="none" stroke="#000000" stroke-width="1.6149" stroke-miterlimit="10" x1="156.081" y1="430.882" x2="81.951" y2="454.589"/>
<path fill="#C73A22" d="M631.575,59.376c0,4.046-5.169,7.327-11.545,7.327H25.853c-6.376,0-11.545-3.28-11.545-7.327V26.409
	c0-4.046,5.169-7.327,11.545-7.327H620.03c6.376,0,11.545,3.28,11.545,7.327V59.376z"/>
<line fill="none" stroke="#FFFFFF" stroke-width="8" stroke-miterlimit="10" x1="50.684" y1="42.893" x2="595.199" y2="42.893"/>
<circle fill="#D58C84" cx="50.684" cy="42.893" r="10.585"/>
<circle fill="#D58C84" cx="361.835" cy="42.893" r="10.585"/>
<circle fill="#FFFFFF" cx="595.199" cy="42.893" r="10.585"/>
<circle fill="#D58C84" cx="206.26" cy="42.893" r="10.585"/>
<circle fill="#D58C84" cx="517.412" cy="42.893" r="10.585"/>
<path fill="none" stroke="#D58C84" stroke-width="8" stroke-miterlimit="10" d="M50.684,42.893h509.889"/>
<circle fill="#D58C84" cx="284.048" cy="42.893" r="10.585"/>
<circle fill="#D58C84" cx="128.472" cy="42.893" r="10.585"/>
<circle fill="#D58C84" cx="439.624" cy="42.893" r="10.585"/>
<path fill="none" stroke="#C73A22" stroke-width="0.9621" stroke-miterlimit="10" d="M311.835,405.366"/>
<path d="M232.492,487.142c0,0,9.621-6.734,25.014-12.026"/>
<path d="M314.908,449.866c0,0,19.564-10.828,30.147-11.309"/>
<path d="M397.109,423.645c0,0,25.873-6.853,36.937-5.351"/>
<path d="M240.619,371.373c0,0-3.316,1.764,4.38-12.186"/>
<path d="M255.582,344.756c0,0,5.821-9.307,11.329-11.869"/>
<path d="M384.742,347.642c0,0,10.759-4.329,13.436-12.026"/>
<path d="M401.336,323.109c0,0,4.741-4.329,5.016-8.178"/>
<path d="M411.259,301.222c0,0,2.583-4.329,2.824-6.253"/>
<rect x="92.14" y="96.229" fill="none" width="445.537" height="50.231"/>
<text transform="matrix(1 0 0 1 92.1397 113.7092)"><tspan x="0" y="0" fill="#C73A22" font-family="'OpenSans-Extrabold'" font-size="23">EVERY 1 IN 20 PRODUCTION WORKERS </tspan><tspan x="0" y="27.6" fill="#C73A22" font-family="'OpenSans-Extrabold'" font-size="23">EXPERIENCE ILLNESS OR ARE INJURED</tspan></text>
</svg>
