<?xml version="1.0" encoding="utf-8"?>
<!-- Generator: Adobe Illustrator 17.0.0, SVG Export Plug-In . SVG Version: 6.00 Build 0)  -->
<!DOCTYPE svg PUBLIC "-//W3C//DTD SVG 1.1//EN" "http://www.w3.org/Graphics/SVG/1.1/DTD/svg11.dtd">
<svg version="1.1" id="Layer_1" xmlns="http://www.w3.org/2000/svg" xmlns:xlink="http://www.w3.org/1999/xlink" x="0px" y="0px"
	 width="640px" height="508.919px" viewBox="0 0 640 508.919" enable-background="new 0 0 640 508.919" xml:space="preserve">
<path fill="#274C1A" d="M252.622,345.716c0,0,54.15-112.988,161.904-85.624c0,0,168.621,10.566,108.55,206.95L252.622,345.716z"/>
<path fill="#C8CE7E" d="M404.339,279.241c0,0-8.137,46.954-36.838,65.374l17.24,26.758c0,0,38.48-32.577,44.694-92.132H404.339z"/>
<path fill="#39602B" d="M384.742,355.678c0,0-198.192-144.872-231.921,92.124"/>
<path fill="#60964B" d="M104.624,497.58c0,0,113.361-152.824,309.902-141.28c0,0,78.207,11.77,153.248,129.03L104.624,497.58z"/>
<path fill="#C8CE7E" d="M156.081,496.219c0,0,161.679-130.051,339.118-96.021c0,0,19.207,17.272,26.284,25.04
	c0,0-169.37,11.276-231.261,67.433L156.081,496.219z"/>
<path fill="#C8CE7E" d="M266.911,311.86c0,0-59.913,49.251-58.951,84.366c0.962,35.116,23.571,17.798,23.571,17.798
	s71.378-93.728,58.813-99.791C288.052,313.128,272.799,311.803,266.911,311.86z"/>
<path fill="#808080" d="M442.857,218.353c0,0-27.447-12.626,0-25.252c0,0-11.528-24.381,20.311-18.504c0,0,9.332-23.786,20.86-5.386
	c0,0,29.094,10.166,7.685,27.732c0,0,18.115,23.605-2.196,21.409c0,0-1.647,24.703-16.468,9.332c0,0-15.645,17.303-21.134-4.66
	C451.915,223.025,440.661,232.626,442.857,218.353z"/>
<rect x="383.873" y="234.053" fill="#B3B3B3" width="91.125" height="45.188"/>
<polyline fill="#B3B3B3" points="451.394,235.015 451.394,224.596 465.117,222.149 465.117,235.015 "/>
<polyline fill="#FFFFFF" points="411.869,279.554 411.869,261.762 420.652,261.762 420.652,279.554 "/>
<polyline fill="#FFFFFF" points="389.789,243.845 404.428,243.845 404.428,251.644 389.789,251.644 389.789,244.746 "/>
<polyline fill="#FFFFFF" points="411.259,243.845 425.898,243.845 425.898,251.644 411.259,251.644 411.259,244.746 "/>
<polyline fill="#FFFFFF" points="430.658,243.652 445.297,243.652 445.297,251.451 430.658,251.451 430.658,244.553 "/>
<path fill="#EDFF00" d="M217.069,382.475c0,0-4.307-11.305,11.843-10.766c0,0,9.69-1.077,9.42,9.421L217.069,382.475z"/>
<polyline fill="#FFFFFF" points="452.003,243.652 466.642,243.652 466.642,251.451 452.003,251.451 452.003,244.553 "/>
<path fill="#941E00" d="M166.982,403.036c0,0,36.09-31.51,70.689-23.699l29.513,29.53l31.501-8.04l16.223,32.301l-138.063,39.255
	L166.982,403.036z"/>
<ellipse transform="matrix(0.9619 -0.2735 0.2735 0.9619 -119.1284 73.9006)" cx="205.5" cy="464.236" rx="16.926" ry="14.139"/>
<ellipse transform="matrix(0.9619 -0.2735 0.2735 0.9619 -110.0722 94.4261)" cx="283.648" cy="442.016" rx="16.926" ry="14.139"/>
<path fill="#FFFFFF" d="M238.412,381.942c0,0-6.358,21.438-3.48,36.512l28.454-8.09"/>
<g>
	<path fill="#FFFFFF" d="M198.157,423.021l-7.184,2.043l-1.574-5.535l7.184-2.043l-2.037-7.164l5.494-1.562l2.037,7.164l7.165-2.037
		l1.574,5.535l-7.165,2.037l2.014,7.082l-5.494,1.562L198.157,423.021z"/>
</g>
<line fill="none" stroke="#000000" stroke-width="1.6149" stroke-miterlimit="10" x1="148.059" y1="447.802" x2="73.929" y2="471.51"/>
<line fill="none" stroke="#000000" stroke-width="1.6149" stroke-miterlimit="10" x1="164.339" y1="459.925" x2="90.209" y2="483.633"/>
<line fill="none" stroke="#000000" stroke-width="1.6149" stroke-miterlimit="10" x1="156.081" y1="430.882" x2="81.951" y2="454.589"/>
<g>
	<g>
		<path fill="#C73A22" d="M104.624,130.533h-9.888v-17.17h9.888v2.983h-6.248v3.77h5.814v2.983h-5.814v4.427h6.248V130.533z"/>
		<path fill="#C73A22" d="M118.001,113.363h3.675l-5.836,17.17h-3.969l-5.825-17.17h3.675l3.23,10.217
			c0.179,0.603,0.365,1.305,0.558,2.108c0.192,0.802,0.311,1.36,0.358,1.673c0.085-0.72,0.38-1.981,0.88-3.782L118.001,113.363z"/>
		<path fill="#C73A22" d="M133.725,130.533h-9.888v-17.17h9.888v2.983h-6.248v3.77h5.814v2.983h-5.814v4.427h6.248V130.533z"/>
		<path fill="#C73A22" d="M140.948,123.945v6.588h-3.641v-17.17h5.003c2.333,0,4.059,0.425,5.179,1.274
			c1.12,0.85,1.68,2.14,1.68,3.87c0,1.01-0.278,1.908-0.834,2.695c-0.556,0.786-1.343,1.403-2.36,1.849
			c2.584,3.86,4.266,6.354,5.05,7.481h-4.04l-4.099-6.588H140.948z M140.948,120.985h1.174c1.151,0,2-0.192,2.548-0.575
			c0.548-0.383,0.822-0.986,0.822-1.809c0-0.814-0.28-1.393-0.839-1.738c-0.56-0.344-1.427-0.517-2.602-0.517h-1.104V120.985z"/>
		<path fill="#C73A22" d="M158.529,120.433l3.582-7.07h3.923l-5.696,10.487v6.682h-3.617v-6.565l-5.695-10.605h3.946
			L158.529,120.433z"/>
		<path fill="#C73A22" d="M179.492,119.564c1.659,0,2.981,0.466,3.964,1.398c0.982,0.932,1.473,2.208,1.473,3.829
			c0,1.919-0.591,3.394-1.773,4.427c-1.183,1.033-2.874,1.55-5.073,1.55c-1.911,0-3.453-0.309-4.627-0.928v-3.136
			c0.618,0.329,1.339,0.597,2.161,0.804c0.822,0.208,1.601,0.311,2.337,0.311c2.215,0,3.324-0.908,3.324-2.725
			c0-1.73-1.147-2.595-3.441-2.595c-0.415,0-0.873,0.041-1.374,0.123c-0.502,0.083-0.909,0.171-1.221,0.264l-1.445-0.775
			l0.646-8.749h9.313v3.077h-6.13l-0.317,3.371l0.411-0.082C178.196,119.619,178.788,119.564,179.492,119.564z"/>
		<path fill="#C73A22" d="M194.418,130.533v-17.17h3.641v17.17H194.418z"/>
		<path fill="#C73A22" d="M217.613,130.533h-4.627l-7.469-12.989h-0.106c0.148,2.294,0.224,3.93,0.224,4.909v8.08h-3.254v-17.17
			h4.592l7.457,12.86h0.083c-0.117-2.231-0.177-3.809-0.177-4.733v-8.127h3.277V130.533z"/>
		<path fill="#C73A22" d="M235.957,130.533h-3.629v-9.935l0.036-1.632l0.058-1.785c-0.603,0.603-1.021,0.998-1.256,1.186
			l-1.973,1.585l-1.75-2.184l5.532-4.404h2.983V130.533z"/>
		<path fill="#C73A22" d="M252.622,121.948c0,2.999-0.491,5.219-1.474,6.659c-0.982,1.441-2.495,2.161-4.539,2.161
			c-1.981,0-3.474-0.744-4.481-2.231c-1.005-1.487-1.509-3.683-1.509-6.588c0-3.03,0.49-5.263,1.468-6.7
			c0.978-1.437,2.485-2.155,4.521-2.155c1.98,0,3.478,0.752,4.492,2.255C252.115,116.851,252.622,119.052,252.622,121.948z
			 M244.225,121.948c0,2.106,0.181,3.615,0.546,4.527c0.364,0.912,0.976,1.368,1.838,1.368c0.846,0,1.456-0.462,1.832-1.386
			c0.376-0.924,0.564-2.427,0.564-4.51c0-2.106-0.19-3.619-0.569-4.539c-0.38-0.92-0.988-1.38-1.826-1.38
			c-0.853,0-1.464,0.46-1.832,1.38C244.408,118.329,244.225,119.842,244.225,121.948z"/>
		<path fill="#C73A22" d="M266.351,121.948c0,2.999-0.491,5.219-1.474,6.659c-0.983,1.441-2.495,2.161-4.539,2.161
			c-1.981,0-3.474-0.744-4.481-2.231c-1.006-1.487-1.509-3.683-1.509-6.588c0-3.03,0.489-5.263,1.468-6.7
			c0.979-1.437,2.486-2.155,4.522-2.155c1.98,0,3.478,0.752,4.492,2.255C265.844,116.851,266.351,119.052,266.351,121.948z
			 M257.953,121.948c0,2.106,0.182,3.615,0.547,4.527c0.364,0.912,0.976,1.368,1.838,1.368c0.846,0,1.456-0.462,1.832-1.386
			c0.376-0.924,0.564-2.427,0.564-4.51c0-2.106-0.19-3.619-0.569-4.539c-0.38-0.92-0.989-1.38-1.826-1.38
			c-0.854,0-1.465,0.46-1.832,1.38C258.138,118.329,257.953,119.842,257.953,121.948z"/>
		<path fill="#C73A22" d="M287.478,118.719c0,1.848-0.577,3.261-1.732,4.24c-1.155,0.979-2.797,1.468-4.926,1.468h-1.562v6.107
			h-3.641v-17.17h5.485c2.082,0,3.666,0.448,4.75,1.344C286.936,115.605,287.478,116.942,287.478,118.719z M279.257,121.443h1.198
			c1.12,0,1.957-0.221,2.513-0.663c0.556-0.443,0.834-1.087,0.834-1.932c0-0.853-0.233-1.483-0.699-1.891
			c-0.466-0.407-1.196-0.611-2.19-0.611h-1.656V121.443z"/>
		<path fill="#C73A22" d="M294.36,123.945v6.588h-3.641v-17.17h5.003c2.333,0,4.06,0.425,5.18,1.274
			c1.119,0.85,1.679,2.14,1.679,3.87c0,1.01-0.278,1.908-0.833,2.695c-0.556,0.786-1.344,1.403-2.361,1.849
			c2.584,3.86,4.267,6.354,5.05,7.481h-4.04l-4.098-6.588H294.36z M294.36,120.985h1.174c1.151,0,2-0.192,2.549-0.575
			c0.548-0.383,0.822-0.986,0.822-1.809c0-0.814-0.28-1.393-0.84-1.738c-0.56-0.344-1.427-0.517-2.602-0.517h-1.104V120.985z"/>
		<path fill="#C73A22" d="M322.182,121.925c0,2.842-0.705,5.026-2.114,6.553c-1.409,1.527-3.429,2.29-6.06,2.29
			c-2.631,0-4.651-0.763-6.06-2.29c-1.409-1.527-2.114-3.719-2.114-6.577c0-2.858,0.706-5.04,2.12-6.547
			c1.413-1.507,3.439-2.261,6.077-2.261c2.639,0,4.657,0.76,6.054,2.278C321.483,116.891,322.182,119.075,322.182,121.925z
			 M309.651,121.925c0,1.919,0.365,3.363,1.092,4.334c0.729,0.971,1.817,1.456,3.266,1.456c2.904,0,4.357-1.93,4.357-5.79
			c0-3.868-1.444-5.802-4.334-5.802c-1.448,0-2.54,0.487-3.276,1.462C310.019,118.56,309.651,120.007,309.651,121.925z"/>
		<path fill="#C73A22" d="M339.985,121.784c0,2.827-0.804,4.991-2.413,6.494c-1.609,1.503-3.933,2.255-6.97,2.255h-4.862v-17.17
			h5.391c2.803,0,4.979,0.74,6.53,2.22C339.211,117.063,339.985,119.13,339.985,121.784z M336.204,121.878
			c0-3.688-1.629-5.531-4.886-5.531h-1.938v11.18h1.562C334.45,127.527,336.204,125.644,336.204,121.878z"/>
		<path fill="#C73A22" d="M357.519,113.363v11.11c0,1.268-0.284,2.38-0.851,3.335c-0.568,0.955-1.388,1.687-2.461,2.196
			c-1.073,0.509-2.341,0.763-3.805,0.763c-2.208,0-3.922-0.566-5.144-1.697c-1.221-1.132-1.832-2.68-1.832-4.645v-11.063h3.629
			v10.511c0,1.323,0.266,2.294,0.799,2.913c0.532,0.619,1.413,0.928,2.642,0.928c1.19,0,2.053-0.311,2.589-0.934
			c0.536-0.622,0.804-1.599,0.804-2.93v-10.487H357.519z"/>
		<path fill="#C73A22" d="M369.016,116.147c-1.37,0-2.431,0.515-3.182,1.544c-0.752,1.03-1.127,2.465-1.127,4.304
			c0,3.829,1.437,5.743,4.31,5.743c1.206,0,2.666-0.301,4.381-0.904v3.053c-1.409,0.587-2.983,0.881-4.721,0.881
			c-2.497,0-4.408-0.757-5.731-2.273c-1.323-1.515-1.984-3.689-1.984-6.524c0-1.785,0.324-3.349,0.974-4.691
			c0.65-1.343,1.583-2.372,2.801-3.089c1.218-0.716,2.645-1.074,4.28-1.074c1.669,0,3.344,0.404,5.026,1.21l-1.174,2.959
			c-0.642-0.305-1.287-0.571-1.937-0.799C370.281,116.26,369.643,116.147,369.016,116.147z"/>
		<path fill="#C73A22" d="M383.674,130.533h-3.641v-14.14h-4.663v-3.03h12.965v3.03h-4.662V130.533z"/>
		<path fill="#C73A22" d="M390.978,130.533v-17.17h3.641v17.17H390.978z"/>
		<path fill="#C73A22" d="M414.526,121.925c0,2.842-0.705,5.026-2.114,6.553s-3.429,2.29-6.06,2.29s-4.651-0.763-6.06-2.29
			s-2.114-3.719-2.114-6.577c0-2.858,0.706-5.04,2.12-6.547c1.413-1.507,3.439-2.261,6.077-2.261c2.639,0,4.657,0.76,6.054,2.278
			C413.827,116.891,414.526,119.075,414.526,121.925z M401.994,121.925c0,1.919,0.365,3.363,1.092,4.334
			c0.729,0.971,1.817,1.456,3.266,1.456c2.904,0,4.357-1.93,4.357-5.79c0-3.868-1.444-5.802-4.334-5.802
			c-1.448,0-2.54,0.487-3.276,1.462C402.362,118.56,401.994,120.007,401.994,121.925z"/>
		<path fill="#C73A22" d="M433.315,130.533h-4.626l-7.469-12.989h-0.106c0.148,2.294,0.223,3.93,0.223,4.909v8.08h-3.253v-17.17
			h4.592l7.457,12.86h0.082c-0.116-2.231-0.176-3.809-0.176-4.733v-8.127h3.276V130.533z"/>
		<path fill="#C73A22" d="M460.609,130.533h-4.145l-2.326-9.019c-0.085-0.321-0.233-0.985-0.44-1.991
			c-0.208-1.006-0.327-1.681-0.359-2.026c-0.047,0.423-0.163,1.102-0.351,2.038c-0.188,0.935-0.334,1.603-0.435,2.002l-2.314,8.996
			h-4.134l-4.38-17.17h3.581l2.197,9.372c0.383,1.731,0.661,3.23,0.834,4.498c0.047-0.446,0.154-1.137,0.322-2.073
			c0.168-0.935,0.327-1.662,0.476-2.178l2.501-9.618h3.441l2.502,9.618c0.11,0.431,0.247,1.088,0.411,1.973
			c0.165,0.885,0.29,1.644,0.376,2.278c0.079-0.611,0.204-1.372,0.376-2.284c0.173-0.912,0.329-1.65,0.47-2.214l2.185-9.372h3.581
			L460.609,130.533z"/>
		<path fill="#C73A22" d="M482.723,121.925c0,2.842-0.705,5.026-2.114,6.553s-3.429,2.29-6.06,2.29c-2.631,0-4.651-0.763-6.06-2.29
			c-1.409-1.527-2.114-3.719-2.114-6.577c0-2.858,0.706-5.04,2.12-6.547c1.413-1.507,3.439-2.261,6.077-2.261
			c2.639,0,4.657,0.76,6.054,2.278C482.024,116.891,482.723,119.075,482.723,121.925z M470.192,121.925
			c0,1.919,0.365,3.363,1.092,4.334c0.729,0.971,1.817,1.456,3.266,1.456c2.904,0,4.357-1.93,4.357-5.79
			c0-3.868-1.444-5.802-4.334-5.802c-1.448,0-2.54,0.487-3.276,1.462C470.56,118.56,470.192,120.007,470.192,121.925z"/>
		<path fill="#C73A22" d="M489.922,123.945v6.588h-3.641v-17.17h5.003c2.333,0,4.06,0.425,5.18,1.274
			c1.119,0.85,1.679,2.14,1.679,3.87c0,1.01-0.278,1.908-0.833,2.695c-0.556,0.786-1.344,1.403-2.361,1.849
			c2.584,3.86,4.267,6.354,5.05,7.481h-4.04l-4.098-6.588H489.922z M489.922,120.985h1.174c1.151,0,2-0.192,2.549-0.575
			c0.548-0.383,0.821-0.986,0.821-1.809c0-0.814-0.28-1.393-0.839-1.738c-0.56-0.344-1.427-0.517-2.602-0.517h-1.104V120.985z"/>
		<path fill="#C73A22" d="M515.97,130.533h-4.134l-4.498-7.234l-1.538,1.104v6.13h-3.641v-17.17h3.641v7.857l1.433-2.02l4.651-5.837
			h4.04l-5.989,7.598L515.97,130.533z"/>
		<path fill="#C73A22" d="M528.02,130.533h-9.888v-17.17h9.888v2.983h-6.248v3.77h5.813v2.983h-5.813v4.427h6.248V130.533z"/>
		<path fill="#C73A22" d="M535.242,123.945v6.588h-3.641v-17.17h5.003c2.333,0,4.06,0.425,5.18,1.274
			c1.119,0.85,1.679,2.14,1.679,3.87c0,1.01-0.278,1.908-0.833,2.695c-0.556,0.786-1.344,1.403-2.361,1.849
			c2.584,3.86,4.267,6.354,5.05,7.481h-4.04l-4.098-6.588H535.242z M535.242,120.985h1.174c1.151,0,2-0.192,2.549-0.575
			c0.548-0.383,0.821-0.986,0.821-1.809c0-0.814-0.28-1.393-0.839-1.738c-0.56-0.344-1.427-0.517-2.602-0.517h-1.104V120.985z"/>
		<path fill="#C73A22" d="M557.615,125.765c0,1.55-0.558,2.772-1.674,3.664c-1.115,0.893-2.667,1.339-4.656,1.339
			c-1.832,0-3.453-0.344-4.862-1.033v-3.382c1.158,0.517,2.139,0.881,2.942,1.092s1.537,0.317,2.202,0.317
			c0.799,0,1.411-0.153,1.838-0.458c0.427-0.305,0.641-0.759,0.641-1.362c0-0.336-0.094-0.636-0.282-0.899
			c-0.188-0.262-0.464-0.514-0.829-0.757c-0.364-0.242-1.106-0.63-2.225-1.163c-1.049-0.493-1.837-0.967-2.361-1.421
			c-0.524-0.454-0.943-0.982-1.256-1.585c-0.314-0.603-0.47-1.307-0.47-2.114c0-1.519,0.514-2.713,1.544-3.582
			s2.453-1.304,4.269-1.304c0.893,0,1.744,0.106,2.555,0.317c0.81,0.211,1.657,0.509,2.542,0.893l-1.174,2.83
			c-0.916-0.376-1.673-0.638-2.273-0.787c-0.598-0.148-1.188-0.223-1.767-0.223c-0.689,0-1.218,0.161-1.586,0.482
			c-0.367,0.321-0.551,0.74-0.551,1.257c0,0.321,0.074,0.601,0.223,0.839c0.149,0.239,0.386,0.47,0.711,0.693
			c0.324,0.223,1.094,0.624,2.307,1.204c1.605,0.768,2.705,1.537,3.301,2.307C557.317,123.7,557.615,124.646,557.615,125.765z"/>
		<path fill="#C73A22" d="M104.624,159.395h-9.888v-17.17h9.888v2.983h-6.248v3.77h5.814v2.983h-5.814v4.427h6.248V159.395z"/>
		<path fill="#C73A22" d="M122.087,159.395h-4.157l-3.993-6.494l-3.993,6.494h-3.899l5.695-8.855l-5.332-8.315h4.016l3.7,6.177
			l3.628-6.177h3.923l-5.39,8.514L122.087,159.395z"/>
		<path fill="#C73A22" d="M136.11,147.581c0,1.848-0.578,3.261-1.732,4.24c-1.155,0.979-2.797,1.468-4.927,1.468h-1.561v6.107
			h-3.641v-17.17h5.484c2.083,0,3.666,0.448,4.751,1.344C135.568,144.467,136.11,145.804,136.11,147.581z M127.889,150.305h1.198
			c1.119,0,1.957-0.221,2.513-0.663c0.555-0.443,0.833-1.087,0.833-1.932c0-0.853-0.233-1.484-0.698-1.891
			c-0.466-0.407-1.197-0.611-2.191-0.611h-1.655V150.305z"/>
		<path fill="#C73A22" d="M149.24,159.395h-9.888v-17.17h9.888v2.983h-6.248v3.77h5.813v2.983h-5.813v4.427h6.248V159.395z"/>
		<path fill="#C73A22" d="M156.462,152.807v6.588h-3.641v-17.17h5.003c2.333,0,4.06,0.425,5.18,1.274
			c1.119,0.85,1.679,2.14,1.679,3.87c0,1.01-0.278,1.908-0.833,2.695c-0.556,0.786-1.344,1.403-2.361,1.849
			c2.584,3.86,4.267,6.354,5.05,7.481h-4.04l-4.098-6.588H156.462z M156.462,149.847h1.174c1.151,0,2-0.192,2.549-0.575
			c0.548-0.383,0.822-0.986,0.822-1.809c0-0.814-0.28-1.393-0.84-1.738c-0.56-0.344-1.427-0.517-2.602-0.517h-1.104V149.847z"/>
		<path fill="#C73A22" d="M168.699,159.395v-17.17h3.641v17.17H168.699z"/>
		<path fill="#C73A22" d="M186.55,159.395h-9.888v-17.17h9.888v2.983h-6.248v3.77h5.814v2.983h-5.814v4.427h6.248V159.395z"/>
		<path fill="#C73A22" d="M205.364,159.395h-4.627l-7.469-12.989h-0.105c0.148,2.294,0.223,3.93,0.223,4.909v8.08h-3.253v-17.17
			h4.591l7.458,12.86h0.082c-0.117-2.231-0.176-3.809-0.176-4.733v-8.127h3.276V159.395z"/>
		<path fill="#C73A22" d="M216.979,145.009c-1.371,0-2.431,0.515-3.183,1.544c-0.752,1.03-1.127,2.465-1.127,4.304
			c0,3.829,1.437,5.743,4.311,5.743c1.205,0,2.665-0.301,4.38-0.904v3.053c-1.409,0.587-2.983,0.881-4.721,0.881
			c-2.497,0-4.408-0.757-5.731-2.273c-1.323-1.514-1.984-3.689-1.984-6.524c0-1.785,0.324-3.349,0.974-4.691
			c0.65-1.343,1.584-2.372,2.801-3.089c1.218-0.716,2.645-1.074,4.281-1.074c1.668,0,3.343,0.404,5.026,1.21l-1.174,2.96
			c-0.643-0.305-1.288-0.571-1.938-0.799C218.243,145.122,217.605,145.009,216.979,145.009z"/>
		<path fill="#C73A22" d="M234.9,159.395h-9.888v-17.17h9.888v2.983h-6.248v3.77h5.813v2.983h-5.813v4.427h6.248V159.395z"/>
		<path fill="#C73A22" d="M244.73,159.395v-17.17h3.641v17.17H244.73z"/>
		<path fill="#C73A22" d="M252.692,159.395v-17.17h3.641v14.163h6.965v3.006H252.692z"/>
		<path fill="#C73A22" d="M266.28,159.395v-17.17h3.641v14.163h6.964v3.006H266.28z"/>
		<path fill="#C73A22" d="M295.1,159.395h-4.627l-7.469-12.989h-0.106c0.148,2.294,0.224,3.93,0.224,4.909v8.08h-3.254v-17.17h4.592
			l7.457,12.86H292c-0.117-2.231-0.177-3.809-0.177-4.733v-8.127h3.277V159.395z"/>
		<path fill="#C73A22" d="M309.31,159.395h-9.888v-17.17h9.888v2.983h-6.248v3.77h5.812v2.983h-5.812v4.427h6.248V159.395z"/>
		<path fill="#C73A22" d="M323.027,154.627c0,1.55-0.558,2.772-1.674,3.664c-1.115,0.893-2.667,1.339-4.656,1.339
			c-1.832,0-3.453-0.344-4.862-1.033v-3.382c1.158,0.517,2.139,0.881,2.942,1.092c0.802,0.211,1.537,0.317,2.202,0.317
			c0.799,0,1.411-0.153,1.838-0.458s0.641-0.759,0.641-1.362c0-0.336-0.094-0.636-0.282-0.899c-0.188-0.262-0.464-0.514-0.829-0.757
			c-0.364-0.242-1.106-0.63-2.225-1.163c-1.049-0.493-1.837-0.967-2.361-1.421c-0.524-0.454-0.943-0.982-1.256-1.585
			c-0.314-0.603-0.47-1.307-0.47-2.114c0-1.519,0.514-2.713,1.544-3.582c1.03-0.869,2.453-1.304,4.269-1.304
			c0.893,0,1.744,0.106,2.555,0.317c0.81,0.211,1.657,0.509,2.542,0.893l-1.174,2.83c-0.916-0.376-1.673-0.638-2.273-0.787
			c-0.598-0.148-1.188-0.223-1.767-0.223c-0.689,0-1.218,0.161-1.586,0.482c-0.367,0.321-0.551,0.74-0.551,1.257
			c0,0.321,0.074,0.601,0.223,0.839c0.149,0.239,0.386,0.47,0.711,0.693c0.324,0.223,1.094,0.624,2.307,1.204
			c1.605,0.768,2.705,1.537,3.301,2.307C322.73,152.562,323.027,153.508,323.027,154.627z"/>
		<path fill="#C73A22" d="M336.275,154.627c0,1.55-0.558,2.772-1.674,3.664c-1.115,0.893-2.667,1.339-4.656,1.339
			c-1.832,0-3.453-0.344-4.862-1.033v-3.382c1.158,0.517,2.139,0.881,2.942,1.092c0.802,0.211,1.537,0.317,2.202,0.317
			c0.799,0,1.411-0.153,1.838-0.458s0.641-0.759,0.641-1.362c0-0.336-0.094-0.636-0.282-0.899c-0.188-0.262-0.464-0.514-0.829-0.757
			c-0.364-0.242-1.106-0.63-2.225-1.163c-1.049-0.493-1.837-0.967-2.361-1.421c-0.524-0.454-0.943-0.982-1.256-1.585
			c-0.314-0.603-0.47-1.307-0.47-2.114c0-1.519,0.514-2.713,1.544-3.582c1.03-0.869,2.453-1.304,4.269-1.304
			c0.893,0,1.744,0.106,2.555,0.317c0.81,0.211,1.657,0.509,2.542,0.893l-1.174,2.83c-0.916-0.376-1.673-0.638-2.273-0.787
			c-0.598-0.148-1.188-0.223-1.767-0.223c-0.689,0-1.218,0.161-1.586,0.482c-0.367,0.321-0.552,0.74-0.552,1.257
			c0,0.321,0.074,0.601,0.223,0.839c0.149,0.239,0.386,0.47,0.711,0.693c0.324,0.223,1.094,0.624,2.307,1.204
			c1.605,0.768,2.705,1.537,3.301,2.307C335.977,152.562,336.275,153.508,336.275,154.627z"/>
		<path fill="#C73A22" d="M361.219,150.787c0,2.842-0.705,5.026-2.114,6.553c-1.409,1.527-3.429,2.29-6.06,2.29
			c-2.631,0-4.651-0.763-6.06-2.29c-1.409-1.527-2.114-3.719-2.114-6.577c0-2.858,0.706-5.04,2.12-6.547
			c1.413-1.507,3.439-2.261,6.077-2.261c2.639,0,4.657,0.76,6.054,2.278C360.52,145.753,361.219,147.937,361.219,150.787z
			 M348.688,150.787c0,1.918,0.365,3.363,1.092,4.334c0.729,0.971,1.817,1.456,3.266,1.456c2.904,0,4.357-1.93,4.357-5.79
			c0-3.868-1.444-5.802-4.334-5.802c-1.448,0-2.54,0.487-3.276,1.462C349.056,147.422,348.688,148.869,348.688,150.787z"/>
		<path fill="#C73A22" d="M368.418,152.807v6.588h-3.641v-17.17h5.003c2.333,0,4.06,0.425,5.18,1.274
			c1.119,0.85,1.679,2.14,1.679,3.87c0,1.01-0.278,1.908-0.833,2.695c-0.556,0.786-1.344,1.403-2.361,1.849
			c2.584,3.86,4.267,6.354,5.05,7.481h-4.04l-4.098-6.588H368.418z M368.418,149.847h1.174c1.151,0,2-0.192,2.549-0.575
			c0.548-0.383,0.821-0.986,0.821-1.809c0-0.814-0.28-1.393-0.839-1.738c-0.56-0.344-1.427-0.517-2.602-0.517h-1.104V149.847z"/>
		<path fill="#C73A22" d="M397.414,159.395l-1.246-4.087h-6.259l-1.245,4.087h-3.923l6.06-17.24h4.451l6.082,17.24H397.414z
			 M395.3,152.255c-1.152-3.703-1.799-5.797-1.944-6.283c-0.146-0.485-0.249-0.869-0.311-1.151c-0.259,1.002-0.999,3.48-2.22,7.434
			H395.3z"/>
		<path fill="#C73A22" d="M407.138,152.807v6.588h-3.641v-17.17h5.003c2.333,0,4.06,0.425,5.18,1.274
			c1.119,0.85,1.679,2.14,1.679,3.87c0,1.01-0.278,1.908-0.833,2.695c-0.556,0.786-1.344,1.403-2.361,1.849
			c2.584,3.86,4.267,6.354,5.05,7.481h-4.04l-4.098-6.588H407.138z M407.138,149.847h1.174c1.151,0,2-0.192,2.549-0.575
			c0.548-0.383,0.821-0.986,0.821-1.809c0-0.814-0.28-1.393-0.839-1.738c-0.56-0.344-1.427-0.517-2.602-0.517h-1.104V149.847z"/>
		<path fill="#C73A22" d="M429.264,159.395h-9.888v-17.17h9.888v2.983h-6.248v3.77h5.813v2.983h-5.813v4.427h6.248V159.395z"/>
		<path fill="#C73A22" d="M439.094,159.395v-17.17h3.641v17.17H439.094z"/>
		<path fill="#C73A22" d="M462.288,159.395h-4.626l-7.469-12.989h-0.106c0.148,2.294,0.223,3.93,0.223,4.909v8.08h-3.253v-17.17
			h4.592l7.457,12.86h0.082c-0.116-2.231-0.176-3.809-0.176-4.733v-8.127h3.276V159.395z"/>
		<path fill="#C73A22" d="M464.814,164.445c-0.823,0-1.539-0.086-2.15-0.258v-3.03c0.627,0.156,1.198,0.235,1.715,0.235
			c0.799,0,1.37-0.249,1.715-0.746c0.345-0.497,0.517-1.274,0.517-2.331v-16.089h3.641v16.066c0,2.004-0.458,3.531-1.375,4.58
			C467.962,163.92,466.607,164.445,464.814,164.445z"/>
		<path fill="#C73A22" d="M488.548,142.225v11.11c0,1.268-0.284,2.38-0.851,3.335c-0.568,0.955-1.388,1.687-2.461,2.196
			c-1.073,0.509-2.341,0.763-3.805,0.763c-2.208,0-3.923-0.566-5.144-1.697c-1.221-1.132-1.832-2.68-1.832-4.645v-11.063h3.629
			v10.511c0,1.323,0.266,2.294,0.799,2.913c0.532,0.619,1.413,0.928,2.642,0.928c1.19,0,2.053-0.311,2.589-0.934
			c0.536-0.622,0.804-1.599,0.804-2.93v-10.487H488.548z"/>
		<path fill="#C73A22" d="M496.393,152.807v6.588h-3.641v-17.17h5.003c2.333,0,4.06,0.425,5.18,1.274
			c1.119,0.85,1.679,2.14,1.679,3.87c0,1.01-0.278,1.908-0.833,2.695c-0.556,0.786-1.344,1.403-2.361,1.849
			c2.584,3.86,4.267,6.354,5.05,7.481h-4.04l-4.098-6.588H496.393z M496.393,149.847h1.174c1.151,0,2-0.192,2.549-0.575
			c0.548-0.383,0.821-0.986,0.821-1.809c0-0.814-0.28-1.393-0.839-1.738c-0.56-0.344-1.427-0.517-2.602-0.517h-1.104V149.847z"/>
		<path fill="#C73A22" d="M518.519,159.395h-9.888v-17.17h9.888v2.983h-6.248v3.77h5.813v2.983h-5.813v4.427h6.248V159.395z"/>
		<path fill="#C73A22" d="M536.346,150.646c0,2.827-0.804,4.991-2.413,6.494c-1.609,1.503-3.933,2.255-6.97,2.255h-4.862v-17.17
			h5.391c2.803,0,4.979,0.74,6.53,2.22C535.571,145.925,536.346,147.992,536.346,150.646z M532.565,150.74
			c0-3.688-1.629-5.531-4.885-5.531h-1.938v11.18h1.562C530.811,156.389,532.565,154.506,532.565,150.74z"/>
	</g>
</g>
<path fill="#C73A22" d="M631.575,59.376c0,4.046-5.169,7.327-11.545,7.327H25.853c-6.376,0-11.545-3.28-11.545-7.327V26.409
	c0-4.046,5.169-7.327,11.545-7.327H620.03c6.376,0,11.545,3.28,11.545,7.327V59.376z"/>
<line fill="none" stroke="#FFFFFF" stroke-width="8" stroke-miterlimit="10" x1="50.684" y1="42.893" x2="595.199" y2="42.893"/>
<circle fill="#D58C84" cx="50.684" cy="42.893" r="10.585"/>
<circle fill="#D58C84" cx="361.835" cy="42.893" r="10.585"/>
<circle fill="#FFFFFF" cx="595.199" cy="42.893" r="10.585"/>
<circle fill="#D58C84" cx="206.26" cy="42.893" r="10.585"/>
<circle fill="#D58C84" cx="517.412" cy="42.893" r="10.585"/>
<path fill="none" stroke="#D58C84" stroke-width="8" stroke-miterlimit="10" d="M50.684,42.893h509.889"/>
<circle fill="#D58C84" cx="284.048" cy="42.893" r="10.585"/>
<circle fill="#D58C84" cx="128.472" cy="42.893" r="10.585"/>
<circle fill="#D58C84" cx="439.624" cy="42.893" r="10.585"/>
<path fill="none" stroke="#C73A22" stroke-width="0.9621" stroke-miterlimit="10" d="M311.835,405.366"/>
<path d="M232.492,487.142c0,0,9.621-6.734,25.014-12.026"/>
<path d="M314.908,449.866c0,0,19.564-10.828,30.147-11.309"/>
<path d="M397.109,423.645c0,0,25.873-6.853,36.937-5.351"/>
<path d="M240.619,371.373c0,0-3.316,1.764,4.38-12.186"/>
<path d="M255.582,344.756c0,0,5.821-9.307,11.329-11.869"/>
<path d="M384.742,347.642c0,0,10.759-4.329,13.436-12.026"/>
<path d="M401.336,323.109c0,0,4.741-4.329,5.016-8.178"/>
<path d="M411.259,301.222c0,0,2.583-4.329,2.824-6.253"/>
</svg>
