<?xml version="1.0" encoding="utf-8"?>
<!-- Generator: Adobe Illustrator 17.0.0, SVG Export Plug-In . SVG Version: 6.00 Build 0)  -->
<!DOCTYPE svg PUBLIC "-//W3C//DTD SVG 1.1//EN" "http://www.w3.org/Graphics/SVG/1.1/DTD/svg11.dtd">
<svg version="1.1" id="Layer_1" xmlns="http://www.w3.org/2000/svg" xmlns:xlink="http://www.w3.org/1999/xlink" x="0px" y="0px"
	 width="640px" height="496.219px" viewBox="0 0 640 496.219" enable-background="new 0 0 640 496.219" xml:space="preserve">
<g>
	<g>
		<line fill="none" stroke="#000000" stroke-miterlimit="10" x1="166.147" y1="451.74" x2="487.147" y2="451.74"/>
		<g>
			<g>
				<line fill="none" stroke="#000000" stroke-miterlimit="10" x1="166.147" y1="451.74" x2="166.147" y2="444.315"/>
				<line fill="none" stroke="#000000" stroke-miterlimit="10" x1="326.647" y1="451.74" x2="326.647" y2="444.315"/>
				<line fill="none" stroke="#000000" stroke-miterlimit="10" x1="487.147" y1="451.74" x2="487.147" y2="444.315"/>
			</g>
			<g>
			</g>
		</g>
	</g>
	<g>
		<g>
			<text transform="matrix(1 0 0 1 140.3599 457.3822)" font-family="'OpenSans-ExtraboldItalic'" font-size="10">10%</text>
			<text transform="matrix(1 0 0 1 140.3599 358.3822)" font-family="'OpenSans-ExtraboldItalic'" font-size="10">15%</text>
			<text transform="matrix(1 0 0 1 140.3599 259.3822)" font-family="'OpenSans-ExtraboldItalic'" font-size="10">20%</text>
			<text transform="matrix(1 0 0 1 140.3599 160.3822)" font-family="'OpenSans-ExtraboldItalic'" font-size="10">25%</text>
		</g>
		<line fill="none" stroke="#000000" stroke-miterlimit="10" x1="166.147" y1="451.74" x2="166.147" y2="154.74"/>
		<g>
			<g>
				<line fill="none" stroke="#000000" stroke-miterlimit="10" x1="166.147" y1="451.74" x2="174.172" y2="451.74"/>
				<line fill="none" stroke="#000000" stroke-miterlimit="10" x1="166.147" y1="352.74" x2="174.172" y2="352.74"/>
				<line fill="none" stroke="#000000" stroke-miterlimit="10" x1="166.147" y1="253.74" x2="174.172" y2="253.74"/>
				<line fill="none" stroke="#000000" stroke-miterlimit="10" x1="166.147" y1="154.74" x2="174.172" y2="154.74"/>
			</g>
			<g>
			</g>
		</g>
	</g>
	<g>
		<g>
			<g>
				
					<line fill="none" stroke="#B21900" stroke-width="2" stroke-linecap="round" stroke-miterlimit="10" x1="406.897" y1="406.2" x2="246.397" y2="243.84"/>
			</g>
		</g>
	</g>
	<g>
		<g>
			<g>
				<rect x="243.397" y="240.84" fill="#B21900" width="6" height="6"/>
			</g>
		</g>
	</g>
	<g>
		<text transform="matrix(1 0 0 1 389.4399 467.6654)" font-family="'OpenSans-ExtraboldItalic'" font-size="15.0469">2016</text>
		<text transform="matrix(1 0 0 1 228.9399 467.6654)" font-family="'OpenSans-ExtraboldItalic'" font-size="15.0469">1985</text>
	</g>
</g>
<g>
	<path fill="#B21900" d="M258.598,120.702l-2.526,11.832c-0.499,2.379-1.451,4.137-2.856,5.275
		c-1.405,1.138-3.313,1.707-5.726,1.707c-1.134,0-2.135-0.232-3.003-0.698c-0.867-0.465-1.535-1.117-2.006-1.955
		c-0.469-0.838-0.704-1.772-0.704-2.806c0-0.541,0.051-1.087,0.152-1.638l2.526-11.718h4.964l-2.476,11.591
		c-0.118,0.576-0.178,1.063-0.178,1.46c0,1.075,0.512,1.612,1.536,1.612c0.796,0,1.42-0.272,1.872-0.818
		c0.453-0.546,0.798-1.382,1.035-2.508l2.425-11.337H258.598z"/>
	<path fill="#B21900" d="M275.165,139.262h-5.776l-3.669-13.051h-0.102c-0.245,2.463-0.486,4.232-0.724,5.307l-1.638,7.744h-4.418
		l3.923-18.561h5.776l3.631,12.479h0.114c0.245-1.997,0.486-3.567,0.724-4.71l1.663-7.77h4.418L275.165,139.262z"/>
	<path fill="#B21900" d="M279.354,139.262l3.923-18.561h5.04l-3.923,18.561H279.354z"/>
	<path fill="#B21900" d="M299.578,120.41c2.2,0,3.912,0.629,5.136,1.886c1.223,1.257,1.834,3.011,1.834,5.262
		c0,2.252-0.421,4.311-1.264,6.177c-0.842,1.866-2.003,3.296-3.484,4.291c-1.481,0.994-3.199,1.491-5.154,1.491
		c-2.276,0-4.035-0.63-5.275-1.892c-1.239-1.261-1.859-3.013-1.859-5.256c0-2.242,0.436-4.304,1.308-6.183
		c0.872-1.879,2.059-3.312,3.562-4.297C295.882,120.903,297.614,120.41,299.578,120.41z M301.533,127.608
		c0-0.965-0.203-1.72-0.609-2.266s-0.994-0.819-1.765-0.819c-0.838,0-1.608,0.355-2.311,1.066s-1.264,1.688-1.682,2.933
		c-0.42,1.244-0.629,2.519-0.629,3.821c0,2.049,0.847,3.072,2.539,3.072c0.804,0,1.551-0.351,2.24-1.054
		c0.69-0.702,1.232-1.65,1.625-2.844C301.337,130.325,301.533,129.022,301.533,127.608z"/>
	<path fill="#B21900" d="M324.093,139.262h-5.776l-3.669-13.051h-0.102c-0.245,2.463-0.486,4.232-0.724,5.307l-1.638,7.744h-4.418
		l3.923-18.561h5.776l3.631,12.479h0.114c0.245-1.997,0.486-3.567,0.724-4.71l1.663-7.77h4.418L324.093,139.262z"/>
	<path fill="#B21900" d="M351.616,127.722c0,2.37-0.419,4.425-1.257,6.164s-2.055,3.07-3.65,3.992
		c-1.595,0.923-3.484,1.384-5.668,1.384h-5.979l3.923-18.561h5.281c2.336,0,4.145,0.611,5.428,1.835
		C350.974,123.759,351.616,125.488,351.616,127.722z M341.79,135.149c0.931,0,1.763-0.296,2.495-0.889
		c0.731-0.592,1.301-1.437,1.707-2.532c0.406-1.097,0.609-2.347,0.609-3.752c0-1.058-0.229-1.859-0.686-2.405
		s-1.096-0.819-1.917-0.819h-0.901l-2.184,10.397H341.79z"/>
	<path fill="#B21900" d="M363.867,139.262h-11.02l3.923-18.561h11.02l-0.825,4.024h-6.056l-0.597,2.92h5.637l-0.914,4.024h-5.637
		l-0.724,3.504h6.056L363.867,139.262z"/>
	<path fill="#B21900" d="M383.786,139.262h-5.776l-3.669-13.051h-0.102c-0.245,2.463-0.486,4.232-0.724,5.307l-1.638,7.744h-4.418
		l3.923-18.561h5.776l3.631,12.479h0.114c0.245-1.997,0.486-3.567,0.724-4.71l1.663-7.77h4.418L383.786,139.262z"/>
	<path fill="#B21900" d="M399.985,133.562c0,1.879-0.622,3.341-1.866,4.387c-1.244,1.045-2.979,1.567-5.205,1.567
		c-0.931,0-1.812-0.104-2.641-0.311c-0.829-0.208-1.545-0.51-2.146-0.908v-4.443c0.711,0.449,1.525,0.825,2.444,1.13
		c0.918,0.305,1.749,0.457,2.494,0.457c0.626,0,1.101-0.131,1.422-0.394c0.321-0.262,0.482-0.635,0.482-1.117
		c0-0.229-0.051-0.442-0.152-0.641c-0.102-0.199-0.245-0.398-0.432-0.597c-0.187-0.199-0.686-0.637-1.498-1.314
		c-0.99-0.795-1.71-1.607-2.158-2.438c-0.448-0.829-0.673-1.739-0.673-2.729c0-1.108,0.277-2.105,0.831-2.989
		c0.555-0.885,1.338-1.57,2.35-2.057c1.011-0.487,2.143-0.73,3.396-0.73c2.022,0,3.843,0.453,5.459,1.358l-1.714,3.771
		c-1.447-0.744-2.679-1.117-3.694-1.117c-0.542,0-0.958,0.119-1.251,0.355c-0.291,0.237-0.438,0.584-0.438,1.041
		c0,0.415,0.142,0.802,0.426,1.162c0.283,0.359,0.822,0.84,1.618,1.44c0.999,0.736,1.739,1.511,2.222,2.323
		S399.985,132.513,399.985,133.562z"/>
	<path fill="#B21900" d="M402.22,139.262l3.923-18.561h5.04l-3.923,18.561H402.22z"/>
	<path fill="#B21900" d="M419.015,139.262h-4.964l3.009-14.46h-4.024l0.876-4.101h13.051l-0.901,4.101h-4.037L419.015,139.262z"/>
	<path fill="#B21900" d="M433.742,127.583l3.961-6.881h5.535l-7.77,11.362l-1.536,7.198h-4.964l1.523-7.198l-3.009-11.362h5.116
		L433.742,127.583z"/>
</g>
<g>
	<path d="M266.881,151.018h3.524c1.588,0,2.754,0.27,3.498,0.809s1.116,1.354,1.116,2.443c0,0.744-0.228,1.363-0.681,1.858
		c-0.455,0.495-1.118,0.813-1.991,0.954v0.053c1.025,0.152,1.78,0.476,2.263,0.971c0.484,0.495,0.726,1.186,0.726,2.07
		c0,1.184-0.393,2.095-1.178,2.733s-1.898,0.958-3.34,0.958h-3.938V151.018z M267.777,156.74h2.83c1.207,0,2.084-0.201,2.632-0.603
		s0.822-1.029,0.822-1.885s-0.31-1.477-0.928-1.863s-1.539-0.58-2.764-0.58h-2.593V156.74z M267.777,157.531v5.546h3.023
		c2.379,0,3.568-0.967,3.568-2.9c0-1.764-1.254-2.646-3.762-2.646H267.777z"/>
	<path d="M282.559,158.049l3.762-7.031h0.967l-4.28,7.884v4.966h-0.923v-4.896l-4.298-7.954h1.028L282.559,158.049z"/>
	<path d="M304.397,154.71c0,1.242-0.422,2.194-1.266,2.856s-2.039,0.993-3.586,0.993h-1.986v5.309h-0.896v-12.85h3.146
		C302.868,151.018,304.397,152.249,304.397,154.71z M297.559,157.786h1.767c1.447,0,2.493-0.239,3.138-0.717
		s0.967-1.252,0.967-2.324c0-0.99-0.305-1.725-0.914-2.202s-1.553-0.716-2.83-0.716h-2.127V157.786z"/>
	<path d="M315.654,163.868h-7.022v-12.85h7.022v0.826h-6.126v4.86h5.783v0.826h-5.783v5.511h6.126V163.868z"/>
	<path d="M320.9,158.269v5.599h-0.896v-12.85h3.059c1.594,0,2.771,0.294,3.533,0.883s1.143,1.476,1.143,2.659
		c0,0.861-0.228,1.588-0.681,2.18c-0.455,0.592-1.145,1.017-2.07,1.274l3.489,5.854h-1.072l-3.313-5.599H320.9z M320.9,157.496
		h2.452c1.084,0,1.925-0.242,2.522-0.726s0.896-1.196,0.896-2.14c0-0.979-0.293-1.69-0.879-2.136s-1.541-0.668-2.865-0.668H320.9
		V157.496z"/>
	<path d="M337.624,151.642c-1.611,0-2.88,0.516-3.806,1.547s-1.389,2.443-1.389,4.236c0,1.834,0.437,3.258,1.31,4.271
		s2.121,1.521,3.744,1.521c1.078,0,2.068-0.138,2.971-0.413v0.791c-0.85,0.299-1.91,0.448-3.182,0.448
		c-1.805,0-3.226-0.583-4.263-1.749s-1.556-2.795-1.556-4.887c0-1.307,0.247-2.458,0.743-3.454c0.494-0.996,1.206-1.766,2.135-2.308
		s2.009-0.813,3.239-0.813c1.254,0,2.376,0.234,3.366,0.703l-0.36,0.809C339.639,151.877,338.655,151.642,337.624,151.642z"/>
	<path d="M351.782,163.868h-7.022v-12.85h7.022v0.826h-6.126v4.86h5.783v0.826h-5.783v5.511h6.126V163.868z"/>
	<path d="M365.473,163.868h-0.905l-7.611-11.408h-0.07c0.07,1.359,0.105,2.385,0.105,3.076v8.332h-0.861v-12.85h0.896l7.603,11.391
		h0.053c-0.053-1.055-0.079-2.057-0.079-3.006v-8.385h0.87V163.868z"/>
	<path d="M373.901,163.868h-0.905v-12.006h-4.175v-0.844h9.255v0.844h-4.175V163.868z"/>
	<path d="M387.611,159.333h-5.221l-1.793,4.535h-0.993l5.168-12.902h0.571l5.063,12.902h-1.011L387.611,159.333z M382.716,158.524
		h4.597l-1.749-4.632c-0.146-0.363-0.322-0.867-0.527-1.512c-0.158,0.563-0.331,1.072-0.519,1.529L382.716,158.524z"/>
	<path d="M398.719,157.39h4.737v5.862c-1.242,0.527-2.64,0.791-4.192,0.791c-2.027,0-3.582-0.573-4.662-1.719
		c-1.082-1.146-1.622-2.767-1.622-4.864c0-1.307,0.269-2.466,0.804-3.477c0.537-1.011,1.304-1.791,2.303-2.342
		s2.146-0.826,3.441-0.826c1.4,0,2.657,0.258,3.771,0.773l-0.36,0.809c-1.113-0.516-2.268-0.773-3.463-0.773
		c-1.693,0-3.037,0.522-4.029,1.568c-0.994,1.046-1.49,2.457-1.49,4.232c0,1.934,0.472,3.388,1.415,4.363s2.329,1.464,4.157,1.464
		c1.184,0,2.188-0.167,3.015-0.501v-4.518h-3.823V157.39z"/>
	<path d="M415.144,163.868h-7.022v-12.85h7.022v0.826h-6.126v4.86h5.783v0.826h-5.783v5.511h6.126V163.868z"/>
</g>
<path fill="#B21900" d="M397.147,405.74"/>
<polygon fill="#B21900" points="399.647,408.74 412.147,411.74 409.147,400.24 "/>
<g>
	<path fill="#B21900" d="M266.132,245.658h-8.833l0.466-2.25l4.245-3.832c1.453-1.295,2.18-2.353,2.18-3.173
		c0-0.287-0.076-0.502-0.229-0.646s-0.346-0.216-0.58-0.216c-0.703,0-1.526,0.431-2.47,1.292l-1.635-2.268
		c1.371-1.295,2.956-1.942,4.755-1.942c1.072,0,1.937,0.292,2.593,0.875s0.984,1.372,0.984,2.368c0,0.891-0.255,1.726-0.765,2.505
		s-1.383,1.702-2.619,2.769l-1.802,1.547v0.105h4.307L266.132,245.658z"/>
	<path fill="#B21900" d="M278.41,237.018c0,1.746-0.249,3.298-0.747,4.654s-1.187,2.389-2.065,3.098s-1.898,1.063-3.059,1.063
		c-1.23,0-2.162-0.369-2.795-1.107s-0.949-1.79-0.949-3.155c0-1.729,0.249-3.291,0.747-4.688s1.187-2.46,2.065-3.187
		s1.898-1.09,3.059-1.09c0.791,0,1.466,0.184,2.026,0.55c0.559,0.366,0.985,0.877,1.278,1.533S278.41,236.122,278.41,237.018z
		 M274.27,235.383c-0.322,0-0.645,0.325-0.967,0.976s-0.583,1.477-0.782,2.479s-0.299,1.937-0.299,2.804
		c0,0.492,0.044,0.853,0.132,1.081s0.264,0.343,0.527,0.343c0.34,0,0.666-0.276,0.98-0.83c0.313-0.554,0.58-1.332,0.799-2.334
		c0.221-1.002,0.33-1.986,0.33-2.953c0-0.498-0.055-0.883-0.162-1.155C274.72,235.52,274.534,235.383,274.27,235.383z"/>
	<path fill="#B21900" d="M278.682,244.542c0-0.639,0.19-1.14,0.571-1.503s0.905-0.545,1.573-0.545c0.492,0,0.879,0.117,1.16,0.352
		s0.422,0.571,0.422,1.011c0,0.691-0.176,1.201-0.527,1.529s-0.908,0.492-1.67,0.492c-0.457,0-0.826-0.108-1.107-0.325
		S278.682,244.999,278.682,244.542z"/>
	<path fill="#B21900" d="M289.95,237.238c1.061,0,1.921,0.345,2.579,1.033c0.66,0.688,0.989,1.615,0.989,2.781
		c0,1.529-0.472,2.709-1.415,3.538s-2.309,1.243-4.096,1.243c-0.756,0-1.473-0.064-2.148-0.193c-0.678-0.129-1.174-0.308-1.49-0.536
		v-2.848c0.463,0.264,0.993,0.471,1.591,0.62s1.137,0.224,1.617,0.224c1.623,0,2.435-0.563,2.435-1.688
		c0-0.445-0.148-0.806-0.443-1.081c-0.297-0.275-0.696-0.413-1.2-0.413c-0.311,0-0.636,0.029-0.976,0.088s-0.609,0.123-0.809,0.193
		l-1.072-0.809l1.89-6.583h7.146l-0.598,2.839h-4.14l-0.519,1.626C289.496,237.25,289.716,237.238,289.95,237.238z"/>
	<path fill="#B21900" d="M302.035,235.454c0,0.967-0.166,1.854-0.496,2.663c-0.332,0.809-0.795,1.44-1.389,1.895
		c-0.596,0.454-1.271,0.681-2.026,0.681c-0.932,0-1.629-0.244-2.092-0.733s-0.694-1.188-0.694-2.097c0-1.014,0.158-1.92,0.475-2.72
		s0.77-1.42,1.357-1.859c0.59-0.439,1.285-0.659,2.088-0.659c0.861,0,1.539,0.249,2.035,0.747
		C301.787,233.869,302.035,234.563,302.035,235.454z M308.961,232.808l-9.501,12.85h-2.61l9.571-12.85H308.961z M299.012,234.751
		c-0.293,0-0.553,0.322-0.777,0.967c-0.227,0.645-0.339,1.348-0.339,2.109c0,0.492,0.155,0.738,0.466,0.738
		c0.305,0,0.566-0.323,0.787-0.971c0.219-0.647,0.329-1.35,0.329-2.105c0-0.252-0.035-0.438-0.105-0.558
		S299.181,234.751,299.012,234.751z M310.622,240.604c0,0.961-0.164,1.846-0.492,2.654s-0.791,1.44-1.389,1.895
		s-1.274,0.681-2.03,0.681c-0.932,0-1.629-0.243-2.092-0.729s-0.694-1.184-0.694-2.092c0-1.014,0.158-1.92,0.475-2.72
		s0.769-1.42,1.358-1.859c0.588-0.439,1.284-0.659,2.087-0.659c0.861,0,1.539,0.249,2.034,0.747S310.622,239.714,310.622,240.604z
		 M307.598,239.901c-0.293,0-0.553,0.322-0.778,0.967s-0.338,1.348-0.338,2.109c0,0.492,0.155,0.738,0.466,0.738
		c0.305,0,0.567-0.323,0.786-0.971c0.221-0.647,0.33-1.35,0.33-2.105c0-0.258-0.035-0.445-0.105-0.563
		S307.768,239.901,307.598,239.901z"/>
</g>
<g>
	<path fill="#B21900" d="M421.779,404.023h-3.419l1.529-7.022c0.164-0.773,0.387-1.523,0.668-2.25
		c-0.457,0.398-0.841,0.7-1.151,0.905l-1.784,1.099l-1.327-2.215l5.449-3.366h2.733L421.779,404.023z"/>
	<path fill="#B21900" d="M433.75,404.023h-8.833l0.466-2.25l4.245-3.832c1.453-1.295,2.18-2.353,2.18-3.173
		c0-0.287-0.076-0.503-0.229-0.646s-0.346-0.215-0.58-0.215c-0.703,0-1.526,0.431-2.47,1.292l-1.635-2.268
		c1.371-1.295,2.956-1.942,4.755-1.942c1.072,0,1.937,0.291,2.593,0.874s0.984,1.373,0.984,2.369c0,0.891-0.255,1.726-0.765,2.505
		s-1.383,1.702-2.619,2.769l-1.802,1.547v0.105h4.307L433.75,404.023z"/>
	<path fill="#B21900" d="M435.859,402.907c0-0.639,0.19-1.14,0.571-1.503s0.905-0.545,1.573-0.545c0.492,0,0.879,0.117,1.16,0.352
		s0.422,0.571,0.422,1.011c0,0.691-0.176,1.201-0.527,1.529s-0.908,0.492-1.67,0.492c-0.457,0-0.826-0.108-1.107-0.325
		S435.859,403.364,435.859,402.907z"/>
	<path fill="#B21900" d="M451.266,394.03c0,0.867-0.263,1.585-0.787,2.153s-1.264,0.949-2.219,1.143v0.07
		c0.756,0.146,1.348,0.473,1.775,0.979s0.642,1.13,0.642,1.868c0,1.266-0.521,2.241-1.564,2.927s-2.455,1.028-4.236,1.028
		c-0.68,0-1.317-0.061-1.911-0.181c-0.596-0.12-1.086-0.291-1.473-0.514v-2.918c0.979,0.586,2.083,0.879,3.313,0.879
		c0.809,0,1.413-0.137,1.815-0.409c0.4-0.272,0.602-0.663,0.602-1.173c0-0.316-0.079-0.554-0.237-0.712s-0.41-0.274-0.756-0.348
		s-0.832-0.109-1.459-0.109h-0.738l0.466-2.558h0.686c0.861,0,1.532-0.137,2.013-0.409s0.721-0.646,0.721-1.12
		c0-0.27-0.105-0.486-0.316-0.65s-0.501-0.246-0.87-0.246c-0.686,0-1.477,0.246-2.373,0.738l-1.389-2.18
		c0.738-0.475,1.451-0.811,2.141-1.007c0.688-0.196,1.445-0.294,2.271-0.294c1.178,0,2.119,0.272,2.826,0.817
		C450.913,392.351,451.266,393.092,451.266,394.03z"/>
	<path fill="#B21900" d="M459.212,393.819c0,0.967-0.166,1.854-0.496,2.663c-0.332,0.809-0.795,1.439-1.389,1.894
		c-0.596,0.454-1.271,0.682-2.026,0.682c-0.932,0-1.629-0.245-2.092-0.734s-0.694-1.188-0.694-2.096
		c0-1.014,0.158-1.921,0.475-2.721s0.77-1.419,1.357-1.858c0.59-0.439,1.285-0.659,2.088-0.659c0.861,0,1.539,0.249,2.035,0.747
		C458.964,392.234,459.212,392.928,459.212,393.819z M466.138,391.173l-9.501,12.85h-2.61l9.571-12.85H466.138z M456.188,393.116
		c-0.293,0-0.553,0.322-0.777,0.967c-0.227,0.645-0.339,1.348-0.339,2.109c0,0.492,0.155,0.738,0.466,0.738
		c0.305,0,0.566-0.324,0.787-0.972c0.219-0.647,0.329-1.349,0.329-2.104c0-0.252-0.035-0.438-0.105-0.559
		S456.358,393.116,456.188,393.116z M467.799,398.969c0,0.961-0.164,1.846-0.492,2.654s-0.791,1.439-1.389,1.894
		s-1.274,0.682-2.03,0.682c-0.932,0-1.629-0.243-2.092-0.729s-0.694-1.184-0.694-2.092c0-1.014,0.158-1.921,0.475-2.721
		s0.769-1.419,1.358-1.858c0.588-0.439,1.284-0.659,2.087-0.659c0.861,0,1.539,0.249,2.034,0.747S467.799,398.079,467.799,398.969z
		 M464.775,398.266c-0.293,0-0.553,0.322-0.778,0.967s-0.338,1.348-0.338,2.109c0,0.492,0.155,0.738,0.466,0.738
		c0.305,0,0.567-0.324,0.786-0.972c0.221-0.647,0.33-1.349,0.33-2.104c0-0.258-0.035-0.445-0.105-0.563
		S464.945,398.266,464.775,398.266z"/>
</g>
<path fill="#C73A22" d="M633.482,60.244c0,4.039-5.159,7.313-11.524,7.313H28.857c-6.364,0-11.524-3.274-11.524-7.313V27.337
	c0-4.039,5.159-7.313,11.524-7.313h593.102c6.365,0,11.524,3.274,11.524,7.313V60.244z"/>
<line fill="none" stroke="#FFFFFF" stroke-width="7.6826" stroke-miterlimit="10" x1="53.643" y1="43.79" x2="597.172" y2="43.79"/>
<circle fill="#D58C84" cx="53.643" cy="43.79" r="10.565"/>
<circle fill="#D58C84" cx="364.231" cy="43.79" r="10.565"/>
<circle fill="#D58C84" cx="597.172" cy="43.79" r="10.565"/>
<circle fill="#D58C84" cx="208.937" cy="43.79" r="10.565"/>
<circle fill="#D58C84" cx="519.525" cy="43.79" r="10.565"/>
<path fill="none" stroke="#D58C84" stroke-width="8" stroke-miterlimit="10" d="M53.643,43.79h545.407"/>
<circle fill="#D58C84" cx="286.584" cy="43.79" r="10.565"/>
<circle fill="#D58C84" cx="131.29" cy="43.79" r="10.565"/>
<circle fill="#D58C84" cx="441.878" cy="43.79" r="10.565"/>
</svg>
