<?xml version="1.0" encoding="utf-8"?>
<!-- Generator: Adobe Illustrator 17.0.0, SVG Export Plug-In . SVG Version: 6.00 Build 0)  -->
<!DOCTYPE svg PUBLIC "-//W3C//DTD SVG 1.1//EN" "http://www.w3.org/Graphics/SVG/1.1/DTD/svg11.dtd">
<svg version="1.1" xmlns="http://www.w3.org/2000/svg" xmlns:xlink="http://www.w3.org/1999/xlink" x="0px" y="0px" width="239px"
	 height="199px" viewBox="1036 0 239 199" enable-background="new 1036 0 239 199" xml:space="preserve">
<g id="Layer_1">
	<path fill="#7CBCD8" d="M1158.553,81.422c0,0,16.666,2.424,12.428,16.979c0,0,7.807-7.797,21.414-9.703
		c0,0,41.044-0.866,43.944-20.273c0,0,11.376-40.718-29.445-45.57c0,0-68.112-4.678-66.628,31.535"/>
	<path fill="#A89B67" d="M1084.555,85.398c0,0,4.158,33.73,37.888,41.585c0,0,0.924,4.621-3.696,10.627c0,0,16.172-3.234,24.027,0
		c0,0-3.696-11.089,0-13.862c0,0,16.634-6.469,17.096-34.654c0,0,1.848-12.475-12.013-31.42L1084.555,85.398z"/>
	<path fill="#3D310C" d="M1084.555,85.843c0,0,5.746,4.96,8.398,0.982c0,0,4.35,1.902,3.831-2.505c0,0,6.041,2.505,6.335-2.063
		c0,0,3.239,3.489,3.536-1.768c0,0,5.82,0.368,6.041-2.947c0,0,3.178-0.801,3.767-3.767c0,0,3.438-0.077,2.039-3.245
		L1084.555,85.843z"/>
	<path fill="none" stroke="#3D310C" stroke-width="0.515" stroke-miterlimit="10" d="M1101.696,91.925c0,0-5.705-4.158-3.453,5.718"
		/>
	<path fill="none" stroke="#3D310C" stroke-width="0.515" stroke-miterlimit="10" d="M1148.838,85.687c0,0,5.025,7.451,4.678,9.183
		c0,0-3.119,2.253-5.891,2.079"/>
	<path fill="#FFFEFA" d="M1148.838,108.386c0,0-6.498-6.324-20.099,0c0,0-6.064,4.678,2.079,3.465
		C1130.818,111.851,1147.019,110.205,1148.838,108.386z"/>
	<path d="M1123.695,75.099c0,0-3.804,8.573,1.733,7.104c1.603-0.425,4.505-2.946,2.252-6.238
		C1127.68,75.965,1125.688,73.106,1123.695,75.099z"/>
	<path d="M1140.329,75.272c0,0,0.693,5.025,3.725,3.725c0,0,1.993-0.805,0-4.604C1144.054,74.393,1141.505,71.25,1140.329,75.272z"
		/>
	
		<line fill="none" stroke="#000000" stroke-width="0.6931" stroke-miterlimit="10" x1="1120.897" y1="76.218" x2="1124.314" y2="78.382"/>
	
		<line fill="none" stroke="#000000" stroke-width="0.6931" stroke-miterlimit="10" x1="1122.605" y1="73.224" x2="1124.314" y2="77.3"/>
	
		<line fill="none" stroke="#000000" stroke-width="0.6931" stroke-miterlimit="10" x1="1126.467" y1="73.224" x2="1126.467" y2="76.218"/>
	
		<line fill="none" stroke="#000000" stroke-width="0.6931" stroke-miterlimit="10" x1="1129.067" y1="76.218" x2="1126.467" y2="77.3"/>
	
		<line fill="none" stroke="#000000" stroke-width="0.6931" stroke-miterlimit="10" x1="1138.596" y1="74.393" x2="1141.888" y2="76.218"/>
	
		<line fill="none" stroke="#000000" stroke-width="0.6931" stroke-miterlimit="10" x1="1140.849" y1="71.991" x2="1141.888" y2="75.262"/>
	
		<line fill="none" stroke="#000000" stroke-width="0.6931" stroke-miterlimit="10" x1="1143.794" y1="71.991" x2="1142.634" y2="75.262"/>
	
		<line fill="none" stroke="#000000" stroke-width="0.6931" stroke-miterlimit="10" x1="1144.94" y1="73.507" x2="1143.794" y2="76.218"/>
	<path fill="#6C9B53" d="M1084.555,86.727l92.179-36.733c0,0,0.52-4.678-1.733-5.718c-2.253-1.04-0.433-0.433-0.433-0.433
		l-90.013,38.379V86.727z"/>
	<path fill="#6C9B53" d="M1147.625,56.405c0,0-13.168-25.471-38.639-15.074c0,0-27.377,12.822-24.431,40.892"/>
	
		<rect x="1043.827" y="9.095" fill="none" stroke="#808184" stroke-width="1.3189" stroke-miterlimit="10" width="223.122" height="182.3"/>
	<rect x="1044.051" y="131.26" fill="#808184" width="223.122" height="60.645"/>
	<g>
		<path fill="#FFFFFF" d="M1089.937,163.991l0.352-0.914l0.826-2.039l2.944-6.785h2.953v6.961c0,0.914-0.076,1.84-0.229,2.777
			c0.059-0.164,0.448-1.178,1.169-3.041l2.663-6.697h3.401l-5.581,12.85h-4.052v-5.449c0-0.908,0.038-1.857,0.114-2.848
			c-0.193,0.779-0.539,1.802-1.037,3.067l-2.224,5.229h-3.814l-0.431-12.85h3.252l-0.088,6.442
			C1090.121,162.26,1090.048,163.358,1089.937,163.991z"/>
		<path fill="#FFFFFF" d="M1107.058,167.278c-1.225,0-2.17-0.331-2.834-0.993c-0.666-0.662-0.998-1.608-0.998-2.839
			s0.232-2.342,0.699-3.336c0.465-0.992,1.12-1.765,1.964-2.315s1.828-0.826,2.953-0.826c1.225,0,2.169,0.331,2.835,0.993
			c0.664,0.662,0.997,1.608,0.997,2.839s-0.233,2.343-0.698,3.335c-0.467,0.994-1.121,1.766-1.965,2.316
			S1108.183,167.278,1107.058,167.278z M1108.446,159.526c-0.48,0-0.893,0.408-1.234,1.227c-0.344,0.816-0.515,1.753-0.515,2.808
			c0,0.779,0.246,1.169,0.738,1.169c0.475,0,0.888-0.407,1.239-1.222s0.527-1.752,0.527-2.813c0-0.387-0.067-0.678-0.202-0.874
			S1108.681,159.526,1108.446,159.526z"/>
		<path fill="#FFFFFF" d="M1121.331,156.969c0.328,0,0.563,0.023,0.703,0.07l-0.738,3.366c-0.316-0.129-0.677-0.193-1.081-0.193
			c-0.604,0-1.086,0.207-1.445,0.619c-0.361,0.414-0.635,1.045-0.822,1.895l-0.932,4.377h-3.401l2.101-9.958h2.716l-0.158,1.661
			h0.07c0.381-0.656,0.794-1.126,1.239-1.41S1120.61,156.969,1121.331,156.969z"/>
		<path fill="#FFFFFF" d="M1124.337,153.427h3.401l-1.222,5.827c-0.1,0.451-0.299,1.104-0.598,1.96h0.079
			c0.492-0.744,0.94-1.33,1.345-1.758l2.127-2.312h3.885l-4.315,4.5l2.408,5.458h-3.85l-1.222-3.437l-0.888,0.466l-0.606,2.971
			h-3.401L1124.337,153.427z"/>
		<path fill="#FFFFFF" d="M1137.063,167.278c-1.242,0-2.209-0.348-2.9-1.041c-0.691-0.695-1.037-1.66-1.037-2.896
			s0.244-2.352,0.734-3.344c0.488-0.994,1.16-1.746,2.012-2.26c0.854-0.512,1.839-0.769,2.958-0.769
			c1.113,0,1.989,0.252,2.628,0.756s0.958,1.175,0.958,2.013c0,1.178-0.459,2.082-1.376,2.711c-0.917,0.631-2.242,0.945-3.977,0.945
			h-0.519v0.141c0,0.867,0.48,1.301,1.441,1.301c0.463,0,0.917-0.068,1.362-0.207c0.445-0.137,0.952-0.355,1.521-0.654v2.408
			c-0.656,0.334-1.269,0.566-1.837,0.699C1138.464,167.212,1137.808,167.278,1137.063,167.278z M1138.452,159.271
			c-0.357,0-0.691,0.204-1.002,0.61c-0.311,0.408-0.498,0.869-0.563,1.385h0.255c0.639,0,1.14-0.121,1.503-0.365
			c0.363-0.242,0.545-0.563,0.545-0.962c0-0.188-0.059-0.346-0.176-0.475S1138.71,159.271,1138.452,159.271z"/>
		<path fill="#FFFFFF" d="M1150.73,156.969c0.328,0,0.563,0.023,0.703,0.07l-0.738,3.366c-0.316-0.129-0.677-0.193-1.081-0.193
			c-0.604,0-1.086,0.207-1.445,0.619c-0.361,0.414-0.635,1.045-0.822,1.895l-0.932,4.377h-3.401l2.101-9.958h2.716l-0.158,1.661
			h0.07c0.381-0.656,0.794-1.126,1.239-1.41S1150.01,156.969,1150.73,156.969z"/>
		<path fill="#FFFFFF" d="M1158.509,163.648c0,1.166-0.381,2.063-1.143,2.689s-1.857,0.94-3.287,0.94
			c-1.301,0-2.344-0.185-3.129-0.554v-2.733c0.539,0.293,1.04,0.498,1.503,0.615s0.932,0.176,1.406,0.176
			c0.398,0,0.697-0.054,0.896-0.162s0.299-0.26,0.299-0.453c0-0.205-0.076-0.383-0.229-0.531c-0.152-0.15-0.533-0.397-1.143-0.743
			c-0.621-0.34-1.074-0.729-1.357-1.169c-0.285-0.439-0.427-0.976-0.427-1.608c0-1.008,0.354-1.784,1.063-2.329
			s1.717-0.817,3.023-0.817c0.656,0,1.254,0.076,1.793,0.229s1.063,0.387,1.573,0.703l-1.063,2.215
			c-0.387-0.252-0.787-0.452-1.199-0.603c-0.414-0.148-0.77-0.224-1.068-0.224c-0.445,0-0.668,0.199-0.668,0.598
			c0,0.17,0.092,0.319,0.277,0.448c0.184,0.129,0.484,0.296,0.9,0.501C1157.85,161.492,1158.509,162.43,1158.509,163.648z"/>
		<path fill="#FFFFFF" d="M1165.259,154.253l0.07,0.193c-0.539,1.242-1.289,2.646-2.25,4.21h-2.54
			c0.199-0.475,0.396-0.965,0.594-1.472c0.195-0.507,0.552-1.484,1.067-2.932H1165.259z"/>
		<path fill="#FFFFFF" d="M1177.37,163.156c0,1.301-0.431,2.313-1.292,3.036c-0.861,0.725-2.063,1.086-3.604,1.086
			c-0.645,0-1.254-0.072-1.828-0.215c-0.574-0.144-1.069-0.354-1.485-0.629v-3.076c0.492,0.311,1.056,0.571,1.692,0.782
			c0.635,0.211,1.211,0.316,1.727,0.316c0.434,0,0.762-0.091,0.984-0.272s0.334-0.439,0.334-0.773c0-0.158-0.035-0.306-0.105-0.443
			s-0.17-0.275-0.299-0.414c-0.129-0.137-0.475-0.44-1.037-0.909c-0.686-0.551-1.184-1.113-1.494-1.688s-0.466-1.204-0.466-1.89
			c0-0.768,0.191-1.457,0.575-2.07c0.384-0.611,0.926-1.086,1.627-1.424c0.699-0.336,1.483-0.505,2.351-0.505
			c1.4,0,2.66,0.313,3.779,0.94l-1.187,2.61c-1.002-0.516-1.854-0.773-2.558-0.773c-0.375,0-0.663,0.082-0.866,0.246
			c-0.201,0.164-0.303,0.404-0.303,0.721c0,0.287,0.098,0.556,0.295,0.804c0.195,0.25,0.569,0.582,1.12,0.998
			c0.691,0.51,1.204,1.046,1.538,1.608S1177.37,162.43,1177.37,163.156z"/>
		<path fill="#FFFFFF" d="M1183.628,164.545c0.387,0,0.923-0.138,1.608-0.413v2.558c-0.797,0.393-1.793,0.589-2.988,0.589
			c-0.867,0-1.525-0.186-1.973-0.559c-0.449-0.371-0.673-0.982-0.673-1.832c0-0.445,0.07-0.996,0.211-1.652l0.738-3.533h-1.354
			l0.36-1.67l1.916-0.773l1.204-2.109h2.268l-0.431,1.995h2.531l-0.554,2.558h-2.54l-0.738,3.366
			c-0.094,0.451-0.141,0.759-0.141,0.923C1183.074,164.36,1183.259,164.545,1183.628,164.545z"/>
		<path fill="#FFFFFF" d="M1191.441,167.278c-1.225,0-2.17-0.331-2.834-0.993c-0.666-0.662-0.998-1.608-0.998-2.839
			s0.232-2.342,0.699-3.336c0.465-0.992,1.12-1.765,1.964-2.315s1.828-0.826,2.953-0.826c1.225,0,2.169,0.331,2.835,0.993
			c0.664,0.662,0.997,1.608,0.997,2.839s-0.233,2.343-0.698,3.335c-0.467,0.994-1.121,1.766-1.965,2.316
			S1192.566,167.278,1191.441,167.278z M1192.83,159.526c-0.48,0-0.893,0.408-1.234,1.227c-0.344,0.816-0.515,1.753-0.515,2.808
			c0,0.779,0.246,1.169,0.738,1.169c0.475,0,0.888-0.407,1.239-1.222s0.527-1.752,0.527-2.813c0-0.387-0.067-0.678-0.202-0.874
			S1193.064,159.526,1192.83,159.526z"/>
		<path fill="#FFFFFF" d="M1205.715,156.969c0.328,0,0.563,0.023,0.703,0.07l-0.738,3.366c-0.316-0.129-0.677-0.193-1.081-0.193
			c-0.604,0-1.086,0.207-1.445,0.619c-0.361,0.414-0.635,1.045-0.822,1.895l-0.932,4.377h-3.401l2.101-9.958h2.716l-0.158,1.661
			h0.07c0.381-0.656,0.794-1.126,1.239-1.41S1204.994,156.969,1205.715,156.969z"/>
		<path fill="#FFFFFF" d="M1210.338,167.278c-1.242,0-2.209-0.348-2.9-1.041c-0.691-0.695-1.037-1.66-1.037-2.896
			s0.244-2.352,0.734-3.344c0.488-0.994,1.16-1.746,2.012-2.26c0.854-0.512,1.839-0.769,2.958-0.769
			c1.113,0,1.989,0.252,2.628,0.756s0.958,1.175,0.958,2.013c0,1.178-0.459,2.082-1.376,2.711c-0.917,0.631-2.242,0.945-3.977,0.945
			h-0.519v0.141c0,0.867,0.48,1.301,1.441,1.301c0.463,0,0.917-0.068,1.362-0.207c0.445-0.137,0.952-0.355,1.521-0.654v2.408
			c-0.656,0.334-1.269,0.566-1.837,0.699C1211.738,167.212,1211.082,167.278,1210.338,167.278z M1211.727,159.271
			c-0.357,0-0.691,0.204-1.002,0.61c-0.311,0.408-0.498,0.869-0.563,1.385h0.255c0.639,0,1.14-0.121,1.503-0.365
			c0.363-0.242,0.545-0.563,0.545-0.962c0-0.188-0.059-0.346-0.176-0.475S1211.984,159.271,1211.727,159.271z"/>
		<path fill="#FFFFFF" d="M1223.917,163.648c0,1.166-0.381,2.063-1.143,2.689s-1.857,0.94-3.287,0.94
			c-1.301,0-2.344-0.185-3.129-0.554v-2.733c0.539,0.293,1.04,0.498,1.503,0.615s0.932,0.176,1.406,0.176
			c0.398,0,0.697-0.054,0.896-0.162s0.299-0.26,0.299-0.453c0-0.205-0.076-0.383-0.229-0.531c-0.152-0.15-0.533-0.397-1.143-0.743
			c-0.621-0.34-1.074-0.729-1.357-1.169c-0.285-0.439-0.427-0.976-0.427-1.608c0-1.008,0.354-1.784,1.063-2.329
			s1.717-0.817,3.023-0.817c0.656,0,1.254,0.076,1.793,0.229s1.063,0.387,1.573,0.703l-1.063,2.215
			c-0.387-0.252-0.787-0.452-1.199-0.603c-0.414-0.148-0.77-0.224-1.068-0.224c-0.445,0-0.668,0.199-0.668,0.598
			c0,0.17,0.092,0.319,0.277,0.448c0.184,0.129,0.484,0.296,0.9,0.501C1223.258,161.492,1223.917,162.43,1223.917,163.648z"/>
	</g>
</g>
<g id="Layer_3">
</g>
</svg>
