<?xml version="1.0" encoding="utf-8"?>
<!-- Generator: Adobe Illustrator 17.0.0, SVG Export Plug-In . SVG Version: 6.00 Build 0)  -->
<!DOCTYPE svg PUBLIC "-//W3C//DTD SVG 1.1//EN" "http://www.w3.org/Graphics/SVG/1.1/DTD/svg11.dtd">
<svg version="1.1" id="Layer_1" xmlns="http://www.w3.org/2000/svg" xmlns:xlink="http://www.w3.org/1999/xlink" x="0px" y="0px"
	 width="513px" height="99.766px" viewBox="0 0 513 99.766" enable-background="new 0 0 513 99.766" xml:space="preserve">
<rect x="7" y="7.914" fill="#C63C27" width="498" height="86.194"/>
<g>
	<g>
		<path fill="#FFFFFF" d="M119.394,51.925h6.38v7.895c-1.673,0.71-3.555,1.065-5.646,1.065c-2.73,0-4.824-0.771-6.279-2.313
			c-1.457-1.543-2.185-3.727-2.185-6.552c0-1.76,0.362-3.32,1.082-4.681c0.723-1.361,1.756-2.413,3.101-3.155
			s2.891-1.113,4.635-1.113c1.886,0,3.579,0.347,5.078,1.042l-0.485,1.089c-1.499-0.694-3.054-1.042-4.664-1.042
			c-2.281,0-4.09,0.705-5.427,2.114c-1.339,1.409-2.007,3.308-2.007,5.699c0,2.604,0.635,4.564,1.906,5.878
			c1.27,1.314,3.137,1.97,5.599,1.97c1.594,0,2.947-0.225,4.06-0.675v-6.084h-5.149V51.925z"/>
		<path fill="#FFFFFF" d="M142,60.649h-9.458V43.343H142v1.113h-8.25v6.546h7.789v1.113h-7.789v7.422H142V60.649z"/>
		<path fill="#FFFFFF" d="M152.852,60.649h-1.219V44.48h-5.623v-1.136h12.464v1.136h-5.623V60.649z"/>
		<path fill="#FFFFFF" d="M176.699,60.649h-1.219V44.48h-5.623v-1.136h12.464v1.136h-5.623V60.649z"/>
		<path fill="#FFFFFF" d="M199.849,60.649h-1.219v-8.511h-10.109v8.511h-1.207V43.343h1.207v7.682h10.109v-7.682h1.219V60.649z"/>
		<path fill="#FFFFFF" d="M216.632,60.649h-9.458V43.343h9.458v1.113h-8.25v6.546h7.789v1.113h-7.789v7.422h8.25V60.649z"/>
		<path fill="#FFFFFF" d="M232.903,60.649h-1.207V43.343h9.481v1.113h-8.274v7.339h7.812v1.125h-7.812V60.649z"/>
		<path fill="#FFFFFF" d="M259.013,43.343v11.198c0,1.989-0.576,3.543-1.728,4.664c-1.152,1.121-2.758,1.681-4.818,1.681
			c-2.004,0-3.568-0.562-4.694-1.686c-1.123-1.125-1.686-2.694-1.686-4.706v-11.15h1.219v11.198c0,1.665,0.462,2.962,1.385,3.889
			s2.229,1.39,3.918,1.39c1.649,0,2.928-0.455,3.835-1.367c0.908-0.911,1.361-2.177,1.361-3.794V43.343H259.013z"/>
		<path fill="#FFFFFF" d="M266.148,60.649V43.343h1.207v16.169h8.25v1.136H266.148z"/>
		<path fill="#FFFFFF" d="M281.012,60.649V43.343h1.207v16.169h8.25v1.136H281.012z"/>
		<path fill="#FFFFFF" d="M305.807,53.109v7.54h-1.207V43.343h4.119c2.146,0,3.733,0.397,4.758,1.19
			c1.026,0.793,1.539,1.986,1.539,3.58c0,1.16-0.306,2.139-0.917,2.936c-0.613,0.797-1.541,1.369-2.788,1.716l4.699,7.883h-1.444
			l-4.463-7.54H305.807z M305.807,52.067h3.302c1.46,0,2.592-0.325,3.397-0.976c0.805-0.651,1.207-1.612,1.207-2.883
			c0-1.318-0.395-2.277-1.184-2.876s-2.075-0.9-3.859-0.9h-2.865V52.067z"/>
		<path fill="#FFFFFF" d="M330.886,60.649h-9.458V43.343h9.458v1.113h-8.25v6.546h7.789v1.113h-7.789v7.422h8.25V60.649z"/>
		<path fill="#FFFFFF" d="M347.645,48.315c0,1.673-0.568,2.955-1.704,3.847s-2.746,1.338-4.829,1.338h-2.675v7.149h-1.207V43.343
			h4.238C345.585,43.343,347.645,45.001,347.645,48.315z M338.436,52.458h2.379c1.949,0,3.358-0.321,4.226-0.964
			s1.302-1.687,1.302-3.132c0-1.334-0.41-2.321-1.231-2.964c-0.821-0.643-2.091-0.965-3.811-0.965h-2.865V52.458z"/>
		<path fill="#FFFFFF" d="M368.38,51.972c0,2.746-0.687,4.919-2.06,6.517s-3.267,2.396-5.682,2.396c-2.407,0-4.297-0.798-5.67-2.396
			c-1.373-1.598-2.06-3.779-2.06-6.541c0-2.754,0.693-4.922,2.077-6.504c1.386-1.582,3.277-2.374,5.676-2.374
			c2.415,0,4.305,0.796,5.67,2.386C367.698,47.047,368.38,49.218,368.38,51.972z M354.224,51.972c0,2.478,0.552,4.394,1.657,5.747
			c1.105,1.353,2.691,2.029,4.758,2.029c2.083,0,3.675-0.671,4.777-2.012c1.1-1.342,1.651-3.263,1.651-5.765
			c0-2.494-0.551-4.405-1.651-5.734c-1.102-1.33-2.686-1.995-4.753-1.995c-2.06,0-3.648,0.671-4.764,2.012
			C354.781,47.597,354.224,49.503,354.224,51.972z"/>
		<path fill="#FFFFFF" d="M375.989,53.109v7.54h-1.207V43.343h4.119c2.146,0,3.733,0.397,4.758,1.19
			c1.026,0.793,1.539,1.986,1.539,3.58c0,1.16-0.306,2.139-0.917,2.936c-0.613,0.797-1.541,1.369-2.788,1.716l4.699,7.883h-1.444
			l-4.462-7.54H375.989z M375.989,52.067h3.302c1.46,0,2.592-0.325,3.397-0.976c0.805-0.651,1.207-1.612,1.207-2.883
			c0-1.318-0.395-2.277-1.184-2.876c-0.789-0.6-2.075-0.9-3.859-0.9h-2.865V52.067z"/>
		<path fill="#FFFFFF" d="M396.122,60.649h-1.219V44.48h-5.623v-1.136h12.464v1.136h-5.622V60.649z"/>
	</g>
</g>
</svg>
