<?xml version="1.0" encoding="UTF-8" standalone="no"?><!DOCTYPE svg PUBLIC "-//W3C//DTD SVG 1.1//EN" "http://www.w3.org/Graphics/SVG/1.1/DTD/svg11.dtd"><svg width="100%" height="100%" viewBox="0 0 401 401" version="1.1" xmlns="http://www.w3.org/2000/svg" xmlns:xlink="http://www.w3.org/1999/xlink" xml:space="preserve" style="fill-rule:evenodd;clip-rule:evenodd;stroke-miterlimit:10;"><rect id="key-findings" x="0.399" y="0.271" width="400" height="400" style="fill:none;"/><clipPath id="_clip1"><rect x="0.399" y="0.271" width="400" height="400"/></clipPath><g clip-path="url(#_clip1)"><rect x="-2.525" y="311.285" width="402.924" height="88.986" style="fill:#c73d27;"/><g transform="matrix(0.474954,0,0,0.474954,-129.046,-28.1957)"><text x="603.882px" y="788.116px" style="font-family:'OpenSans-Bold', 'Open Sans', sans-serif;font-weight:700;font-size:91.924px;fill:#fff;">Ke<tspan x="717.395px " y="788.116px ">y</tspan></text><text x="495.194px" y="880.04px" style="font-family:'OpenSans-Bold', 'Open Sans', sans-serif;font-weight:700;font-size:91.924px;fill:#fff;">Findings</text></g><g><path d="M299.18,156.896c-1.015,-0.211 -1.989,0.342 -2.174,1.235l-11.931,57.441c-0.186,0.893 0.487,1.788 1.503,1.999l19.898,4.133c1.015,0.211 1.989,-0.342 2.174,-1.235l11.931,-57.441c0.186,-0.893 -0.488,-1.788 -1.503,-1.999l-19.898,-4.133Z" style="fill:#0b3f00;fill-rule:nonzero;"/><path d="M316.989,225.22c-1.173,-0.002 -2.122,-0.724 -2.121,-1.613l0.086,-57.189c0.001,-0.888 0.953,-1.608 2.125,-1.606l22.975,0.035c1.173,0.001 2.122,0.723 2.121,1.612l-0.086,57.189c-0.001,0.888 -0.953,1.608 -2.125,1.606l-22.975,-0.034Z" style="fill:#63b748;fill-rule:nonzero;"/><path d="M292.186,187.814c-0.548,1.037 -0.253,2.267 0.658,2.749l58.634,30.993c0.912,0.481 2.095,0.032 2.643,-1.005l10.736,-20.311c0.548,-1.037 0.253,-2.268 -0.659,-2.75l-58.634,-30.992c-0.911,-0.482 -2.094,-0.032 -2.642,1.005l-10.736,20.311Z" style="fill:#6e9365;fill-rule:nonzero;"/><path d="M283.272,257.382c0.671,1.589 2.348,2.4 3.747,1.81l89.929,-37.975c1.398,-0.591 1.987,-2.358 1.316,-3.948l-13.155,-31.153c-0.672,-1.589 -2.349,-2.4 -3.747,-1.81l-89.93,37.975c-1.398,0.591 -1.987,2.358 -1.316,3.948l13.156,31.153Z" style="fill:#0b3f00;fill-rule:nonzero;"/><path d="M301.568,253.608c-1.102,0.401 -2.281,-0.06 -2.633,-1.028l-22.665,-62.328c-0.352,-0.969 0.256,-2.079 1.357,-2.48l21.592,-7.852c1.101,-0.4 2.281,0.06 2.633,1.029l22.664,62.328c0.353,0.968 -0.255,2.079 -1.357,2.48l-21.591,7.851Z" style="fill:#63b748;fill-rule:nonzero;"/><path d="M369.44,292.466c-0.672,1.59 -2.349,2.401 -3.747,1.811l-89.93,-37.976c-1.398,-0.59 -1.986,-2.358 -1.315,-3.947l13.155,-31.153c0.672,-1.59 2.349,-2.401 3.747,-1.81l89.93,37.975c1.397,0.59 1.986,2.358 1.315,3.948l-13.155,31.152Z" style="fill:#366d29;fill-rule:nonzero;"/><path d="M380.624,227.883c0.547,1.037 0.253,2.268 -0.659,2.75l-58.634,30.992c-0.911,0.482 -2.094,0.032 -2.642,-1.005l-10.736,-20.311c-0.548,-1.037 -0.253,-2.268 0.658,-2.75l58.634,-30.992c0.912,-0.482 2.095,-0.032 2.643,1.005l10.736,20.311Z" style="fill:#6e9365;fill-rule:nonzero;"/><path d="M316.258,274.595c-1.151,-0.224 -1.925,-1.225 -1.729,-2.237l12.63,-65.107c0.196,-1.012 1.289,-1.651 2.44,-1.428l22.554,4.375c1.151,0.224 1.925,1.225 1.729,2.237l-12.631,65.107c-0.196,1.012 -1.288,1.651 -2.439,1.428l-22.554,-4.375Z" style="fill:#63b748;fill-rule:nonzero;"/><path d="M387.009,273.847c0.357,1.688 -0.557,3.311 -2.041,3.625l-95.509,20.191c-1.484,0.314 -2.977,-0.801 -3.334,-2.489l-6.995,-33.085c-0.356,-1.689 0.557,-3.312 2.042,-3.626l95.508,-20.191c1.484,-0.313 2.977,0.801 3.334,2.49l6.995,33.085Z" style="fill:#0b3f00;fill-rule:nonzero;"/><path d="M296.514,272.639l-2.221,0.431l0.141,-8.645l4.896,-0.951l-0.03,1.874l-2.675,0.52l-0.022,1.649l2.476,-0.481l-0.039,1.887l-2.487,0.484l-0.039,3.232Z" style="fill:#fff;fill-rule:nonzero;"/><path d="M304.172,262.398c0.984,-0.192 1.804,-0.059 2.461,0.397c0.657,0.455 1.083,1.187 1.278,2.194c0.196,1.008 0.187,1.965 -0.028,2.873c-0.214,0.908 -0.61,1.65 -1.186,2.223c-0.576,0.573 -1.301,0.945 -2.175,1.115c-1.019,0.198 -1.861,0.069 -2.525,-0.387c-0.665,-0.456 -1.094,-1.186 -1.289,-2.19c-0.195,-1.003 -0.179,-1.963 0.047,-2.879c0.227,-0.917 0.633,-1.661 1.22,-2.233c0.586,-0.571 1.318,-0.942 2.197,-1.113Zm1.5,3.05c-0.084,-0.432 -0.24,-0.752 -0.469,-0.961c-0.229,-0.209 -0.516,-0.28 -0.861,-0.213c-0.374,0.073 -0.688,0.3 -0.941,0.678c-0.252,0.38 -0.418,0.866 -0.497,1.458c-0.079,0.593 -0.063,1.182 0.051,1.764c0.178,0.917 0.645,1.301 1.403,1.154c0.36,-0.07 0.663,-0.292 0.911,-0.666c0.247,-0.374 0.407,-0.845 0.48,-1.413c0.071,-0.569 0.046,-1.168 -0.077,-1.801Z" style="fill:#fff;fill-rule:nonzero;"/><path d="M312.743,260.732c0.985,-0.191 1.804,-0.059 2.461,0.397c0.657,0.456 1.083,1.187 1.279,2.195c0.196,1.007 0.186,1.965 -0.028,2.872c-0.215,0.909 -0.611,1.65 -1.186,2.223c-0.577,0.574 -1.302,0.946 -2.176,1.116c-1.019,0.198 -1.86,0.069 -2.525,-0.388c-0.664,-0.456 -1.094,-1.186 -1.289,-2.19c-0.195,-1.003 -0.179,-1.963 0.047,-2.879c0.227,-0.916 0.634,-1.661 1.22,-2.232c0.586,-0.572 1.318,-0.943 2.197,-1.114Zm1.5,3.05c-0.084,-0.431 -0.24,-0.752 -0.469,-0.961c-0.23,-0.208 -0.516,-0.28 -0.861,-0.212c-0.375,0.072 -0.688,0.299 -0.941,0.677c-0.252,0.38 -0.418,0.866 -0.497,1.459c-0.079,0.593 -0.063,1.181 0.051,1.764c0.178,0.916 0.645,1.301 1.403,1.153c0.359,-0.069 0.663,-0.291 0.91,-0.666c0.248,-0.374 0.408,-0.845 0.48,-1.413c0.072,-0.568 0.047,-1.168 -0.076,-1.801Z" style="fill:#fff;fill-rule:nonzero;"/><path d="M324.447,261.852c0.205,1.061 0.197,2.016 -0.027,2.867c-0.223,0.851 -0.652,1.552 -1.285,2.103c-0.634,0.552 -1.439,0.922 -2.416,1.112l-2.675,0.52l0.141,-8.644l2.363,-0.459c1.045,-0.203 1.908,-0.087 2.588,0.348c0.679,0.436 1.116,1.154 1.311,2.153Zm-3.751,4.177c0.417,-0.081 0.763,-0.286 1.039,-0.615c0.276,-0.328 0.457,-0.755 0.543,-1.281c0.087,-0.525 0.069,-1.103 -0.053,-1.731c-0.092,-0.474 -0.264,-0.812 -0.516,-1.016c-0.252,-0.205 -0.562,-0.272 -0.929,-0.2l-0.403,0.078l-0.073,4.842l0.392,-0.077Z" style="fill:#fff;fill-rule:nonzero;"/><path d="M333.892,262.728c0.164,0.841 0.012,1.549 -0.453,2.125c-0.466,0.575 -1.197,0.96 -2.192,1.154c-0.417,0.081 -0.82,0.111 -1.209,0.09c-0.389,-0.02 -0.736,-0.093 -1.039,-0.219l-0.386,-1.988c0.357,0.139 0.754,0.237 1.191,0.293c0.437,0.057 0.822,0.053 1.156,-0.012c0.28,-0.054 0.481,-0.154 0.602,-0.3c0.121,-0.145 0.161,-0.326 0.119,-0.542c-0.02,-0.102 -0.062,-0.193 -0.125,-0.273c-0.062,-0.08 -0.144,-0.157 -0.245,-0.229c-0.1,-0.073 -0.362,-0.226 -0.785,-0.458c-0.512,-0.27 -0.904,-0.57 -1.177,-0.903c-0.273,-0.332 -0.452,-0.719 -0.538,-1.163c-0.096,-0.495 -0.059,-0.965 0.112,-1.409c0.171,-0.444 0.462,-0.819 0.872,-1.125c0.41,-0.305 0.895,-0.513 1.456,-0.621c0.905,-0.177 1.758,-0.132 2.56,0.132l-0.439,1.837c-0.712,-0.208 -1.296,-0.267 -1.75,-0.179c-0.242,0.047 -0.419,0.137 -0.529,0.267c-0.11,0.132 -0.145,0.3 -0.105,0.504c0.036,0.186 0.133,0.347 0.291,0.483c0.159,0.136 0.442,0.304 0.85,0.503c0.51,0.243 0.909,0.525 1.196,0.847c0.287,0.322 0.476,0.717 0.567,1.186Z" style="fill:#fff;fill-rule:nonzero;"/><path d="M338.775,264.426l-2.221,0.432l0.089,-6.731l-1.8,0.35l0.035,-1.911l5.839,-1.135l-0.046,1.913l-1.806,0.351l-0.09,6.731Z" style="fill:#fff;fill-rule:nonzero;"/><path d="M346.209,261.366l-2.544,0.495l-0.408,1.694l-2.306,0.448l2.612,-9.125l2.857,-0.555l2.312,8.168l-2.164,0.421l-0.359,-1.546Zm-2.077,-1.436l1.664,-0.323l-0.565,-2.39l-0.105,-0.486c-0.056,-0.284 -0.097,-0.533 -0.123,-0.748c-0.027,0.343 -0.081,0.68 -0.163,1.01l-0.708,2.937Z" style="fill:#fff;fill-rule:nonzero;"/><path d="M352.834,261.693l-1.158,-5.958l-0.045,0.009c0.053,1.629 0.078,2.63 0.077,3.003l-0.05,3.175l-1.976,0.384l0.141,-8.644l2.942,-0.572l1.146,5.895l0.045,-0.009l1.569,-6.423l2.987,-0.581l-0.164,8.65l-1.993,0.387l0.058,-3.247c0.022,-0.9 0.065,-1.765 0.132,-2.595l0.014,-0.381l-0.045,0.009l-1.579,6.49l-2.101,0.408Z" style="fill:#fff;fill-rule:nonzero;"/><path d="M366.055,253.088c0.186,0.954 0.006,1.766 -0.537,2.436c-0.544,0.669 -1.38,1.114 -2.508,1.333l-0.489,0.095l-0.033,2.865l-2.221,0.431l0.142,-8.644l2.118,-0.412c0.981,-0.191 1.775,-0.122 2.384,0.206c0.607,0.328 0.989,0.891 1.144,1.69Zm-3.49,1.969l0.358,-0.07c0.344,-0.066 0.601,-0.232 0.77,-0.494c0.17,-0.263 0.221,-0.564 0.155,-0.906c-0.044,-0.223 -0.147,-0.39 -0.31,-0.499c-0.162,-0.111 -0.363,-0.142 -0.602,-0.096l-0.335,0.065l-0.036,2Z" style="fill:#fff;fill-rule:nonzero;"/><path d="M372.375,255.249c0.163,0.841 0.012,1.549 -0.454,2.125c-0.466,0.575 -1.197,0.96 -2.192,1.154c-0.417,0.081 -0.819,0.111 -1.209,0.09c-0.389,-0.02 -0.735,-0.093 -1.039,-0.219l-0.386,-1.988c0.357,0.139 0.754,0.237 1.191,0.293c0.437,0.057 0.823,0.053 1.156,-0.012c0.28,-0.054 0.481,-0.154 0.602,-0.3c0.122,-0.145 0.161,-0.326 0.119,-0.542c-0.02,-0.102 -0.061,-0.193 -0.124,-0.273c-0.063,-0.081 -0.145,-0.157 -0.245,-0.23c-0.101,-0.073 -0.363,-0.225 -0.785,-0.457c-0.512,-0.27 -0.905,-0.571 -1.177,-0.903c-0.273,-0.332 -0.452,-0.72 -0.538,-1.163c-0.097,-0.496 -0.059,-0.966 0.112,-1.41c0.171,-0.444 0.462,-0.819 0.871,-1.124c0.41,-0.306 0.896,-0.513 1.456,-0.622c0.905,-0.176 1.758,-0.132 2.56,0.133l-0.438,1.836c-0.712,-0.207 -1.296,-0.267 -1.751,-0.179c-0.242,0.048 -0.418,0.137 -0.528,0.268c-0.111,0.132 -0.146,0.3 -0.106,0.504c0.037,0.186 0.133,0.347 0.292,0.482c0.158,0.137 0.441,0.305 0.849,0.504c0.511,0.242 0.909,0.525 1.196,0.847c0.287,0.321 0.476,0.717 0.568,1.186Z" style="fill:#fff;fill-rule:nonzero;"/><path d="M305.905,283.977c-0.137,0.027 -0.287,0.028 -0.45,0.004l-0.075,-0.383c0.159,0.016 0.306,0.011 0.439,-0.015c0.25,-0.049 0.426,-0.161 0.527,-0.337c0.102,-0.176 0.157,-0.461 0.166,-0.855l0.082,-5.17l-0.873,0.17l0.004,-0.297l0.861,-0.229l0.017,-0.712c0.007,-0.496 0.105,-0.874 0.294,-1.135c0.19,-0.261 0.492,-0.432 0.906,-0.512c0.208,-0.041 0.452,-0.043 0.733,-0.006l-0.04,0.362c-0.262,-0.029 -0.478,-0.027 -0.649,0.007c-0.273,0.052 -0.475,0.171 -0.609,0.354c-0.134,0.184 -0.205,0.461 -0.213,0.831l-0.013,0.727l1.056,-0.205l-0.001,0.358l-1.056,0.205l-0.089,5.278c-0.004,0.476 -0.088,0.837 -0.249,1.085c-0.159,0.249 -0.416,0.407 -0.768,0.475Z" style="fill:#fff;fill-rule:nonzero;"/><path d="M310.361,276.038c0.511,-0.099 0.936,-0.022 1.276,0.232c0.34,0.254 0.562,0.652 0.667,1.194c0.109,0.56 0.109,1.103 0.001,1.63c-0.108,0.526 -0.314,0.951 -0.616,1.276c-0.303,0.323 -0.684,0.53 -1.144,0.62c-0.523,0.101 -0.95,0.023 -1.281,-0.235c-0.332,-0.259 -0.554,-0.677 -0.667,-1.257c-0.105,-0.543 -0.1,-1.071 0.015,-1.586c0.115,-0.514 0.324,-0.933 0.627,-1.258c0.301,-0.323 0.676,-0.529 1.122,-0.616Zm0.037,0.373c-0.353,0.069 -0.647,0.242 -0.885,0.519c-0.238,0.278 -0.401,0.641 -0.487,1.09c-0.087,0.449 -0.085,0.906 0.006,1.371c0.188,0.972 0.683,1.38 1.484,1.224c0.361,-0.07 0.659,-0.242 0.896,-0.516c0.237,-0.275 0.397,-0.642 0.48,-1.102c0.084,-0.459 0.075,-0.945 -0.024,-1.456c-0.085,-0.437 -0.254,-0.753 -0.507,-0.949c-0.253,-0.197 -0.575,-0.256 -0.963,-0.181Z" style="fill:#fff;fill-rule:nonzero;"/><path d="M315.425,275.063c0.196,-0.038 0.374,-0.052 0.536,-0.042l-0.012,0.413c-0.142,-0.017 -0.307,-0.007 -0.494,0.03c-0.267,0.052 -0.503,0.192 -0.71,0.422c-0.206,0.228 -0.37,0.543 -0.492,0.944c-0.123,0.401 -0.189,0.821 -0.198,1.263l-0.027,2.131l-0.418,0.082l0.085,-4.822l0.34,-0.066l0.046,0.893l0.025,-0.005c0.156,-0.307 0.293,-0.533 0.412,-0.678c0.119,-0.146 0.253,-0.267 0.401,-0.363c0.147,-0.099 0.316,-0.165 0.506,-0.202Z" style="fill:#fff;fill-rule:nonzero;"/><path d="M318.626,281.505c-0.136,0.027 -0.286,0.028 -0.45,0.004l-0.075,-0.383c0.16,0.015 0.306,0.01 0.44,-0.015c0.25,-0.049 0.426,-0.161 0.527,-0.337c0.101,-0.176 0.157,-0.461 0.165,-0.855l0.082,-5.17l-0.873,0.17l0.004,-0.297l0.861,-0.23l0.017,-0.711c0.007,-0.496 0.105,-0.874 0.295,-1.135c0.189,-0.261 0.491,-0.432 0.906,-0.512c0.207,-0.041 0.452,-0.043 0.733,-0.006l-0.041,0.362c-0.262,-0.029 -0.478,-0.027 -0.649,0.006c-0.272,0.053 -0.475,0.172 -0.609,0.355c-0.134,0.184 -0.205,0.461 -0.212,0.831l-0.014,0.727l1.056,-0.205l-0.001,0.358l-1.056,0.205l-0.088,5.278c-0.005,0.476 -0.088,0.837 -0.249,1.085c-0.16,0.249 -0.416,0.407 -0.769,0.475Z" style="fill:#fff;fill-rule:nonzero;"/><path d="M323.082,273.566c0.511,-0.099 0.936,-0.022 1.276,0.232c0.34,0.254 0.562,0.651 0.667,1.194c0.109,0.559 0.109,1.103 0.001,1.629c-0.108,0.526 -0.314,0.952 -0.616,1.276c-0.303,0.324 -0.684,0.53 -1.144,0.62c-0.523,0.102 -0.95,0.024 -1.281,-0.235c-0.332,-0.258 -0.554,-0.677 -0.667,-1.256c-0.104,-0.543 -0.1,-1.071 0.015,-1.586c0.115,-0.515 0.324,-0.934 0.627,-1.258c0.302,-0.324 0.676,-0.53 1.122,-0.616Zm0.037,0.373c-0.353,0.068 -0.647,0.241 -0.885,0.519c-0.238,0.278 -0.401,0.641 -0.487,1.09c-0.087,0.448 -0.085,0.905 0.006,1.371c0.188,0.971 0.683,1.379 1.484,1.223c0.361,-0.07 0.659,-0.242 0.896,-0.516c0.237,-0.274 0.397,-0.642 0.48,-1.101c0.084,-0.46 0.075,-0.945 -0.024,-1.456c-0.085,-0.437 -0.254,-0.754 -0.507,-0.949c-0.254,-0.196 -0.574,-0.257 -0.963,-0.181Z" style="fill:#fff;fill-rule:nonzero;"/><path d="M327.874,272.635c0.511,-0.099 0.936,-0.022 1.276,0.232c0.34,0.253 0.563,0.651 0.668,1.194c0.109,0.559 0.109,1.102 0,1.629c-0.108,0.526 -0.314,0.951 -0.616,1.276c-0.302,0.324 -0.684,0.53 -1.144,0.62c-0.523,0.101 -0.949,0.023 -1.281,-0.235c-0.331,-0.258 -0.553,-0.677 -0.666,-1.256c-0.105,-0.543 -0.101,-1.071 0.015,-1.586c0.115,-0.515 0.324,-0.934 0.626,-1.258c0.302,-0.324 0.676,-0.53 1.122,-0.616Zm0.037,0.373c-0.352,0.068 -0.647,0.241 -0.885,0.519c-0.238,0.278 -0.4,0.64 -0.487,1.089c-0.086,0.449 -0.084,0.906 0.006,1.371c0.189,0.972 0.684,1.38 1.484,1.224c0.361,-0.071 0.66,-0.242 0.897,-0.517c0.237,-0.274 0.396,-0.641 0.48,-1.101c0.083,-0.459 0.075,-0.945 -0.025,-1.456c-0.085,-0.438 -0.254,-0.753 -0.507,-0.949c-0.253,-0.196 -0.574,-0.256 -0.963,-0.18Z" style="fill:#fff;fill-rule:nonzero;"/><path d="M332.693,271.715c0.653,-0.126 1.109,0.108 1.369,0.702l0.017,-0.003c-0.002,-0.194 0.016,-1.186 0.054,-2.977l0.421,-0.082l-0.117,6.901l-0.35,0.069l-0.035,-1.205l-0.026,0.005c-0.328,0.93 -0.849,1.465 -1.562,1.603c-0.798,0.156 -1.3,-0.298 -1.507,-1.36c-0.106,-0.548 -0.107,-1.093 -0.001,-1.636c0.104,-0.542 0.308,-0.992 0.61,-1.349c0.303,-0.358 0.678,-0.58 1.127,-0.668Zm-0.205,4.612c0.253,-0.05 0.489,-0.188 0.709,-0.415c0.219,-0.226 0.401,-0.509 0.543,-0.848c0.142,-0.338 0.229,-0.695 0.262,-1.072c0.033,-0.376 0.026,-0.684 -0.02,-0.922c-0.07,-0.358 -0.213,-0.627 -0.429,-0.807c-0.216,-0.18 -0.476,-0.241 -0.78,-0.182c-0.352,0.068 -0.647,0.248 -0.885,0.539c-0.239,0.291 -0.404,0.68 -0.498,1.169c-0.094,0.488 -0.094,0.971 -0.002,1.447c0.162,0.838 0.529,1.201 1.1,1.091Z" style="fill:#fff;fill-rule:nonzero;"/><path d="M341.477,274.89l-0.824,-2.873c-0.163,-0.628 -0.256,-1.002 -0.28,-1.121l-0.025,0.004c-0.046,0.28 -0.17,0.732 -0.373,1.355l-0.969,3.114l-0.498,0.097l-0.986,-4.613l0.393,-0.077l0.735,3.487l0.117,0.671l0.025,-0.005c0.1,-0.414 0.231,-0.877 0.394,-1.389l1.025,-3.21l0.327,-0.064l0.837,2.849c0.121,0.409 0.223,0.827 0.306,1.253l0.025,-0.005l0.051,-0.28l0.235,-1.089l0.8,-3.166l0.409,-0.079l-1.264,5.05l-0.46,0.091Z" style="fill:#fff;fill-rule:nonzero;"/><path d="M345.687,269.172c0.511,-0.098 0.936,-0.021 1.276,0.232c0.339,0.254 0.562,0.652 0.667,1.195c0.109,0.559 0.109,1.102 0.001,1.629c-0.109,0.526 -0.314,0.951 -0.617,1.276c-0.302,0.324 -0.684,0.53 -1.143,0.62c-0.523,0.101 -0.95,0.023 -1.281,-0.235c-0.332,-0.258 -0.554,-0.677 -0.667,-1.256c-0.105,-0.543 -0.1,-1.071 0.015,-1.586c0.115,-0.515 0.324,-0.934 0.626,-1.258c0.303,-0.324 0.676,-0.53 1.123,-0.617Zm0.036,0.374c-0.352,0.068 -0.647,0.241 -0.885,0.519c-0.238,0.278 -0.4,0.64 -0.487,1.089c-0.086,0.449 -0.084,0.906 0.006,1.371c0.189,0.972 0.684,1.379 1.485,1.224c0.361,-0.071 0.659,-0.242 0.896,-0.517c0.237,-0.274 0.397,-0.641 0.48,-1.101c0.083,-0.46 0.075,-0.945 -0.024,-1.456c-0.085,-0.438 -0.254,-0.754 -0.507,-0.949c-0.253,-0.196 -0.574,-0.256 -0.964,-0.18Z" style="fill:#fff;fill-rule:nonzero;"/><path d="M350.762,268.195c0.196,-0.038 0.374,-0.051 0.536,-0.042l-0.013,0.414c-0.141,-0.017 -0.306,-0.007 -0.494,0.03c-0.266,0.052 -0.503,0.192 -0.709,0.421c-0.206,0.228 -0.37,0.543 -0.493,0.944c-0.123,0.402 -0.188,0.822 -0.197,1.263l-0.027,2.132l-0.418,0.081l0.084,-4.821l0.341,-0.067l0.045,0.893l0.026,-0.005c0.155,-0.306 0.292,-0.533 0.411,-0.678c0.119,-0.145 0.253,-0.267 0.401,-0.363c0.148,-0.098 0.317,-0.165 0.507,-0.202Z" style="fill:#fff;fill-rule:nonzero;"/><path d="M352.602,270.618l2.089,-3.103l0.532,-0.104l-1.63,2.391l1.777,2.386l-0.452,0.088l-1.587,-2.162l-0.718,0.971l-0.034,1.646l-0.408,0.08l0.117,-6.902l0.409,-0.079l-0.061,3.46l-0.051,1.332l0.017,-0.004Z" style="fill:#fff;fill-rule:nonzero;"/><path d="M357.88,271.79c-0.491,0.095 -0.905,0.014 -1.241,-0.243c-0.336,-0.258 -0.558,-0.665 -0.666,-1.221c-0.1,-0.514 -0.095,-1.027 0.015,-1.537c0.111,-0.511 0.315,-0.94 0.615,-1.287c0.299,-0.347 0.662,-0.562 1.088,-0.644c0.324,-0.063 0.599,-0.026 0.826,0.109c0.226,0.136 0.369,0.353 0.427,0.652c0.1,0.514 -0.056,0.95 -0.468,1.31c-0.412,0.361 -1.075,0.63 -1.99,0.807l-0.14,0.027c0.007,0.129 0.026,0.269 0.056,0.422c0.091,0.469 0.266,0.806 0.523,1.01c0.258,0.205 0.584,0.269 0.979,0.193c0.375,-0.073 0.747,-0.253 1.115,-0.54l0.078,0.4c-0.36,0.273 -0.766,0.454 -1.217,0.542Zm-0.17,-4.556c-0.372,0.072 -0.685,0.303 -0.941,0.693c-0.256,0.39 -0.401,0.873 -0.437,1.449l0.209,-0.041c1.468,-0.285 2.128,-0.811 1.979,-1.578c-0.037,-0.19 -0.129,-0.335 -0.277,-0.435c-0.148,-0.099 -0.325,-0.129 -0.533,-0.088Z" style="fill:#fff;fill-rule:nonzero;"/><path d="M361.938,266.023c0.196,-0.038 0.374,-0.052 0.536,-0.042l-0.013,0.414c-0.141,-0.017 -0.306,-0.007 -0.494,0.029c-0.266,0.052 -0.503,0.193 -0.709,0.422c-0.206,0.228 -0.37,0.543 -0.493,0.944c-0.122,0.401 -0.188,0.822 -0.197,1.263l-0.027,2.131l-0.418,0.082l0.084,-4.822l0.341,-0.066l0.045,0.893l0.026,-0.005c0.155,-0.307 0.293,-0.533 0.411,-0.678c0.12,-0.146 0.253,-0.267 0.401,-0.363c0.148,-0.098 0.317,-0.165 0.507,-0.202Z" style="fill:#fff;fill-rule:nonzero;"/><path d="M365.816,268.855c0.08,0.408 -0.003,0.763 -0.248,1.062c-0.246,0.3 -0.62,0.498 -1.123,0.596c-0.491,0.096 -0.945,0.074 -1.361,-0.067l-0.088,-0.455c0.235,0.09 0.472,0.149 0.71,0.176c0.238,0.027 0.456,0.022 0.652,-0.017c0.392,-0.076 0.675,-0.216 0.851,-0.419c0.176,-0.204 0.234,-0.456 0.176,-0.757c-0.024,-0.119 -0.066,-0.22 -0.128,-0.303c-0.062,-0.082 -0.149,-0.155 -0.264,-0.22c-0.114,-0.064 -0.325,-0.149 -0.635,-0.254c-0.464,-0.146 -0.788,-0.297 -0.972,-0.455c-0.184,-0.157 -0.302,-0.369 -0.354,-0.636c-0.071,-0.364 0.011,-0.689 0.246,-0.974c0.234,-0.286 0.581,-0.474 1.038,-0.562c0.212,-0.042 0.442,-0.061 0.689,-0.057c0.247,0.003 0.459,0.03 0.638,0.082l-0.077,0.403c-0.421,-0.106 -0.814,-0.124 -1.177,-0.054c-0.329,0.064 -0.579,0.191 -0.748,0.38c-0.17,0.189 -0.231,0.404 -0.185,0.646c0.031,0.156 0.079,0.276 0.146,0.361c0.066,0.084 0.171,0.165 0.314,0.241c0.143,0.078 0.333,0.152 0.572,0.227c0.359,0.116 0.617,0.219 0.773,0.307c0.158,0.089 0.281,0.192 0.37,0.31c0.09,0.12 0.152,0.265 0.185,0.439Z" style="fill:#fff;fill-rule:nonzero;"/></g><g><g><path d="M39.899,273.623l160.5,0" style="fill:none;stroke:#000;stroke-width:0.5px;"/><g><g><path d="M39.899,273.623l0,-3.712" style="fill:none;stroke:#000;stroke-width:0.5px;"/><path d="M120.149,273.623l0,-3.712" style="fill:none;stroke:#000;stroke-width:0.5px;"/><path d="M200.399,273.623l0,-3.712" style="fill:none;stroke:#000;stroke-width:0.5px;"/></g></g></g><g><g><text x="27.005px" y="276.444px" style="font-family:'OpenSans-ExtraboldItalic', 'Open Sans', sans-serif;font-weight:800;font-style:italic;font-size:5px;">10%</text><text x="27.005px" y="226.944px" style="font-family:'OpenSans-ExtraboldItalic', 'Open Sans', sans-serif;font-weight:800;font-style:italic;font-size:5px;">15%</text><text x="27.005px" y="177.444px" style="font-family:'OpenSans-ExtraboldItalic', 'Open Sans', sans-serif;font-weight:800;font-style:italic;font-size:5px;">20%</text><text x="27.005px" y="127.944px" style="font-family:'OpenSans-ExtraboldItalic', 'Open Sans', sans-serif;font-weight:800;font-style:italic;font-size:5px;">25%</text></g><path d="M39.899,273.623l0,-148.5" style="fill:none;stroke:#000;stroke-width:0.5px;"/><g><g><path d="M39.899,273.623l4.012,0" style="fill:none;stroke:#000;stroke-width:0.5px;"/><path d="M39.899,224.123l4.012,0" style="fill:none;stroke:#000;stroke-width:0.5px;"/><path d="M39.899,174.623l4.012,0" style="fill:none;stroke:#000;stroke-width:0.5px;"/><path d="M39.899,125.123l4.012,0" style="fill:none;stroke:#000;stroke-width:0.5px;"/></g></g></g><path d="M160.274,250.853l-80.25,-81.18" style="fill:none;stroke:#b21900;stroke-width:1px;stroke-linecap:round;"/><rect x="78.524" y="168.173" width="3" height="3" style="fill:#b21900;"/><g><text x="151.545px" y="281.586px" style="font-family:'OpenSans-ExtraboldItalic', 'Open Sans', sans-serif;font-weight:800;font-style:italic;font-size:7.523px;">2016</text><text x="71.295px" y="281.586px" style="font-family:'OpenSans-ExtraboldItalic', 'Open Sans', sans-serif;font-weight:800;font-style:italic;font-size:7.523px;">1985</text></g><path d="M86.124,108.104l-1.263,5.916c-0.249,1.19 -0.725,2.069 -1.428,2.638c-0.702,0.569 -1.656,0.853 -2.863,0.853c-0.567,0 -1.067,-0.116 -1.501,-0.349c-0.434,-0.232 -0.768,-0.558 -1.003,-0.977c-0.235,-0.419 -0.352,-0.886 -0.352,-1.403c0,-0.271 0.025,-0.544 0.076,-0.819l1.263,-5.859l2.482,0l-1.238,5.795c-0.059,0.288 -0.089,0.532 -0.089,0.73c0,0.538 0.256,0.806 0.768,0.806c0.398,0 0.71,-0.136 0.936,-0.409c0.226,-0.273 0.399,-0.691 0.517,-1.254l1.213,-5.668l2.482,0l0,0Z" style="fill:#b21900;fill-rule:nonzero;"/><path d="M94.408,117.384l-2.888,0l-1.835,-6.525l-0.051,0c-0.122,1.231 -0.243,2.116 -0.362,2.653l-0.819,3.872l-2.209,0l1.962,-9.28l2.888,0l1.815,6.239l0.057,0c0.123,-0.998 0.243,-1.783 0.362,-2.355l0.832,-3.885l2.209,0l-1.961,9.281Z" style="fill:#b21900;fill-rule:nonzero;"/><path d="M96.502,117.384l1.962,-9.28l2.52,0l-1.962,9.28l-2.52,0Z" style="fill:#b21900;fill-rule:nonzero;"/><path d="M106.614,107.958c1.1,0 1.956,0.315 2.568,0.943c0.612,0.629 0.917,1.506 0.917,2.631c0,1.126 -0.21,2.156 -0.632,3.089c-0.421,0.933 -1.001,1.648 -1.742,2.145c-0.74,0.497 -1.599,0.746 -2.577,0.746c-1.138,0 -2.017,-0.315 -2.637,-0.946c-0.62,-0.631 -0.93,-1.507 -0.93,-2.628c0,-1.121 0.218,-2.152 0.654,-3.092c0.436,-0.939 1.03,-1.656 1.781,-2.148c0.75,-0.493 1.616,-0.74 2.598,-0.74Zm0.978,3.599c0,-0.482 -0.102,-0.86 -0.305,-1.133c-0.203,-0.273 -0.497,-0.409 -0.882,-0.409c-0.419,0 -0.804,0.177 -1.156,0.533c-0.351,0.355 -0.632,0.844 -0.841,1.466c-0.21,0.622 -0.314,1.26 -0.314,1.911c0,1.024 0.423,1.536 1.269,1.536c0.402,0 0.776,-0.176 1.12,-0.527c0.345,-0.351 0.616,-0.825 0.813,-1.422c0.198,-0.596 0.296,-1.248 0.296,-1.955Z" style="fill:#b21900;fill-rule:nonzero;"/><path d="M118.872,117.384l-2.888,0l-1.835,-6.525l-0.051,0c-0.122,1.231 -0.243,2.116 -0.362,2.653l-0.819,3.872l-2.209,0l1.962,-9.28l2.888,0l1.815,6.239l0.057,0c0.123,-0.998 0.243,-1.783 0.362,-2.355l0.832,-3.885l2.209,0l-1.961,9.281Z" style="fill:#b21900;fill-rule:nonzero;"/><path d="M132.633,111.614c0,1.185 -0.209,2.213 -0.628,3.082c-0.419,0.87 -1.028,1.535 -1.825,1.996c-0.798,0.462 -1.742,0.692 -2.834,0.692l-2.99,0l1.962,-9.28l2.64,0c1.168,0 2.073,0.305 2.714,0.917c0.64,0.612 0.961,1.476 0.961,2.593Zm-4.913,3.714c0.466,0 0.882,-0.148 1.248,-0.445c0.365,-0.296 0.65,-0.718 0.853,-1.266c0.203,-0.548 0.305,-1.173 0.305,-1.876c0,-0.529 -0.115,-0.929 -0.343,-1.202c-0.229,-0.273 -0.548,-0.41 -0.959,-0.41l-0.45,0l-1.092,5.199l0.438,0Z" style="fill:#b21900;fill-rule:nonzero;"/><path d="M138.759,117.384l-5.51,0l1.961,-9.28l5.51,0l-0.412,2.012l-3.028,0l-0.299,1.46l2.819,0l-0.457,2.012l-2.819,0l-0.362,1.752l3.028,0l-0.431,2.044Z" style="fill:#b21900;fill-rule:nonzero;"/><path d="M148.718,117.384l-2.888,0l-1.834,-6.525l-0.051,0c-0.123,1.231 -0.243,2.116 -0.362,2.653l-0.819,3.872l-2.209,0l1.961,-9.28l2.888,0l1.816,6.239l0.057,0c0.122,-0.998 0.243,-1.783 0.362,-2.355l0.831,-3.885l2.209,0l-1.961,9.281Z" style="fill:#b21900;fill-rule:nonzero;"/><path d="M156.818,114.534c0,0.94 -0.311,1.671 -0.933,2.194c-0.622,0.522 -1.49,0.783 -2.603,0.783c-0.465,0 -0.906,-0.052 -1.32,-0.155c-0.415,-0.104 -0.773,-0.255 -1.073,-0.454l0,-2.222c0.355,0.225 0.762,0.413 1.222,0.565c0.459,0.153 0.874,0.229 1.247,0.229c0.313,0 0.55,-0.066 0.711,-0.197c0.16,-0.131 0.241,-0.318 0.241,-0.559c0,-0.114 -0.026,-0.221 -0.076,-0.32c-0.051,-0.1 -0.123,-0.199 -0.216,-0.299c-0.094,-0.099 -0.343,-0.318 -0.749,-0.657c-0.495,-0.397 -0.855,-0.803 -1.079,-1.219c-0.224,-0.414 -0.337,-0.869 -0.337,-1.364c0,-0.554 0.139,-1.053 0.416,-1.495c0.277,-0.442 0.669,-0.785 1.175,-1.028c0.505,-0.244 1.071,-0.365 1.698,-0.365c1.011,0 1.921,0.226 2.729,0.679l-0.857,1.885c-0.723,-0.372 -1.339,-0.558 -1.847,-0.558c-0.271,0 -0.479,0.059 -0.625,0.177c-0.146,0.119 -0.219,0.292 -0.219,0.521c0,0.207 0.071,0.401 0.213,0.581c0.141,0.179 0.411,0.42 0.809,0.72c0.499,0.368 0.869,0.755 1.111,1.161c0.241,0.406 0.362,0.873 0.362,1.397Z" style="fill:#b21900;fill-rule:nonzero;"/><path d="M157.935,117.384l1.962,-9.28l2.52,0l-1.962,9.28l-2.52,0Z" style="fill:#b21900;fill-rule:nonzero;"/><path d="M166.333,117.384l-2.482,0l1.504,-7.23l-2.012,0l0.438,-2.05l6.526,0l-0.451,2.05l-2.018,0l-1.505,7.23Z" style="fill:#b21900;fill-rule:nonzero;"/><path d="M173.696,111.545l1.981,-3.441l2.767,0l-3.885,5.681l-0.768,3.599l-2.482,0l0.762,-3.599l-1.505,-5.681l2.558,0l0.572,3.441Z" style="fill:#b21900;fill-rule:nonzero;"/><path d="M90.266,123.262l1.762,0c0.794,0 1.377,0.135 1.749,0.405c0.372,0.269 0.558,0.677 0.558,1.221c0,0.372 -0.114,0.682 -0.341,0.929c-0.227,0.248 -0.559,0.407 -0.995,0.477l0,0.027c0.512,0.076 0.89,0.238 1.131,0.485c0.242,0.248 0.363,0.593 0.363,1.035c0,0.592 -0.196,1.048 -0.589,1.367c-0.392,0.319 -0.949,0.479 -1.67,0.479l-1.969,0l0,-6.425l0.001,0Zm0.448,2.861l1.415,0c0.603,0 1.042,-0.1 1.316,-0.301c0.274,-0.201 0.411,-0.515 0.411,-0.943c0,-0.428 -0.155,-0.738 -0.464,-0.931c-0.309,-0.193 -0.77,-0.29 -1.382,-0.29l-1.297,0l0,2.465l0.001,0Zm0,0.396l0,2.773l1.511,0c1.19,0 1.784,-0.484 1.784,-1.45c0,-0.882 -0.627,-1.323 -1.881,-1.323l-1.414,0Z" style="fill-rule:nonzero;"/><path d="M98.105,126.778l1.881,-3.516l0.483,0l-2.14,3.942l0,2.483l-0.461,0l0,-2.448l-2.149,-3.977l0.514,0l1.872,3.516Z" style="fill-rule:nonzero;"/><path d="M109.024,125.108c0,0.621 -0.211,1.097 -0.633,1.428c-0.422,0.331 -1.02,0.497 -1.793,0.497l-0.993,0l0,2.654l-0.448,0l0,-6.425l1.573,0c1.529,0 2.294,0.616 2.294,1.846Zm-3.419,1.538l0.883,0c0.724,0 1.247,-0.119 1.569,-0.358c0.323,-0.239 0.484,-0.626 0.484,-1.162c0,-0.495 -0.153,-0.863 -0.457,-1.101c-0.305,-0.239 -0.777,-0.358 -1.415,-0.358l-1.064,0l0,2.979l0,0Z" style="fill-rule:nonzero;"/><path d="M114.652,129.687l-3.511,0l0,-6.425l3.511,0l0,0.413l-3.063,0l0,2.43l2.892,0l0,0.413l-2.892,0l0,2.756l3.063,0l0,0.413Z" style="fill-rule:nonzero;"/><path d="M117.275,126.888l0,2.799l-0.448,0l0,-6.425l1.53,0c0.797,0 1.385,0.147 1.766,0.442c0.381,0.294 0.572,0.738 0.572,1.329c0,0.431 -0.114,0.794 -0.341,1.09c-0.227,0.296 -0.572,0.509 -1.035,0.637l1.745,2.927l-0.536,0l-1.657,-2.799l-1.596,0l0,0Zm0,-0.387l1.226,0c0.542,0 0.963,-0.121 1.261,-0.363c0.299,-0.242 0.448,-0.598 0.448,-1.07c0,-0.489 -0.146,-0.845 -0.439,-1.068c-0.293,-0.223 -0.771,-0.334 -1.433,-0.334l-1.063,0l0,2.835Z" style="fill-rule:nonzero;"/><path d="M125.637,123.574c-0.805,0 -1.44,0.258 -1.903,0.774c-0.463,0.515 -0.694,1.221 -0.694,2.118c0,0.917 0.218,1.629 0.655,2.135c0.436,0.507 1.06,0.761 1.872,0.761c0.539,0 1.034,-0.069 1.485,-0.207l0,0.396c-0.425,0.149 -0.955,0.224 -1.591,0.224c-0.902,0 -1.613,-0.292 -2.131,-0.875c-0.519,-0.583 -0.778,-1.397 -0.778,-2.443c0,-0.654 0.123,-1.229 0.371,-1.727c0.247,-0.498 0.603,-0.883 1.068,-1.154c0.464,-0.271 1.004,-0.407 1.619,-0.407c0.627,0 1.188,0.117 1.683,0.352l-0.18,0.404c-0.468,-0.233 -0.96,-0.351 -1.476,-0.351Z" style="fill-rule:nonzero;"/><path d="M132.716,129.687l-3.511,0l0,-6.425l3.511,0l0,0.413l-3.063,0l0,2.43l2.892,0l0,0.413l-2.892,0l0,2.756l3.063,0l0,0.413Z" style="fill-rule:nonzero;"/><path d="M139.562,129.687l-0.453,0l-3.805,-5.704l-0.035,0c0.035,0.68 0.052,1.193 0.052,1.538l0,4.166l-0.43,0l0,-6.425l0.448,0l3.801,5.696l0.027,0c-0.027,-0.528 -0.04,-1.029 -0.04,-1.503l0,-4.193l0.435,0l0,6.425l0,0Z" style="fill-rule:nonzero;"/><path d="M143.776,129.687l-0.453,0l0,-6.003l-2.087,0l0,-0.422l4.627,0l0,0.422l-2.087,0l0,6.003Z" style="fill-rule:nonzero;"/><path d="M150.631,127.42l-2.611,0l-0.896,2.267l-0.497,0l2.584,-6.451l0.286,0l2.531,6.451l-0.505,0l-0.892,-2.267Zm-2.448,-0.405l2.299,0l-0.875,-2.316c-0.073,-0.181 -0.161,-0.433 -0.263,-0.756c-0.079,0.282 -0.166,0.536 -0.26,0.765l-0.901,2.307Z" style="fill-rule:nonzero;"/><path d="M156.185,126.448l2.368,0l0,2.931c-0.621,0.264 -1.32,0.396 -2.096,0.396c-1.013,0 -1.791,-0.287 -2.331,-0.86c-0.541,-0.573 -0.811,-1.383 -0.811,-2.432c0,-0.653 0.135,-1.233 0.402,-1.738c0.269,-0.506 0.652,-0.896 1.152,-1.171c0.499,-0.276 1.073,-0.413 1.72,-0.413c0.7,0 1.329,0.129 1.886,0.386l-0.18,0.405c-0.557,-0.258 -1.134,-0.387 -1.732,-0.387c-0.846,0 -1.518,0.261 -2.014,0.784c-0.497,0.523 -0.745,1.229 -0.745,2.116c0,0.967 0.236,1.694 0.707,2.182c0.472,0.487 1.165,0.732 2.079,0.732c0.592,0 1.094,-0.084 1.507,-0.251l0,-2.259l-1.911,0l0,-0.421l-0.001,0Z" style="fill-rule:nonzero;"/><path d="M164.397,129.687l-3.511,0l0,-6.425l3.511,0l0,0.413l-3.063,0l0,2.43l2.892,0l0,0.413l-2.892,0l0,2.756l3.063,0l0,0.413Z" style="fill-rule:nonzero;"/><path d="M156.649,252.123l6.25,1.5l-1.5,-5.75l-4.75,4.25Z" style="fill:#b21900;fill-rule:nonzero;"/><path d="M89.891,170.582l-4.416,0l0.233,-1.125l2.122,-1.916c0.727,-0.647 1.09,-1.176 1.09,-1.586c0,-0.144 -0.038,-0.251 -0.114,-0.323c-0.077,-0.072 -0.173,-0.108 -0.29,-0.108c-0.352,0 -0.763,0.215 -1.235,0.646l-0.818,-1.134c0.686,-0.648 1.478,-0.971 2.378,-0.971c0.536,0 0.968,0.146 1.296,0.437c0.328,0.292 0.492,0.686 0.492,1.184c0,0.446 -0.127,0.863 -0.382,1.253c-0.255,0.389 -0.692,0.851 -1.31,1.384l-0.901,0.774l0,0.052l2.154,0l-0.299,1.433Z" style="fill:#b21900;fill-rule:nonzero;"/><path d="M96.03,166.262c0,0.873 -0.124,1.649 -0.373,2.327c-0.249,0.678 -0.594,1.195 -1.033,1.549c-0.439,0.355 -0.949,0.532 -1.529,0.532c-0.615,0 -1.081,-0.185 -1.398,-0.554c-0.316,-0.369 -0.474,-0.895 -0.474,-1.577c0,-0.865 0.124,-1.646 0.373,-2.344c0.249,-0.699 0.594,-1.23 1.033,-1.594c0.439,-0.363 0.949,-0.545 1.529,-0.545c0.396,0 0.733,0.092 1.013,0.275c0.28,0.183 0.493,0.439 0.639,0.767c0.147,0.328 0.22,0.716 0.22,1.164Zm-2.07,-0.817c-0.161,0 -0.322,0.162 -0.483,0.488c-0.161,0.325 -0.292,0.738 -0.391,1.239c-0.1,0.501 -0.15,0.969 -0.15,1.402c0,0.246 0.022,0.427 0.066,0.541c0.044,0.114 0.132,0.171 0.264,0.171c0.17,0 0.333,-0.138 0.49,-0.415c0.156,-0.277 0.29,-0.666 0.399,-1.167c0.111,-0.501 0.165,-0.993 0.165,-1.476c0,-0.249 -0.027,-0.442 -0.081,-0.578c-0.054,-0.137 -0.147,-0.205 -0.279,-0.205Z" style="fill:#b21900;fill-rule:nonzero;"/><path d="M96.166,170.024c0,-0.319 0.095,-0.57 0.286,-0.751c0.19,-0.182 0.452,-0.273 0.786,-0.273c0.246,0 0.44,0.059 0.58,0.176c0.141,0.118 0.211,0.286 0.211,0.506c0,0.345 -0.088,0.6 -0.263,0.764c-0.176,0.164 -0.454,0.246 -0.835,0.246c-0.229,0 -0.413,-0.054 -0.554,-0.162c-0.14,-0.109 -0.211,-0.277 -0.211,-0.506Z" style="fill:#b21900;fill-rule:nonzero;"/><path d="M101.8,166.372c0.531,0 0.961,0.173 1.29,0.517c0.33,0.344 0.494,0.807 0.494,1.39c0,0.765 -0.236,1.355 -0.707,1.769c-0.472,0.415 -1.155,0.622 -2.048,0.622c-0.378,0 -0.737,-0.032 -1.074,-0.097c-0.339,-0.064 -0.587,-0.154 -0.745,-0.268l0,-1.424c0.231,0.132 0.496,0.236 0.795,0.31c0.299,0.075 0.569,0.112 0.809,0.112c0.811,0 1.217,-0.281 1.217,-0.844c0,-0.222 -0.074,-0.403 -0.221,-0.54c-0.149,-0.138 -0.348,-0.207 -0.6,-0.207c-0.156,0 -0.318,0.015 -0.488,0.044c-0.17,0.03 -0.305,0.062 -0.405,0.097l-0.536,-0.405l0.945,-3.291l3.573,0l-0.299,1.419l-2.07,0l-0.259,0.813c0.102,-0.011 0.212,-0.017 0.329,-0.017Z" style="fill:#b21900;fill-rule:nonzero;"/><path d="M107.843,165.48c0,0.484 -0.083,0.927 -0.248,1.332c-0.166,0.404 -0.398,0.72 -0.695,0.947c-0.298,0.227 -0.635,0.341 -1.013,0.341c-0.466,0 -0.814,-0.122 -1.046,-0.367c-0.231,-0.244 -0.347,-0.594 -0.347,-1.048c0,-0.507 0.079,-0.96 0.238,-1.36c0.158,-0.4 0.385,-0.71 0.678,-0.93c0.295,-0.219 0.643,-0.329 1.044,-0.329c0.431,0 0.77,0.124 1.018,0.373c0.247,0.249 0.371,0.596 0.371,1.041Zm3.463,-1.323l-4.751,6.425l-1.305,0l4.786,-6.425l1.27,0Zm-4.975,0.972c-0.146,0 -0.276,0.161 -0.388,0.483c-0.114,0.323 -0.17,0.674 -0.17,1.055c0,0.246 0.078,0.369 0.233,0.369c0.153,0 0.283,-0.162 0.394,-0.486c0.109,-0.323 0.164,-0.675 0.164,-1.052c0,-0.126 -0.017,-0.219 -0.052,-0.279c-0.035,-0.06 -0.096,-0.09 -0.181,-0.09Zm5.805,2.926c0,0.481 -0.082,0.923 -0.246,1.327c-0.164,0.404 -0.395,0.72 -0.694,0.948c-0.299,0.227 -0.637,0.34 -1.015,0.34c-0.466,0 -0.815,-0.121 -1.046,-0.364c-0.232,-0.243 -0.347,-0.592 -0.347,-1.046c0,-0.507 0.079,-0.96 0.237,-1.36c0.159,-0.4 0.385,-0.71 0.679,-0.93c0.294,-0.219 0.642,-0.329 1.044,-0.329c0.43,0 0.769,0.124 1.017,0.373c0.247,0.249 0.371,0.596 0.371,1.041Zm-1.512,-0.351c-0.146,0 -0.276,0.161 -0.389,0.483c-0.112,0.323 -0.169,0.674 -0.169,1.055c0,0.246 0.078,0.369 0.233,0.369c0.153,0 0.284,-0.162 0.393,-0.486c0.111,-0.323 0.165,-0.675 0.165,-1.052c0,-0.129 -0.017,-0.223 -0.052,-0.282c-0.035,-0.059 -0.096,-0.087 -0.181,-0.087Z" style="fill:#b21900;fill-rule:nonzero;"/><path d="M167.715,249.765l-1.71,0l0.765,-3.511c0.082,-0.387 0.193,-0.762 0.334,-1.125c-0.229,0.199 -0.421,0.35 -0.576,0.452l-0.892,0.55l-0.663,-1.108l2.724,-1.683l1.367,0l-1.349,6.425Z" style="fill:#b21900;fill-rule:nonzero;"/><path d="M173.7,249.765l-4.416,0l0.233,-1.125l2.122,-1.916c0.727,-0.648 1.09,-1.177 1.09,-1.587c0,-0.143 -0.038,-0.251 -0.114,-0.323c-0.077,-0.071 -0.173,-0.107 -0.29,-0.107c-0.352,0 -0.763,0.215 -1.235,0.646l-0.818,-1.134c0.686,-0.648 1.478,-0.971 2.378,-0.971c0.536,0 0.968,0.145 1.296,0.437c0.328,0.291 0.492,0.686 0.492,1.184c0,0.446 -0.127,0.863 -0.382,1.253c-0.255,0.389 -0.692,0.851 -1.31,1.384l-0.901,0.774l0,0.052l2.154,0l-0.299,1.433Z" style="fill:#b21900;fill-rule:nonzero;"/><path d="M174.755,249.207c0,-0.32 0.095,-0.57 0.285,-0.752c0.191,-0.181 0.453,-0.272 0.787,-0.272c0.246,0 0.439,0.058 0.58,0.176c0.14,0.117 0.211,0.285 0.211,0.505c0,0.346 -0.088,0.601 -0.264,0.765c-0.175,0.164 -0.454,0.246 -0.835,0.246c-0.228,0 -0.413,-0.054 -0.553,-0.163c-0.141,-0.108 -0.211,-0.277 -0.211,-0.505Z" style="fill:#b21900;fill-rule:nonzero;"/><path d="M182.458,244.768c0,0.434 -0.131,0.793 -0.393,1.077c-0.262,0.284 -0.632,0.474 -1.11,0.571l0,0.035c0.378,0.073 0.674,0.237 0.888,0.49c0.213,0.253 0.321,0.565 0.321,0.934c0,0.633 -0.261,1.12 -0.782,1.463c-0.522,0.343 -1.228,0.514 -2.118,0.514c-0.34,0 -0.659,-0.03 -0.956,-0.09c-0.298,-0.06 -0.543,-0.146 -0.736,-0.257l0,-1.459c0.489,0.293 1.041,0.439 1.656,0.439c0.405,0 0.707,-0.068 0.908,-0.204c0.2,-0.136 0.301,-0.332 0.301,-0.587c0,-0.158 -0.04,-0.277 -0.119,-0.356c-0.079,-0.079 -0.205,-0.137 -0.378,-0.174c-0.173,-0.037 -0.416,-0.054 -0.729,-0.054l-0.369,0l0.233,-1.279l0.343,0c0.43,0 0.766,-0.069 1.006,-0.205c0.241,-0.136 0.361,-0.323 0.361,-0.56c0,-0.135 -0.053,-0.243 -0.158,-0.325c-0.106,-0.082 -0.251,-0.123 -0.435,-0.123c-0.343,0 -0.739,0.123 -1.187,0.369l-0.694,-1.09c0.369,-0.237 0.725,-0.405 1.07,-0.503c0.344,-0.098 0.723,-0.147 1.136,-0.147c0.589,0 1.059,0.136 1.413,0.408c0.352,0.274 0.528,0.644 0.528,1.113Z" style="fill:#b21900;fill-rule:nonzero;"/><path d="M186.431,244.663c0,0.483 -0.083,0.927 -0.248,1.331c-0.166,0.405 -0.397,0.72 -0.694,0.947c-0.298,0.227 -0.636,0.341 -1.013,0.341c-0.466,0 -0.815,-0.122 -1.046,-0.367c-0.232,-0.244 -0.347,-0.594 -0.347,-1.048c0,-0.507 0.079,-0.96 0.237,-1.36c0.159,-0.4 0.385,-0.71 0.679,-0.929c0.295,-0.22 0.642,-0.33 1.044,-0.33c0.43,0 0.769,0.125 1.017,0.374c0.247,0.248 0.371,0.595 0.371,1.041Zm3.463,-1.323l-4.75,6.425l-1.305,0l4.785,-6.425l1.27,0Zm-4.975,0.971c-0.146,0 -0.276,0.161 -0.388,0.484c-0.114,0.322 -0.17,0.674 -0.17,1.054c0,0.246 0.078,0.369 0.233,0.369c0.153,0 0.283,-0.162 0.394,-0.486c0.109,-0.323 0.164,-0.674 0.164,-1.052c0,-0.126 -0.017,-0.219 -0.052,-0.279c-0.035,-0.061 -0.096,-0.09 -0.181,-0.09Zm5.806,2.927c0,0.48 -0.082,0.923 -0.246,1.327c-0.164,0.404 -0.396,0.719 -0.695,0.947c-0.299,0.227 -0.637,0.341 -1.015,0.341c-0.466,0 -0.814,-0.122 -1.046,-0.365c-0.231,-0.243 -0.347,-0.592 -0.347,-1.046c0,-0.507 0.079,-0.96 0.238,-1.36c0.158,-0.4 0.384,-0.71 0.679,-0.929c0.294,-0.22 0.642,-0.33 1.043,-0.33c0.431,0 0.77,0.125 1.017,0.374c0.248,0.249 0.372,0.596 0.372,1.041Zm-1.512,-0.352c-0.147,0 -0.277,0.161 -0.389,0.484c-0.113,0.322 -0.169,0.674 -0.169,1.054c0,0.246 0.077,0.369 0.233,0.369c0.152,0 0.283,-0.162 0.393,-0.486c0.11,-0.323 0.165,-0.674 0.165,-1.052c0,-0.129 -0.018,-0.222 -0.053,-0.281c-0.035,-0.059 -0.095,-0.088 -0.18,-0.088Z" style="fill:#b21900;fill-rule:nonzero;"/></g><g><path d="M226.245,108.279c0,0 27.075,-56.494 80.952,-42.812c0,0 84.31,5.283 54.275,103.475l-135.227,-60.663Z" style="fill:#274c1a;fill-rule:nonzero;"/><path d="M302.103,75.041c0,0 -4.068,23.477 -18.419,32.687l8.62,13.379c0,0 19.24,-16.288 22.347,-46.066l-12.548,0Z" style="fill:#c8ce7e;fill-rule:nonzero;"/><path d="M292.305,113.26c0,0 -99.096,-72.436 -115.961,46.062" style="fill:#39602b;fill-rule:nonzero;"/><path d="M233.389,91.351c0,0 -29.956,24.625 -29.475,42.183c0.481,17.558 11.785,8.899 11.785,8.899c0,0 35.689,-46.864 29.407,-49.896c-1.146,-0.552 -8.773,-1.215 -11.717,-1.186Z" style="fill:#c8ce7e;fill-rule:nonzero;"/><path d="M321.362,44.597c0,0 -13.723,-6.313 0,-12.626c0,0 -5.764,-12.19 10.156,-9.252c0,0 4.666,-11.893 10.43,-2.693c0,0 14.547,5.083 3.842,13.866c0,0 9.058,11.803 -1.098,10.705c0,0 -0.823,12.351 -8.234,4.666c0,0 -7.822,8.651 -10.567,-2.33c0,0 -5.627,4.801 -4.529,-2.336Z" style="fill:#808080;fill-rule:nonzero;"/><rect x="291.87" y="52.447" width="45.563" height="22.594" style="fill:#b3b3b3;"/><path d="M325.631,52.928l0,-5.209l6.861,-1.224l0,6.433" style="fill:#b3b3b3;fill-rule:nonzero;"/><path d="M305.868,75.198l0,-8.896l4.392,0l0,8.896" style="fill:#fff;fill-rule:nonzero;"/><path d="M294.828,57.343l7.32,0l0,3.9l-7.32,0l0,-3.449" style="fill:#fff;fill-rule:nonzero;"/><path d="M305.563,57.343l7.32,0l0,3.9l-7.32,0l0,-3.449" style="fill:#fff;fill-rule:nonzero;"/><path d="M315.263,57.247l7.319,0l0,3.899l-7.319,0l0,-3.449" style="fill:#fff;fill-rule:nonzero;"/><path d="M208.468,126.658c0,0 -2.153,-5.652 5.922,-5.383c0,0 4.845,-0.538 4.71,4.711l-10.632,0.672Z" style="fill:#edff00;fill-rule:nonzero;"/><path d="M325.935,57.247l7.32,0l0,3.899l-7.32,0l0,-3.449" style="fill:#fff;fill-rule:nonzero;"/><path d="M183.425,136.939c0,0 18.045,-15.755 35.344,-11.85l14.757,14.765l15.75,-4.02l8.112,16.151l-69.032,19.627l-4.931,-34.673Z" style="fill:#941e00;fill-rule:nonzero;"/><path d="M200.756,160.743c4.492,-1.277 9.006,0.732 10.074,4.486c1.067,3.753 -1.715,7.837 -6.207,9.114c-4.493,1.278 -9.007,-0.732 -10.075,-4.485c-1.067,-3.753 1.715,-7.837 6.208,-9.115Z"/><path d="M239.83,149.632c4.493,-1.277 9.007,0.733 10.074,4.486c1.068,3.753 -1.714,7.837 -6.207,9.115c-4.493,1.277 -9.007,-0.733 -10.074,-4.486c-1.067,-3.753 1.714,-7.837 6.207,-9.115Z"/><path d="M219.14,126.392c0,0 -3.179,10.719 -1.74,18.256l14.227,-4.045" style="fill:#fff;fill-rule:nonzero;"/><path d="M199.012,146.931l-3.592,1.022l-0.787,-2.768l3.592,-1.021l-1.018,-3.582l2.747,-0.781l1.018,3.582l3.583,-1.019l0.787,2.768l-3.583,1.018l1.007,3.541l-2.747,0.781l-1.007,-3.541Z" style="fill:#fff;fill-rule:nonzero;"/><path d="M182.103,165.383l-37.065,11.854" style="fill:none;stroke:#000;stroke-width:0.81px;"/><path d="M177.974,150.862l-37.065,11.853" style="fill:none;stroke:#000;stroke-width:0.81px;"/><path d="M216.18,178.992c0,0 4.81,-3.367 12.507,-6.013" style="fill-rule:nonzero;"/><path d="M257.388,160.354c0,0 9.782,-5.414 15.073,-5.655" style="fill-rule:nonzero;"/><path d="M298.488,147.243c0,0 12.937,-3.426 18.469,-2.675" style="fill-rule:nonzero;"/><path d="M220.243,121.107c0,0 -1.658,0.882 2.19,-6.093" style="fill-rule:nonzero;"/><path d="M227.725,107.799c0,0 2.91,-4.654 5.664,-5.935" style="fill-rule:nonzero;"/><path d="M292.305,109.242c0,0 5.379,-2.165 6.718,-6.013" style="fill-rule:nonzero;"/><path d="M300.602,96.975c0,0 2.37,-2.164 2.508,-4.089" style="fill-rule:nonzero;"/><path d="M305.563,86.032c0,0 1.292,-2.165 1.412,-3.127" style="fill-rule:nonzero;"/></g></g></svg>