<?xml version="1.0" encoding="UTF-8" standalone="no"?><!DOCTYPE svg PUBLIC "-//W3C//DTD SVG 1.1//EN" "http://www.w3.org/Graphics/SVG/1.1/DTD/svg11.dtd"><svg width="100%" height="100%" viewBox="0 0 400 401" version="1.1" xmlns="http://www.w3.org/2000/svg" xmlns:xlink="http://www.w3.org/1999/xlink" xml:space="preserve" style="fill-rule:evenodd;clip-rule:evenodd;stroke-miterlimit:10;"><rect id="why-care" x="0" y="0.147" width="400" height="400" style="fill:none;"/><clipPath id="_clip1"><rect x="0" y="0.147" width="400" height="400"/></clipPath><g clip-path="url(#_clip1)"><rect x="-2.924" y="311.161" width="402.924" height="88.986" style="fill:#c73d27;"/><g transform="matrix(0.474954,0,0,0.474954,-129.445,-28.3199)"><text x="585.995px" y="788.116px" style="font-family:'OpenSans-Bold', 'Open Sans', sans-serif;font-weight:700;font-size:91.924px;fill:#fff;">Why</text><text x="560.703px" y="880.04px" style="font-family:'OpenSans-Bold', 'Open Sans', sans-serif;font-weight:700;font-size:91.924px;fill:#fff;">Car<tspan x="714.702px 769.012px " y="880.04px 880.04px ">e?</tspan></text></g><g><path d="M223.986,260.843l-0.757,0.897l-0.046,0.053l-0.065,0.072l-0.044,0.049l-0.047,0.051l-0.052,0.055l-0.057,0.06l-0.064,0.065l-0.067,0.069l-0.073,0.072l-0.079,0.077l-0.083,0.081l-0.089,0.084l-0.095,0.087l-0.1,0.092l-0.105,0.094l-0.11,0.097l-0.116,0.1l-0.121,0.102l-0.125,0.104l-0.067,0.055l-0.067,0.055l-0.068,0.054l-0.069,0.055l-0.071,0.056l-0.073,0.056l-0.073,0.057l-0.075,0.057l-0.076,0.057l-0.078,0.058l-0.079,0.059l-0.081,0.059l-0.082,0.058l-0.083,0.06l-0.085,0.06l-0.086,0.06l-0.087,0.06l-0.09,0.061l-0.09,0.061l-0.091,0.06l-0.093,0.062l-0.095,0.061l-0.095,0.061l-0.098,0.062l-0.099,0.062l-0.1,0.062l-0.101,0.062l-0.103,0.062l-0.105,0.062l-0.105,0.062l-0.107,0.062l-0.109,0.062l-0.11,0.062l-0.112,0.062l-0.113,0.061l-0.114,0.062l-0.115,0.061l-0.118,0.062l-0.118,0.061l-0.12,0.061l-0.122,0.061l-0.123,0.06l-0.124,0.061l-0.126,0.06l-0.127,0.059l-0.128,0.06l-0.131,0.059l-0.131,0.058l-0.133,0.059l-0.135,0.058l-0.135,0.057l-0.138,0.057l-0.139,0.057l-0.14,0.056l-0.141,0.056l-0.144,0.055l-0.144,0.054l-0.146,0.054l-0.147,0.053l-0.149,0.053l-0.151,0.052l-0.152,0.052l-0.153,0.051l-0.154,0.05l-0.156,0.049l-0.158,0.049l-0.159,0.048l-0.161,0.047l-0.162,0.047l-0.163,0.045l-0.043,0.012l1.112,4.061l-3.706,1.015l-2.19,-7.999l2.204,-0.418l0.153,-0.031l0.152,-0.03l0.149,-0.032l0.148,-0.033l0.148,-0.033l0.145,-0.034l0.144,-0.035l0.143,-0.036l0.142,-0.036l0.14,-0.037l0.14,-0.038l0.137,-0.038l0.136,-0.039l0.135,-0.04l0.134,-0.04l0.132,-0.041l0.131,-0.042l0.13,-0.042l0.128,-0.042l0.127,-0.043l0.126,-0.044l0.124,-0.044l0.124,-0.045l0.122,-0.045l0.12,-0.045l0.12,-0.046l0.118,-0.047l0.116,-0.046l0.115,-0.047l0.114,-0.048l0.114,-0.048l0.111,-0.048l0.11,-0.048l0.11,-0.049l0.107,-0.048l0.106,-0.049l0.106,-0.05l0.104,-0.05l0.102,-0.049l0.102,-0.05l0.1,-0.05l0.099,-0.051l0.097,-0.05l0.097,-0.05l0.095,-0.051l0.094,-0.051l0.092,-0.05l0.091,-0.051l0.091,-0.051l0.089,-0.05l0.087,-0.051l0.087,-0.051l0.085,-0.05l0.084,-0.051l0.082,-0.05l0.082,-0.051l0.08,-0.05l0.078,-0.05l0.078,-0.05l0.077,-0.049l0.075,-0.05l0.075,-0.049l0.072,-0.049l0.071,-0.049l0.071,-0.048l0.069,-0.049l0.068,-0.047l0.067,-0.048l0.065,-0.047l0.064,-0.047l0.063,-0.046l0.062,-0.047l0.061,-0.045l0.059,-0.045l0.058,-0.045l0.057,-0.045l0.056,-0.043l0.055,-0.044l0.053,-0.043l0.052,-0.041l0.049,-0.041l0.1,-0.083l0.093,-0.079l0.088,-0.076l-4.324,-11.011l3.576,-1.405l5.206,13.257Z" style="fill:#96865c;"/><path d="M190.633,243.842l-7.516,9.136l0.06,0.099l0.065,0.104l0.069,0.11l0.034,0.053l0.037,0.056l0.037,0.057l0.039,0.059l0.039,0.058l0.04,0.06l0.042,0.061l0.043,0.061l0.043,0.062l0.045,0.063l0.045,0.064l0.047,0.064l0.047,0.065l0.049,0.066l0.05,0.067l0.051,0.067l0.052,0.068l0.053,0.069l0.054,0.069l0.055,0.069l0.056,0.07l0.058,0.071l0.058,0.072l0.06,0.072l0.06,0.072l0.062,0.073l0.063,0.074l0.065,0.074l0.065,0.074l0.066,0.075l0.068,0.075l0.069,0.076l0.07,0.076l0.071,0.077l0.072,0.076l0.074,0.077l0.075,0.078l0.076,0.078l0.077,0.078l0.079,0.078l0.079,0.079l0.081,0.079l0.083,0.079l0.083,0.079l0.085,0.079l0.086,0.08l0.087,0.08l0.089,0.08l0.09,0.08l0.091,0.08l0.093,0.08l0.094,0.081l0.095,0.08l0.096,0.081l0.098,0.08l0.099,0.081l0.101,0.08l0.102,0.081l0.103,0.08l0.105,0.081l0.106,0.08l0.108,0.08l0.109,0.081l0.11,0.08l0.112,0.079l0.113,0.08l0.115,0.08l0.116,0.08l0.117,0.079l0.119,0.079l0.121,0.079l0.122,0.078l0.123,0.079l0.125,0.078l0.127,0.077l0.128,0.078l0.129,0.077l0.131,0.077l0.133,0.076l0.134,0.076l0.136,0.076l1.967,1.08l-4.555,6.93l-3.211,-2.111l2.313,-3.518l-0.037,-0.025l-0.142,-0.094l-0.14,-0.094l-0.137,-0.094l-0.137,-0.095l-0.134,-0.095l-0.134,-0.095l-0.132,-0.096l-0.129,-0.096l-0.129,-0.096l-0.127,-0.096l-0.125,-0.096l-0.124,-0.096l-0.122,-0.097l-0.12,-0.096l-0.119,-0.097l-0.118,-0.096l-0.116,-0.097l-0.115,-0.097l-0.112,-0.096l-0.112,-0.097l-0.11,-0.097l-0.108,-0.096l-0.107,-0.097l-0.106,-0.096l-0.104,-0.096l-0.102,-0.096l-0.101,-0.097l-0.1,-0.095l-0.098,-0.096l-0.097,-0.095l-0.095,-0.095l-0.094,-0.095l-0.093,-0.095l-0.09,-0.094l-0.09,-0.094l-0.088,-0.094l-0.087,-0.093l-0.086,-0.093l-0.084,-0.092l-0.082,-0.092l-0.082,-0.092l-0.08,-0.091l-0.079,-0.091l-0.077,-0.09l-0.076,-0.09l-0.075,-0.089l-0.074,-0.089l-0.072,-0.088l-0.071,-0.088l-0.069,-0.086l-0.069,-0.087l-0.067,-0.086l-0.065,-0.085l-0.065,-0.084l-0.063,-0.084l-0.062,-0.083l-0.061,-0.082l-0.06,-0.081l-0.058,-0.081l-0.058,-0.08l-0.055,-0.079l-0.055,-0.079l-0.054,-0.077l-0.052,-0.077l-0.052,-0.075l-0.05,-0.076l-0.049,-0.073l-0.048,-0.073l-0.047,-0.072l-0.047,-0.073l-0.086,-0.138l-0.084,-0.135l-0.079,-0.131l-0.075,-0.126l-0.071,-0.123l-0.067,-0.117l-0.062,-0.112l-0.059,-0.108l-0.055,-0.102l-0.05,-0.097l-0.048,-0.093l-0.043,-0.086l-0.04,-0.081l-0.036,-0.075l-0.032,-0.068l-0.029,-0.063l-0.027,-0.059l-0.039,-0.09l-0.027,-0.064l-0.444,-1.086l9.05,-11l2.966,2.441Z" style="fill:#96865c;"/><path d="M198.767,225.556c0,0 -14.313,6.962 -15.593,12.939c-1.281,5.976 7.142,10.458 9.333,10.885l3.005,-8.91l-4.676,42.846l19.205,0l0,-35.857l1.733,8.751c0,0 11.953,-2.561 11.739,-7.043l-8.965,-20.247l-15.781,-3.364Z" style="fill-rule:nonzero;"/><path d="M219.026,187.626c0,0 30.875,-18.258 23.445,12.179c0,0 -2.548,22.492 -1.599,38.408c0,0 -6.91,-20.164 -11.597,-37.969l-10.249,-12.618Z" style="fill:#2d2105;fill-rule:nonzero;"/><ellipse cx="210.042" cy="207.668" rx="20.891" ry="21.251" style="fill:#96865c;"/><path d="M191.674,202.989l0.165,1.004" style="fill:none;stroke:#2d2105;stroke-width:0.13px;"/><path d="M192.186,202.952l-0.063,1.015" style="fill:none;stroke:#2d2105;stroke-width:0.13px;"/><path d="M192.836,202.978l-0.328,0.963" style="fill:none;stroke:#2d2105;stroke-width:0.13px;"/><path d="M193.433,203.285l-0.489,0.892" style="fill:none;stroke:#2d2105;stroke-width:0.13px;"/><path d="M201.716,204.52l-0.368,0.949" style="fill:none;stroke:#2d2105;stroke-width:0.13px;"/><path d="M202.27,204.972l-0.571,0.842" style="fill:none;stroke:#2d2105;stroke-width:0.13px;"/><path d="M202.834,205.393l-0.772,0.662" style="fill:none;stroke:#2d2105;stroke-width:0.13px;"/><path d="M203.165,205.796l-0.876,0.519" style="fill:none;stroke:#2d2105;stroke-width:0.13px;"/><path d="M195.539,191.603l35.394,13.866c0,0 -1.978,-32.979 -35.394,-13.866Z" style="fill:#2d2105;fill-rule:nonzero;"/><path d="M207.696,201.784l-6.164,1.707" style="fill:none;stroke:#2d2105;stroke-width:0.64px;"/><path d="M190.837,197.704l4.702,4.336" style="fill:none;stroke:#2d2105;stroke-width:0.64px;"/><circle cx="192.508" cy="204.491" r="1.001"/><circle cx="201.532" cy="206.215" r="1.001"/><path d="M190.955,214.413c0,0 0.847,-0.379 9.114,2.064" style="fill-rule:nonzero;"/><path d="M190.837,283.315l-4.248,22.411l10.672,0l2.808,-22.411l0,22.411l9.144,0l0.829,-22.411l-19.205,0Z" style="fill:#5c5f93;fill-rule:nonzero;"/><path d="M186.589,305.726c0,0 -9.604,0.854 -9.604,3.842c0,2.989 19.422,0.854 19.422,0.854l0.854,-4.696l-10.672,0Z" style="fill:#464647;fill-rule:nonzero;"/><path d="M210.575,305.726c0,0 9.604,0.854 9.604,3.842c0,2.989 -19.422,0.854 -19.422,0.854l-0.854,-4.696l10.672,0Z" style="fill:#464647;fill-rule:nonzero;"/><path d="M223.362,186.192c0,0 1.968,-1.523 1.986,1.498c0,0 3.464,0.162 2.081,2.572c0,0 1.497,3.937 -1.056,3.615c0,0 -1.711,1.717 -3.645,-1.948c0,0 -2.366,-0.168 -2.744,-1.262c0,0 -1.848,-2.202 0.013,-3.405c0,0 1.675,-3.348 3.365,-1.07Z" style="fill:#57919e;fill-rule:nonzero;"/><path d="M156.095,242.226l5.91,-3.668l2.701,4.352l-8.503,5.278l-29.791,-17.024l2.541,-4.447l27.142,15.509Z" style="fill:#d8bf8d;"/><path d="M86.453,293.528l-5.368,0.712l-30.305,-228.332l5.368,-0.712l30.305,228.332Z" style="fill:#025e14;"/><path d="M102.962,216.134c0,0 -18.736,14.409 -16.024,61.089l16.024,0c0,0 4.309,-48.105 8.827,-45.896l24.438,7.419l5.835,-7.419l-39.1,-15.193Z" style="fill-rule:nonzero;"/><ellipse cx="115.178" cy="201.228" rx="18.751" ry="19.655" style="fill:#d8bf8d;"/><path d="M86.938,277.222l-4.971,24.063l18.074,0l2.921,-24.063l-16.024,0Z" style="fill:#5c5f93;fill-rule:nonzero;"/><path d="M81.967,301.285c0,0 16.648,-2.537 24.758,1.732c0,0 6.83,6.697 -24.758,4.416c0,0 -0.927,-1.661 0,-6.148Z" style="fill:#464647;fill-rule:nonzero;"/><path d="M131.942,254.526l6.719,-2.863l2.008,4.712l-9.526,4.06l-26.855,-21.357l3.188,-4.009l24.466,19.457Z" style="fill:#d8bf8d;"/><path d="M104.129,227.931c0,0 12.615,10.489 22.251,17.459c0.138,0.1 0.276,0.2 0.413,0.299l-7.002,7.181l-17.853,-15.381" style="fill-rule:nonzero;"/><circle cx="123.773" cy="203.754" r="1.001"/><circle cx="129.621" cy="203.338" r="1.001"/><path d="M136.902,186.87l-40.245,6.997c7.86,-28.639 33.516,-5.855 33.516,-5.855" style="fill-rule:nonzero;"/><path d="M136.568,188.005l-39.911,5.861l1.06,-1.5l39.911,-5.861l-1.06,1.5Z" style="fill-rule:nonzero;"/><path d="M35.393,306.944l-5.372,0.68l-29.783,-235.415l5.372,-0.68l29.783,235.415Z" style="fill:#025e14;"/><path d="M57.196,93.417l-50.567,7.341l-0.778,-5.359l50.567,-7.341l0.778,5.359Z" style="fill:#025e14;"/><path d="M62.772,136.001l-51.005,5.965l-0.629,-5.378l51.005,-5.965l0.629,5.378Z" style="fill:#025e14;"/><path d="M69.059,181.021l-51.074,3.203l-0.339,-5.404l51.074,-3.203l0.339,5.404Z" style="fill:#025e14;"/><path d="M74.634,222.984l-50.779,12.031l-1.248,-5.27l50.779,-12.03l1.248,5.269Z" style="fill:#025e14;"/><path d="M80.68,270.62l-51.733,6.831l-0.709,-5.368l51.733,-6.831l0.709,5.368Z" style="fill:#025e14;"/><path d="M128.62,212.601l-9.725,0" style="fill:none;stroke:#000;stroke-width:0.32px;"/></g><g><path d="M341.723,194.526c0,0 -5.785,-0.404 -8.426,1.215c-2.641,1.62 29.648,4.376 29.989,4.405c0.341,0.03 0.32,-3.751 0.32,-3.751l-21.883,-1.869Z" style="fill:#565656;fill-rule:nonzero;"/><path d="M339.94,170.554c0,0 -2.913,14.066 1.782,23.972c0,0 17.613,4.825 21.653,3.109c4.04,-1.717 6.932,-23.21 6.932,-23.21" style="fill:#8c6c33;fill-rule:nonzero;"/><path d="M273.603,24.143l-1.709,20.01c0,0 -11.303,3.616 -0.88,10.309l-1.709,20.01l26.074,2.226c0,0 6.762,17.373 16.519,3.243l23.804,0.199l7.173,-48.249l-31.227,-2.666c0,0 0.991,-15.185 -15.307,-3.14l-22.739,-1.941l0.001,-0.001Z" style="fill:#2e1080;fill-rule:nonzero;"/><path d="M265.292,40.994l1.437,-16.827l-30.166,-2.575c0,0 -4.718,-16.284 -14.553,-1.243l-12.43,-1.061l-3.961,46.386l19.223,3.78c0,0 4.64,17.192 16.978,1.449l22.738,1.942l1.45,-16.978c0,-0.001 -10.423,-6.693 -0.716,-14.873Z" style="fill:#025e14;fill-rule:nonzero;"/><path d="M354.33,139.238c0,0 -21.932,22.895 -13.923,32.4c0,0 15.516,8.382 29.246,4.614c0,0 9.778,-7.281 -1.041,-35.794l-14.282,-1.22l0,0Z" style="fill:#ccc;fill-rule:nonzero;"/><path d="M203.682,74.06l17.281,1.475c0,0 9.981,15.44 23.862,3.09l19.1,1.63l-1.852,21.694c0,0 -18.006,7.014 -1.605,18.798l-1.734,20.313l-61.242,-5.229l6.19,-61.771Z" style="fill:#0d6d67;fill-rule:nonzero;"/><path d="M284.393,97.619l16.574,-1.698c0,0 7.797,12.534 18.645,-1.912l15.652,-1.604l0.714,22.851c0,0 15.818,9.088 1.416,13.816l0.991,9.663l-48.57,4.979l-2.318,-15.812c0,0 -11.367,-6.511 -1.157,-11.279l-1.947,-19.004Z" style="fill:#915912;fill-rule:nonzero;"/><path d="M342.757,139.023l-10.509,-9.273c0,0 2.042,-1.955 -0.955,-3.481c-4.26,-2.168 -4.352,1.592 -4.449,3.914c-0.147,3.559 3.649,3.361 3.649,3.361l10.782,9.753" style="fill:#d8bf8d;fill-rule:nonzero;"/><path d="M359.142,148.084l-18.45,-11.937l-3.542,4.879l19.72,16.246" style="fill:#ccc;fill-rule:nonzero;"/><path d="M361.394,117.285c7.195,0.615 12.532,7.023 11.91,14.302c-0.621,7.278 -6.967,12.689 -14.162,12.075c-7.195,-0.615 -12.532,-7.023 -11.911,-14.302c0.622,-7.278 6.968,-12.689 14.163,-12.075Z" style="fill:#d8bf8d;"/><path d="M350.781,143.259l-5.453,11.913l-5.04,4.247c0,0 7.192,-13.378 10.493,-16.16Z" style="fill:#b71818;fill-rule:nonzero;"/><path d="M350.781,143.259l1.476,0.126l0.19,-2.228c0.001,-0.001 0.76,-0.74 -1.666,2.102Z" style="fill:#b71818;fill-rule:nonzero;"/><path d="M341.808,136.869l-4.008,6.131l-1.617,-0.987l4.509,-5.866" style="fill:#aec1d1;fill-rule:nonzero;"/><path d="M340.831,136.814c0.165,0.014 0.284,0.193 0.267,0.399c-0.018,0.205 -0.166,0.361 -0.33,0.347c-0.165,-0.014 -0.284,-0.192 -0.267,-0.398c0.018,-0.206 0.166,-0.362 0.33,-0.348Z" style="fill:#6b6b6b;"/><path d="M355.381,126.407l-3.874,1.114" style="fill:#565656;fill-rule:nonzero;stroke:#565656;stroke-width:0.46px;"/><path d="M347.962,122.911l1.775,3.014" style="fill:#565656;fill-rule:nonzero;stroke:#565656;stroke-width:0.46px;"/><path d="M349.182,137.527c0,0 2.676,1.979 5.18,0.818" style="fill:none;stroke:#565656;stroke-width:0.46px;"/><path d="M327.926,165.807c0,0 -6.527,3.164 -6.369,9.361c0,0 3.006,13.071 11.484,7.674c0,0 8.277,-4.04 -0.115,-17.926" style="fill:#33a067;fill-rule:nonzero;"/><path d="M348.534,128.113c0.125,0.011 0.218,0.121 0.208,0.247c-0.011,0.125 -0.121,0.218 -0.247,0.207c-0.125,-0.01 -0.218,-0.121 -0.208,-0.246c0.011,-0.126 0.122,-0.219 0.247,-0.208Z" style="fill:#565656;stroke:#565656;stroke-width:0.46px;"/><path d="M345.309,160.406l-13.964,1.194c0,0 -0.004,-2.827 -3.177,-1.713c-4.51,1.583 -1.855,4.247 -0.242,5.92c2.472,2.565 4.951,-0.317 4.951,-0.317l14.5,-1.061" style="fill:#d8bf8d;fill-rule:nonzero;"/><path d="M351.396,128.816c0.126,0.01 0.219,0.121 0.208,0.246c-0.011,0.126 -0.121,0.219 -0.247,0.208c-0.125,-0.011 -0.218,-0.121 -0.207,-0.247c0.01,-0.125 0.121,-0.218 0.246,-0.207Z" style="fill:#565656;stroke:#565656;stroke-width:0.46px;"/><path d="M358.093,155.361l-21.427,4.876l1.02,5.941l25.4,-2.776" style="fill:#ccc;fill-rule:nonzero;"/><path d="M337.962,159.942l1.591,7.15l-1.835,0.468l-1.052,-7.323" style="fill:#aec1d1;fill-rule:nonzero;"/><path d="M337.241,160.591c0.125,-0.108 0.336,-0.069 0.472,0.087c0.135,0.157 0.143,0.371 0.018,0.479c-0.125,0.108 -0.336,0.069 -0.471,-0.087c-0.136,-0.156 -0.144,-0.371 -0.019,-0.479Z" style="fill:#6b6b6b;"/><path d="M327.393,160.458l-0.51,-2.063l3.166,-0.875l-0.701,2.743" style="fill:#33a067;fill-rule:nonzero;"/><path d="M331.184,176.533c-0.049,0.579 -0.306,1.033 -0.771,1.361c-0.464,0.328 -1.069,0.481 -1.815,0.46l-0.264,0.898l-0.82,-0.071l0.279,-0.915c-0.715,-0.114 -1.267,-0.312 -1.656,-0.595l0.129,-1.519c0.394,0.227 0.753,0.399 1.078,0.515c0.325,0.116 0.652,0.188 0.981,0.217c0.566,0.048 0.864,-0.099 0.893,-0.441c0.011,-0.13 -0.032,-0.253 -0.129,-0.368c-0.096,-0.114 -0.312,-0.27 -0.646,-0.466c-0.435,-0.241 -0.762,-0.531 -0.979,-0.871c-0.217,-0.34 -0.307,-0.72 -0.272,-1.14c0.049,-0.573 0.307,-1.024 0.773,-1.351c0.466,-0.328 1.066,-0.485 1.799,-0.472l0.198,-0.637l0.82,0.07l-0.208,0.656c0.519,0.094 1.019,0.284 1.496,0.571l-0.797,1.26c-0.494,-0.275 -0.965,-0.431 -1.411,-0.469c-0.215,-0.019 -0.388,0.013 -0.517,0.093c-0.13,0.081 -0.2,0.187 -0.212,0.317c-0.014,0.173 0.037,0.324 0.153,0.453c0.118,0.13 0.362,0.306 0.733,0.528c0.437,0.261 0.749,0.542 0.937,0.845c0.187,0.304 0.263,0.66 0.228,1.071Z" style="fill:#fff;fill-rule:nonzero;"/><path d="M215.783,47.736c-0.183,0.038 -0.335,0.138 -0.455,0.301c-0.121,0.163 -0.198,0.37 -0.234,0.62c-0.036,0.25 -0.026,0.511 0.03,0.782c0.047,0.227 0.13,0.388 0.248,0.48c0.118,0.092 0.267,0.12 0.445,0.083c0.141,-0.03 0.28,-0.077 0.417,-0.141c0.137,-0.065 0.294,-0.159 0.472,-0.283l0.171,0.823c-0.313,0.224 -0.671,0.378 -1.073,0.462c-0.442,0.091 -0.808,0.035 -1.099,-0.167c-0.29,-0.203 -0.483,-0.535 -0.579,-0.997c-0.093,-0.451 -0.093,-0.883 0.001,-1.296c0.094,-0.413 0.27,-0.745 0.526,-0.999c0.256,-0.253 0.576,-0.419 0.957,-0.498c0.45,-0.093 0.882,-0.067 1.295,0.08l-0.216,0.854c-0.177,-0.06 -0.337,-0.1 -0.479,-0.119c-0.142,-0.02 -0.284,-0.015 -0.427,0.015Z" style="fill:#fff;fill-rule:nonzero;"/><path d="M218.939,46.216c0.441,-0.091 0.811,-0.036 1.108,0.165c0.298,0.201 0.494,0.527 0.587,0.979c0.093,0.452 0.095,0.882 0.003,1.291c-0.091,0.41 -0.265,0.745 -0.52,1.006c-0.256,0.261 -0.581,0.432 -0.972,0.513c-0.457,0.095 -0.836,0.042 -1.137,-0.16c-0.301,-0.201 -0.498,-0.527 -0.591,-0.977c-0.094,-0.45 -0.092,-0.882 0.005,-1.295c0.096,-0.413 0.275,-0.75 0.535,-1.01c0.261,-0.259 0.588,-0.43 0.982,-0.512Zm0.692,1.363c-0.041,-0.193 -0.113,-0.337 -0.217,-0.429c-0.104,-0.093 -0.233,-0.123 -0.388,-0.092c-0.168,0.035 -0.308,0.138 -0.419,0.31c-0.111,0.172 -0.183,0.391 -0.215,0.658c-0.032,0.268 -0.021,0.532 0.032,0.793c0.086,0.411 0.298,0.581 0.638,0.511c0.161,-0.034 0.296,-0.135 0.405,-0.305c0.11,-0.169 0.179,-0.382 0.208,-0.637c0.029,-0.256 0.014,-0.526 -0.044,-0.809Z" style="fill:#fff;fill-rule:nonzero;"/><path d="M222.365,48.037l-0.008,1.415l-0.995,0.206l0.015,-3.886l0.986,-0.204c0.428,-0.089 0.773,-0.072 1.035,0.051c0.263,0.122 0.43,0.354 0.501,0.695c0.055,0.265 0.042,0.509 -0.037,0.731c-0.08,0.222 -0.228,0.409 -0.444,0.562l0.843,1.196l0.152,0.223l-1.085,0.225l-0.777,-1.252l-0.186,0.038Zm0.003,-0.789l0.13,-0.027c0.161,-0.034 0.28,-0.106 0.356,-0.219c0.075,-0.112 0.096,-0.251 0.062,-0.418c-0.022,-0.105 -0.068,-0.179 -0.138,-0.222c-0.07,-0.043 -0.161,-0.053 -0.273,-0.03l-0.135,0.028l-0.002,0.888Z" style="fill:#fff;fill-rule:nonzero;"/><path d="M227.317,45.704c0.089,0.428 0.012,0.794 -0.228,1.098c-0.24,0.304 -0.614,0.508 -1.12,0.613l-0.219,0.046l0.001,1.287l-0.995,0.207l0.015,-3.887l0.95,-0.196c0.44,-0.091 0.797,-0.065 1.072,0.079c0.275,0.144 0.45,0.395 0.524,0.753Zm-1.558,0.905l0.161,-0.033c0.154,-0.032 0.269,-0.108 0.343,-0.227c0.075,-0.119 0.096,-0.255 0.064,-0.408c-0.02,-0.1 -0.067,-0.174 -0.142,-0.223c-0.073,-0.048 -0.164,-0.062 -0.271,-0.039l-0.15,0.031l-0.005,0.899Z" style="fill:#fff;fill-rule:nonzero;"/><path d="M229.419,44.044c0.441,-0.091 0.811,-0.036 1.108,0.165c0.298,0.201 0.493,0.528 0.587,0.98c0.093,0.451 0.094,0.882 0.003,1.291c-0.091,0.409 -0.265,0.745 -0.521,1.006c-0.255,0.261 -0.58,0.432 -0.972,0.513c-0.456,0.095 -0.836,0.042 -1.136,-0.16c-0.302,-0.201 -0.499,-0.527 -0.592,-0.977c-0.093,-0.45 -0.091,-0.882 0.005,-1.295c0.097,-0.413 0.276,-0.75 0.536,-1.01c0.26,-0.26 0.588,-0.431 0.982,-0.513Zm0.691,1.363c-0.04,-0.193 -0.112,-0.336 -0.216,-0.429c-0.104,-0.093 -0.233,-0.123 -0.388,-0.091c-0.168,0.035 -0.308,0.138 -0.419,0.309c-0.111,0.172 -0.183,0.392 -0.216,0.659c-0.032,0.267 -0.021,0.531 0.033,0.792c0.085,0.411 0.298,0.581 0.637,0.511c0.162,-0.033 0.297,-0.135 0.406,-0.305c0.109,-0.169 0.179,-0.382 0.208,-0.638c0.029,-0.255 0.014,-0.524 -0.045,-0.808Z" style="fill:#fff;fill-rule:nonzero;"/><path d="M232.858,45.863l-0.008,1.414l-0.995,0.207l0.015,-3.887l0.986,-0.204c0.428,-0.089 0.773,-0.072 1.035,0.051c0.263,0.123 0.43,0.355 0.501,0.696c0.055,0.265 0.042,0.508 -0.037,0.73c-0.08,0.222 -0.228,0.409 -0.444,0.562l0.842,1.196l0.153,0.224l-1.085,0.224l-0.777,-1.252l-0.186,0.039Zm0.003,-0.79l0.13,-0.027c0.162,-0.033 0.28,-0.106 0.356,-0.218c0.076,-0.113 0.097,-0.252 0.062,-0.418c-0.022,-0.105 -0.068,-0.179 -0.138,-0.222c-0.07,-0.043 -0.161,-0.054 -0.273,-0.03l-0.135,0.028l-0.002,0.887Z" style="fill:#fff;fill-rule:nonzero;"/><path d="M237.198,45.649l-1.141,0.236l-0.174,0.764l-1.034,0.214l1.123,-4.116l1.281,-0.265l1.085,3.658l-0.971,0.201l-0.169,-0.692Zm-0.942,-0.634l0.746,-0.154l-0.267,-1.071l-0.05,-0.218c-0.027,-0.127 -0.046,-0.239 -0.059,-0.336c-0.011,0.154 -0.034,0.306 -0.068,0.455l-0.302,1.324Z" style="fill:#fff;fill-rule:nonzero;"/><path d="M240.277,45.739l-0.996,0.206l0.003,-3.026l-0.807,0.168l0.005,-0.859l2.618,-0.543l-0.011,0.86l-0.81,0.168l-0.002,3.026Z" style="fill:#fff;fill-rule:nonzero;"/><path d="M241.637,45.457l0.015,-3.887l1.011,-0.209l-0.016,3.886l-1.01,0.21Z" style="fill:#fff;fill-rule:nonzero;"/><path d="M244.918,40.833c0.442,-0.092 0.811,-0.037 1.109,0.164c0.298,0.202 0.493,0.528 0.586,0.98c0.094,0.451 0.095,0.882 0.004,1.291c-0.092,0.409 -0.265,0.745 -0.521,1.006c-0.256,0.261 -0.58,0.432 -0.972,0.513c-0.457,0.095 -0.836,0.042 -1.137,-0.16c-0.301,-0.201 -0.498,-0.527 -0.591,-0.977c-0.093,-0.45 -0.092,-0.882 0.005,-1.295c0.096,-0.413 0.275,-0.75 0.536,-1.01c0.261,-0.26 0.588,-0.431 0.981,-0.512Zm0.692,1.362c-0.04,-0.193 -0.112,-0.336 -0.216,-0.429c-0.104,-0.093 -0.234,-0.123 -0.388,-0.091c-0.168,0.035 -0.308,0.138 -0.419,0.309c-0.112,0.172 -0.183,0.392 -0.216,0.659c-0.032,0.267 -0.021,0.531 0.033,0.792c0.085,0.411 0.297,0.581 0.637,0.511c0.161,-0.033 0.296,-0.135 0.406,-0.305c0.109,-0.169 0.178,-0.382 0.207,-0.638c0.029,-0.255 0.015,-0.524 -0.044,-0.808Z" style="fill:#fff;fill-rule:nonzero;"/><path d="M250.621,43.595l-1.159,0.24l-1.278,-2.465l-0.021,0.004c0.053,0.504 0.078,0.869 0.076,1.094l-0.007,1.622l-0.887,0.183l0.016,-3.886l1.159,-0.24l1.246,2.352l0.024,-0.005c-0.034,-0.41 -0.051,-0.736 -0.051,-0.975l0.01,-1.627l0.887,-0.184l-0.015,3.887Z" style="fill:#fff;fill-rule:nonzero;"/><path d="M254.7,42.75l-0.991,0.205l0.022,-2.127c0.001,-0.233 0.02,-0.464 0.058,-0.692c-0.108,0.144 -0.202,0.254 -0.279,0.332l-0.451,0.425l-0.517,-0.562l1.377,-1.302l0.792,-0.164l-0.011,3.885Z" style="fill:#fff;fill-rule:nonzero;"/><path d="M286.628,55.14c-0.183,0.038 -0.335,0.139 -0.455,0.302c-0.12,0.163 -0.198,0.369 -0.234,0.619c-0.036,0.25 -0.026,0.511 0.03,0.782c0.047,0.228 0.13,0.388 0.248,0.48c0.118,0.092 0.267,0.12 0.445,0.083c0.141,-0.029 0.28,-0.076 0.417,-0.141c0.137,-0.064 0.295,-0.158 0.473,-0.282l0.171,0.823c-0.313,0.224 -0.671,0.378 -1.074,0.461c-0.441,0.092 -0.807,0.036 -1.098,-0.166c-0.29,-0.203 -0.483,-0.535 -0.579,-0.997c-0.093,-0.452 -0.093,-0.884 0.001,-1.296c0.094,-0.413 0.269,-0.746 0.526,-0.999c0.256,-0.253 0.575,-0.419 0.957,-0.499c0.45,-0.093 0.882,-0.066 1.295,0.08l-0.217,0.855c-0.177,-0.061 -0.337,-0.1 -0.479,-0.119c-0.142,-0.02 -0.284,-0.015 -0.427,0.014Z" style="fill:#fff;fill-rule:nonzero;"/><path d="M289.784,53.621c0.442,-0.092 0.811,-0.037 1.109,0.164c0.297,0.202 0.493,0.528 0.586,0.98c0.094,0.451 0.095,0.882 0.004,1.291c-0.092,0.409 -0.265,0.745 -0.521,1.005c-0.256,0.262 -0.58,0.433 -0.972,0.514c-0.457,0.095 -0.836,0.041 -1.137,-0.161c-0.301,-0.201 -0.498,-0.526 -0.591,-0.977c-0.093,-0.449 -0.092,-0.881 0.005,-1.294c0.096,-0.414 0.275,-0.75 0.536,-1.01c0.261,-0.26 0.588,-0.431 0.981,-0.512Zm0.692,1.362c-0.041,-0.193 -0.113,-0.336 -0.217,-0.429c-0.104,-0.092 -0.233,-0.123 -0.388,-0.091c-0.168,0.035 -0.308,0.138 -0.419,0.31c-0.111,0.171 -0.183,0.391 -0.216,0.658c-0.032,0.267 -0.021,0.531 0.033,0.792c0.086,0.412 0.298,0.582 0.637,0.511c0.162,-0.033 0.297,-0.135 0.406,-0.304c0.11,-0.17 0.179,-0.383 0.208,-0.638c0.029,-0.256 0.015,-0.525 -0.044,-0.809Z" style="fill:#fff;fill-rule:nonzero;"/><path d="M293.21,55.442l-0.007,1.414l-0.996,0.206l0.015,-3.886l0.986,-0.204c0.428,-0.089 0.773,-0.072 1.036,0.051c0.262,0.122 0.429,0.354 0.5,0.696c0.055,0.264 0.043,0.508 -0.037,0.73c-0.08,0.222 -0.228,0.409 -0.444,0.562l0.843,1.196l0.153,0.223l-1.085,0.225l-0.778,-1.252l-0.186,0.039Zm0.003,-0.79l0.13,-0.027c0.162,-0.033 0.28,-0.106 0.356,-0.218c0.076,-0.113 0.097,-0.252 0.062,-0.418c-0.022,-0.105 -0.068,-0.179 -0.138,-0.223c-0.07,-0.042 -0.161,-0.053 -0.273,-0.029l-0.135,0.028l-0.002,0.887Z" style="fill:#fff;fill-rule:nonzero;"/><path d="M298.162,53.109c0.089,0.428 0.012,0.794 -0.228,1.098c-0.24,0.303 -0.614,0.508 -1.12,0.613l-0.219,0.045l0.001,1.288l-0.995,0.206l0.015,-3.886l0.95,-0.197c0.44,-0.091 0.797,-0.065 1.072,0.079c0.275,0.144 0.45,0.396 0.524,0.754Zm-1.558,0.904l0.161,-0.033c0.154,-0.032 0.269,-0.107 0.343,-0.226c0.075,-0.119 0.096,-0.255 0.064,-0.408c-0.02,-0.101 -0.068,-0.175 -0.142,-0.223c-0.073,-0.049 -0.164,-0.062 -0.271,-0.04l-0.15,0.031l-0.005,0.899Z" style="fill:#fff;fill-rule:nonzero;"/><path d="M300.264,51.449c0.441,-0.091 0.811,-0.037 1.109,0.165c0.297,0.201 0.492,0.528 0.586,0.979c0.093,0.452 0.095,0.882 0.003,1.292c-0.091,0.409 -0.265,0.744 -0.52,1.005c-0.256,0.262 -0.581,0.433 -0.972,0.514c-0.457,0.095 -0.836,0.041 -1.137,-0.16c-0.301,-0.202 -0.498,-0.527 -0.591,-0.978c-0.094,-0.449 -0.092,-0.881 0.005,-1.294c0.096,-0.414 0.275,-0.75 0.535,-1.01c0.26,-0.26 0.588,-0.432 0.982,-0.513Zm0.691,1.363c-0.04,-0.194 -0.112,-0.337 -0.216,-0.43c-0.104,-0.092 -0.234,-0.123 -0.388,-0.091c-0.168,0.035 -0.308,0.138 -0.419,0.31c-0.111,0.172 -0.183,0.391 -0.216,0.658c-0.032,0.267 -0.021,0.531 0.033,0.793c0.085,0.411 0.298,0.581 0.637,0.51c0.162,-0.033 0.296,-0.134 0.406,-0.304c0.109,-0.17 0.178,-0.382 0.208,-0.638c0.029,-0.255 0.014,-0.525 -0.045,-0.808Z" style="fill:#fff;fill-rule:nonzero;"/><path d="M303.703,53.268l-0.008,1.414l-0.995,0.206l0.015,-3.886l0.986,-0.204c0.428,-0.089 0.773,-0.072 1.036,0.051c0.262,0.122 0.429,0.354 0.5,0.696c0.055,0.264 0.042,0.508 -0.037,0.73c-0.08,0.222 -0.228,0.409 -0.444,0.562l0.843,1.196l0.152,0.223l-1.084,0.225l-0.778,-1.252l-0.186,0.039Zm0.003,-0.79l0.131,-0.027c0.161,-0.033 0.279,-0.106 0.355,-0.219c0.076,-0.112 0.097,-0.251 0.062,-0.417c-0.022,-0.106 -0.068,-0.18 -0.137,-0.223c-0.071,-0.043 -0.161,-0.053 -0.274,-0.029l-0.134,0.027l-0.003,0.888Z" style="fill:#fff;fill-rule:nonzero;"/><path d="M308.043,53.053l-1.141,0.237l-0.174,0.764l-1.034,0.214l1.123,-4.116l1.281,-0.266l1.085,3.659l-0.97,0.201l-0.17,-0.693Zm-0.942,-0.633l0.746,-0.155l-0.267,-1.07l-0.05,-0.219c-0.026,-0.127 -0.046,-0.239 -0.059,-0.335c-0.01,0.154 -0.033,0.306 -0.068,0.455l-0.302,1.324Z" style="fill:#fff;fill-rule:nonzero;"/><path d="M311.122,53.143l-0.996,0.206l0.003,-3.026l-0.808,0.168l0.006,-0.859l2.618,-0.543l-0.011,0.86l-0.81,0.168l-0.002,3.026Z" style="fill:#fff;fill-rule:nonzero;"/><path d="M312.482,52.861l0.015,-3.886l1.011,-0.21l-0.016,3.887l-1.01,0.209Z" style="fill:#fff;fill-rule:nonzero;"/><path d="M315.763,48.237c0.442,-0.091 0.811,-0.037 1.109,0.165c0.297,0.201 0.493,0.528 0.586,0.979c0.094,0.452 0.095,0.882 0.004,1.292c-0.092,0.409 -0.266,0.744 -0.521,1.005c-0.256,0.262 -0.58,0.433 -0.972,0.514c-0.457,0.095 -0.836,0.041 -1.137,-0.16c-0.301,-0.202 -0.498,-0.527 -0.591,-0.978c-0.093,-0.449 -0.092,-0.881 0.005,-1.294c0.096,-0.414 0.275,-0.75 0.535,-1.01c0.261,-0.26 0.589,-0.432 0.982,-0.513Zm0.691,1.363c-0.04,-0.194 -0.112,-0.337 -0.216,-0.43c-0.104,-0.092 -0.233,-0.123 -0.388,-0.091c-0.168,0.035 -0.308,0.138 -0.419,0.31c-0.111,0.172 -0.183,0.391 -0.216,0.658c-0.032,0.267 -0.021,0.531 0.033,0.793c0.085,0.411 0.298,0.581 0.637,0.51c0.162,-0.033 0.297,-0.134 0.406,-0.304c0.11,-0.17 0.179,-0.382 0.208,-0.638c0.029,-0.255 0.014,-0.525 -0.045,-0.808Z" style="fill:#fff;fill-rule:nonzero;"/><path d="M321.465,50.999l-1.158,0.24l-1.279,-2.465l-0.02,0.004c0.053,0.504 0.078,0.869 0.075,1.094l-0.007,1.622l-0.886,0.183l0.015,-3.886l1.159,-0.24l1.247,2.352l0.023,-0.005c-0.034,-0.411 -0.05,-0.736 -0.05,-0.975l0.01,-1.627l0.886,-0.184l-0.015,3.887Z" style="fill:#fff;fill-rule:nonzero;"/><path d="M325.988,50.062l-2.56,0.531l0,-0.68l1,-1.365c0.343,-0.463 0.49,-0.813 0.441,-1.05c-0.017,-0.084 -0.052,-0.141 -0.105,-0.174c-0.053,-0.032 -0.113,-0.041 -0.181,-0.027c-0.203,0.042 -0.416,0.217 -0.638,0.523l-0.61,-0.559c0.32,-0.458 0.74,-0.741 1.261,-0.849c0.311,-0.064 0.579,-0.031 0.804,0.098c0.225,0.13 0.368,0.339 0.428,0.627c0.053,0.258 0.029,0.515 -0.072,0.772c-0.101,0.256 -0.298,0.576 -0.592,0.959l-0.429,0.556l0.006,0.031l1.248,-0.258l-0.001,0.865Z" style="fill:#fff;fill-rule:nonzero;"/><path d="M209.77,112.568c-0.183,0.038 -0.335,0.139 -0.455,0.302c-0.12,0.163 -0.198,0.369 -0.234,0.619c-0.036,0.25 -0.026,0.511 0.03,0.782c0.048,0.228 0.13,0.388 0.248,0.48c0.118,0.092 0.267,0.12 0.445,0.083c0.141,-0.029 0.28,-0.076 0.417,-0.14c0.137,-0.065 0.295,-0.159 0.473,-0.283l0.171,0.823c-0.313,0.224 -0.671,0.378 -1.074,0.461c-0.441,0.092 -0.807,0.036 -1.098,-0.166c-0.29,-0.203 -0.483,-0.535 -0.579,-0.997c-0.093,-0.452 -0.093,-0.884 0.001,-1.296c0.094,-0.413 0.269,-0.746 0.526,-0.999c0.256,-0.253 0.576,-0.419 0.957,-0.498c0.45,-0.094 0.882,-0.067 1.295,0.079l-0.217,0.855c-0.176,-0.06 -0.337,-0.1 -0.479,-0.119c-0.142,-0.02 -0.284,-0.015 -0.427,0.014Z" style="fill:#fff;fill-rule:nonzero;"/><path d="M212.926,111.049c0.442,-0.092 0.811,-0.037 1.109,0.164c0.298,0.202 0.493,0.528 0.586,0.98c0.094,0.451 0.095,0.882 0.004,1.291c-0.092,0.409 -0.265,0.745 -0.521,1.006c-0.256,0.261 -0.58,0.432 -0.972,0.513c-0.457,0.095 -0.836,0.041 -1.136,-0.16c-0.302,-0.202 -0.499,-0.527 -0.592,-0.978c-0.093,-0.449 -0.092,-0.881 0.005,-1.294c0.097,-0.413 0.275,-0.75 0.536,-1.01c0.261,-0.26 0.588,-0.431 0.981,-0.512Zm0.692,1.363c-0.041,-0.194 -0.113,-0.337 -0.217,-0.43c-0.104,-0.092 -0.233,-0.123 -0.388,-0.091c-0.168,0.035 -0.308,0.138 -0.419,0.31c-0.111,0.172 -0.183,0.391 -0.216,0.658c-0.031,0.267 -0.02,0.531 0.033,0.792c0.086,0.412 0.298,0.582 0.638,0.511c0.161,-0.033 0.296,-0.135 0.405,-0.304c0.11,-0.17 0.179,-0.382 0.208,-0.638c0.029,-0.256 0.014,-0.525 -0.044,-0.808Z" style="fill:#fff;fill-rule:nonzero;"/><path d="M216.352,112.87l-0.008,1.414l-0.995,0.206l0.015,-3.886l0.986,-0.204c0.428,-0.089 0.773,-0.072 1.035,0.051c0.263,0.122 0.43,0.354 0.501,0.696c0.055,0.264 0.042,0.508 -0.037,0.73c-0.08,0.222 -0.228,0.409 -0.444,0.562l0.843,1.196l0.152,0.223l-1.085,0.225l-0.777,-1.252l-0.186,0.039Zm0.003,-0.79l0.131,-0.027c0.161,-0.033 0.279,-0.106 0.355,-0.218c0.076,-0.113 0.097,-0.252 0.062,-0.418c-0.022,-0.105 -0.068,-0.179 -0.138,-0.222c-0.07,-0.043 -0.161,-0.053 -0.273,-0.03l-0.135,0.028l-0.002,0.887Z" style="fill:#fff;fill-rule:nonzero;"/><path d="M221.304,110.537c0.089,0.428 0.012,0.794 -0.228,1.098c-0.24,0.304 -0.614,0.508 -1.12,0.613l-0.219,0.045l0.001,1.288l-0.995,0.206l0.015,-3.886l0.95,-0.197c0.44,-0.091 0.797,-0.064 1.072,0.079c0.275,0.144 0.45,0.396 0.524,0.754Zm-1.558,0.904l0.161,-0.033c0.154,-0.032 0.269,-0.107 0.343,-0.226c0.075,-0.119 0.096,-0.255 0.064,-0.408c-0.02,-0.1 -0.067,-0.175 -0.142,-0.223c-0.073,-0.049 -0.164,-0.062 -0.271,-0.04l-0.15,0.031l-0.005,0.899Z" style="fill:#fff;fill-rule:nonzero;"/><path d="M223.406,108.877c0.441,-0.091 0.811,-0.037 1.109,0.165c0.297,0.201 0.493,0.528 0.586,0.979c0.093,0.452 0.095,0.882 0.004,1.292c-0.092,0.409 -0.266,0.744 -0.521,1.006c-0.256,0.261 -0.581,0.432 -0.972,0.513c-0.457,0.095 -0.836,0.041 -1.137,-0.16c-0.301,-0.202 -0.498,-0.527 -0.591,-0.978c-0.093,-0.449 -0.092,-0.881 0.005,-1.294c0.096,-0.413 0.275,-0.75 0.535,-1.01c0.261,-0.26 0.588,-0.431 0.982,-0.513Zm0.691,1.363c-0.04,-0.194 -0.112,-0.337 -0.216,-0.43c-0.104,-0.092 -0.233,-0.123 -0.388,-0.091c-0.168,0.035 -0.308,0.138 -0.419,0.31c-0.111,0.172 -0.183,0.391 -0.216,0.658c-0.032,0.267 -0.021,0.531 0.033,0.793c0.085,0.411 0.298,0.581 0.637,0.511c0.162,-0.034 0.297,-0.135 0.406,-0.305c0.109,-0.17 0.179,-0.382 0.208,-0.638c0.029,-0.255 0.014,-0.525 -0.045,-0.808Z" style="fill:#fff;fill-rule:nonzero;"/><path d="M226.845,110.696l-0.007,1.414l-0.996,0.206l0.015,-3.886l0.986,-0.204c0.428,-0.089 0.773,-0.072 1.036,0.051c0.262,0.122 0.429,0.354 0.5,0.696c0.055,0.264 0.043,0.508 -0.037,0.73c-0.08,0.222 -0.228,0.409 -0.444,0.562l0.843,1.196l0.152,0.223l-1.084,0.225l-0.778,-1.252l-0.186,0.039Zm0.003,-0.79l0.13,-0.027c0.162,-0.033 0.28,-0.106 0.356,-0.219c0.076,-0.112 0.097,-0.251 0.062,-0.417c-0.022,-0.106 -0.068,-0.18 -0.138,-0.223c-0.07,-0.043 -0.161,-0.053 -0.273,-0.029l-0.135,0.027l-0.002,0.888Z" style="fill:#fff;fill-rule:nonzero;"/><path d="M231.185,110.481l-1.141,0.237l-0.174,0.764l-1.034,0.214l1.123,-4.116l1.281,-0.266l1.085,3.659l-0.97,0.201l-0.17,-0.693Zm-0.942,-0.633l0.746,-0.155l-0.267,-1.07l-0.05,-0.219c-0.026,-0.127 -0.046,-0.239 -0.059,-0.335c-0.01,0.154 -0.033,0.306 -0.067,0.455l-0.303,1.324Z" style="fill:#fff;fill-rule:nonzero;"/><path d="M234.264,110.571l-0.996,0.206l0.003,-3.026l-0.808,0.168l0.006,-0.859l2.618,-0.543l-0.011,0.86l-0.81,0.168l-0.002,3.026Z" style="fill:#fff;fill-rule:nonzero;"/><path d="M235.624,110.289l0.015,-3.886l1.011,-0.21l-0.016,3.887l-1.01,0.209Z" style="fill:#fff;fill-rule:nonzero;"/><path d="M238.905,105.665c0.442,-0.091 0.811,-0.037 1.109,0.165c0.297,0.201 0.493,0.528 0.586,0.979c0.094,0.452 0.095,0.882 0.004,1.292c-0.092,0.409 -0.265,0.744 -0.521,1.006c-0.256,0.261 -0.58,0.432 -0.972,0.513c-0.457,0.095 -0.836,0.041 -1.137,-0.16c-0.301,-0.202 -0.498,-0.527 -0.591,-0.978c-0.093,-0.449 -0.092,-0.881 0.005,-1.294c0.096,-0.413 0.275,-0.75 0.536,-1.01c0.261,-0.26 0.588,-0.431 0.981,-0.513Zm0.692,1.363c-0.041,-0.194 -0.113,-0.337 -0.217,-0.43c-0.104,-0.092 -0.233,-0.123 -0.388,-0.091c-0.168,0.035 -0.308,0.138 -0.419,0.31c-0.111,0.172 -0.183,0.391 -0.216,0.658c-0.032,0.267 -0.021,0.531 0.033,0.793c0.085,0.411 0.298,0.581 0.637,0.511c0.162,-0.034 0.297,-0.135 0.406,-0.305c0.11,-0.17 0.179,-0.382 0.208,-0.638c0.029,-0.255 0.015,-0.525 -0.044,-0.808Z" style="fill:#fff;fill-rule:nonzero;"/><path d="M244.607,108.428l-1.158,0.24l-1.279,-2.466l-0.02,0.005c0.053,0.504 0.078,0.869 0.075,1.094l-0.007,1.621l-0.886,0.184l0.015,-3.887l1.159,-0.24l1.247,2.353l0.023,-0.005c-0.033,-0.411 -0.05,-0.736 -0.05,-0.975l0.01,-1.628l0.886,-0.183l-0.015,3.887Z" style="fill:#fff;fill-rule:nonzero;"/><path d="M248.983,104.501c0.052,0.251 0.02,0.475 -0.099,0.671c-0.117,0.196 -0.309,0.351 -0.574,0.464l0.004,0.02c0.228,-0.002 0.419,0.056 0.574,0.178c0.154,0.121 0.253,0.289 0.298,0.502c0.076,0.367 -0.017,0.681 -0.278,0.942c-0.261,0.262 -0.65,0.445 -1.166,0.552c-0.197,0.041 -0.385,0.062 -0.564,0.063c-0.181,0.001 -0.333,-0.02 -0.458,-0.061l-0.175,-0.845c0.318,0.111 0.656,0.13 1.013,0.056c0.234,-0.049 0.401,-0.124 0.501,-0.228c0.1,-0.103 0.134,-0.228 0.104,-0.376c-0.019,-0.091 -0.056,-0.156 -0.112,-0.192c-0.055,-0.036 -0.135,-0.055 -0.24,-0.055c-0.105,-0.001 -0.248,0.018 -0.429,0.056l-0.214,0.044l-0.019,-0.769l0.199,-0.041c0.25,-0.052 0.436,-0.132 0.559,-0.239c0.123,-0.108 0.17,-0.231 0.142,-0.368c-0.017,-0.078 -0.06,-0.135 -0.131,-0.169c-0.071,-0.036 -0.16,-0.042 -0.267,-0.02c-0.199,0.042 -0.413,0.161 -0.643,0.357l-0.533,-0.548c0.185,-0.182 0.371,-0.322 0.559,-0.42c0.188,-0.098 0.402,-0.173 0.641,-0.222c0.341,-0.071 0.631,-0.048 0.868,0.067c0.237,0.115 0.384,0.309 0.44,0.581Z" style="fill:#fff;fill-rule:nonzero;"/><path d="M294.527,119.333c-0.157,0.033 -0.287,0.119 -0.39,0.258c-0.103,0.14 -0.17,0.317 -0.201,0.531c-0.03,0.214 -0.022,0.437 0.027,0.67c0.04,0.195 0.111,0.332 0.212,0.411c0.102,0.079 0.228,0.102 0.381,0.071c0.121,-0.025 0.24,-0.065 0.357,-0.121c0.117,-0.055 0.252,-0.136 0.405,-0.242l0.146,0.705c-0.268,0.192 -0.574,0.323 -0.919,0.395c-0.378,0.078 -0.691,0.03 -0.94,-0.143c-0.25,-0.174 -0.415,-0.458 -0.497,-0.854c-0.08,-0.386 -0.08,-0.756 0.001,-1.109c0.08,-0.354 0.231,-0.639 0.45,-0.856c0.22,-0.217 0.493,-0.359 0.821,-0.427c0.385,-0.08 0.754,-0.057 1.107,0.069l-0.185,0.732c-0.151,-0.052 -0.288,-0.086 -0.41,-0.103c-0.121,-0.016 -0.243,-0.012 -0.365,0.013Z" style="fill:#fff;fill-rule:nonzero;"/><path d="M297.223,118.033c0.378,-0.079 0.695,-0.031 0.949,0.141c0.255,0.172 0.422,0.452 0.503,0.838c0.08,0.387 0.081,0.756 0.003,1.106c-0.079,0.35 -0.227,0.637 -0.446,0.861c-0.219,0.224 -0.496,0.37 -0.833,0.44c-0.391,0.081 -0.715,0.035 -0.973,-0.137c-0.257,-0.173 -0.426,-0.451 -0.506,-0.837c-0.08,-0.385 -0.078,-0.755 0.004,-1.108c0.083,-0.354 0.236,-0.642 0.459,-0.865c0.223,-0.223 0.503,-0.369 0.84,-0.439Zm0.592,1.167c-0.034,-0.166 -0.096,-0.289 -0.185,-0.368c-0.089,-0.079 -0.2,-0.105 -0.332,-0.078c-0.144,0.03 -0.263,0.118 -0.359,0.265c-0.095,0.147 -0.157,0.335 -0.184,0.564c-0.028,0.229 -0.019,0.455 0.028,0.679c0.072,0.351 0.254,0.497 0.545,0.437c0.138,-0.029 0.254,-0.116 0.347,-0.261c0.094,-0.145 0.153,-0.327 0.178,-0.546c0.025,-0.219 0.013,-0.45 -0.038,-0.692Z" style="fill:#fff;fill-rule:nonzero;"/><path d="M300.163,119.591l-0.006,1.211l-0.853,0.177l0.014,-3.327l0.844,-0.175c0.366,-0.076 0.662,-0.062 0.886,0.043c0.225,0.105 0.368,0.304 0.428,0.596c0.047,0.227 0.037,0.435 -0.031,0.625c-0.069,0.19 -0.196,0.351 -0.381,0.482l0.722,1.023l0.13,0.192l-0.929,0.192l-0.665,-1.072l-0.159,0.033Zm0.003,-0.676l0.111,-0.023c0.138,-0.029 0.24,-0.091 0.305,-0.187c0.065,-0.097 0.082,-0.216 0.053,-0.358c-0.018,-0.09 -0.058,-0.154 -0.118,-0.191c-0.059,-0.037 -0.138,-0.046 -0.233,-0.026l-0.116,0.025l-0.002,0.76Z" style="fill:#fff;fill-rule:nonzero;"/><path d="M304.41,117.592c0.076,0.366 0.011,0.679 -0.195,0.939c-0.206,0.261 -0.526,0.436 -0.959,0.526l-0.187,0.039l0,1.102l-0.852,0.177l0.014,-3.327l0.813,-0.169c0.376,-0.078 0.682,-0.055 0.918,0.068c0.235,0.123 0.385,0.338 0.448,0.645Zm-1.334,0.774l0.138,-0.028c0.132,-0.028 0.23,-0.092 0.294,-0.195c0.064,-0.101 0.082,-0.218 0.055,-0.349c-0.018,-0.085 -0.058,-0.149 -0.121,-0.191c-0.063,-0.041 -0.141,-0.053 -0.232,-0.033l-0.129,0.026l-0.005,0.77Z" style="fill:#fff;fill-rule:nonzero;"/><path d="M306.202,116.172c0.378,-0.078 0.695,-0.031 0.949,0.141c0.255,0.173 0.422,0.452 0.503,0.839c0.08,0.386 0.081,0.755 0.003,1.105c-0.079,0.351 -0.227,0.638 -0.446,0.861c-0.219,0.224 -0.496,0.371 -0.832,0.44c-0.391,0.081 -0.716,0.035 -0.974,-0.137c-0.257,-0.173 -0.426,-0.451 -0.506,-0.836c-0.08,-0.386 -0.078,-0.755 0.004,-1.109c0.083,-0.354 0.237,-0.642 0.459,-0.865c0.223,-0.223 0.503,-0.369 0.84,-0.439Zm0.592,1.167c-0.034,-0.166 -0.096,-0.289 -0.185,-0.368c-0.089,-0.079 -0.2,-0.105 -0.332,-0.078c-0.144,0.03 -0.263,0.118 -0.359,0.266c-0.095,0.147 -0.157,0.335 -0.184,0.563c-0.028,0.229 -0.019,0.455 0.028,0.679c0.072,0.352 0.254,0.497 0.545,0.437c0.138,-0.029 0.254,-0.116 0.347,-0.261c0.094,-0.145 0.153,-0.327 0.178,-0.546c0.025,-0.219 0.013,-0.449 -0.038,-0.692Z" style="fill:#fff;fill-rule:nonzero;"/><path d="M309.147,117.729l-0.006,1.211l-0.853,0.177l0.014,-3.327l0.844,-0.175c0.366,-0.076 0.662,-0.062 0.886,0.043c0.225,0.106 0.368,0.304 0.429,0.596c0.046,0.227 0.036,0.436 -0.032,0.625c-0.069,0.19 -0.195,0.351 -0.38,0.482l0.721,1.024l0.13,0.191l-0.928,0.192l-0.666,-1.071l-0.159,0.032Zm0.003,-0.676l0.112,-0.023c0.137,-0.029 0.239,-0.091 0.304,-0.187c0.065,-0.096 0.083,-0.216 0.053,-0.358c-0.018,-0.09 -0.058,-0.153 -0.117,-0.19c-0.06,-0.037 -0.139,-0.046 -0.234,-0.026l-0.116,0.024l-0.002,0.76Z" style="fill:#fff;fill-rule:nonzero;"/><path d="M312.863,117.546l-0.977,0.202l-0.149,0.654l-0.885,0.184l0.961,-3.524l1.097,-0.227l0.929,3.132l-0.831,0.172l-0.145,-0.593Zm-0.806,-0.542l0.639,-0.133l-0.229,-0.917l-0.043,-0.186c-0.023,-0.109 -0.04,-0.205 -0.051,-0.288c-0.009,0.132 -0.028,0.262 -0.058,0.39l-0.258,1.134Z" style="fill:#fff;fill-rule:nonzero;"/><path d="M315.499,117.623l-0.852,0.177l0.002,-2.591l-0.691,0.143l0.004,-0.735l2.242,-0.465l-0.009,0.737l-0.694,0.144l-0.002,2.59Z" style="fill:#fff;fill-rule:nonzero;"/><path d="M316.664,117.382l0.013,-3.328l0.866,-0.179l-0.013,3.327l-0.866,0.18Z" style="fill:#fff;fill-rule:nonzero;"/><path d="M319.474,113.422c0.378,-0.078 0.694,-0.031 0.949,0.141c0.255,0.173 0.422,0.452 0.503,0.839c0.08,0.386 0.081,0.755 0.002,1.105c-0.078,0.351 -0.227,0.638 -0.445,0.861c-0.219,0.224 -0.497,0.371 -0.833,0.44c-0.391,0.081 -0.715,0.035 -0.973,-0.137c-0.258,-0.172 -0.427,-0.451 -0.506,-0.836c-0.08,-0.386 -0.079,-0.755 0.004,-1.109c0.083,-0.354 0.236,-0.642 0.459,-0.865c0.223,-0.223 0.503,-0.369 0.84,-0.439Zm0.592,1.167c-0.034,-0.166 -0.096,-0.288 -0.185,-0.368c-0.089,-0.079 -0.2,-0.105 -0.332,-0.078c-0.144,0.03 -0.264,0.119 -0.359,0.266c-0.096,0.147 -0.157,0.335 -0.185,0.563c-0.027,0.229 -0.018,0.455 0.029,0.679c0.072,0.352 0.254,0.497 0.545,0.437c0.138,-0.029 0.254,-0.116 0.347,-0.261c0.094,-0.145 0.153,-0.327 0.178,-0.546c0.025,-0.219 0.013,-0.449 -0.038,-0.692Z" style="fill:#fff;fill-rule:nonzero;"/><path d="M324.356,115.787l-0.992,0.206l-1.094,-2.111l-0.018,0.004c0.046,0.432 0.067,0.744 0.065,0.937l-0.006,1.388l-0.759,0.158l0.013,-3.328l0.992,-0.206l1.068,2.015l0.02,-0.004c-0.03,-0.352 -0.043,-0.631 -0.043,-0.835l0.009,-1.394l0.758,-0.157l-0.013,3.327Z" style="fill:#fff;fill-rule:nonzero;"/><path d="M328.369,114.312l-0.327,0.068l-0.001,0.644l-0.822,0.17l0.003,-0.644l-1.197,0.248l-0.005,-0.581l1.245,-2.357l0.785,-0.163l-0.006,2.012l0.324,-0.067l0.001,0.67Zm-1.147,-0.433l0.019,-0.445c0.01,-0.165 0.022,-0.327 0.035,-0.488l-0.019,0.004c-0.045,0.157 -0.102,0.299 -0.171,0.427l-0.32,0.596l0.456,-0.094Z" style="fill:#fff;fill-rule:nonzero;"/></g></g></svg>