<?xml version="1.0" encoding="UTF-8" standalone="no"?><!DOCTYPE svg PUBLIC "-//W3C//DTD SVG 1.1//EN" "http://www.w3.org/Graphics/SVG/1.1/DTD/svg11.dtd"><svg width="100%" height="100%" viewBox="0 0 332 41" version="1.1" xmlns="http://www.w3.org/2000/svg" xmlns:xlink="http://www.w3.org/1999/xlink" xml:space="preserve" style="fill-rule:evenodd;clip-rule:evenodd;stroke-linejoin:round;stroke-miterlimit:1.41421;"><g id="consuer-two"><g id="icon-2"><path d="M89.472,1.069l-29.613,10.393l10.517,18.845l2.832,-0.582l0.768,1.381l22.854,-7.942l-7.358,-22.095Z" style="fill:#c73d27;fill-rule:nonzero;"/><path d="M59.82,14.025c0,0 -0.709,0.708 -1.654,0.708c-0.945,0 -5.041,-1.84 -5.591,-2.195c-0.551,-0.354 -1.812,-1.487 -4.096,-0.92c-2.284,0.566 -5.434,1.487 -5.907,1.841c-0.472,0.354 -1.417,1.557 -1.417,1.983c0,0.424 -0.551,1.66 -0.788,1.785c-0.237,0.126 -1.261,1.613 -0.316,2.462c0.945,0.85 1.892,0.638 2.757,0.355c0.867,-0.285 3.052,-2.676 3.052,-3.241c0,-0.566 -0.59,-1.998 -0.59,-1.998c0,0 1.398,-0.119 1.477,1.073c0.079,1.191 0.866,-1.003 2.993,0.838c2.126,1.842 7.415,5.42 7.415,5.42c0,0 3.629,-0.016 4.179,-0.3c0.552,-0.282 -0.16,0.428 -0.503,0.68c-0.341,0.252 -1.916,0.648 -1.916,0.648c0,0 1.389,1.214 1.626,1.781c0.235,0.567 1.101,2.431 1.101,2.431l4.716,-2.023c-0.002,0 -5.199,-10.195 -6.538,-11.328Z" style="fill:#c73d27;fill-rule:nonzero;"/><path d="M4.101,0.471l28.135,9.611l3.229,0.793c0,0 0.342,0.231 0,0.921c-0.342,0.689 -9.565,19.309 -9.565,19.309l-2.484,-1.063l-0.965,1.822l-22.249,-8.774l3.899,-22.619Z" style="fill:#c73d27;fill-rule:nonzero;"/><path d="M36.155,13.069c0,0 2.637,-0.318 4.33,-1.132c1.694,-0.815 5.277,-2.124 6.42,-1.805c1.141,0.318 1.149,0.399 1.149,0.399c0,0 -4.951,1.6 -5.974,1.99c-1.024,0.389 -1.912,2.086 -1.951,2.476c-0.04,0.389 -1.012,2.436 -1.328,2.754c-0.316,0.318 -0.817,2.177 0.679,3.026c1.496,0.85 2.304,0.293 2.698,0.15c0.394,-0.14 2.028,-0.638 2.855,-1.736c0.827,-1.098 1.772,-2.229 2.54,-2.053c0.767,0.177 1.023,-0.104 2.48,1.276c1.458,1.38 4.784,3.505 4.784,3.505c0,0 4.729,3.527 4.863,3.822c0.313,0.685 1.547,2.708 1.349,3.209c-0.133,0.342 -0.556,1.43 -1.783,1.57c-0.657,0.075 -1.024,-0.211 -1.024,-0.211l-4.212,-4.213l-1.496,-1.76c0,0 0.315,1.902 0.551,2.186c0.236,0.283 2.936,2.846 3.229,3.151c0.463,0.478 1.219,0.968 1.381,1.313c0.332,0.705 -0.631,2.085 -1.854,2.085c-1.22,0 -1.948,-0.431 -1.948,-0.431l-2.837,-2.33l-1.122,-1.248c0,0 0.04,1.354 0.236,1.636c0.197,0.284 3.269,2.797 3.269,2.797l0.433,0.283c0,0 0.077,0.354 -0.631,0.814c-0.708,0.46 -1.885,0.608 -2.003,0.572c-0.118,-0.035 -3.292,-3.05 -3.666,-3.298c-0.374,-0.248 0,1.2 0,1.2l1.065,0.888l1.569,1.521c0,0 0.123,0.037 -0.43,0.462c-0.55,0.424 -2.807,0.284 -2.807,0.284c0,0 1.488,-1.718 0.16,-2.728c-0.704,-0.535 -0.974,-0.641 -0.974,-0.641c0.307,-0.64 0.6,-1.465 0.325,-2.173c-0.276,-0.708 -0.955,-1.364 -1.702,-1.54c-0.748,-0.177 -1.96,0.133 -1.96,0.133c0,0 0.161,-1.193 -1.072,-2.01c-0.748,-0.496 -2.09,-0.445 -3.143,0.219c-0.584,0.367 -1.986,1.366 -1.986,1.366c0.039,-0.292 -1.488,-3.132 -4.619,-2.043l-1.811,-1.383l5.968,-12.352Z" style="fill:#c73d27;fill-rule:nonzero;"/><path d="M31.251,27.841c0,0 -0.46,1.509 0.05,1.91c2.127,1.672 3.278,1.23 3.278,1.23c0,0 0,0.707 0.788,1.558c0.788,0.849 2.362,1.45 2.362,1.45c0,0 -0.315,0.364 0.395,1.072c0.708,0.708 1.988,1.354 3.425,0.902c0,0 -0.453,0.381 0.414,1.088c0.866,0.707 1.201,0.682 2.068,0.611c0.866,-0.071 2.127,-1.371 2.127,-1.371c0,0 1.033,-1.419 0,-2.196c-0.794,-0.595 -1.882,-0.194 -2.038,-0.018c-0.157,0.177 1.172,-1.311 1.359,-2.363c0.155,-0.885 -0.404,-1.292 -1.27,-1.539c-0.866,-0.248 -1.657,0.09 -2.127,0.477c-0.529,0.437 -1.004,0.753 -1.004,0.753l-2.409,1.521c0,0 2.497,-2.008 2.91,-2.883c0.229,-0.485 0.161,-1.282 -0.503,-1.647c-0.45,-0.246 -0.866,-0.548 -1.772,-0.354c-0.171,0.038 -2.52,1.559 -2.52,1.559l-0.827,0.531l-0.59,0.317c0,0 0.63,-0.992 0,-1.593c-0.63,-0.601 -1.392,-1.803 -4.116,-1.015Z" style="fill:#c73d27;fill-rule:nonzero;"/></g><g id="number-two"><rect x="108.621" y="4.233" width="32.66" height="29.36" style="fill:#c73d27;"/><path d="M129.015,26.464l-11.54,0l0.609,-2.642l5.546,-4.5c1.898,-1.521 2.847,-2.763 2.847,-3.726c0,-0.338 -0.099,-0.591 -0.299,-0.759c-0.199,-0.169 -0.451,-0.253 -0.757,-0.253c-0.919,0 -1.994,0.505 -3.226,1.517l-2.136,-2.663c1.791,-1.521 3.861,-2.281 6.212,-2.281c1.401,0 2.529,0.342 3.387,1.027c0.858,0.685 1.286,1.612 1.286,2.781c0,1.046 -0.333,2.027 -0.999,2.942c-0.665,0.916 -1.806,1.999 -3.421,3.252l-2.354,1.816l0,0.124l5.626,0l-0.781,3.365Z" style="fill:#fff;fill-rule:nonzero;"/></g><g transform="matrix(0.5,0,0,0.5,7.12992,-139.037)"><text x="280.134px" y="293.53px" style="font-family:'OpenSans-Bold', 'Open Sans', sans-serif;font-weight:700;font-size:20px;fill:#c73d27;">Consumers can also support food</text><text x="280.134px" y="313.53px" style="font-family:'OpenSans-Bold', 'Open Sans', sans-serif;font-weight:700;font-size:20px;fill:#c73d27;">work<tspan x="330.72px 342.537px " y="313.53px 313.53px ">er</tspan>s b pur<tspan x="419.089px 429.372px " y="313.53px 313.53px ">ch</tspan>asing pr<tspan x="521.619px 534.001px " y="313.53px 313.53px ">od</tspan>ucts fr<tspan x="610.33px 622.712px " y="313.53px 313.53px ">om</tspan></text><text x="280.134px" y="333.53px" style="font-family:'OpenSans-Bold', 'Open Sans', sans-serif;font-weight:700;font-size:20px;fill:#c73d27;">companies that ar<tspan x="461.921px 473.738px " y="333.53px 333.53px ">e </tspan>fair tr<tspan x="536.501px 548.581px " y="333.53px 333.53px ">ad</tspan>e, union-</text><text x="280.134px" y="353.53px" style="font-family:'OpenSans-Bold', 'Open Sans', sans-serif;font-weight:700;font-size:20px;fill:#c73d27;">made, or have high labor standar<tspan x="611.247px 623.904px " y="353.53px 353.53px ">ds</tspan>.</text></g></g></svg>