<?xml version="1.0" encoding="UTF-8" standalone="no"?><!DOCTYPE svg PUBLIC "-//W3C//DTD SVG 1.1//EN" "http://www.w3.org/Graphics/SVG/1.1/DTD/svg11.dtd"><svg width="100%" height="100%" viewBox="0 0 328 60" version="1.1" xmlns="http://www.w3.org/2000/svg" xmlns:xlink="http://www.w3.org/1999/xlink" xml:space="preserve" style="fill-rule:evenodd;clip-rule:evenodd;stroke-linejoin:round;stroke-miterlimit:1.41421;"><g id="consumer-three"><g transform="matrix(0.5,0,0,0.5,11.3585,-121.154)"><text x="280.134px" y="293.53px" style="font-family:'OpenSans-Bold', 'Open Sans', sans-serif;font-weight:700;font-size:20px;fill:#c73d27;">The public can call on policymak<tspan x="601.833px 613.65px " y="293.53px 293.53px ">er</tspan>s</text><text x="280.134px" y="313.53px" style="font-family:'OpenSans-Bold', 'Open Sans', sans-serif;font-weight:700;font-size:20px;fill:#c73d27;">to support pr<tspan x="411.472px 423.855px " y="313.53px 313.53px ">o-</tspan>work<tspan x="480.876px 492.693px " y="313.53px 313.53px ">er</tspan> legislation.</text></g><g id="number-three"><rect x="108.621" y="15.086" width="32.66" height="29.36" style="fill:#c73d27;"/><path d="M131.059,25.581c0,1.018 -0.342,1.861 -1.027,2.529c-0.686,0.668 -1.652,1.115 -2.899,1.342l0,0.083c0.987,0.172 1.76,0.555 2.319,1.15c0.559,0.596 0.838,1.327 0.838,2.194c0,1.486 -0.681,2.631 -2.044,3.437c-1.362,0.806 -3.207,1.208 -5.534,1.208c-0.888,0 -1.721,-0.071 -2.497,-0.212c-0.777,-0.14 -1.418,-0.342 -1.923,-0.603l0,-3.427c1.278,0.688 2.721,1.032 4.328,1.032c1.057,0 1.847,-0.159 2.372,-0.479c0.524,-0.32 0.786,-0.78 0.786,-1.379c0,-0.371 -0.103,-0.65 -0.31,-0.836c-0.207,-0.186 -0.536,-0.322 -0.988,-0.407c-0.452,-0.086 -1.087,-0.129 -1.906,-0.129l-0.965,0l0.609,-3.004l0.896,0c1.125,0 2.001,-0.16 2.629,-0.48c0.627,-0.32 0.941,-0.758 0.941,-1.316c0,-0.316 -0.138,-0.571 -0.413,-0.763c-0.276,-0.193 -0.655,-0.289 -1.137,-0.289c-0.896,0 -1.929,0.289 -3.1,0.867l-1.814,-2.56c0.965,-0.557 1.896,-0.951 2.796,-1.182c0.899,-0.23 1.889,-0.346 2.968,-0.346c1.538,0 2.769,0.32 3.691,0.961c0.922,0.64 1.384,1.508 1.384,2.609Z" style="fill:#fff;fill-rule:nonzero;"/></g><g id="icon-3"><path d="M93.869,22.892l-10.551,4.482l-0.016,-0.014c0,0 -9.459,0.298 -17.321,3.298c-2.377,0.91 -4.638,2.076 -6.654,3.271l-7.419,-20.325c-0.013,-0.029 -0.351,-0.775 -1.159,-0.925l-16.657,-2.156l0.004,-10.02l-0.024,-0.181l-4.681,0l0,9.397l-16.45,-2.278c-0.909,0 -1.321,0.926 -1.339,0.968l-11.352,30.976c-0.052,0.143 -0.067,0.305 -0.021,0.62c0.028,0.15 0.089,0.301 0.244,0.544c0.095,0.117 0.216,0.223 0.332,0.298c0.049,0.052 4.978,5.046 12.14,5.046c7.298,0 12.088,-4.998 12.103,-5.02c0.144,-0.091 0.265,-0.199 0.428,-0.411c0.102,-0.167 0.164,-0.313 0.216,-0.583c0.013,-0.195 -0.004,-0.352 -0.088,-0.579l-10.412,-28.814l14.2,1.806l0,42.708l-9.239,0l0,4.209l22.944,0l0,-4.209l-9.031,0l0.026,-41.906l14.465,1.996l-10.728,29.481c-0.051,0.142 -0.067,0.305 -0.021,0.618c0.028,0.152 0.089,0.303 0.245,0.544c0.094,0.118 0.216,0.225 0.332,0.299c0.049,0.053 4.979,5.048 12.141,5.048c7.298,0 12.088,-5 12.101,-5.021c0.145,-0.092 0.265,-0.198 0.428,-0.411c0.104,-0.167 0.163,-0.313 0.218,-0.582c0.013,-0.195 -0.004,-0.353 -0.089,-0.579l-2.252,-6.169c2.887,-1.088 5.291,-1.552 5.291,-1.552c0,0 -2.864,4.482 -1.771,7.634c0.362,1.072 1.136,1.625 1.769,1.904c0.291,-1.269 0.895,-3.269 2.077,-4.985c1.379,-2.002 2.525,-2.763 2.573,-2.793c0.376,-0.243 0.882,-0.137 1.126,0.252c0.247,0.392 0.137,0.905 -0.236,1.148c-0.021,0.02 -0.954,0.664 -2.126,2.364c-1.339,1.946 -1.844,4.403 -1.977,5.221c0.28,0.496 0.711,1.092 1.319,1.499c0.364,0.25 0.724,0.322 1.042,0.317c0.209,-1.097 0.596,-2.5 1.297,-3.722c1.007,-1.755 1.89,-2.399 1.987,-2.468c0.373,-0.263 0.881,-0.162 1.133,0.215c0.256,0.38 0.168,0.896 -0.195,1.148c-0.028,0.026 -0.705,0.551 -1.516,1.961c-0.53,0.93 -0.855,2.02 -1.046,2.934c0.32,0.481 0.824,1.085 1.406,1.246c2.251,0.621 3.457,-1.47 3.457,-1.47l1.514,-2.667c0,0 2.296,0.242 3.775,-0.425c4.218,-1.647 8.085,-7.578 8.811,-8.757l7.833,-3.324l-4.606,-11.106Zm-71.789,15.542l-18.269,0l9.134,-25.74l9.135,25.74Zm19.309,5.185l9.135,-25.739l6.262,17.644c-3.433,2.285 -5.678,4.282 -5.678,4.282c0,0 -1.319,1.356 -0.65,2.2c0.864,1.111 1.838,0.368 2.467,0.074c0.624,-0.282 2.208,-1.251 5.261,-2.611l1.474,4.151l-18.271,0l0,-0.001Z" style="fill:#c73d27;fill-rule:nonzero;"/></g></g></svg>