<?xml version="1.0" encoding="UTF-8" standalone="no"?><!DOCTYPE svg PUBLIC "-//W3C//DTD SVG 1.1//EN" "http://www.w3.org/Graphics/SVG/1.1/DTD/svg11.dtd"><svg width="100%" height="100%" viewBox="0 0 330 49" version="1.1" xmlns="http://www.w3.org/2000/svg" xmlns:xlink="http://www.w3.org/1999/xlink" xml:space="preserve" style="fill-rule:evenodd;clip-rule:evenodd;stroke-linejoin:round;stroke-miterlimit:1.41421;"><g id="consumer-four"><g><path d="M16.569,11.114c0.62,0 0.827,0.744 2.481,-0.185c1.239,0.557 1.446,0.372 2.48,-0.372c1.239,0.372 1.86,0.186 2.273,-0.185c0,0 0,-0.186 0.206,-0.186c0.207,1.115 1.24,2.043 2.48,2.23c2.067,0.371 3.514,-1.115 3.514,-1.115c0,0 1.24,-0.557 1.447,-0.929c0.207,-0.372 -0.62,-0.372 -1.034,-0.929c0.207,-1.114 -0.827,-2.601 -2.686,-2.973c-1.447,-0.371 -3.307,0.929 -3.72,2.044c0,0.185 0,0.371 0,0.557l-0.206,-0.186c0,0 -1.24,-0.371 -2.481,0.744c-0.827,-0.186 -1.653,-0.372 -2.273,0.557c-0.827,-0.372 -2.066,0.186 -2.48,0.743c-0.62,0.744 -2.273,-0.371 -2.273,-0.371l0.206,1.858c0,-0.002 1.446,-1.302 2.066,-1.302Z" style="fill:#c73d27;fill-rule:nonzero;"/><path d="M102.339,30.808c-1.24,-2.043 -2.273,-0.929 -2.894,-1.3c-0.62,-0.372 -0.206,-1.858 -1.033,-2.602c-0.827,-0.929 -2.067,-0.185 -2.687,-0.743c-0.619,-0.558 -0.206,-1.115 -0.827,-2.044c-0.62,-0.928 -1.86,-0.743 -2.066,-0.743c-0.414,-0.557 -1.034,-0.743 -1.653,-0.929c-1.447,-0.372 -2.894,0.557 -3.307,1.301c-1.447,-0.186 -2.067,0.929 -0.413,1.3c0.413,1.115 1.033,2.23 2.48,2.416c0.62,0.185 1.24,0 1.86,-0.186c0,0 0.206,0.743 0.827,1.301c-1.447,-0.186 -4.753,5.388 -6.407,8.36c0,0 -2.273,-1.486 -3.1,-1.486c-0.414,0 -0.62,0.929 -0.827,2.043c-1.86,-0.929 -5.58,1.115 -6.407,1.115c-0.827,0 -2.481,-0.744 -3.1,-0.557c-0.827,0.185 2.273,3.715 2.273,3.715l0.206,0c-0.827,0.372 -1.24,0.558 -1.653,0.558c-0.827,0 -3.927,-0.744 -3.927,-0.372c0,0.372 4.96,3.53 4.96,3.53c0,0 6.2,-1.486 8.474,-2.043c0.414,0 1.033,0 1.447,0c-0.62,0.371 -0.62,0.743 -0.414,0.743c0.414,0 2.687,0.372 4.341,-0.186c2.067,0.372 4.547,0.372 6.82,-0.557c2.273,-0.929 2.067,-4.831 1.24,-8.36l5.787,-4.274Zm-16.12,6.503l0.206,-0.186c-0.206,0 -0.206,0 -0.206,0.186Z" style="fill:#c73d27;fill-rule:nonzero;"/><path d="M3.962,26.906c-0.413,0.186 -2.067,1.301 -1.447,1.858c0.827,0.744 2.273,-0.557 2.273,-0.557c0,0 -1.239,1.114 -0.206,1.858c1.033,0.557 2.687,-2.415 2.894,-2.787c0.619,0.557 1.239,0.929 1.86,0.929c1.033,0.185 2.067,-0.186 2.686,-0.743l0,0.185c0,0 2.274,-0.185 2.274,-0.929c0,-0.743 -1.24,-0.743 -1.24,-0.743c0.206,-1.301 -0.207,-2.973 -2.687,-3.53c-1.24,-0.186 -3.513,0.557 -3.72,2.601l-0.206,-0.557c0,0 -5.167,0.371 -4.96,2.043c0.412,1.301 2.066,0.558 2.479,0.372Z" style="fill:#c73d27;fill-rule:nonzero;"/><path d="M31.036,42.141c-0.413,0.186 -0.827,0.743 -1.447,1.114c0,-1.857 0,-3.901 -0.619,-3.901c-0.827,0 -2.067,2.786 -2.481,2.973c-0.413,0.186 -2.893,0.557 -4.133,0.928c-1.24,-0.185 -2.894,-0.371 -4.547,-0.371c-2.273,-1.858 -5.787,-12.634 -8.474,-12.634c-0.413,0 -1.86,1.672 -2.893,4.087l0,-0.185c-0.62,1.486 -2.687,10.961 -2.481,11.519c0.207,0.743 -4.96,1.857 -3.306,2.415l7.44,0c0,0 0.207,-1.115 0.207,-2.415c0.827,0.743 1.86,1.3 2.894,1.857c7.646,0 18.6,0 18.6,0c0,0 1.86,-4.087 2.067,-4.83c0.414,-0.557 0,-1.114 -0.827,-0.557Z" style="fill:#c73d27;fill-rule:nonzero;"/><path d="M71.545,34.338c0.413,0 0.62,0 1.033,0c1.653,0 4.547,0.743 5.994,-1.486c2.067,-2.973 -1.447,-17.279 -3.514,-17.279c-0.206,0 -0.206,0 -0.413,0c-11.988,1.486 -12.194,7.803 -12.4,8.732c0.206,0.557 1.446,0 1.653,-0.186c0.62,-0.371 0.827,-0.743 1.033,-1.3c0,1.114 0.827,2.229 2.273,2.415c-0.206,0 -0.62,0 -1.033,0c-2.067,0.372 -3.927,6.503 -3.927,6.503c0,0 -3.514,1.857 -2.687,2.229c0.827,0.372 5.374,-0.557 5.374,-0.557l2.894,-3.716c0,0.186 0,0.372 0,0.557c-0.62,2.23 -0.827,4.645 -0.827,4.645l-2.273,1.301c0,0 0.62,1.114 6.2,-0.372c0.206,-0.557 0.413,-1.115 0.62,-1.486Zm-4.341,-9.104c1.24,0.186 2.687,-0.372 3.1,-1.672c0.414,-1.115 0,-2.602 -1.446,-3.159c-0.414,-0.185 -1.034,-0.185 -1.447,-0.185c1.239,-0.558 3.306,-0.929 4.547,-1.301c-1.24,3.344 -1.861,7.989 -1.861,7.989c0,0 -1.239,-1.486 -2.893,-1.672Z" style="fill:#c73d27;fill-rule:nonzero;"/><path d="M72.992,8.699c-0.62,0.557 -1.034,1.3 -1.034,1.486c-0.206,0.557 -1.239,0.185 -1.239,0.557c-0.207,0.372 1.033,1.301 1.033,1.301c0,0 1.033,1.858 2.686,1.858c1.654,0 3.307,-0.744 3.514,-2.602c0.206,-1.672 -0.827,-3.158 -2.687,-3.53c-0.619,-0.185 -1.239,0.186 -1.86,0.372l-2.894,-1.858c0.62,1.115 1.447,1.858 2.481,2.416Z" style="fill:#c73d27;fill-rule:nonzero;"/><path d="M55.837,22.262c-1.239,-0.186 -3.719,1.672 -4.753,2.786c-1.033,-0.557 -2.893,-10.776 -3.927,-10.404c-0.62,0.186 -1.24,0.372 -1.86,0.929c-2.48,1.114 -8.474,14.12 -8.68,14.677c-0.207,0.372 -0.827,0.929 -1.447,1.301c-2.067,-1.486 -3.72,-2.415 -5.167,-3.159c0.206,-2.415 0,-4.83 -1.24,-5.201c0.62,0 1.034,0.185 1.447,0.371c0.62,0.744 1.24,2.23 1.447,1.858c0.413,-0.929 0.206,-3.344 -0.827,-3.902c-0.414,-0.185 -0.414,-0.557 -4.341,-0.371c-0.206,-3.345 -0.827,-6.875 -1.86,-7.432c-2.067,-0.929 -11.16,10.776 -6.407,18.393c3.927,0.372 4.547,0.186 7.027,-1.486c-0.206,0.743 -0.827,5.202 -0.827,5.202c0,0 4.547,0.929 7.027,0.557c1.447,-0.371 -2.273,-2.229 -2.273,-2.229c0,0 0,-0.558 0.206,-1.301c2.481,1.858 5.581,4.645 6.614,5.388c2.48,-0.185 5.58,-3.344 5.167,-3.53c-0.827,-0.372 -1.447,0 -2.687,0c-0.827,-0.929 -1.653,-1.672 -2.48,-2.23c0.827,-0.185 1.86,-0.371 2.687,-0.557c2.48,2.601 10.54,1.672 10.54,1.672c0,0 1.24,3.716 1.653,3.716c0.207,0 0.62,-0.743 1.034,-1.858c1.86,0.744 4.753,0.186 4.753,0.186c0,0 -0.413,-1.301 -1.033,-2.23c1.861,-7.431 1.034,-11.146 0.207,-11.146Zm-28.934,1.486l0,-0.186c0.413,-0.185 0.827,-0.185 1.033,-0.185c-0.206,-0.001 -0.62,0.185 -1.033,0.371Zm15.914,3.158c0,0 0,0.186 0,0Z" style="fill:#c73d27;fill-rule:nonzero;"/><path d="M46.537,13.158c1.447,0.185 3.72,-0.929 3.927,-2.787c0,-0.557 0,-1.115 -0.206,-1.672l-0.207,-0.186c-0.413,-0.929 -1.239,-1.858 -2.48,-1.858c-2.066,-0.185 -4.133,1.115 -4.133,3.159c0,2.044 1.652,3.158 3.099,3.344Z" style="fill:#c73d27;fill-rule:nonzero;"/></g><g transform="matrix(0.5,0,0,0.5,14.262,-138.931)"><text x="280.134px" y="293.53px" style="font-family:'OpenSans-Bold', 'Open Sans', sans-serif;font-weight:700;font-size:20px;fill:#c73d27;">People can educate one another</text><text x="280.134px" y="313.53px" style="font-family:'OpenSans-Bold', 'Open Sans', sans-serif;font-weight:700;font-size:20px;fill:#c73d27;">and discuss food work<tspan x="501.365px 513.181px " y="313.53px 313.53px ">er</tspan> issues in</text><text x="280.134px" y="333.53px" style="font-family:'OpenSans-Bold', 'Open Sans', sans-serif;font-weight:700;font-size:20px;fill:#c73d27;">their daily lives, especially in</text><text x="280.134px" y="353.53px" style="font-family:'OpenSans-Bold', 'Open Sans', sans-serif;font-weight:700;font-size:20px;fill:#c73d27;">conver­sation ar<tspan x="436.511px 448.894px " y="353.53px 353.53px ">ou</tspan>nd local, or<tspan x="572.253px 583.552px " y="353.53px 353.53px ">ga</tspan>nic,</text><text x="280.134px" y="373.53px" style="font-family:'OpenSans-Bold', 'Open Sans', sans-serif;font-weight:700;font-size:20px;fill:#c73d27;">and sustainable food.</text></g><g id="number-four"><rect x="112.004" y="12.505" width="32.66" height="29.36" style="fill:#c73d27;"/><path d="M133.742,31.814l-1.722,0l-0.677,2.921l-4.329,0l0.689,-2.921l-6.303,0l0.585,-2.643l8.75,-9.527l4.133,0l-2.136,9.125l1.711,0l-0.701,3.045Zm-5.339,-3.045l0.563,-2.002c0.222,-0.736 0.451,-1.462 0.689,-2.178l-0.103,0c-0.391,0.668 -0.827,1.259 -1.309,1.775l-2.24,2.405l2.4,0Z" style="fill:#fff;fill-rule:nonzero;"/></g></g></svg>