<?xml version="1.0" encoding="UTF-8" standalone="no"?><!DOCTYPE svg PUBLIC "-//W3C//DTD SVG 1.1//EN" "http://www.w3.org/Graphics/SVG/1.1/DTD/svg11.dtd"><svg width="100%" height="100%" viewBox="0 0 346 70" version="1.1" xmlns="http://www.w3.org/2000/svg" xmlns:xlink="http://www.w3.org/1999/xlink" xml:space="preserve" style="fill-rule:evenodd;clip-rule:evenodd;stroke-linejoin:round;stroke-miterlimit:1.41421;"><g id="consumer-one"><g transform="matrix(0.5,0,0,0.5,6.12992,-115.406)"><text x="280.134px" y="293.53px" style="font-family:'OpenSans-Bold', 'Open Sans', sans-serif;font-weight:700;font-size:20px;fill:#c73d27;">W<tspan x="299.07px 311.453px " y="293.53px 293.53px ">or</tspan>kplace justice campaigns and union</text><text x="280.134px" y="313.53px" style="font-family:'OpenSans-Bold', 'Open Sans', sans-serif;font-weight:700;font-size:20px;fill:#c73d27;">drive need the support of consumers to</text><text x="280.134px" y="333.53px" style="font-family:'OpenSans-Bold', 'Open Sans', sans-serif;font-weight:700;font-size:20px;fill:#c73d27;">help str<tspan x="356.355px 368.171px " y="333.53px 333.53px ">en</tspan>gthen food work<tspan x="545.544px 557.361px " y="333.53px 333.53px ">er</tspan>s’ eﬀorts to</text><text x="280.134px" y="353.53px" style="font-family:'OpenSans-Bold', 'Open Sans', sans-serif;font-weight:700;font-size:20px;fill:#c73d27;">win better pay and working conditions.</text></g><g id="icon-1"><path d="M11.544,69.92l0,-28.16c0,-0.084 0.003,-0.168 0.007,-0.252c-0.001,-0.046 -0.001,-0.094 -0.001,-0.143l0,-9.678l-3.648,6.391c-1.082,1.892 -3.601,2.671 -5.629,1.736c-2.024,-0.935 -2.791,-3.23 -1.712,-5.122l7.159,-12.54c0.123,-0.215 0.264,-0.415 0.42,-0.602c0.646,-1.675 2.42,-2.884 4.505,-2.884l17.147,0c2.084,0 3.858,1.209 4.504,2.886c0.154,0.185 0.298,0.385 0.418,0.6l0.087,0.153l0.087,-0.153c0.124,-0.215 0.265,-0.415 0.42,-0.602c0.646,-1.675 2.42,-2.884 4.505,-2.884l17.147,0c2.085,0 3.858,1.209 4.504,2.886c0.155,0.185 0.298,0.385 0.419,0.6l0.087,0.153l0.086,-0.153c0.124,-0.215 0.265,-0.415 0.42,-0.602c0.646,-1.675 2.42,-2.884 4.505,-2.884l17.147,0c2.085,0 3.858,1.209 4.504,2.886c0.155,0.185 0.299,0.385 0.419,0.6l7.16,12.54c1.08,1.892 0.313,4.187 -1.712,5.122c-2.027,0.935 -4.547,0.156 -5.628,-1.736l-3.648,-6.39l0,9.677c0,0.126 -0.006,0.249 -0.017,0.37c0,0.009 0,0.018 0,0.025l0,28.16l-9.168,0l0,-24.272l-0.992,0l0,24.272l-9.167,0l0,-28.16c0,-0.084 0.002,-0.168 0.007,-0.252c-0.001,-0.046 -0.001,-0.094 -0.001,-0.143l0,-1.171c-1.497,0.128 -3.021,-0.509 -3.917,-1.707c-0.897,1.198 -2.418,1.834 -3.916,1.707l0.001,1.171c0,0.126 -0.006,0.249 -0.017,0.37c0,0.009 0,0.018 0,0.025l0,28.16l-9.168,0l0,-24.272l-0.991,0l0,24.272l-9.168,0l0,-28.16c0,-0.084 0.003,-0.168 0.007,-0.252c-0.001,-0.046 -0.001,-0.094 -0.001,-0.143l0,-1.171c-1.497,0.128 -3.021,-0.509 -3.917,-1.707c-0.896,1.198 -2.419,1.835 -3.916,1.707l0.001,1.171c0,0.126 -0.006,0.249 -0.017,0.37c0,0.009 0,0.018 0,0.025l0,28.16l-9.163,0l0,-24.272l-0.991,0l0,24.272l-9.168,0l0,0Zm1.299,-62.095c0,-4.233 3.823,-7.67 8.533,-7.67c4.708,0 8.531,3.437 8.531,7.67c0,4.234 -3.823,7.67 -8.531,7.67c-4.71,-0.001 -8.533,-3.437 -8.533,-7.67Zm27.169,0c0,-4.233 3.823,-7.67 8.533,-7.67c4.708,0 8.531,3.437 8.531,7.67c0,4.234 -3.823,7.67 -8.531,7.67c-4.71,-0.001 -8.533,-3.437 -8.533,-7.67Zm27.169,0c0,-4.233 3.823,-7.67 8.534,-7.67c4.708,0 8.531,3.437 8.531,7.67c0,4.234 -3.823,7.67 -8.531,7.67c-4.711,-0.001 -8.534,-3.437 -8.534,-7.67Z" style="fill:#c73d27;fill-rule:nonzero;"/></g><g id="number-one"><rect x="103.215" y="27.471" width="32.66" height="29.36" style="fill:#c73d27;"/><path d="M121.612,49.702l-4.467,0l1.999,-8.247c0.214,-0.909 0.505,-1.789 0.872,-2.643c-0.597,0.468 -1.098,0.822 -1.504,1.064l-2.331,1.29l-1.733,-2.601l7.118,-3.953l3.571,0l-3.525,15.09Z" style="fill:#fff;fill-rule:nonzero;"/></g></g></svg>