<?xml version="1.0" encoding="utf-8"?>
<!-- Generator: Adobe Illustrator 17.0.0, SVG Export Plug-In . SVG Version: 6.00 Build 0)  -->
<!DOCTYPE svg PUBLIC "-//W3C//DTD SVG 1.1//EN" "http://www.w3.org/Graphics/SVG/1.1/DTD/svg11.dtd">
<svg version="1.1" id="Layer_1" xmlns="http://www.w3.org/2000/svg" xmlns:xlink="http://www.w3.org/1999/xlink" x="0px" y="0px"
	 width="640px" height="518.85px" viewBox="0 0 640 518.85" enable-background="new 0 0 640 518.85" xml:space="preserve">
<path fill="#C73A22" d="M621.904,51.873c0,3.958-5.056,7.167-11.293,7.167H29.389c-6.237,0-11.293-3.209-11.293-7.167V19.625
	c0-3.958,5.056-7.167,11.293-7.167h581.222c6.237,0,11.293,3.209,11.293,7.167V51.873z"/>
<line fill="none" stroke="#FFFFFF" stroke-width="8" stroke-miterlimit="10" x1="53.679" y1="35.749" x2="586.321" y2="35.749"/>
<circle fill="#D58C84" cx="53.679" cy="35.749" r="10.354"/>
<circle fill="#D58C84" cx="320" cy="35.749" r="10.354"/>
<circle fill="#D58C84" cx="186.839" cy="35.749" r="10.354"/>
<circle fill="#FFFFFF" cx="453.161" cy="35.749" r="10.354"/>
<line fill="none" stroke="#D58C84" stroke-width="8" stroke-miterlimit="10" x1="53.679" y1="35.749" x2="399.172" y2="35.749"/>
<path fill="#565656" d="M464.729,509.718c0,0-14.062,0.216-20.109,4.674c-6.047,4.458,72.543,4.458,73.373,4.458
	c0.83,0,0-9.132,0-9.132H464.729z"/>
<path fill="#8C6C33" d="M455.475,452.159c0,0-4.137,34.591,9.253,57.559c0,0,43.554,8.025,52.962,3.044
	c9.409-4.981,11.962-57.513,11.962-57.513"/>
<path fill="#2E1080" d="M264.974,112.064v48.704c0,0-26.566,11.069,0,25.09v48.704h63.462c0,0,19.924,40.586,40.586,4.428
	l57.559-4.428l7.379-118.069h-76.007c0,0-0.738-36.897-37.635-4.428H264.974z"/>
<path fill="#025E14" d="M248.37,154.495V113.54h-73.424c0,0-14.759-38.373-35.421,0h-30.255v10.331v102.573l47.228,5.166
	c0,0,14.759,40.586,41.324,0h55.345v-41.324C253.167,190.285,226.601,176.264,248.37,154.495z"/>
<path fill="#CCCCCC" d="M483.787,373.521c0,0-48.273,59.847-26.958,81.162c0,0,39.221,17.052,71.62,5.116
	c0,0,22.125-19.611-9.901-86.278H483.787z"/>
<path fill="#0D6D67" d="M106.318,247.106h42.062c0,0,27.304,35.25,58.297,2.542h46.49v52.803c0,0-42.062,20.662,0,45.752v49.442
	H104.104L106.318,247.106z"/>
<path fill="#915912" d="M306.207,287.383l39.697-7.524c0,0,21.428,28.679,44.659-8.465l37.491-7.106l6.44,55.07
	c0,0,40.097,18.695,6.272,33.091l4.387,23.146l-116.334,22.05l-8.865-37.729c0,0-28.81-13.387-5.121-27.016L306.207,287.383z"/>
<path fill="#D8BF8D" d="M455.777,375.389l-27.306-20.24c0,0,4.531-5.145-3.026-8.213c-10.741-4.36-10.188,4.744-9.942,10.374
	c0.378,8.63,9.51,7.37,9.51,7.37l28.066,21.342"/>
<polyline fill="#CCCCCC" points="497.238,393.903 450.195,368.865 442.643,381.384 493.646,416.574 "/>
<ellipse fill="#D8BF8D" cx="496.326" cy="351.117" rx="31.731" ry="32.1"/>
<path fill="#B71818" d="M476.041,383.969l-10.719,29.91l-11.303,11.303C454.02,425.182,468.639,391.371,476.041,383.969z"/>
<path fill="#B71818" d="M476.041,383.969h3.592v-5.424C479.634,378.544,481.315,376.6,476.041,383.969z"/>
<path fill="#B71818" d="M499.452,383.957"/>
<polyline fill="#AEC1D1" points="453.04,370.379 444.62,386.022 440.51,383.969 450.195,368.865 "/>
<ellipse fill="#6B6B6B" cx="450.669" cy="371.356" rx="0.726" ry="0.908"/>
<line fill="#565656" stroke="#565656" stroke-width="1.1069" stroke-miterlimit="10" x1="483.679" y1="342.299" x2="474.547" y2="345.791"/>
<line fill="#565656" stroke="#565656" stroke-width="1.1069" stroke-miterlimit="10" x1="465.03" y1="335.381" x2="469.941" y2="342.299"/>
<path fill="none" stroke="#565656" stroke-width="1.1069" stroke-miterlimit="10" d="M470.995,370.448c0,0,6.873,4.229,12.684,0.908
	"/>
<path fill="#33A067" d="M425.466,443.169c0,0-15.119,8.991-13.459,23.934c0,0,9.962,30.963,29.333,16.173
	c0,0,19.167-11.469-3.976-43.292"/>
<circle fill="#565656" stroke="#565656" stroke-width="1.1069" stroke-miterlimit="10" cx="467.486" cy="348.387" r="0.553"/>
<path fill="#D8BF8D" d="M466.355,426.53l-33.496,5.768c0,0-0.591-6.831-8.029-3.484c-10.572,4.756-3.606,10.644,0.636,14.355
	c6.502,5.688,11.898-1.787,11.898-1.787l34.818-5.556"/>
<circle fill="#565656" stroke="#565656" stroke-width="1.1069" stroke-miterlimit="10" cx="474.547" cy="349.494" r="0.553"/>
<polyline fill="#CCCCCC" points="496.205,411.704 445.436,427.906 449.127,442.052 509.929,430.104 "/>
<polyline fill="#AEC1D1" points="448.506,426.926 453.827,443.875 449.488,445.384 445.436,427.906 "/>
<ellipse transform="matrix(0.6981 -0.716 0.716 0.6981 -172.2679 450.0243)" fill="#6B6B6B" cx="447.55" cy="429.305" rx="0.726" ry="0.908"/>
<polyline fill="#33A067" points="423.076,430.354 421.416,425.474 428.887,422.706 427.759,429.478 "/>
<g>
	<path fill="#FFFFFF" d="M435.552,468.413c0,1.411-0.527,2.561-1.582,3.448c-1.054,0.888-2.484,1.383-4.292,1.486l-0.452,2.224
		h-1.997l0.487-2.271c-1.752-0.126-3.127-0.491-4.126-1.094v-3.698c0.999,0.468,1.902,0.809,2.711,1.022s1.613,0.321,2.414,0.321
		c1.379,0,2.068-0.416,2.068-1.249c0-0.317-0.129-0.604-0.387-0.862c-0.257-0.257-0.811-0.589-1.658-0.993
		c-1.102-0.492-1.95-1.126-2.545-1.903s-0.892-1.676-0.892-2.699c0-1.395,0.529-2.537,1.588-3.424
		c1.058-0.888,2.475-1.391,4.25-1.51l0.346-1.581h1.997l-0.368,1.629c1.275,0.119,2.521,0.476,3.733,1.07l-1.665,3.21
		c-1.252-0.563-2.422-0.844-3.508-0.844c-0.522,0-0.933,0.111-1.23,0.333c-0.297,0.222-0.445,0.492-0.445,0.809
		c0,0.42,0.154,0.775,0.463,1.064c0.31,0.29,0.936,0.664,1.879,1.124c1.11,0.539,1.923,1.155,2.438,1.849
		C435.294,466.568,435.552,467.414,435.552,468.413z"/>
</g>
<g>
	<path fill="#FFFFFF" d="M130.128,181.001c-0.435,0.129-0.781,0.404-1.038,0.822c-0.257,0.419-0.402,0.934-0.438,1.545
		c-0.035,0.612,0.043,1.24,0.235,1.884c0.161,0.54,0.394,0.91,0.698,1.108s0.669,0.235,1.092,0.109
		c0.335-0.1,0.661-0.242,0.979-0.426c0.317-0.185,0.679-0.445,1.083-0.78l0.582,1.953c-0.71,0.606-1.543,1.052-2.498,1.336
		c-1.048,0.312-1.943,0.253-2.688-0.176c-0.744-0.43-1.279-1.193-1.605-2.289c-0.319-1.072-0.408-2.116-0.266-3.132
		c0.143-1.017,0.498-1.857,1.065-2.522s1.305-1.132,2.211-1.402c1.068-0.318,2.116-0.343,3.144-0.074l-0.346,2.11
		c-0.44-0.11-0.835-0.173-1.182-0.19C130.81,180.858,130.467,180.9,130.128,181.001z"/>
	<path fill="#FFFFFF" d="M137.44,176.678c1.048-0.312,1.952-0.256,2.713,0.169c0.761,0.425,1.301,1.173,1.62,2.245
		c0.318,1.072,0.41,2.112,0.274,3.12c-0.137,1.008-0.487,1.854-1.051,2.537c-0.564,0.684-1.313,1.164-2.243,1.441
		c-1.084,0.323-2.011,0.272-2.779-0.153c-0.77-0.424-1.313-1.17-1.631-2.239c-0.318-1.067-0.403-2.111-0.255-3.129
		c0.148-1.019,0.511-1.869,1.086-2.551C135.751,177.437,136.506,176.956,137.44,176.678z M139.393,179.828
		c-0.137-0.459-0.341-0.79-0.611-0.993c-0.271-0.202-0.59-0.249-0.957-0.14c-0.398,0.119-0.715,0.397-0.948,0.835
		c-0.234,0.438-0.362,0.983-0.385,1.635c-0.023,0.652,0.058,1.288,0.242,1.908c0.291,0.976,0.839,1.343,1.645,1.103
		c0.383-0.114,0.688-0.387,0.918-0.819c0.229-0.433,0.352-0.96,0.37-1.584S139.593,180.501,139.393,179.828z"/>
	<path fill="#FFFFFF" d="M146.094,180.372l0.274,3.419l-2.363,0.704l-0.765-9.394l2.34-0.697c1.016-0.302,1.854-0.333,2.513-0.09
		c0.66,0.242,1.111,0.768,1.353,1.578c0.188,0.628,0.207,1.219,0.061,1.772c-0.147,0.553-0.466,1.036-0.957,1.45l2.283,2.716
		l0.415,0.508l-2.575,0.767l-2.137-2.865L146.094,180.372z M145.939,178.463l0.309-0.092c0.383-0.114,0.654-0.314,0.814-0.602
		c0.16-0.287,0.182-0.627,0.064-1.022c-0.074-0.25-0.201-0.419-0.379-0.509c-0.178-0.089-0.4-0.095-0.666-0.015l-0.32,0.095
		L145.939,178.463z"/>
	<path fill="#FFFFFF" d="M157.579,173.712c0.303,1.016,0.194,1.916-0.324,2.7s-1.379,1.355-2.579,1.713l-0.521,0.155l0.269,3.111
		l-2.363,0.704l-0.765-9.394l2.255-0.671c1.044-0.311,1.913-0.321,2.607-0.03S157.326,172.862,157.579,173.712z M154.002,176.219
		l0.381-0.113c0.367-0.109,0.628-0.315,0.783-0.618c0.156-0.303,0.18-0.636,0.071-0.999c-0.07-0.238-0.2-0.408-0.389-0.51
		c-0.188-0.102-0.409-0.115-0.663-0.039l-0.356,0.106L154.002,176.219z"/>
	<path fill="#FFFFFF" d="M162.315,169.268c1.048-0.312,1.952-0.256,2.713,0.169c0.76,0.425,1.3,1.174,1.619,2.246
		s0.411,2.112,0.275,3.12c-0.137,1.008-0.487,1.854-1.051,2.538c-0.564,0.684-1.313,1.164-2.243,1.441
		c-1.084,0.323-2.011,0.272-2.779-0.153c-0.77-0.424-1.313-1.17-1.631-2.239c-0.318-1.067-0.403-2.111-0.255-3.129
		c0.148-1.019,0.511-1.869,1.086-2.551S161.381,169.546,162.315,169.268z M164.268,172.418c-0.137-0.459-0.341-0.79-0.611-0.993
		c-0.271-0.202-0.59-0.249-0.957-0.14c-0.398,0.119-0.715,0.397-0.948,0.835c-0.234,0.438-0.362,0.983-0.386,1.635
		c-0.022,0.652,0.059,1.288,0.243,1.908c0.29,0.976,0.839,1.343,1.645,1.103c0.383-0.114,0.688-0.387,0.918-0.82
		c0.229-0.432,0.352-0.96,0.37-1.584C164.559,173.739,164.468,173.091,164.268,172.418z"/>
	<path fill="#FFFFFF" d="M171,172.953l0.274,3.419l-2.363,0.704l-0.765-9.394l2.34-0.697c1.016-0.303,1.853-0.333,2.513-0.09
		s1.111,0.768,1.353,1.578c0.188,0.628,0.207,1.219,0.061,1.772c-0.147,0.553-0.466,1.036-0.957,1.45l2.283,2.716l0.415,0.508
		l-2.575,0.767l-2.137-2.865L171,172.953z M170.846,171.044l0.309-0.092c0.383-0.114,0.654-0.314,0.814-0.602
		c0.16-0.287,0.182-0.627,0.064-1.022c-0.075-0.25-0.201-0.419-0.379-0.509c-0.178-0.089-0.4-0.095-0.666-0.015l-0.32,0.095
		L170.846,171.044z"/>
	<path fill="#FFFFFF" d="M181.443,171.54l-2.708,0.807l-0.263,1.881l-2.454,0.731l1.865-10.177l3.04-0.906l3.376,8.616l-2.303,0.686
		L181.443,171.54z M179.037,170.203l1.771-0.527l-0.866-2.532l-0.167-0.517c-0.09-0.302-0.16-0.568-0.212-0.799
		c0.007,0.375-0.017,0.747-0.069,1.113L179.037,170.203z"/>
	<path fill="#FFFFFF" d="M188.902,171.122l-2.363,0.704l-0.618-7.312l-1.916,0.571l-0.165-2.077l6.214-1.851l0.152,2.08
		l-1.922,0.573L188.902,171.122z"/>
	<path fill="#FFFFFF" d="M192.13,170.16l-0.765-9.394l2.399-0.715l0.765,9.394L192.13,170.16z"/>
	<path fill="#FFFFFF" d="M199.105,158.31c1.048-0.312,1.952-0.256,2.713,0.169c0.761,0.425,1.3,1.173,1.619,2.245
		s0.411,2.112,0.275,3.12c-0.137,1.008-0.487,1.854-1.051,2.538c-0.564,0.684-1.313,1.164-2.243,1.441
		c-1.084,0.323-2.011,0.272-2.779-0.153c-0.77-0.424-1.313-1.17-1.631-2.239c-0.318-1.067-0.403-2.111-0.255-3.129
		c0.148-1.019,0.511-1.869,1.086-2.551C197.416,159.068,198.171,158.588,199.105,158.31z M201.058,161.459
		c-0.137-0.459-0.341-0.79-0.611-0.993c-0.271-0.202-0.59-0.249-0.957-0.14c-0.398,0.119-0.715,0.397-0.948,0.835
		c-0.234,0.438-0.362,0.983-0.386,1.635c-0.022,0.652,0.059,1.288,0.243,1.908c0.291,0.976,0.839,1.343,1.645,1.103
		c0.383-0.114,0.688-0.387,0.918-0.82c0.229-0.432,0.352-0.96,0.37-1.584C201.349,162.781,201.258,162.132,201.058,161.459z"/>
	<path fill="#FFFFFF" d="M213.455,163.808l-2.75,0.819l-3.598-5.693l-0.049,0.014c0.232,1.208,0.368,2.084,0.408,2.629l0.318,3.919
		l-2.104,0.626l-0.765-9.394l2.751-0.819l3.498,5.427l0.055-0.017c-0.166-0.985-0.274-1.767-0.323-2.345l-0.311-3.935l2.104-0.626
		L213.455,163.808z"/>
	<path fill="#FFFFFF" d="M223.138,160.924l-2.352,0.7l-0.387-5.143c-0.046-0.565-0.046-1.127-0.002-1.684
		c-0.232,0.368-0.435,0.654-0.606,0.858l-1.002,1.121l-1.366-1.251l3.059-3.431l1.88-0.56L223.138,160.924z"/>
</g>
<g>
	<path fill="#FFFFFF" d="M302.844,184.276c-0.435,0.13-0.781,0.404-1.038,0.823c-0.257,0.419-0.403,0.934-0.438,1.545
		c-0.035,0.612,0.043,1.24,0.235,1.884c0.161,0.54,0.394,0.91,0.698,1.108s0.669,0.235,1.092,0.109
		c0.335-0.1,0.661-0.242,0.979-0.426c0.318-0.185,0.68-0.445,1.084-0.78l0.582,1.953c-0.71,0.606-1.543,1.052-2.498,1.336
		c-1.048,0.312-1.943,0.253-2.688-0.176c-0.744-0.43-1.279-1.193-1.605-2.289c-0.319-1.072-0.408-2.116-0.266-3.132
		c0.143-1.017,0.498-1.857,1.065-2.522s1.305-1.132,2.211-1.402c1.068-0.318,2.116-0.343,3.144-0.074l-0.346,2.11
		c-0.44-0.11-0.835-0.173-1.182-0.19C303.525,184.134,303.183,184.176,302.844,184.276z"/>
	<path fill="#FFFFFF" d="M310.156,179.954c1.048-0.312,1.952-0.256,2.713,0.169c0.761,0.425,1.3,1.173,1.619,2.245
		s0.411,2.112,0.275,3.12c-0.137,1.008-0.487,1.854-1.051,2.537c-0.564,0.684-1.313,1.164-2.243,1.441
		c-1.084,0.323-2.011,0.272-2.779-0.153c-0.77-0.424-1.313-1.17-1.631-2.239c-0.318-1.067-0.403-2.111-0.255-3.129
		c0.148-1.019,0.511-1.869,1.086-2.551C308.467,180.712,309.222,180.232,310.156,179.954z M312.108,183.104
		c-0.137-0.459-0.341-0.79-0.611-0.993c-0.271-0.202-0.59-0.249-0.957-0.14c-0.398,0.119-0.715,0.397-0.948,0.835
		c-0.234,0.438-0.362,0.983-0.386,1.635c-0.022,0.652,0.059,1.288,0.243,1.908c0.291,0.976,0.839,1.343,1.645,1.103
		c0.383-0.114,0.688-0.387,0.918-0.82c0.229-0.432,0.352-0.96,0.37-1.584C312.399,184.425,312.309,183.776,312.108,183.104z"/>
	<path fill="#FFFFFF" d="M318.81,183.647l0.274,3.419l-2.363,0.704l-0.765-9.394l2.34-0.697c1.016-0.303,1.853-0.333,2.513-0.09
		c0.66,0.242,1.111,0.768,1.353,1.578c0.187,0.628,0.207,1.219,0.061,1.772c-0.147,0.553-0.466,1.036-0.957,1.45l2.283,2.716
		l0.415,0.508l-2.575,0.767l-2.137-2.865L318.81,183.647z M318.655,181.739l0.309-0.092c0.383-0.114,0.654-0.314,0.814-0.602
		c0.16-0.287,0.182-0.627,0.064-1.022c-0.075-0.25-0.201-0.419-0.379-0.509c-0.178-0.089-0.4-0.095-0.666-0.015l-0.32,0.095
		L318.655,181.739z"/>
	<path fill="#FFFFFF" d="M330.294,176.988c0.303,1.016,0.194,1.916-0.324,2.7s-1.379,1.355-2.579,1.713l-0.521,0.155l0.269,3.111
		l-2.363,0.704l-0.765-9.394l2.255-0.671c1.044-0.311,1.913-0.321,2.607-0.03S330.041,176.138,330.294,176.988z M326.717,179.495
		l0.381-0.113c0.367-0.109,0.628-0.315,0.783-0.618c0.156-0.303,0.18-0.636,0.071-0.999c-0.07-0.238-0.2-0.408-0.389-0.51
		c-0.188-0.102-0.409-0.115-0.663-0.039l-0.356,0.106L326.717,179.495z"/>
	<path fill="#FFFFFF" d="M335.031,172.544c1.048-0.312,1.952-0.256,2.713,0.169c0.76,0.425,1.3,1.174,1.619,2.246
		s0.411,2.112,0.275,3.12c-0.137,1.008-0.487,1.854-1.051,2.538c-0.564,0.684-1.313,1.164-2.243,1.441
		c-1.084,0.323-2.011,0.272-2.779-0.153c-0.77-0.424-1.313-1.17-1.631-2.239c-0.318-1.067-0.403-2.111-0.255-3.129
		c0.148-1.019,0.511-1.869,1.086-2.551S334.097,172.822,335.031,172.544z M336.983,175.694c-0.137-0.459-0.341-0.79-0.611-0.993
		c-0.271-0.202-0.59-0.249-0.957-0.14c-0.398,0.119-0.715,0.397-0.948,0.835c-0.234,0.438-0.362,0.983-0.386,1.635
		c-0.022,0.652,0.059,1.288,0.243,1.908c0.29,0.976,0.839,1.343,1.645,1.103c0.383-0.114,0.688-0.387,0.918-0.82
		c0.229-0.432,0.352-0.96,0.37-1.584C337.274,177.015,337.184,176.367,336.983,175.694z"/>
	<path fill="#FFFFFF" d="M343.716,176.229l0.274,3.419l-2.363,0.704l-0.765-9.394l2.34-0.697c1.016-0.303,1.853-0.333,2.513-0.09
		c0.66,0.242,1.111,0.768,1.353,1.578c0.187,0.628,0.207,1.219,0.061,1.772c-0.147,0.553-0.466,1.036-0.957,1.45l2.283,2.716
		l0.415,0.508l-2.575,0.767l-2.137-2.865L343.716,176.229z M343.562,174.32l0.309-0.092c0.383-0.114,0.654-0.314,0.814-0.602
		c0.16-0.287,0.182-0.627,0.064-1.022c-0.075-0.25-0.201-0.419-0.379-0.509c-0.178-0.089-0.4-0.095-0.666-0.015l-0.32,0.095
		L343.562,174.32z"/>
	<path fill="#FFFFFF" d="M354.159,174.816l-2.708,0.807l-0.263,1.881l-2.454,0.731l1.865-10.177l3.04-0.906l3.376,8.616
		l-2.303,0.686L354.159,174.816z M351.753,173.479l1.771-0.527l-0.866-2.532l-0.167-0.517c-0.09-0.302-0.16-0.568-0.212-0.799
		c0.007,0.375-0.017,0.747-0.069,1.113L351.753,173.479z"/>
	<path fill="#FFFFFF" d="M361.617,174.397l-2.363,0.704l-0.618-7.312l-1.917,0.571l-0.164-2.077l6.214-1.851l0.152,2.08
		l-1.922,0.573L361.617,174.397z"/>
	<path fill="#FFFFFF" d="M364.845,173.436l-0.765-9.394l2.399-0.715l0.765,9.394L364.845,173.436z"/>
	<path fill="#FFFFFF" d="M371.82,161.585c1.048-0.312,1.952-0.256,2.713,0.169c0.76,0.425,1.3,1.174,1.619,2.246
		s0.411,2.112,0.275,3.12c-0.137,1.008-0.487,1.854-1.051,2.538c-0.564,0.684-1.313,1.164-2.243,1.441
		c-1.084,0.323-2.011,0.272-2.779-0.153c-0.77-0.424-1.313-1.17-1.631-2.239c-0.318-1.067-0.403-2.111-0.255-3.129
		c0.148-1.019,0.511-1.869,1.086-2.551C370.131,162.344,370.886,161.863,371.82,161.585z M373.772,164.735
		c-0.137-0.459-0.341-0.79-0.611-0.993c-0.271-0.202-0.59-0.249-0.957-0.14c-0.398,0.119-0.715,0.397-0.948,0.835
		c-0.234,0.438-0.362,0.983-0.386,1.635c-0.022,0.652,0.059,1.288,0.243,1.908c0.29,0.976,0.839,1.343,1.645,1.103
		c0.383-0.114,0.688-0.387,0.918-0.82c0.229-0.432,0.352-0.96,0.37-1.584C374.063,166.056,373.973,165.408,373.772,164.735z"/>
	<path fill="#FFFFFF" d="M386.169,167.083l-2.75,0.819l-3.598-5.693l-0.049,0.014c0.232,1.208,0.368,2.084,0.408,2.629l0.318,3.919
		l-2.104,0.626l-0.765-9.394l2.751-0.819l3.498,5.427l0.055-0.017c-0.166-0.986-0.274-1.768-0.323-2.345l-0.311-3.935l2.104-0.626
		L386.169,167.083z"/>
	<path fill="#FFFFFF" d="M396.903,163.886l-6.075,1.81l-0.141-1.643l2.135-3.505c0.734-1.188,1.017-2.064,0.849-2.628
		c-0.059-0.198-0.155-0.33-0.289-0.397c-0.135-0.068-0.282-0.078-0.443-0.029c-0.483,0.144-0.961,0.609-1.434,1.395l-1.589-1.225
		c0.678-1.172,1.635-1.942,2.872-2.31c0.737-0.22,1.392-0.196,1.963,0.07c0.57,0.267,0.958,0.742,1.162,1.427
		c0.183,0.612,0.178,1.239-0.013,1.879c-0.191,0.64-0.603,1.454-1.234,2.44l-0.922,1.433l0.021,0.073l2.962-0.882L396.903,163.886z"
		/>
</g>
<g>
	<path fill="#FFFFFF" d="M128.975,338.9c-0.435,0.13-0.781,0.404-1.038,0.823c-0.257,0.419-0.403,0.934-0.438,1.545
		c-0.035,0.612,0.043,1.24,0.235,1.884c0.161,0.54,0.394,0.91,0.698,1.108s0.669,0.235,1.092,0.109
		c0.335-0.1,0.661-0.242,0.979-0.426c0.318-0.185,0.68-0.445,1.084-0.78l0.582,1.953c-0.71,0.606-1.543,1.052-2.498,1.336
		c-1.048,0.312-1.943,0.253-2.688-0.176c-0.744-0.43-1.279-1.193-1.605-2.289c-0.319-1.072-0.408-2.116-0.266-3.132
		c0.143-1.017,0.498-1.857,1.065-2.522s1.305-1.132,2.211-1.402c1.068-0.318,2.116-0.343,3.144-0.074l-0.346,2.11
		c-0.44-0.11-0.835-0.173-1.182-0.19C129.656,338.758,129.313,338.8,128.975,338.9z"/>
	<path fill="#FFFFFF" d="M136.287,334.578c1.048-0.312,1.952-0.256,2.713,0.169c0.761,0.425,1.3,1.173,1.619,2.245
		s0.411,2.112,0.275,3.12c-0.137,1.008-0.487,1.854-1.051,2.537c-0.564,0.684-1.313,1.164-2.243,1.441
		c-1.084,0.323-2.011,0.272-2.779-0.153c-0.77-0.424-1.313-1.17-1.631-2.239c-0.318-1.067-0.403-2.111-0.255-3.129
		c0.148-1.019,0.511-1.869,1.086-2.551C134.598,335.336,135.353,334.856,136.287,334.578z M138.239,337.728
		c-0.137-0.459-0.341-0.79-0.611-0.993c-0.271-0.202-0.59-0.249-0.957-0.14c-0.398,0.119-0.715,0.397-0.948,0.835
		c-0.234,0.438-0.362,0.983-0.386,1.635c-0.022,0.652,0.059,1.288,0.243,1.908c0.291,0.976,0.839,1.343,1.645,1.103
		c0.383-0.114,0.688-0.387,0.918-0.82c0.229-0.432,0.352-0.96,0.37-1.584C138.53,339.049,138.439,338.4,138.239,337.728z"/>
	<path fill="#FFFFFF" d="M144.94,338.271l0.274,3.419l-2.363,0.704l-0.765-9.394l2.34-0.697c1.016-0.303,1.853-0.333,2.513-0.09
		c0.66,0.242,1.111,0.768,1.353,1.578c0.187,0.628,0.207,1.219,0.061,1.772c-0.147,0.553-0.466,1.036-0.957,1.45l2.283,2.716
		l0.415,0.508l-2.575,0.767l-2.137-2.865L144.94,338.271z M144.786,336.363l0.309-0.092c0.383-0.114,0.654-0.314,0.814-0.602
		c0.16-0.287,0.182-0.627,0.064-1.022c-0.075-0.25-0.201-0.419-0.379-0.509c-0.178-0.089-0.4-0.095-0.666-0.015l-0.32,0.095
		L144.786,336.363z"/>
	<path fill="#FFFFFF" d="M156.425,331.612c0.303,1.016,0.194,1.916-0.324,2.7s-1.379,1.355-2.579,1.713l-0.521,0.155l0.269,3.111
		l-2.363,0.704l-0.765-9.394l2.255-0.671c1.044-0.311,1.913-0.321,2.607-0.03S156.172,330.762,156.425,331.612z M152.848,334.119
		l0.381-0.113c0.367-0.109,0.628-0.315,0.783-0.618c0.156-0.303,0.18-0.636,0.071-0.999c-0.07-0.238-0.2-0.408-0.389-0.51
		c-0.188-0.102-0.409-0.115-0.663-0.039l-0.356,0.106L152.848,334.119z"/>
	<path fill="#FFFFFF" d="M161.162,327.168c1.048-0.312,1.952-0.256,2.713,0.169c0.76,0.425,1.3,1.174,1.619,2.246
		s0.411,2.112,0.275,3.12c-0.137,1.008-0.487,1.854-1.051,2.538c-0.564,0.684-1.313,1.164-2.243,1.441
		c-1.084,0.323-2.011,0.272-2.779-0.153c-0.77-0.424-1.313-1.17-1.631-2.239c-0.318-1.067-0.403-2.111-0.255-3.129
		c0.148-1.019,0.511-1.869,1.086-2.551S160.228,327.446,161.162,327.168z M163.114,330.318c-0.137-0.459-0.341-0.79-0.611-0.993
		c-0.271-0.202-0.59-0.249-0.957-0.14c-0.398,0.119-0.715,0.397-0.948,0.835c-0.234,0.438-0.362,0.983-0.386,1.635
		c-0.022,0.652,0.059,1.288,0.243,1.908c0.29,0.976,0.839,1.343,1.645,1.103c0.383-0.114,0.688-0.387,0.918-0.82
		c0.229-0.432,0.352-0.96,0.37-1.584C163.405,331.639,163.314,330.991,163.114,330.318z"/>
	<path fill="#FFFFFF" d="M169.847,330.853l0.274,3.419l-2.363,0.704l-0.765-9.394l2.34-0.697c1.016-0.303,1.853-0.333,2.513-0.09
		c0.66,0.242,1.111,0.768,1.353,1.578c0.187,0.628,0.207,1.219,0.061,1.772c-0.147,0.553-0.466,1.036-0.957,1.45l2.283,2.716
		l0.415,0.508l-2.575,0.767l-2.137-2.865L169.847,330.853z M169.692,328.944l0.309-0.092c0.383-0.114,0.654-0.314,0.814-0.602
		c0.16-0.287,0.182-0.627,0.064-1.022c-0.075-0.25-0.201-0.419-0.379-0.509c-0.178-0.089-0.4-0.095-0.666-0.015l-0.32,0.095
		L169.692,328.944z"/>
	<path fill="#FFFFFF" d="M180.29,329.44l-2.708,0.807l-0.263,1.881l-2.454,0.731l1.865-10.177l3.04-0.906l3.376,8.616l-2.303,0.686
		L180.29,329.44z M177.884,328.103l1.771-0.527l-0.866-2.532l-0.167-0.517c-0.09-0.302-0.16-0.568-0.212-0.799
		c0.007,0.375-0.017,0.747-0.069,1.113L177.884,328.103z"/>
	<path fill="#FFFFFF" d="M187.748,329.021l-2.363,0.704l-0.618-7.312l-1.917,0.571l-0.164-2.077l6.214-1.851l0.152,2.08
		l-1.922,0.573L187.748,329.021z"/>
	<path fill="#FFFFFF" d="M190.976,328.06l-0.765-9.394l2.399-0.715l0.765,9.394L190.976,328.06z"/>
	<path fill="#FFFFFF" d="M197.951,316.209c1.048-0.312,1.952-0.256,2.713,0.169c0.76,0.425,1.3,1.174,1.619,2.246
		s0.411,2.112,0.275,3.12c-0.137,1.008-0.487,1.854-1.051,2.538c-0.564,0.684-1.313,1.164-2.243,1.441
		c-1.084,0.323-2.011,0.272-2.779-0.153c-0.77-0.424-1.313-1.17-1.631-2.239c-0.318-1.067-0.403-2.111-0.255-3.129
		c0.148-1.019,0.511-1.869,1.086-2.551C196.262,316.968,197.017,316.487,197.951,316.209z M199.903,319.359
		c-0.137-0.459-0.341-0.79-0.611-0.993c-0.271-0.202-0.59-0.249-0.957-0.14c-0.398,0.119-0.715,0.397-0.948,0.835
		c-0.234,0.438-0.362,0.983-0.386,1.635c-0.022,0.652,0.059,1.288,0.243,1.908c0.29,0.976,0.839,1.343,1.645,1.103
		c0.383-0.114,0.688-0.387,0.918-0.82c0.229-0.432,0.352-0.96,0.37-1.584C200.194,320.68,200.104,320.032,199.903,319.359z"/>
	<path fill="#FFFFFF" d="M212.3,321.708l-2.75,0.819l-3.598-5.693l-0.049,0.014c0.232,1.208,0.368,2.084,0.408,2.629l0.318,3.919
		l-2.104,0.626l-0.765-9.394l2.751-0.819l3.498,5.427l0.055-0.017c-0.166-0.986-0.274-1.768-0.323-2.345l-0.311-3.935l2.104-0.626
		L212.3,321.708z"/>
	<path fill="#FFFFFF" d="M222.063,311.316c0.178,0.597,0.145,1.144-0.1,1.642c-0.244,0.499-0.675,0.912-1.292,1.241l0.014,0.048
		c0.551-0.054,1.024,0.049,1.422,0.31c0.398,0.261,0.673,0.646,0.824,1.153c0.26,0.87,0.101,1.648-0.477,2.333
		c-0.576,0.686-1.478,1.21-2.702,1.575c-0.468,0.139-0.919,0.229-1.352,0.268c-0.435,0.039-0.807,0.021-1.118-0.052l-0.598-2.007
		c0.793,0.203,1.612,0.178,2.459-0.074c0.556-0.166,0.944-0.383,1.164-0.653c0.221-0.27,0.278-0.58,0.174-0.931
		c-0.064-0.217-0.168-0.364-0.31-0.441c-0.141-0.076-0.338-0.104-0.591-0.084c-0.253,0.021-0.595,0.095-1.025,0.224l-0.508,0.151
		l-0.204-1.854l0.472-0.141c0.593-0.176,1.026-0.408,1.301-0.693s0.363-0.592,0.266-0.918c-0.055-0.185-0.172-0.313-0.351-0.382
		c-0.179-0.07-0.395-0.067-0.648,0.009c-0.472,0.141-0.966,0.472-1.481,0.994L216,311.819c0.41-0.478,0.832-0.854,1.266-1.13
		s0.935-0.499,1.502-0.668c0.811-0.241,1.514-0.247,2.111-0.017C221.476,310.234,221.871,310.672,222.063,311.316z"/>
</g>
<g>
	<path fill="#FFFFFF" d="M335.173,337.761c-0.372,0.111-0.669,0.346-0.889,0.704c-0.22,0.359-0.345,0.8-0.375,1.323
		c-0.03,0.524,0.037,1.062,0.202,1.614c0.138,0.462,0.337,0.779,0.598,0.949c0.262,0.17,0.573,0.201,0.936,0.093
		c0.286-0.085,0.565-0.207,0.838-0.365c0.271-0.158,0.581-0.38,0.928-0.668l0.498,1.672c-0.608,0.519-1.321,0.9-2.139,1.144
		c-0.897,0.268-1.664,0.217-2.302-0.151s-1.096-1.021-1.376-1.96c-0.273-0.917-0.349-1.812-0.227-2.682s0.426-1.59,0.912-2.16
		c0.485-0.569,1.117-0.969,1.894-1.201c0.914-0.272,1.812-0.293,2.691-0.063l-0.296,1.807c-0.377-0.094-0.715-0.148-1.013-0.163
		C335.757,337.639,335.463,337.674,335.173,337.761z"/>
	<path fill="#FFFFFF" d="M341.421,334.063c0.896-0.268,1.671-0.219,2.322,0.145c0.651,0.364,1.113,1.004,1.387,1.922
		s0.352,1.808,0.235,2.671c-0.117,0.863-0.417,1.587-0.899,2.173c-0.483,0.585-1.123,0.997-1.921,1.234
		c-0.928,0.276-1.722,0.233-2.38-0.13c-0.658-0.364-1.124-1.002-1.396-1.917s-0.345-1.808-0.218-2.68
		c0.127-0.872,0.438-1.6,0.93-2.184C339.974,334.712,340.62,334.301,341.421,334.063z M343.092,336.76
		c-0.117-0.394-0.292-0.677-0.523-0.85c-0.232-0.173-0.505-0.213-0.819-0.12c-0.342,0.102-0.612,0.34-0.813,0.715
		c-0.2,0.375-0.31,0.842-0.329,1.4s0.049,1.103,0.208,1.634c0.248,0.835,0.718,1.15,1.408,0.944
		c0.327-0.098,0.589-0.332,0.785-0.702s0.302-0.822,0.317-1.357C343.342,337.891,343.264,337.336,343.092,336.76z"/>
	<path fill="#FFFFFF" d="M348.845,337.221l0.235,2.928l-2.023,0.603l-0.654-8.043l2.003-0.597c0.869-0.259,1.587-0.285,2.151-0.078
		c0.565,0.208,0.951,0.658,1.158,1.352c0.16,0.538,0.178,1.044,0.052,1.517s-0.399,0.887-0.819,1.242l1.955,2.325l0.354,0.435
		l-2.205,0.657l-1.829-2.453L348.845,337.221z M348.713,335.587l0.265-0.079c0.327-0.098,0.56-0.269,0.697-0.515
		c0.137-0.246,0.155-0.538,0.055-0.876c-0.063-0.214-0.172-0.359-0.324-0.436s-0.343-0.082-0.57-0.014l-0.274,0.082L348.713,335.587
		z"/>
	<path fill="#FFFFFF" d="M358.696,331.514c0.259,0.869,0.166,1.64-0.278,2.311c-0.444,0.672-1.181,1.161-2.209,1.467l-0.444,0.133
		l0.229,2.664l-2.023,0.603l-0.654-8.043l1.93-0.575c0.894-0.266,1.638-0.274,2.232-0.025
		C358.073,330.297,358.479,330.786,358.696,331.514z M355.633,333.66l0.326-0.097c0.314-0.094,0.538-0.27,0.671-0.53
		c0.133-0.259,0.153-0.544,0.061-0.855c-0.061-0.203-0.171-0.349-0.332-0.436c-0.162-0.087-0.351-0.099-0.568-0.034l-0.306,0.091
		L355.633,333.66z"/>
	<path fill="#FFFFFF" d="M362.734,327.714c0.896-0.268,1.671-0.219,2.322,0.145c0.651,0.364,1.113,1.004,1.387,1.922
		s0.352,1.808,0.235,2.671c-0.117,0.863-0.417,1.587-0.899,2.173c-0.483,0.585-1.123,0.997-1.921,1.234
		c-0.928,0.276-1.722,0.233-2.38-0.13c-0.658-0.364-1.124-1.002-1.396-1.917s-0.345-1.808-0.218-2.68
		c0.127-0.872,0.438-1.6,0.93-2.184C361.287,328.364,361.934,327.952,362.734,327.714z M364.405,330.411
		c-0.117-0.394-0.292-0.677-0.523-0.85c-0.232-0.173-0.505-0.213-0.819-0.12c-0.342,0.102-0.612,0.34-0.813,0.715
		c-0.2,0.375-0.31,0.842-0.329,1.4s0.049,1.103,0.208,1.634c0.248,0.835,0.718,1.15,1.408,0.944
		c0.327-0.098,0.589-0.332,0.785-0.702s0.302-0.822,0.317-1.357C364.655,331.542,364.577,330.987,364.405,330.411z"/>
	<path fill="#FFFFFF" d="M370.17,330.869l0.235,2.928l-2.023,0.603l-0.654-8.043l2.003-0.597c0.869-0.259,1.587-0.285,2.151-0.078
		c0.565,0.208,0.951,0.658,1.158,1.352c0.16,0.538,0.178,1.044,0.052,1.517s-0.399,0.887-0.819,1.242l1.955,2.325l0.354,0.435
		l-2.205,0.657l-1.829-2.453L370.17,330.869z M370.038,329.235l0.265-0.079c0.327-0.098,0.56-0.269,0.697-0.515
		c0.137-0.246,0.155-0.538,0.055-0.876c-0.063-0.214-0.172-0.359-0.324-0.436s-0.343-0.082-0.57-0.014l-0.274,0.082L370.038,329.235
		z"/>
	<path fill="#FFFFFF" d="M379.111,329.659l-2.319,0.691l-0.225,1.611l-2.101,0.626l1.597-8.714l2.604-0.775l2.891,7.377
		l-1.973,0.587L379.111,329.659z M377.052,328.515l1.517-0.452l-0.742-2.168l-0.143-0.442c-0.077-0.259-0.138-0.487-0.182-0.684
		c0.006,0.321-0.015,0.639-0.06,0.953L377.052,328.515z"/>
	<path fill="#FFFFFF" d="M385.498,329.301l-2.023,0.603l-0.529-6.261l-1.641,0.489l-0.142-1.778l5.321-1.584l0.13,1.781
		l-1.646,0.491L385.498,329.301z"/>
	<path fill="#FFFFFF" d="M388.262,328.478l-0.654-8.043l2.055-0.612l0.654,8.043L388.262,328.478z"/>
	<path fill="#FFFFFF" d="M394.236,318.331c0.896-0.268,1.671-0.219,2.322,0.145c0.651,0.364,1.113,1.004,1.387,1.922
		s0.352,1.808,0.235,2.671c-0.117,0.863-0.417,1.587-0.899,2.173c-0.483,0.585-1.123,0.997-1.921,1.234
		c-0.928,0.276-1.722,0.233-2.38-0.13c-0.658-0.364-1.124-1.002-1.396-1.917s-0.345-1.808-0.218-2.68
		c0.127-0.872,0.438-1.6,0.93-2.184C392.789,318.98,393.436,318.569,394.236,318.331z M395.907,321.028
		c-0.117-0.394-0.292-0.677-0.523-0.85c-0.232-0.173-0.505-0.213-0.819-0.12c-0.342,0.102-0.612,0.34-0.813,0.715
		c-0.2,0.375-0.31,0.842-0.329,1.4s0.049,1.103,0.208,1.634c0.248,0.835,0.718,1.15,1.408,0.944
		c0.327-0.098,0.589-0.332,0.785-0.702s0.302-0.822,0.317-1.357C396.157,322.159,396.079,321.604,395.907,321.028z"/>
	<path fill="#FFFFFF" d="M406.521,323.039l-2.355,0.702l-3.08-4.875l-0.042,0.012c0.199,1.034,0.315,1.784,0.35,2.251l0.272,3.356
		l-1.801,0.537l-0.655-8.043l2.355-0.702l2.996,4.647l0.046-0.014c-0.143-0.844-0.234-1.514-0.276-2.008l-0.266-3.37l1.801-0.537
		L406.521,323.039z"/>
	<path fill="#FFFFFF" d="M415.913,318.646l-0.776,0.231l0.131,1.556l-1.951,0.582l-0.126-1.558l-2.842,0.847l-0.131-1.404
		l2.521-5.952l1.863-0.555l0.4,4.862l0.771-0.229L415.913,318.646z M413.051,317.836l-0.045-1.08
		c-0.01-0.399-0.015-0.794-0.015-1.185l-0.047,0.014c-0.076,0.387-0.185,0.743-0.325,1.066l-0.649,1.507L413.051,317.836z"/>
</g>
<circle fill="#FFFFFF" cx="581.011" cy="35.749" r="10.354"/>
</svg>
