<?xml version="1.0" encoding="UTF-8" standalone="no"?><!DOCTYPE svg PUBLIC "-//W3C//DTD SVG 1.1//EN" "http://www.w3.org/Graphics/SVG/1.1/DTD/svg11.dtd"><svg width="100%" height="100%" viewBox="0 0 338 128" version="1.1" xmlns="http://www.w3.org/2000/svg" xmlns:xlink="http://www.w3.org/1999/xlink" xml:space="preserve" style="fill-rule:evenodd;clip-rule:evenodd;stroke-linejoin:round;stroke-miterlimit:1.41421;"><g id="consumer-two"><g id="icon-2"><path d="M101.135,46.25l-33.502,11.758l11.898,21.321l3.205,-0.658l0.868,1.562l25.856,-8.985l-8.325,-24.998Z" style="fill:#c73d27;fill-rule:nonzero;"/><path d="M67.588,60.908c0,0 -0.801,0.801 -1.87,0.801c-1.07,0 -5.703,-2.082 -6.327,-2.483c-0.623,-0.4 -2.049,-1.682 -4.633,-1.041c-2.584,0.64 -6.148,1.682 -6.683,2.083c-0.534,0.401 -1.604,1.761 -1.604,2.243c0,0.481 -0.623,1.878 -0.891,2.021c-0.268,0.142 -1.426,1.824 -0.357,2.785c1.069,0.961 2.14,0.721 3.119,0.401c0.98,-0.323 3.453,-3.027 3.453,-3.667c0,-0.641 -0.668,-2.261 -0.668,-2.261c0,0 1.581,-0.134 1.671,1.214c0.089,1.348 0.98,-1.134 3.387,0.949c2.405,2.083 8.388,6.132 8.388,6.132c0,0 4.106,-0.018 4.729,-0.339c0.624,-0.319 -0.182,0.483 -0.57,0.768c-0.386,0.286 -2.168,0.734 -2.168,0.734c0,0 1.573,1.373 1.84,2.015c0.266,0.641 1.246,2.75 1.246,2.75l5.335,-2.289c-0.001,0.001 -5.882,-11.534 -7.397,-12.816Z" style="fill:#c73d27;fill-rule:nonzero;"/><path d="M4.55,45.574l31.831,10.874l3.654,0.897c0,0 0.386,0.261 0,1.041c-0.387,0.78 -10.822,21.845 -10.822,21.845l-2.811,-1.202l-1.091,2.062l-25.172,-9.926l4.411,-25.591Z" style="fill:#c73d27;fill-rule:nonzero;"/><path d="M40.814,59.827c0,0 2.985,-0.36 4.9,-1.281c1.916,-0.921 5.97,-2.403 7.262,-2.043c1.292,0.361 1.301,0.453 1.301,0.453c0,0 -5.601,1.81 -6.759,2.251c-1.159,0.44 -2.163,2.36 -2.207,2.801c-0.045,0.441 -1.145,2.756 -1.502,3.116c-0.358,0.359 -0.925,2.463 0.768,3.424c1.692,0.961 2.606,0.33 3.052,0.169c0.445,-0.158 2.295,-0.721 3.23,-1.964c0.936,-1.242 2.005,-2.522 2.873,-2.323c0.868,0.201 1.159,-0.118 2.806,1.444c1.65,1.561 5.413,3.965 5.413,3.965c0,0 5.35,3.991 5.502,4.324c0.354,0.776 1.75,3.065 1.526,3.631c-0.15,0.387 -0.629,1.618 -2.018,1.777c-0.743,0.084 -1.158,-0.24 -1.158,-0.24l-4.765,-4.766l-1.693,-1.991c0,0 0.357,2.151 0.624,2.473c0.267,0.32 3.321,3.219 3.653,3.564c0.524,0.542 1.38,1.096 1.562,1.486c0.376,0.798 -0.714,2.36 -2.097,2.36c-1.38,0 -2.205,-0.489 -2.205,-0.489l-3.209,-2.636l-1.269,-1.412c0,0 0.045,1.532 0.267,1.852c0.223,0.321 3.698,3.164 3.698,3.164l0.491,0.32c0,0 0.087,0.401 -0.714,0.921c-0.801,0.52 -2.133,0.688 -2.267,0.647c-0.133,-0.04 -3.724,-3.45 -4.148,-3.731c-0.423,-0.28 0,1.358 0,1.358l1.205,1.004l1.775,1.721c0,0 0.139,0.042 -0.485,0.523c-0.623,0.48 -3.177,0.321 -3.177,0.321c0,0 1.684,-1.944 0.182,-3.086c-0.797,-0.606 -1.103,-0.726 -1.103,-0.726c0.348,-0.723 0.679,-1.657 0.368,-2.458c-0.313,-0.801 -1.08,-1.543 -1.926,-1.742c-0.846,-0.201 -2.217,0.15 -2.217,0.15c0,0 0.183,-1.35 -1.213,-2.274c-0.846,-0.561 -2.364,-0.503 -3.555,0.248c-0.661,0.415 -2.248,1.545 -2.248,1.545c0.045,-0.33 -1.683,-3.543 -5.225,-2.311l-2.049,-1.565l6.751,-13.974Z" style="fill:#c73d27;fill-rule:nonzero;"/><path d="M35.267,76.54c0,0 -0.521,1.707 0.056,2.16c2.406,1.892 3.709,1.392 3.709,1.392c0,0 0,0.8 0.891,1.762c0.891,0.961 2.673,1.641 2.673,1.641c0,0 -0.357,0.411 0.446,1.212c0.801,0.801 2.25,1.532 3.875,1.021c0,0 -0.512,0.431 0.468,1.231c0.98,0.8 1.36,0.772 2.34,0.691c0.98,-0.08 2.406,-1.551 2.406,-1.551c0,0 1.17,-1.606 0,-2.485c-0.897,-0.673 -2.128,-0.219 -2.305,-0.019c-0.178,0.199 1.326,-1.483 1.537,-2.674c0.176,-1.001 -0.457,-1.462 -1.437,-1.742c-0.979,-0.279 -1.874,0.103 -2.406,0.541c-0.598,0.494 -1.136,0.852 -1.136,0.852l-2.725,1.721c0,0 2.825,-2.272 3.292,-3.263c0.259,-0.548 0.182,-1.45 -0.568,-1.863c-0.51,-0.278 -0.98,-0.62 -2.005,-0.401c-0.194,0.044 -2.851,1.764 -2.851,1.764l-0.936,0.601l-0.668,0.359c0,0 0.713,-1.122 0,-1.802c-0.712,-0.681 -1.575,-2.04 -4.656,-1.148Z" style="fill:#c73d27;fill-rule:nonzero;"/></g><g><path d="M139.523,8.834l1.095,0c1.024,0 1.791,-0.203 2.299,-0.607c0.509,-0.405 0.763,-0.994 0.763,-1.767c0,-0.781 -0.213,-1.358 -0.639,-1.73c-0.426,-0.372 -1.094,-0.559 -2.004,-0.559l-1.514,0l0,4.663Zm7.519,-2.493c0,1.69 -0.528,2.983 -1.584,3.878c-1.057,0.895 -2.559,1.343 -4.507,1.343l-1.428,0l0,5.586l-3.33,0l0,-15.705l5.016,0c1.905,0 3.354,0.41 4.345,1.23c0.992,0.82 1.488,2.043 1.488,3.668Z" style="fill:#c73d27;fill-rule:nonzero;"/><path d="M158.257,17.148l-0.44,-1.536l-0.172,0c-0.351,0.558 -0.849,0.99 -1.493,1.294c-0.645,0.305 -1.379,0.457 -2.203,0.457c-1.41,0 -2.474,-0.378 -3.19,-1.133c-0.716,-0.756 -1.074,-1.843 -1.074,-3.261l0,-7.831l3.276,0l0,7.015c0,0.866 0.154,1.516 0.462,1.95c0.308,0.433 0.799,0.649 1.472,0.649c0.916,0 1.579,-0.306 1.987,-0.918c0.408,-0.612 0.612,-1.627 0.612,-3.045l0,-5.651l3.277,0l0,12.01l-2.514,0Z" style="fill:#c73d27;fill-rule:nonzero;"/><path d="M170.911,4.913c0.444,0 0.813,0.032 1.107,0.096l-0.247,3.073c-0.265,-0.072 -0.587,-0.108 -0.967,-0.108c-1.046,0 -1.86,0.269 -2.444,0.806c-0.584,0.537 -0.875,1.289 -0.875,2.256l0,6.112l-3.277,0l0,-12.01l2.482,0l0.483,2.02l0.161,0c0.373,-0.673 0.876,-1.216 1.509,-1.628c0.634,-0.411 1.324,-0.617 2.068,-0.617Z" style="fill:#c73d27;fill-rule:nonzero;"/><path d="M178.635,17.363c-3.738,0 -5.607,-2.052 -5.607,-6.155c0,-2.041 0.508,-3.601 1.525,-4.679c1.017,-1.077 2.474,-1.616 4.372,-1.616c1.389,0 2.635,0.272 3.738,0.816l-0.966,2.535c-0.516,-0.207 -0.996,-0.378 -1.44,-0.51c-0.444,-0.133 -0.888,-0.199 -1.332,-0.199c-1.704,0 -2.557,1.211 -2.557,3.631c0,2.349 0.853,3.524 2.557,3.524c0.63,0 1.214,-0.085 1.751,-0.253c0.537,-0.168 1.074,-0.431 1.611,-0.789l0,2.803c-0.53,0.337 -1.065,0.57 -1.606,0.698c-0.54,0.129 -1.222,0.194 -2.046,0.194Z" style="fill:#c73d27;fill-rule:nonzero;"/><path d="M196.156,17.148l-3.277,0l0,-7.015c0,-1.733 -0.644,-2.599 -1.933,-2.599c-0.917,0 -1.58,0.311 -1.988,0.934c-0.408,0.623 -0.612,1.633 -0.612,3.03l0,5.65l-3.276,0l0,-16.715l3.276,0l0,3.405c0,0.265 -0.025,0.888 -0.075,1.87l-0.075,0.966l0.171,0c0.731,-1.174 1.891,-1.761 3.481,-1.761c1.411,0 2.481,0.379 3.212,1.138c0.73,0.759 1.096,1.848 1.096,3.266l0,7.831Z" style="fill:#c73d27;fill-rule:nonzero;"/><path d="M207.156,17.148l-0.634,-1.633l-0.086,0c-0.552,0.695 -1.119,1.176 -1.703,1.445c-0.584,0.269 -1.344,0.403 -2.283,0.403c-1.153,0 -2.06,-0.33 -2.723,-0.988c-0.662,-0.659 -0.993,-1.597 -0.993,-2.815c0,-1.275 0.445,-2.215 1.337,-2.82c0.892,-0.605 2.236,-0.94 4.034,-1.004l2.084,-0.065l0,-0.526c0,-1.217 -0.623,-1.826 -1.869,-1.826c-0.96,0 -2.088,0.29 -3.384,0.87l-1.085,-2.213c1.382,-0.723 2.915,-1.085 4.597,-1.085c1.612,0 2.847,0.351 3.707,1.053c0.859,0.702 1.289,1.769 1.289,3.201l0,8.003l-2.288,0Zm-0.967,-5.564l-1.268,0.043c-0.952,0.028 -1.661,0.2 -2.127,0.515c-0.465,0.315 -0.698,0.795 -0.698,1.44c0,0.923 0.53,1.385 1.59,1.385c0.759,0 1.366,-0.218 1.821,-0.655c0.454,-0.437 0.682,-1.017 0.682,-1.74l0,-0.988Z" style="fill:#c73d27;fill-rule:nonzero;"/><path d="M221.196,13.582c0,1.231 -0.428,2.17 -1.284,2.814c-0.856,0.645 -2.136,0.967 -3.84,0.967c-0.874,0 -1.619,-0.059 -2.235,-0.177c-0.616,-0.119 -1.192,-0.292 -1.729,-0.521l0,-2.707c0.608,0.286 1.294,0.526 2.057,0.719c0.762,0.194 1.434,0.29 2.014,0.29c1.189,0 1.783,-0.343 1.783,-1.031c0,-0.258 -0.079,-0.467 -0.236,-0.628c-0.158,-0.161 -0.43,-0.344 -0.817,-0.548c-0.386,-0.204 -0.902,-0.442 -1.546,-0.715c-0.924,-0.386 -1.603,-0.744 -2.036,-1.074c-0.433,-0.329 -0.748,-0.707 -0.945,-1.133c-0.197,-0.426 -0.296,-0.951 -0.296,-1.574c0,-1.067 0.414,-1.892 1.241,-2.476c0.827,-0.584 2,-0.875 3.518,-0.875c1.447,0 2.854,0.315 4.222,0.945l-0.989,2.363c-0.601,-0.258 -1.163,-0.469 -1.686,-0.634c-0.523,-0.164 -1.056,-0.247 -1.601,-0.247c-0.967,0 -1.45,0.262 -1.45,0.785c0,0.293 0.156,0.547 0.467,0.762c0.312,0.215 0.994,0.534 2.047,0.956c0.938,0.38 1.625,0.734 2.062,1.064c0.437,0.329 0.759,0.709 0.967,1.138c0.208,0.43 0.312,0.942 0.312,1.537Z" style="fill:#c73d27;fill-rule:nonzero;"/><path d="M228.726,7.244c-0.695,0 -1.239,0.22 -1.633,0.66c-0.394,0.441 -0.619,1.066 -0.677,1.875l4.598,0c-0.014,-0.809 -0.226,-1.434 -0.634,-1.875c-0.408,-0.44 -0.96,-0.66 -1.654,-0.66Zm0.462,10.119c-1.934,0 -3.445,-0.534 -4.533,-1.601c-1.089,-1.067 -1.633,-2.578 -1.633,-4.533c0,-2.012 0.503,-3.568 1.509,-4.667c1.006,-1.1 2.397,-1.649 4.173,-1.649c1.698,0 3.019,0.483 3.964,1.45c0.946,0.967 1.418,2.302 1.418,4.007l0,1.59l-7.745,0c0.036,0.931 0.312,1.657 0.827,2.18c0.516,0.523 1.239,0.784 2.17,0.784c0.723,0 1.407,-0.075 2.052,-0.225c0.644,-0.151 1.318,-0.391 2.019,-0.72l0,2.535c-0.573,0.287 -1.185,0.5 -1.836,0.639c-0.652,0.14 -1.447,0.21 -2.385,0.21Z" style="fill:#c73d27;fill-rule:nonzero;"/><path d="M249.061,17.363c-1.411,0 -2.517,-0.512 -3.32,-1.536l-0.171,0c0.114,1.002 0.171,1.582 0.171,1.74l0,4.866l-3.276,0l0,-17.295l2.664,0l0.462,1.558l0.15,0c0.767,-1.189 1.902,-1.783 3.406,-1.783c1.418,0 2.528,0.547 3.33,1.643c0.802,1.096 1.203,2.618 1.203,4.566c0,1.282 -0.188,2.395 -0.564,3.34c-0.376,0.946 -0.911,1.665 -1.606,2.16c-0.695,0.494 -1.511,0.741 -2.449,0.741Zm-0.967,-9.829c-0.809,0 -1.4,0.249 -1.772,0.746c-0.373,0.498 -0.566,1.32 -0.581,2.466l0,0.354c0,1.289 0.192,2.213 0.575,2.772c0.383,0.558 0.99,0.838 1.821,0.838c1.468,0 2.202,-1.211 2.202,-3.631c0,-1.182 -0.181,-2.068 -0.542,-2.659c-0.362,-0.591 -0.93,-0.886 -1.703,-0.886Z" style="fill:#c73d27;fill-rule:nonzero;"/><path d="M263.09,4.913c0.444,0 0.813,0.032 1.107,0.096l-0.248,3.073c-0.265,-0.072 -0.587,-0.108 -0.966,-0.108c-1.046,0 -1.861,0.269 -2.444,0.806c-0.584,0.537 -0.876,1.289 -0.876,2.256l0,6.112l-3.276,0l0,-12.01l2.481,0l0.484,2.02l0.161,0c0.372,-0.673 0.875,-1.216 1.509,-1.628c0.634,-0.411 1.323,-0.617 2.068,-0.617Z" style="fill:#c73d27;fill-rule:nonzero;"/><path d="M268.547,11.122c0,1.188 0.195,2.087 0.586,2.696c0.39,0.609 1.025,0.913 1.906,0.913c0.874,0 1.502,-0.303 1.886,-0.908c0.383,-0.605 0.574,-1.505 0.574,-2.701c0,-1.189 -0.193,-2.081 -0.58,-2.675c-0.387,-0.595 -1.02,-0.892 -1.901,-0.892c-0.874,0 -1.504,0.296 -1.891,0.886c-0.387,0.591 -0.58,1.485 -0.58,2.681Zm8.304,0c0,1.955 -0.516,3.484 -1.547,4.587c-1.031,1.102 -2.467,1.654 -4.308,1.654c-1.153,0 -2.17,-0.253 -3.05,-0.757c-0.881,-0.505 -1.558,-1.23 -2.031,-2.176c-0.472,-0.945 -0.709,-2.048 -0.709,-3.308c0,-1.963 0.512,-3.488 1.536,-4.577c1.025,-1.088 2.464,-1.632 4.319,-1.632c1.153,0 2.17,0.25 3.051,0.752c0.88,0.501 1.557,1.221 2.03,2.159c0.472,0.938 0.709,2.037 0.709,3.298Z" style="fill:#c73d27;fill-rule:nonzero;"/><path d="M283.361,17.363c-1.411,0 -2.519,-0.548 -3.325,-1.644c-0.806,-1.095 -1.209,-2.614 -1.209,-4.554c0,-1.97 0.41,-3.504 1.23,-4.603c0.82,-1.1 1.95,-1.649 3.39,-1.649c1.511,0 2.664,0.587 3.459,1.761l0.107,0c-0.165,-0.895 -0.247,-1.693 -0.247,-2.395l0,-3.846l3.287,0l0,16.715l-2.514,0l-0.633,-1.558l-0.14,0c-0.745,1.182 -1.88,1.773 -3.405,1.773Zm1.149,-2.611c0.838,0 1.452,-0.243 1.842,-0.73c0.391,-0.487 0.604,-1.314 0.639,-2.481l0,-0.355c0,-1.289 -0.198,-2.213 -0.596,-2.771c-0.397,-0.559 -1.044,-0.838 -1.939,-0.838c-0.73,0 -1.298,0.309 -1.702,0.929c-0.405,0.619 -0.607,1.52 -0.607,2.702c0,1.181 0.204,2.067 0.612,2.658c0.408,0.591 0.992,0.886 1.751,0.886Z" style="fill:#c73d27;fill-rule:nonzero;"/><path d="M301.988,17.148l-0.441,-1.536l-0.172,0c-0.351,0.558 -0.848,0.99 -1.493,1.294c-0.644,0.305 -1.379,0.457 -2.202,0.457c-1.411,0 -2.474,-0.378 -3.191,-1.133c-0.716,-0.756 -1.074,-1.843 -1.074,-3.261l0,-7.831l3.277,0l0,7.015c0,0.866 0.154,1.516 0.462,1.95c0.307,0.433 0.798,0.649 1.471,0.649c0.917,0 1.579,-0.306 1.988,-0.918c0.408,-0.612 0.612,-1.627 0.612,-3.045l0,-5.651l3.276,0l0,12.01l-2.513,0Z" style="fill:#c73d27;fill-rule:nonzero;"/><path d="M312.816,17.363c-3.739,0 -5.608,-2.052 -5.608,-6.155c0,-2.041 0.509,-3.601 1.526,-4.679c1.017,-1.077 2.474,-1.616 4.372,-1.616c1.389,0 2.635,0.272 3.738,0.816l-0.967,2.535c-0.515,-0.207 -0.995,-0.378 -1.439,-0.51c-0.444,-0.133 -0.888,-0.199 -1.332,-0.199c-1.705,0 -2.557,1.211 -2.557,3.631c0,2.349 0.852,3.524 2.557,3.524c0.63,0 1.214,-0.085 1.751,-0.253c0.537,-0.168 1.074,-0.431 1.611,-0.789l0,2.803c-0.53,0.337 -1.065,0.57 -1.606,0.698c-0.541,0.129 -1.223,0.194 -2.046,0.194Z" style="fill:#c73d27;fill-rule:nonzero;"/><path d="M324.31,14.752c0.573,0 1.26,-0.125 2.062,-0.375l0,2.438c-0.816,0.365 -1.819,0.548 -3.008,0.548c-1.31,0 -2.264,-0.331 -2.862,-0.994c-0.598,-0.662 -0.897,-1.656 -0.897,-2.981l0,-5.79l-1.569,0l0,-1.386l1.805,-1.095l0.945,-2.535l2.095,0l0,2.556l3.362,0l0,2.46l-3.362,0l0,5.79c0,0.466 0.131,0.809 0.392,1.031c0.262,0.222 0.607,0.333 1.037,0.333Z" style="fill:#c73d27;fill-rule:nonzero;"/><path d="M337.179,13.582c0,1.231 -0.428,2.17 -1.284,2.814c-0.856,0.645 -2.136,0.967 -3.84,0.967c-0.874,0 -1.619,-0.059 -2.234,-0.177c-0.616,-0.119 -1.193,-0.292 -1.73,-0.521l0,-2.707c0.609,0.286 1.294,0.526 2.057,0.719c0.763,0.194 1.434,0.29 2.014,0.29c1.189,0 1.784,-0.343 1.784,-1.031c0,-0.258 -0.079,-0.467 -0.237,-0.628c-0.157,-0.161 -0.429,-0.344 -0.816,-0.548c-0.387,-0.204 -0.903,-0.442 -1.547,-0.715c-0.924,-0.386 -1.602,-0.744 -2.036,-1.074c-0.433,-0.329 -0.748,-0.707 -0.945,-1.133c-0.197,-0.426 -0.295,-0.951 -0.295,-1.574c0,-1.067 0.413,-1.892 1.24,-2.476c0.827,-0.584 2,-0.875 3.518,-0.875c1.447,0 2.854,0.315 4.222,0.945l-0.988,2.363c-0.602,-0.258 -1.164,-0.469 -1.687,-0.634c-0.523,-0.164 -1.056,-0.247 -1.6,-0.247c-0.967,0 -1.451,0.262 -1.451,0.785c0,0.293 0.156,0.547 0.468,0.762c0.311,0.215 0.993,0.534 2.046,0.956c0.938,0.38 1.626,0.734 2.063,1.064c0.436,0.329 0.759,0.709 0.966,1.138c0.208,0.43 0.312,0.942 0.312,1.537Z" style="fill:#c73d27;fill-rule:nonzero;"/><path d="M155.545,29.598l-2.836,0l0,9.55l-3.277,0l0,-9.55l-1.804,0l0,-1.579l1.804,-0.881l0,-0.881c0,-1.367 0.337,-2.366 1.01,-2.997c0.673,-0.63 1.751,-0.945 3.234,-0.945c1.131,0 2.137,0.168 3.018,0.505l-0.838,2.406c-0.659,-0.208 -1.267,-0.311 -1.826,-0.311c-0.465,0 -0.802,0.137 -1.01,0.413c-0.207,0.276 -0.311,0.629 -0.311,1.058l0,0.752l2.836,0l0,2.46Z" style="fill:#c73d27;fill-rule:nonzero;"/><path d="M164.128,26.913c0.444,0 0.813,0.032 1.106,0.096l-0.247,3.073c-0.265,-0.072 -0.587,-0.108 -0.967,-0.108c-1.045,0 -1.86,0.269 -2.444,0.806c-0.583,0.537 -0.875,1.289 -0.875,2.256l0,6.112l-3.276,0l0,-12.01l2.481,0l0.483,2.02l0.162,0c0.372,-0.673 0.875,-1.216 1.509,-1.628c0.634,-0.411 1.323,-0.617 2.068,-0.617Z" style="fill:#c73d27;fill-rule:nonzero;"/><path d="M169.585,33.122c0,1.188 0.195,2.087 0.585,2.696c0.39,0.609 1.026,0.913 1.907,0.913c0.874,0 1.502,-0.303 1.885,-0.908c0.383,-0.605 0.575,-1.505 0.575,-2.701c0,-1.189 -0.194,-2.081 -0.58,-2.675c-0.387,-0.595 -1.021,-0.892 -1.902,-0.892c-0.873,0 -1.503,0.296 -1.89,0.886c-0.387,0.591 -0.58,1.485 -0.58,2.681Zm8.303,0c0,1.955 -0.515,3.484 -1.546,4.587c-1.032,1.102 -2.468,1.654 -4.308,1.654c-1.153,0 -2.17,-0.253 -3.051,-0.757c-0.881,-0.505 -1.557,-1.23 -2.03,-2.176c-0.473,-0.945 -0.709,-2.048 -0.709,-3.308c0,-1.963 0.512,-3.488 1.536,-4.577c1.024,-1.088 2.464,-1.632 4.318,-1.632c1.153,0 2.17,0.25 3.051,0.752c0.881,0.501 1.558,1.221 2.03,2.159c0.473,0.938 0.709,2.037 0.709,3.298Z" style="fill:#c73d27;fill-rule:nonzero;"/><path d="M191.348,39.148l-3.276,0l0,-7.015c0,-0.866 -0.145,-1.516 -0.435,-1.949c-0.29,-0.434 -0.747,-0.65 -1.37,-0.65c-0.838,0 -1.446,0.308 -1.826,0.924c-0.379,0.615 -0.569,1.629 -0.569,3.04l0,5.65l-3.277,0l0,-12.01l2.503,0l0.441,1.536l0.182,0c0.323,-0.551 0.788,-0.983 1.397,-1.294c0.609,-0.312 1.307,-0.467 2.095,-0.467c1.797,0 3.015,0.587 3.652,1.761l0.29,0c0.322,-0.558 0.797,-0.991 1.423,-1.299c0.627,-0.308 1.334,-0.462 2.122,-0.462c1.361,0 2.39,0.349 3.088,1.047c0.699,0.698 1.048,1.817 1.048,3.357l0,7.831l-3.287,0l0,-7.015c0,-0.866 -0.145,-1.516 -0.435,-1.949c-0.291,-0.434 -0.747,-0.65 -1.37,-0.65c-0.802,0 -1.402,0.286 -1.799,0.859c-0.398,0.573 -0.597,1.483 -0.597,2.729l0,6.026Z" style="fill:#c73d27;fill-rule:nonzero;"/><path d="M212.79,39.363c-3.738,0 -5.608,-2.052 -5.608,-6.155c0,-2.041 0.509,-3.601 1.526,-4.679c1.017,-1.077 2.474,-1.616 4.372,-1.616c1.389,0 2.635,0.272 3.738,0.816l-0.967,2.535c-0.515,-0.207 -0.995,-0.378 -1.439,-0.51c-0.444,-0.133 -0.888,-0.199 -1.332,-0.199c-1.705,0 -2.557,1.211 -2.557,3.631c0,2.349 0.852,3.524 2.557,3.524c0.63,0 1.214,-0.085 1.751,-0.253c0.537,-0.168 1.074,-0.431 1.611,-0.789l0,2.803c-0.53,0.337 -1.065,0.57 -1.606,0.698c-0.541,0.129 -1.223,0.194 -2.046,0.194Z" style="fill:#c73d27;fill-rule:nonzero;"/><path d="M221.835,33.122c0,1.188 0.195,2.087 0.585,2.696c0.39,0.609 1.026,0.913 1.907,0.913c0.874,0 1.502,-0.303 1.885,-0.908c0.383,-0.605 0.575,-1.505 0.575,-2.701c0,-1.189 -0.194,-2.081 -0.58,-2.675c-0.387,-0.595 -1.021,-0.892 -1.902,-0.892c-0.873,0 -1.503,0.296 -1.89,0.886c-0.387,0.591 -0.58,1.485 -0.58,2.681Zm8.303,0c0,1.955 -0.515,3.484 -1.546,4.587c-1.032,1.102 -2.468,1.654 -4.308,1.654c-1.153,0 -2.17,-0.253 -3.051,-0.757c-0.881,-0.505 -1.557,-1.23 -2.03,-2.176c-0.473,-0.945 -0.709,-2.048 -0.709,-3.308c0,-1.963 0.512,-3.488 1.536,-4.577c1.024,-1.088 2.464,-1.632 4.318,-1.632c1.153,0 2.17,0.25 3.051,0.752c0.881,0.501 1.558,1.221 2.03,2.159c0.473,0.938 0.709,2.037 0.709,3.298Z" style="fill:#c73d27;fill-rule:nonzero;"/><path d="M243.598,39.148l-3.276,0l0,-7.015c0,-0.866 -0.145,-1.516 -0.435,-1.949c-0.29,-0.434 -0.747,-0.65 -1.37,-0.65c-0.838,0 -1.446,0.308 -1.826,0.924c-0.379,0.615 -0.569,1.629 -0.569,3.04l0,5.65l-3.277,0l0,-12.01l2.503,0l0.441,1.536l0.182,0c0.323,-0.551 0.788,-0.983 1.397,-1.294c0.609,-0.312 1.307,-0.467 2.095,-0.467c1.797,0 3.015,0.587 3.652,1.761l0.29,0c0.322,-0.558 0.797,-0.991 1.423,-1.299c0.627,-0.308 1.334,-0.462 2.122,-0.462c1.361,0 2.39,0.349 3.088,1.047c0.699,0.698 1.048,1.817 1.048,3.357l0,7.831l-3.287,0l0,-7.015c0,-0.866 -0.145,-1.516 -0.435,-1.949c-0.291,-0.434 -0.747,-0.65 -1.37,-0.65c-0.802,0 -1.402,0.286 -1.799,0.859c-0.398,0.573 -0.597,1.483 -0.597,2.729l0,6.026Z" style="fill:#c73d27;fill-rule:nonzero;"/><path d="M261.044,39.363c-1.411,0 -2.518,-0.512 -3.32,-1.536l-0.172,0c0.115,1.002 0.172,1.582 0.172,1.74l0,4.866l-3.276,0l0,-17.295l2.664,0l0.462,1.558l0.15,0c0.767,-1.189 1.902,-1.783 3.406,-1.783c1.418,0 2.528,0.547 3.33,1.643c0.802,1.096 1.203,2.618 1.203,4.566c0,1.282 -0.188,2.395 -0.564,3.34c-0.376,0.946 -0.911,1.665 -1.606,2.16c-0.695,0.494 -1.511,0.741 -2.449,0.741Zm-0.967,-9.829c-0.809,0 -1.4,0.249 -1.773,0.746c-0.372,0.498 -0.565,1.32 -0.58,2.466l0,0.354c0,1.289 0.192,2.213 0.575,2.772c0.383,0.558 0.99,0.838 1.821,0.838c1.468,0 2.202,-1.211 2.202,-3.631c0,-1.182 -0.181,-2.068 -0.542,-2.659c-0.362,-0.591 -0.93,-0.886 -1.703,-0.886Z" style="fill:#c73d27;fill-rule:nonzero;"/><path d="M275.997,39.148l-0.634,-1.633l-0.086,0c-0.551,0.695 -1.119,1.176 -1.703,1.445c-0.583,0.269 -1.344,0.403 -2.282,0.403c-1.153,0 -2.061,-0.33 -2.723,-0.988c-0.663,-0.659 -0.994,-1.597 -0.994,-2.815c0,-1.275 0.446,-2.215 1.337,-2.82c0.892,-0.605 2.237,-0.94 4.034,-1.004l2.084,-0.065l0,-0.526c0,-1.217 -0.623,-1.826 -1.869,-1.826c-0.96,0 -2.088,0.29 -3.384,0.87l-1.085,-2.213c1.382,-0.723 2.915,-1.085 4.598,-1.085c1.611,0 2.846,0.351 3.706,1.053c0.859,0.702 1.289,1.769 1.289,3.201l0,8.003l-2.288,0Zm-0.967,-5.564l-1.268,0.043c-0.952,0.028 -1.661,0.2 -2.127,0.515c-0.465,0.315 -0.698,0.795 -0.698,1.44c0,0.923 0.53,1.385 1.59,1.385c0.759,0 1.366,-0.218 1.821,-0.655c0.455,-0.437 0.682,-1.017 0.682,-1.74l0,-0.988Z" style="fill:#c73d27;fill-rule:nonzero;"/><path d="M292.744,39.148l-3.276,0l0,-7.015c0,-0.866 -0.154,-1.516 -0.462,-1.949c-0.308,-0.434 -0.799,-0.65 -1.472,-0.65c-0.917,0 -1.579,0.306 -1.987,0.918c-0.409,0.612 -0.613,1.628 -0.613,3.046l0,5.65l-3.276,0l0,-12.01l2.503,0l0.44,1.536l0.183,0c0.365,-0.58 0.868,-1.018 1.509,-1.316c0.641,-0.297 1.37,-0.445 2.186,-0.445c1.397,0 2.457,0.377 3.18,1.133c0.723,0.755 1.085,1.846 1.085,3.271l0,7.831Z" style="fill:#c73d27;fill-rule:nonzero;"/><path d="M295.977,24.034c0,-1.067 0.595,-1.601 1.783,-1.601c1.189,0 1.784,0.534 1.784,1.601c0,0.508 -0.149,0.904 -0.446,1.187c-0.297,0.283 -0.743,0.424 -1.338,0.424c-1.188,0 -1.783,-0.537 -1.783,-1.611Zm3.416,15.114l-3.276,0l0,-12.01l3.276,0l0,12.01Z" style="fill:#c73d27;fill-rule:nonzero;"/><path d="M307.804,29.244c-0.694,0 -1.238,0.22 -1.632,0.66c-0.394,0.441 -0.62,1.066 -0.677,1.875l4.598,0c-0.015,-0.809 -0.226,-1.434 -0.634,-1.875c-0.408,-0.44 -0.96,-0.66 -1.655,-0.66Zm0.462,10.119c-1.933,0 -3.444,-0.534 -4.533,-1.601c-1.088,-1.067 -1.633,-2.578 -1.633,-4.533c0,-2.012 0.503,-3.568 1.51,-4.667c1.006,-1.1 2.397,-1.649 4.173,-1.649c1.697,0 3.019,0.483 3.964,1.45c0.945,0.967 1.418,2.302 1.418,4.007l0,1.59l-7.745,0c0.035,0.931 0.311,1.657 0.827,2.18c0.515,0.523 1.239,0.784 2.17,0.784c0.723,0 1.407,-0.075 2.051,-0.225c0.645,-0.151 1.318,-0.391 2.02,-0.72l0,2.535c-0.573,0.287 -1.185,0.5 -1.837,0.639c-0.652,0.14 -1.446,0.21 -2.385,0.21Z" style="fill:#c73d27;fill-rule:nonzero;"/><path d="M324.208,35.582c0,1.231 -0.428,2.17 -1.284,2.814c-0.856,0.645 -2.136,0.967 -3.84,0.967c-0.874,0 -1.619,-0.059 -2.235,-0.177c-0.616,-0.119 -1.192,-0.292 -1.729,-0.521l0,-2.707c0.609,0.286 1.294,0.526 2.057,0.719c0.763,0.194 1.434,0.29 2.014,0.29c1.189,0 1.783,-0.343 1.783,-1.031c0,-0.258 -0.078,-0.467 -0.236,-0.628c-0.158,-0.161 -0.43,-0.344 -0.816,-0.548c-0.387,-0.204 -0.903,-0.442 -1.547,-0.715c-0.924,-0.386 -1.603,-0.744 -2.036,-1.074c-0.433,-0.329 -0.748,-0.707 -0.945,-1.133c-0.197,-0.426 -0.296,-0.951 -0.296,-1.574c0,-1.067 0.414,-1.892 1.241,-2.476c0.827,-0.584 2,-0.875 3.518,-0.875c1.447,0 2.854,0.315 4.222,0.945l-0.988,2.363c-0.602,-0.258 -1.164,-0.469 -1.687,-0.634c-0.523,-0.164 -1.056,-0.247 -1.601,-0.247c-0.966,0 -1.45,0.262 -1.45,0.785c0,0.293 0.156,0.547 0.468,0.762c0.311,0.215 0.993,0.534 2.046,0.956c0.938,0.38 1.626,0.734 2.062,1.064c0.437,0.329 0.76,0.709 0.967,1.138c0.208,0.43 0.312,0.942 0.312,1.537Z" style="fill:#c73d27;fill-rule:nonzero;"/><path d="M140.882,58.752c0.573,0 1.26,-0.125 2.062,-0.375l0,2.438c-0.816,0.365 -1.819,0.548 -3.008,0.548c-1.31,0 -2.265,-0.331 -2.863,-0.994c-0.598,-0.662 -0.896,-1.656 -0.896,-2.981l0,-5.79l-1.569,0l0,-1.386l1.805,-1.095l0.945,-2.535l2.095,0l0,2.556l3.362,0l0,2.46l-3.362,0l0,5.79c0,0.466 0.131,0.809 0.392,1.031c0.261,0.222 0.607,0.333 1.037,0.333Z" style="fill:#c73d27;fill-rule:nonzero;"/><path d="M156.458,61.148l-3.277,0l0,-7.015c0,-1.733 -0.644,-2.599 -1.933,-2.599c-0.917,0 -1.579,0.311 -1.988,0.934c-0.408,0.623 -0.612,1.633 -0.612,3.03l0,5.65l-3.276,0l0,-16.715l3.276,0l0,3.405c0,0.265 -0.025,0.888 -0.075,1.87l-0.075,0.966l0.172,0c0.73,-1.174 1.89,-1.761 3.48,-1.761c1.411,0 2.482,0.379 3.212,1.138c0.731,0.759 1.096,1.848 1.096,3.266l0,7.831Z" style="fill:#c73d27;fill-rule:nonzero;"/><path d="M167.458,61.148l-0.634,-1.633l-0.086,0c-0.551,0.695 -1.119,1.176 -1.703,1.445c-0.583,0.269 -1.344,0.403 -2.282,0.403c-1.153,0 -2.061,-0.33 -2.723,-0.988c-0.663,-0.659 -0.994,-1.597 -0.994,-2.815c0,-1.275 0.446,-2.215 1.337,-2.82c0.892,-0.605 2.236,-0.94 4.034,-1.004l2.084,-0.065l0,-0.526c0,-1.217 -0.623,-1.826 -1.869,-1.826c-0.96,0 -2.088,0.29 -3.384,0.87l-1.085,-2.213c1.382,-0.723 2.915,-1.085 4.598,-1.085c1.611,0 2.846,0.351 3.706,1.053c0.859,0.702 1.289,1.769 1.289,3.201l0,8.003l-2.288,0Zm-0.967,-5.564l-1.268,0.043c-0.952,0.028 -1.661,0.2 -2.127,0.515c-0.465,0.315 -0.698,0.795 -0.698,1.44c0,0.923 0.53,1.385 1.59,1.385c0.759,0 1.366,-0.218 1.821,-0.655c0.455,-0.437 0.682,-1.017 0.682,-1.74l0,-0.988Z" style="fill:#c73d27;fill-rule:nonzero;"/><path d="M178.178,58.752c0.573,0 1.261,-0.125 2.063,-0.375l0,2.438c-0.816,0.365 -1.819,0.548 -3.008,0.548c-1.31,0 -2.265,-0.331 -2.863,-0.994c-0.598,-0.662 -0.897,-1.656 -0.897,-2.981l0,-5.79l-1.568,0l0,-1.386l1.805,-1.095l0.945,-2.535l2.095,0l0,2.556l3.362,0l0,2.46l-3.362,0l0,5.79c0,0.466 0.13,0.809 0.392,1.031c0.261,0.222 0.607,0.333 1.036,0.333Z" style="fill:#c73d27;fill-rule:nonzero;"/><path d="M196.01,61.148l-0.633,-1.633l-0.086,0c-0.552,0.695 -1.119,1.176 -1.703,1.445c-0.584,0.269 -1.344,0.403 -2.283,0.403c-1.153,0 -2.06,-0.33 -2.723,-0.988c-0.662,-0.659 -0.993,-1.597 -0.993,-2.815c0,-1.275 0.445,-2.215 1.337,-2.82c0.892,-0.605 2.236,-0.94 4.034,-1.004l2.084,-0.065l0,-0.526c0,-1.217 -0.623,-1.826 -1.869,-1.826c-0.96,0 -2.088,0.29 -3.384,0.87l-1.085,-2.213c1.382,-0.723 2.915,-1.085 4.597,-1.085c1.612,0 2.847,0.351 3.707,1.053c0.859,0.702 1.289,1.769 1.289,3.201l0,8.003l-2.289,0Zm-0.966,-5.564l-1.268,0.043c-0.952,0.028 -1.661,0.2 -2.127,0.515c-0.465,0.315 -0.698,0.795 -0.698,1.44c0,0.923 0.53,1.385 1.59,1.385c0.759,0 1.366,-0.218 1.821,-0.655c0.454,-0.437 0.682,-1.017 0.682,-1.74l0,-0.988Z" style="fill:#c73d27;fill-rule:nonzero;"/><path d="M208.375,48.913c0.444,0 0.813,0.032 1.106,0.096l-0.247,3.073c-0.265,-0.072 -0.587,-0.108 -0.967,-0.108c-1.045,0 -1.86,0.269 -2.444,0.806c-0.583,0.537 -0.875,1.289 -0.875,2.256l0,6.112l-3.276,0l0,-12.01l2.481,0l0.483,2.02l0.162,0c0.372,-0.673 0.875,-1.216 1.509,-1.628c0.634,-0.411 1.323,-0.617 2.068,-0.617Z" style="fill:#c73d27;fill-rule:nonzero;"/><path d="M216.195,51.244c-0.695,0 -1.239,0.22 -1.633,0.66c-0.394,0.441 -0.619,1.066 -0.677,1.875l4.598,0c-0.014,-0.809 -0.225,-1.434 -0.634,-1.875c-0.408,-0.44 -0.959,-0.66 -1.654,-0.66Zm0.462,10.119c-1.934,0 -3.445,-0.534 -4.533,-1.601c-1.089,-1.067 -1.633,-2.578 -1.633,-4.533c0,-2.012 0.503,-3.568 1.509,-4.667c1.006,-1.1 2.398,-1.649 4.174,-1.649c1.697,0 3.018,0.483 3.963,1.45c0.946,0.967 1.418,2.302 1.418,4.007l0,1.59l-7.745,0c0.036,0.931 0.312,1.657 0.827,2.18c0.516,0.523 1.239,0.784 2.17,0.784c0.724,0 1.408,-0.075 2.052,-0.225c0.645,-0.151 1.318,-0.391 2.02,-0.72l0,2.535c-0.573,0.287 -1.186,0.5 -1.837,0.639c-0.652,0.14 -1.447,0.21 -2.385,0.21Z" style="fill:#c73d27;fill-rule:nonzero;"/><path d="M236.573,51.598l-2.836,0l0,9.55l-3.276,0l0,-9.55l-1.805,0l0,-1.579l1.805,-0.881l0,-0.881c0,-1.367 0.336,-2.366 1.009,-2.997c0.674,-0.63 1.751,-0.945 3.234,-0.945c1.131,0 2.138,0.168 3.018,0.505l-0.837,2.406c-0.659,-0.208 -1.268,-0.311 -1.827,-0.311c-0.465,0 -0.802,0.137 -1.009,0.413c-0.208,0.276 -0.312,0.629 -0.312,1.058l0,0.752l2.836,0l0,2.46Z" style="fill:#c73d27;fill-rule:nonzero;"/><path d="M246.08,61.148l-0.634,-1.633l-0.086,0c-0.551,0.695 -1.119,1.176 -1.703,1.445c-0.583,0.269 -1.344,0.403 -2.282,0.403c-1.153,0 -2.061,-0.33 -2.723,-0.988c-0.663,-0.659 -0.994,-1.597 -0.994,-2.815c0,-1.275 0.446,-2.215 1.337,-2.82c0.892,-0.605 2.237,-0.94 4.034,-1.004l2.084,-0.065l0,-0.526c0,-1.217 -0.623,-1.826 -1.869,-1.826c-0.96,0 -2.088,0.29 -3.384,0.87l-1.085,-2.213c1.382,-0.723 2.915,-1.085 4.598,-1.085c1.611,0 2.846,0.351 3.706,1.053c0.859,0.702 1.289,1.769 1.289,3.201l0,8.003l-2.288,0Zm-0.967,-5.564l-1.268,0.043c-0.952,0.028 -1.661,0.2 -2.127,0.515c-0.465,0.315 -0.698,0.795 -0.698,1.44c0,0.923 0.53,1.385 1.59,1.385c0.759,0 1.366,-0.218 1.821,-0.655c0.455,-0.437 0.682,-1.017 0.682,-1.74l0,-0.988Z" style="fill:#c73d27;fill-rule:nonzero;"/><path d="M251.601,46.034c0,-1.067 0.595,-1.601 1.784,-1.601c1.188,0 1.783,0.534 1.783,1.601c0,0.508 -0.149,0.904 -0.446,1.187c-0.297,0.283 -0.743,0.424 -1.337,0.424c-1.189,0 -1.784,-0.537 -1.784,-1.611Zm3.416,15.114l-3.276,0l0,-12.01l3.276,0l0,12.01Z" style="fill:#c73d27;fill-rule:nonzero;"/><path d="M265.158,48.913c0.444,0 0.813,0.032 1.106,0.096l-0.247,3.073c-0.265,-0.072 -0.587,-0.108 -0.966,-0.108c-1.046,0 -1.861,0.269 -2.444,0.806c-0.584,0.537 -0.876,1.289 -0.876,2.256l0,6.112l-3.276,0l0,-12.01l2.481,0l0.484,2.02l0.161,0c0.372,-0.673 0.875,-1.216 1.509,-1.628c0.634,-0.411 1.323,-0.617 2.068,-0.617Z" style="fill:#c73d27;fill-rule:nonzero;"/><path d="M279.219,58.752c0.573,0 1.261,-0.125 2.063,-0.375l0,2.438c-0.816,0.365 -1.819,0.548 -3.008,0.548c-1.31,0 -2.265,-0.331 -2.863,-0.994c-0.598,-0.662 -0.897,-1.656 -0.897,-2.981l0,-5.79l-1.568,0l0,-1.386l1.805,-1.095l0.945,-2.535l2.095,0l0,2.556l3.362,0l0,2.46l-3.362,0l0,5.79c0,0.466 0.13,0.809 0.392,1.031c0.261,0.222 0.607,0.333 1.036,0.333Z" style="fill:#c73d27;fill-rule:nonzero;"/><path d="M290.413,48.913c0.444,0 0.813,0.032 1.106,0.096l-0.247,3.073c-0.265,-0.072 -0.587,-0.108 -0.967,-0.108c-1.045,0 -1.86,0.269 -2.443,0.806c-0.584,0.537 -0.876,1.289 -0.876,2.256l0,6.112l-3.276,0l0,-12.01l2.481,0l0.484,2.02l0.161,0c0.372,-0.673 0.875,-1.216 1.509,-1.628c0.634,-0.411 1.323,-0.617 2.068,-0.617Z" style="fill:#c73d27;fill-rule:nonzero;"/><path d="M300.886,61.148l-0.633,-1.633l-0.086,0c-0.552,0.695 -1.119,1.176 -1.703,1.445c-0.584,0.269 -1.344,0.403 -2.283,0.403c-1.153,0 -2.06,-0.33 -2.723,-0.988c-0.662,-0.659 -0.993,-1.597 -0.993,-2.815c0,-1.275 0.445,-2.215 1.337,-2.82c0.892,-0.605 2.236,-0.94 4.034,-1.004l2.084,-0.065l0,-0.526c0,-1.217 -0.623,-1.826 -1.869,-1.826c-0.96,0 -2.088,0.29 -3.384,0.87l-1.085,-2.213c1.382,-0.723 2.914,-1.085 4.597,-1.085c1.612,0 2.847,0.351 3.706,1.053c0.86,0.702 1.29,1.769 1.29,3.201l0,8.003l-2.289,0Zm-0.966,-5.564l-1.268,0.043c-0.952,0.028 -1.661,0.2 -2.127,0.515c-0.465,0.315 -0.698,0.795 -0.698,1.44c0,0.923 0.53,1.385 1.59,1.385c0.759,0 1.366,-0.218 1.821,-0.655c0.454,-0.437 0.682,-1.017 0.682,-1.74l0,-0.988Z" style="fill:#c73d27;fill-rule:nonzero;"/><path d="M310.35,61.363c-1.41,0 -2.519,-0.548 -3.324,-1.644c-0.806,-1.095 -1.209,-2.614 -1.209,-4.554c0,-1.97 0.41,-3.504 1.23,-4.603c0.82,-1.1 1.95,-1.649 3.389,-1.649c1.511,0 2.664,0.587 3.459,1.761l0.108,0c-0.165,-0.895 -0.247,-1.693 -0.247,-2.395l0,-3.846l3.287,0l0,16.715l-2.514,0l-0.634,-1.558l-0.139,0c-0.745,1.182 -1.88,1.773 -3.406,1.773Zm1.15,-2.611c0.838,0 1.452,-0.243 1.842,-0.73c0.39,-0.487 0.603,-1.314 0.639,-2.481l0,-0.355c0,-1.289 -0.199,-2.213 -0.596,-2.771c-0.397,-0.559 -1.044,-0.838 -1.939,-0.838c-0.73,0 -1.298,0.309 -1.703,0.929c-0.404,0.619 -0.607,1.52 -0.607,2.702c0,1.181 0.205,2.067 0.613,2.658c0.408,0.591 0.992,0.886 1.751,0.886Z" style="fill:#c73d27;fill-rule:nonzero;"/><path d="M325.443,51.244c-0.695,0 -1.239,0.22 -1.633,0.66c-0.394,0.441 -0.619,1.066 -0.676,1.875l4.597,0c-0.014,-0.809 -0.225,-1.434 -0.634,-1.875c-0.408,-0.44 -0.959,-0.66 -1.654,-0.66Zm0.462,10.119c-1.934,0 -3.445,-0.534 -4.533,-1.601c-1.089,-1.067 -1.633,-2.578 -1.633,-4.533c0,-2.012 0.503,-3.568 1.509,-4.667c1.006,-1.1 2.398,-1.649 4.174,-1.649c1.697,0 3.018,0.483 3.963,1.45c0.946,0.967 1.418,2.302 1.418,4.007l0,1.59l-7.745,0c0.036,0.931 0.312,1.657 0.827,2.18c0.516,0.523 1.239,0.784 2.17,0.784c0.724,0 1.408,-0.075 2.052,-0.225c0.645,-0.151 1.318,-0.391 2.02,-0.72l0,2.535c-0.573,0.287 -1.186,0.5 -1.837,0.639c-0.652,0.14 -1.447,0.21 -2.385,0.21Z" style="fill:#c73d27;fill-rule:nonzero;"/><path d="M336.679,58.838c-0.372,1.447 -1.002,3.162 -1.89,5.146l-2.363,0c0.465,-1.905 0.827,-3.703 1.084,-5.393l3.008,0l0.161,0.247Z" style="fill:#c73d27;fill-rule:nonzero;"/><path d="M162.189,83.148l-0.441,-1.536l-0.172,0c-0.351,0.558 -0.848,0.99 -1.493,1.294c-0.644,0.305 -1.378,0.457 -2.202,0.457c-1.411,0 -2.474,-0.378 -3.19,-1.133c-0.716,-0.756 -1.075,-1.843 -1.075,-3.261l0,-7.831l3.277,0l0,7.015c0,0.866 0.154,1.516 0.462,1.95c0.308,0.433 0.798,0.649 1.471,0.649c0.917,0 1.58,-0.306 1.988,-0.918c0.408,-0.612 0.612,-1.627 0.612,-3.045l0,-5.651l3.276,0l0,12.01l-2.513,0Z" style="fill:#c73d27;fill-rule:nonzero;"/><path d="M179.226,83.148l-3.277,0l0,-7.015c0,-0.866 -0.154,-1.516 -0.461,-1.949c-0.308,-0.434 -0.799,-0.65 -1.472,-0.65c-0.917,0 -1.579,0.306 -1.987,0.918c-0.409,0.612 -0.613,1.628 -0.613,3.046l0,5.65l-3.276,0l0,-12.01l2.503,0l0.44,1.536l0.183,0c0.365,-0.58 0.868,-1.018 1.509,-1.316c0.641,-0.297 1.37,-0.445 2.186,-0.445c1.397,0 2.457,0.377 3.18,1.133c0.723,0.755 1.085,1.846 1.085,3.271l0,7.831Z" style="fill:#c73d27;fill-rule:nonzero;"/><path d="M182.459,68.034c0,-1.067 0.595,-1.601 1.783,-1.601c1.189,0 1.784,0.534 1.784,1.601c0,0.508 -0.149,0.904 -0.446,1.187c-0.297,0.283 -0.743,0.424 -1.338,0.424c-1.188,0 -1.783,-0.537 -1.783,-1.611Zm3.416,15.114l-3.276,0l0,-12.01l3.276,0l0,12.01Z" style="fill:#c73d27;fill-rule:nonzero;"/><path d="M191.923,77.122c0,1.188 0.195,2.087 0.586,2.696c0.39,0.609 1.025,0.913 1.906,0.913c0.874,0 1.502,-0.303 1.886,-0.908c0.383,-0.605 0.574,-1.505 0.574,-2.701c0,-1.189 -0.193,-2.081 -0.58,-2.675c-0.387,-0.595 -1.02,-0.892 -1.901,-0.892c-0.874,0 -1.504,0.296 -1.891,0.886c-0.387,0.591 -0.58,1.485 -0.58,2.681Zm8.304,0c0,1.955 -0.516,3.484 -1.547,4.587c-1.031,1.102 -2.467,1.654 -4.308,1.654c-1.153,0 -2.17,-0.253 -3.05,-0.757c-0.881,-0.505 -1.558,-1.23 -2.031,-2.176c-0.472,-0.945 -0.709,-2.048 -0.709,-3.308c0,-1.963 0.512,-3.488 1.536,-4.577c1.024,-1.088 2.464,-1.632 4.319,-1.632c1.153,0 2.17,0.25 3.051,0.752c0.88,0.501 1.557,1.221 2.03,2.159c0.472,0.938 0.709,2.037 0.709,3.298Z" style="fill:#c73d27;fill-rule:nonzero;"/><path d="M214.02,83.148l-3.277,0l0,-7.015c0,-0.866 -0.154,-1.516 -0.462,-1.949c-0.307,-0.434 -0.798,-0.65 -1.471,-0.65c-0.917,0 -1.579,0.306 -1.987,0.918c-0.409,0.612 -0.613,1.628 -0.613,3.046l0,5.65l-3.276,0l0,-12.01l2.503,0l0.44,1.536l0.183,0c0.365,-0.58 0.868,-1.018 1.509,-1.316c0.641,-0.297 1.37,-0.445 2.186,-0.445c1.397,0 2.456,0.377 3.18,1.133c0.723,0.755 1.085,1.846 1.085,3.271l0,7.831Z" style="fill:#c73d27;fill-rule:nonzero;"/><rect x="216.329" y="75.908" width="5.769" height="2.686" style="fill:#c73d27;fill-rule:nonzero;"/><path d="M235.225,83.148l-3.277,0l0,-7.015c0,-0.866 -0.145,-1.516 -0.435,-1.949c-0.29,-0.434 -0.746,-0.65 -1.369,-0.65c-0.838,0 -1.447,0.308 -1.826,0.924c-0.38,0.615 -0.57,1.629 -0.57,3.04l0,5.65l-3.276,0l0,-12.01l2.503,0l0.44,1.536l0.183,0c0.322,-0.551 0.788,-0.983 1.396,-1.294c0.609,-0.312 1.307,-0.467 2.095,-0.467c1.798,0 3.015,0.587 3.652,1.761l0.29,0c0.323,-0.558 0.797,-0.991 1.424,-1.299c0.626,-0.308 1.334,-0.462 2.121,-0.462c1.361,0 2.391,0.349 3.089,1.047c0.698,0.698 1.047,1.817 1.047,3.357l0,7.831l-3.287,0l0,-7.015c0,-0.866 -0.145,-1.516 -0.435,-1.949c-0.29,-0.434 -0.747,-0.65 -1.37,-0.65c-0.802,0 -1.402,0.286 -1.799,0.859c-0.397,0.573 -0.596,1.483 -0.596,2.729l0,6.026Z" style="fill:#c73d27;fill-rule:nonzero;"/><path d="M253.701,83.148l-0.633,-1.633l-0.086,0c-0.552,0.695 -1.119,1.176 -1.703,1.445c-0.584,0.269 -1.345,0.403 -2.283,0.403c-1.153,0 -2.06,-0.33 -2.723,-0.988c-0.662,-0.659 -0.993,-1.597 -0.993,-2.815c0,-1.275 0.445,-2.215 1.337,-2.82c0.892,-0.605 2.236,-0.94 4.034,-1.004l2.084,-0.065l0,-0.526c0,-1.217 -0.623,-1.826 -1.87,-1.826c-0.959,0 -2.087,0.29 -3.383,0.87l-1.085,-2.213c1.382,-0.723 2.914,-1.085 4.597,-1.085c1.612,0 2.847,0.351 3.706,1.053c0.86,0.702 1.289,1.769 1.289,3.201l0,8.003l-2.288,0Zm-0.966,-5.564l-1.268,0.043c-0.952,0.028 -1.661,0.2 -2.127,0.515c-0.465,0.315 -0.698,0.795 -0.698,1.44c0,0.923 0.53,1.385 1.59,1.385c0.759,0 1.366,-0.218 1.82,-0.655c0.455,-0.437 0.683,-1.017 0.683,-1.74l0,-0.988Z" style="fill:#c73d27;fill-rule:nonzero;"/><path d="M263.165,83.363c-1.411,0 -2.519,-0.548 -3.324,-1.644c-0.806,-1.095 -1.209,-2.614 -1.209,-4.554c0,-1.97 0.41,-3.504 1.23,-4.603c0.82,-1.1 1.95,-1.649 3.389,-1.649c1.511,0 2.664,0.587 3.459,1.761l0.108,0c-0.165,-0.895 -0.247,-1.693 -0.247,-2.395l0,-3.846l3.287,0l0,16.715l-2.514,0l-0.634,-1.558l-0.139,0c-0.745,1.182 -1.88,1.773 -3.406,1.773Zm1.15,-2.611c0.838,0 1.452,-0.243 1.842,-0.73c0.39,-0.487 0.603,-1.314 0.639,-2.481l0,-0.355c0,-1.289 -0.199,-2.213 -0.596,-2.771c-0.398,-0.559 -1.044,-0.838 -1.939,-0.838c-0.73,0 -1.298,0.309 -1.703,0.929c-0.404,0.619 -0.607,1.52 -0.607,2.702c0,1.181 0.205,2.067 0.613,2.658c0.408,0.591 0.992,0.886 1.751,0.886Z" style="fill:#c73d27;fill-rule:nonzero;"/><path d="M278.258,73.244c-0.695,0 -1.239,0.22 -1.633,0.66c-0.394,0.441 -0.619,1.066 -0.677,1.875l4.598,0c-0.014,-0.809 -0.225,-1.434 -0.634,-1.875c-0.408,-0.44 -0.959,-0.66 -1.654,-0.66Zm0.462,10.119c-1.934,0 -3.445,-0.534 -4.533,-1.601c-1.089,-1.067 -1.633,-2.578 -1.633,-4.533c0,-2.012 0.503,-3.568 1.509,-4.667c1.006,-1.1 2.398,-1.649 4.174,-1.649c1.697,0 3.018,0.483 3.963,1.45c0.946,0.967 1.418,2.302 1.418,4.007l0,1.59l-7.745,0c0.036,0.931 0.312,1.657 0.827,2.18c0.516,0.523 1.239,0.784 2.17,0.784c0.724,0 1.408,-0.075 2.052,-0.225c0.645,-0.151 1.318,-0.391 2.02,-0.72l0,2.535c-0.573,0.287 -1.186,0.5 -1.837,0.639c-0.652,0.14 -1.447,0.21 -2.385,0.21Z" style="fill:#c73d27;fill-rule:nonzero;"/><path d="M289.494,80.838c-0.372,1.447 -1.002,3.162 -1.89,5.146l-2.364,0c0.466,-1.905 0.828,-3.703 1.085,-5.393l3.008,0l0.161,0.247Z" style="fill:#c73d27;fill-rule:nonzero;"/><path d="M300.989,77.122c0,1.188 0.195,2.087 0.585,2.696c0.39,0.609 1.026,0.913 1.907,0.913c0.873,0 1.502,-0.303 1.885,-0.908c0.383,-0.605 0.575,-1.505 0.575,-2.701c0,-1.189 -0.194,-2.081 -0.58,-2.675c-0.387,-0.595 -1.021,-0.892 -1.902,-0.892c-0.873,0 -1.504,0.296 -1.89,0.886c-0.387,0.591 -0.58,1.485 -0.58,2.681Zm8.303,0c0,1.955 -0.515,3.484 -1.547,4.587c-1.031,1.102 -2.467,1.654 -4.307,1.654c-1.153,0 -2.17,-0.253 -3.051,-0.757c-0.881,-0.505 -1.558,-1.23 -2.03,-2.176c-0.473,-0.945 -0.709,-2.048 -0.709,-3.308c0,-1.963 0.512,-3.488 1.536,-4.577c1.024,-1.088 2.463,-1.632 4.318,-1.632c1.153,0 2.17,0.25 3.051,0.752c0.881,0.501 1.558,1.221 2.03,2.159c0.473,0.938 0.709,2.037 0.709,3.298Z" style="fill:#c73d27;fill-rule:nonzero;"/><path d="M318.702,70.913c0.444,0 0.813,0.032 1.107,0.096l-0.247,3.073c-0.265,-0.072 -0.587,-0.108 -0.967,-0.108c-1.046,0 -1.86,0.269 -2.444,0.806c-0.584,0.537 -0.875,1.289 -0.875,2.256l0,6.112l-3.277,0l0,-12.01l2.482,0l0.483,2.02l0.161,0c0.373,-0.673 0.876,-1.216 1.51,-1.628c0.633,-0.411 1.323,-0.617 2.067,-0.617Z" style="fill:#c73d27;fill-rule:nonzero;"/><path d="M163.779,105.148l-3.277,0l0,-7.015c0,-1.733 -0.644,-2.599 -1.933,-2.599c-0.917,0 -1.58,0.311 -1.988,0.934c-0.408,0.623 -0.612,1.633 -0.612,3.03l0,5.65l-3.276,0l0,-16.715l3.276,0l0,3.405c0,0.265 -0.025,0.888 -0.075,1.87l-0.075,0.966l0.171,0c0.731,-1.174 1.891,-1.761 3.481,-1.761c1.411,0 2.481,0.379 3.212,1.138c0.73,0.759 1.096,1.848 1.096,3.266l0,7.831Z" style="fill:#c73d27;fill-rule:nonzero;"/><path d="M174.779,105.148l-0.634,-1.633l-0.086,0c-0.552,0.695 -1.119,1.176 -1.703,1.445c-0.583,0.269 -1.344,0.403 -2.283,0.403c-1.153,0 -2.06,-0.33 -2.723,-0.988c-0.662,-0.659 -0.993,-1.597 -0.993,-2.815c0,-1.275 0.445,-2.215 1.337,-2.82c0.892,-0.605 2.236,-0.94 4.034,-1.004l2.084,-0.065l0,-0.526c0,-1.217 -0.623,-1.826 -1.869,-1.826c-0.96,0 -2.088,0.29 -3.384,0.87l-1.085,-2.213c1.382,-0.723 2.915,-1.085 4.598,-1.085c1.611,0 2.846,0.351 3.706,1.053c0.859,0.702 1.289,1.769 1.289,3.201l0,8.003l-2.288,0Zm-0.967,-5.564l-1.268,0.043c-0.952,0.028 -1.661,0.2 -2.127,0.515c-0.465,0.315 -0.698,0.795 -0.698,1.44c0,0.923 0.53,1.385 1.59,1.385c0.759,0 1.366,-0.218 1.821,-0.655c0.454,-0.437 0.682,-1.017 0.682,-1.74l0,-0.988Z" style="fill:#c73d27;fill-rule:nonzero;"/><path d="M183.297,105.148l-4.576,-12.01l3.427,0l2.32,6.843c0.258,0.867 0.419,1.687 0.483,2.46l0.065,0c0.036,-0.688 0.197,-1.508 0.483,-2.46l2.31,-6.843l3.427,0l-4.577,12.01l-3.362,0Z" style="fill:#c73d27;fill-rule:nonzero;"/><path d="M197.928,95.244c-0.695,0 -1.239,0.22 -1.633,0.66c-0.394,0.441 -0.619,1.066 -0.677,1.875l4.598,0c-0.014,-0.809 -0.226,-1.434 -0.634,-1.875c-0.408,-0.44 -0.959,-0.66 -1.654,-0.66Zm0.462,10.119c-1.934,0 -3.445,-0.534 -4.533,-1.601c-1.089,-1.067 -1.633,-2.578 -1.633,-4.533c0,-2.012 0.503,-3.568 1.509,-4.667c1.006,-1.1 2.397,-1.649 4.173,-1.649c1.698,0 3.019,0.483 3.964,1.45c0.946,0.967 1.418,2.302 1.418,4.007l0,1.59l-7.745,0c0.036,0.931 0.312,1.657 0.827,2.18c0.516,0.523 1.239,0.784 2.17,0.784c0.724,0 1.408,-0.075 2.052,-0.225c0.645,-0.151 1.318,-0.391 2.02,-0.72l0,2.535c-0.573,0.287 -1.186,0.5 -1.837,0.639c-0.652,0.14 -1.447,0.21 -2.385,0.21Z" style="fill:#c73d27;fill-rule:nonzero;"/><path d="M222.753,105.148l-3.276,0l0,-7.015c0,-1.733 -0.645,-2.599 -1.934,-2.599c-0.916,0 -1.579,0.311 -1.987,0.934c-0.408,0.623 -0.612,1.633 -0.612,3.03l0,5.65l-3.277,0l0,-16.715l3.277,0l0,3.405c0,0.265 -0.025,0.888 -0.076,1.87l-0.075,0.966l0.172,0c0.731,-1.174 1.891,-1.761 3.481,-1.761c1.41,0 2.481,0.379 3.211,1.138c0.731,0.759 1.096,1.848 1.096,3.266l0,7.831Z" style="fill:#c73d27;fill-rule:nonzero;"/><path d="M225.987,90.034c0,-1.067 0.594,-1.601 1.783,-1.601c1.189,0 1.783,0.534 1.783,1.601c0,0.508 -0.149,0.904 -0.446,1.187c-0.297,0.283 -0.743,0.424 -1.337,0.424c-1.189,0 -1.783,-0.537 -1.783,-1.611Zm3.416,15.114l-3.277,0l0,-12.01l3.277,0l0,12.01Z" style="fill:#c73d27;fill-rule:nonzero;"/><path d="M243.292,93.138l0,1.665l-1.88,0.484c0.344,0.537 0.516,1.138 0.516,1.804c0,1.289 -0.449,2.294 -1.348,3.014c-0.899,0.719 -2.147,1.079 -3.744,1.079l-0.591,-0.032l-0.483,-0.054c-0.337,0.258 -0.505,0.544 -0.505,0.86c0,0.472 0.602,0.709 1.805,0.709l2.041,0c1.317,0 2.322,0.282 3.013,0.848c0.691,0.566 1.037,1.397 1.037,2.492c0,1.404 -0.586,2.493 -1.757,3.266c-1.171,0.773 -2.852,1.16 -5.043,1.16c-1.676,0 -2.956,-0.292 -3.841,-0.875c-0.884,-0.584 -1.326,-1.402 -1.326,-2.455c0,-0.723 0.225,-1.328 0.677,-1.815c0.451,-0.487 1.113,-0.835 1.987,-1.042c-0.337,-0.144 -0.63,-0.378 -0.881,-0.704c-0.251,-0.326 -0.376,-0.671 -0.376,-1.037c0,-0.458 0.132,-0.839 0.397,-1.144c0.265,-0.304 0.649,-0.603 1.15,-0.897c-0.63,-0.272 -1.13,-0.709 -1.499,-1.31c-0.368,-0.602 -0.553,-1.311 -0.553,-2.127c0,-1.311 0.426,-2.324 1.278,-3.04c0.853,-0.716 2.07,-1.074 3.653,-1.074c0.336,0 0.736,0.03 1.198,0.091c0.461,0.061 0.757,0.106 0.886,0.134l4.189,0Zm-9.27,13.707c0,0.451 0.216,0.806 0.65,1.064c0.433,0.258 1.04,0.386 1.82,0.386c1.175,0 2.095,-0.161 2.761,-0.483c0.666,-0.322 0.999,-0.763 0.999,-1.321c0,-0.451 -0.197,-0.763 -0.591,-0.935c-0.394,-0.172 -1.002,-0.258 -1.826,-0.258l-1.697,0c-0.602,0 -1.105,0.142 -1.509,0.425c-0.405,0.283 -0.607,0.657 -0.607,1.122Zm1.192,-9.775c0,0.652 0.149,1.167 0.446,1.547c0.297,0.379 0.75,0.569 1.359,0.569c0.616,0 1.067,-0.19 1.353,-0.569c0.287,-0.38 0.43,-0.895 0.43,-1.547c0,-1.447 -0.594,-2.17 -1.783,-2.17c-1.203,0 -1.805,0.723 -1.805,2.17Z" style="fill:#c73d27;fill-rule:nonzero;"/><path d="M256.355,105.148l-3.277,0l0,-7.015c0,-1.733 -0.644,-2.599 -1.933,-2.599c-0.917,0 -1.579,0.311 -1.988,0.934c-0.408,0.623 -0.612,1.633 -0.612,3.03l0,5.65l-3.276,0l0,-16.715l3.276,0l0,3.405c0,0.265 -0.025,0.888 -0.075,1.87l-0.075,0.966l0.172,0c0.73,-1.174 1.89,-1.761 3.48,-1.761c1.411,0 2.482,0.379 3.212,1.138c0.73,0.759 1.096,1.848 1.096,3.266l0,7.831Z" style="fill:#c73d27;fill-rule:nonzero;"/><rect x="265.443" y="88.433" width="3.276" height="16.715" style="fill:#c73d27;fill-rule:nonzero;"/><path d="M279.783,105.148l-0.633,-1.633l-0.086,0c-0.552,0.695 -1.119,1.176 -1.703,1.445c-0.584,0.269 -1.344,0.403 -2.283,0.403c-1.153,0 -2.06,-0.33 -2.723,-0.988c-0.662,-0.659 -0.993,-1.597 -0.993,-2.815c0,-1.275 0.445,-2.215 1.337,-2.82c0.892,-0.605 2.236,-0.94 4.034,-1.004l2.084,-0.065l0,-0.526c0,-1.217 -0.623,-1.826 -1.869,-1.826c-0.96,0 -2.088,0.29 -3.384,0.87l-1.085,-2.213c1.382,-0.723 2.914,-1.085 4.597,-1.085c1.612,0 2.847,0.351 3.706,1.053c0.86,0.702 1.29,1.769 1.29,3.201l0,8.003l-2.289,0Zm-0.966,-5.564l-1.268,0.043c-0.952,0.028 -1.661,0.2 -2.127,0.515c-0.465,0.315 -0.698,0.795 -0.698,1.44c0,0.923 0.53,1.385 1.59,1.385c0.759,0 1.366,-0.218 1.821,-0.655c0.454,-0.437 0.682,-1.017 0.682,-1.74l0,-0.988Z" style="fill:#c73d27;fill-rule:nonzero;"/><path d="M292.126,92.913c1.418,0 2.528,0.553 3.33,1.659c0.802,1.107 1.203,2.623 1.203,4.55c0,1.983 -0.413,3.519 -1.24,4.608c-0.827,1.089 -1.954,1.633 -3.379,1.633c-1.411,0 -2.517,-0.512 -3.319,-1.536l-0.226,0l-0.547,1.321l-2.503,0l0,-16.715l3.276,0l0,3.889c0,0.494 -0.043,1.285 -0.129,2.374l0.129,0c0.766,-1.189 1.901,-1.783 3.405,-1.783Zm-1.053,2.621c-0.809,0 -1.4,0.249 -1.772,0.746c-0.372,0.498 -0.566,1.32 -0.58,2.466l0,0.354c0,1.289 0.192,2.213 0.575,2.772c0.383,0.558 0.99,0.838 1.82,0.838c0.674,0 1.209,-0.31 1.606,-0.93c0.398,-0.619 0.597,-1.52 0.597,-2.701c0,-1.182 -0.201,-2.068 -0.602,-2.659c-0.401,-0.591 -0.949,-0.886 -1.644,-0.886Z" style="fill:#c73d27;fill-rule:nonzero;"/><path d="M301.977,99.122c0,1.188 0.195,2.087 0.585,2.696c0.391,0.609 1.026,0.913 1.907,0.913c0.874,0 1.502,-0.303 1.885,-0.908c0.383,-0.605 0.575,-1.505 0.575,-2.701c0,-1.189 -0.193,-2.081 -0.58,-2.675c-0.387,-0.595 -1.021,-0.892 -1.901,-0.892c-0.874,0 -1.504,0.296 -1.891,0.886c-0.387,0.591 -0.58,1.485 -0.58,2.681Zm8.304,0c0,1.955 -0.516,3.484 -1.547,4.587c-1.032,1.102 -2.467,1.654 -4.308,1.654c-1.153,0 -2.17,-0.253 -3.051,-0.757c-0.881,-0.505 -1.557,-1.23 -2.03,-2.176c-0.473,-0.945 -0.709,-2.048 -0.709,-3.308c0,-1.963 0.512,-3.488 1.536,-4.577c1.024,-1.088 2.464,-1.632 4.318,-1.632c1.153,0 2.17,0.25 3.051,0.752c0.881,0.501 1.558,1.221 2.031,2.159c0.472,0.938 0.709,2.037 0.709,3.298Z" style="fill:#c73d27;fill-rule:nonzero;"/><path d="M319.691,92.913c0.444,0 0.812,0.032 1.106,0.096l-0.247,3.073c-0.265,-0.072 -0.587,-0.108 -0.967,-0.108c-1.045,0 -1.86,0.269 -2.444,0.806c-0.583,0.537 -0.875,1.289 -0.875,2.256l0,6.112l-3.276,0l0,-12.01l2.481,0l0.483,2.02l0.162,0c0.372,-0.673 0.875,-1.216 1.509,-1.628c0.634,-0.411 1.323,-0.617 2.068,-0.617Z" style="fill:#c73d27;fill-rule:nonzero;"/><path d="M191.289,123.582c0,1.231 -0.428,2.17 -1.283,2.814c-0.856,0.645 -2.136,0.967 -3.841,0.967c-0.873,0 -1.618,-0.059 -2.234,-0.177c-0.616,-0.119 -1.192,-0.292 -1.73,-0.521l0,-2.707c0.609,0.286 1.295,0.526 2.058,0.719c0.762,0.194 1.434,0.29 2.014,0.29c1.188,0 1.783,-0.343 1.783,-1.031c0,-0.258 -0.079,-0.467 -0.236,-0.628c-0.158,-0.161 -0.43,-0.344 -0.817,-0.548c-0.387,-0.204 -0.902,-0.442 -1.547,-0.715c-0.924,-0.386 -1.602,-0.744 -2.035,-1.074c-0.434,-0.329 -0.749,-0.707 -0.946,-1.133c-0.197,-0.426 -0.295,-0.951 -0.295,-1.574c0,-1.067 0.413,-1.892 1.241,-2.476c0.827,-0.584 1.999,-0.875 3.518,-0.875c1.446,0 2.854,0.315 4.221,0.945l-0.988,2.363c-0.601,-0.258 -1.164,-0.469 -1.686,-0.634c-0.523,-0.164 -1.057,-0.247 -1.601,-0.247c-0.967,0 -1.45,0.262 -1.45,0.785c0,0.293 0.156,0.547 0.467,0.762c0.312,0.215 0.994,0.534 2.046,0.956c0.939,0.38 1.626,0.734 2.063,1.064c0.437,0.329 0.759,0.709 0.967,1.138c0.207,0.43 0.311,0.942 0.311,1.537Z" style="fill:#c73d27;fill-rule:nonzero;"/><path d="M198.906,124.752c0.572,0 1.26,-0.125 2.062,-0.375l0,2.438c-0.816,0.365 -1.819,0.548 -3.008,0.548c-1.31,0 -2.265,-0.331 -2.863,-0.994c-0.598,-0.662 -0.897,-1.656 -0.897,-2.981l0,-5.79l-1.568,0l0,-1.386l1.805,-1.095l0.945,-2.535l2.095,0l0,2.556l3.362,0l0,2.46l-3.362,0l0,5.79c0,0.466 0.13,0.809 0.392,1.031c0.261,0.222 0.607,0.333 1.037,0.333Z" style="fill:#c73d27;fill-rule:nonzero;"/><path d="M211.023,127.148l-0.634,-1.633l-0.086,0c-0.551,0.695 -1.119,1.176 -1.703,1.445c-0.583,0.269 -1.344,0.403 -2.282,0.403c-1.153,0 -2.061,-0.33 -2.724,-0.988c-0.662,-0.659 -0.993,-1.597 -0.993,-2.815c0,-1.275 0.446,-2.215 1.337,-2.82c0.892,-0.605 2.236,-0.94 4.034,-1.004l2.084,-0.065l0,-0.526c0,-1.217 -0.623,-1.826 -1.869,-1.826c-0.96,0 -2.088,0.29 -3.384,0.87l-1.085,-2.213c1.382,-0.723 2.915,-1.085 4.598,-1.085c1.611,0 2.846,0.351 3.706,1.053c0.859,0.702 1.289,1.769 1.289,3.201l0,8.003l-2.288,0Zm-0.967,-5.564l-1.268,0.043c-0.952,0.028 -1.661,0.2 -2.127,0.515c-0.465,0.315 -0.698,0.795 -0.698,1.44c0,0.923 0.53,1.385 1.59,1.385c0.759,0 1.366,-0.218 1.821,-0.655c0.455,-0.437 0.682,-1.017 0.682,-1.74l0,-0.988Z" style="fill:#c73d27;fill-rule:nonzero;"/><path d="M227.77,127.148l-3.277,0l0,-7.015c0,-0.866 -0.154,-1.516 -0.462,-1.949c-0.307,-0.434 -0.798,-0.65 -1.471,-0.65c-0.917,0 -1.579,0.306 -1.987,0.918c-0.409,0.612 -0.613,1.628 -0.613,3.046l0,5.65l-3.276,0l0,-12.01l2.503,0l0.44,1.536l0.183,0c0.365,-0.58 0.868,-1.018 1.509,-1.316c0.641,-0.297 1.37,-0.445 2.186,-0.445c1.397,0 2.456,0.377 3.18,1.133c0.723,0.755 1.085,1.846 1.085,3.271l0,7.831Z" style="fill:#c73d27;fill-rule:nonzero;"/><path d="M234.946,127.363c-1.411,0 -2.519,-0.548 -3.325,-1.644c-0.806,-1.095 -1.209,-2.614 -1.209,-4.554c0,-1.97 0.41,-3.504 1.23,-4.603c0.82,-1.1 1.95,-1.649 3.389,-1.649c1.512,0 2.665,0.587 3.459,1.761l0.108,0c-0.165,-0.895 -0.247,-1.693 -0.247,-2.395l0,-3.846l3.287,0l0,16.715l-2.514,0l-0.634,-1.558l-0.139,0c-0.745,1.182 -1.88,1.773 -3.405,1.773Zm1.149,-2.611c0.838,0 1.452,-0.243 1.842,-0.73c0.391,-0.487 0.604,-1.314 0.639,-2.481l0,-0.355c0,-1.289 -0.198,-2.213 -0.596,-2.771c-0.397,-0.559 -1.044,-0.838 -1.939,-0.838c-0.73,0 -1.298,0.309 -1.702,0.929c-0.405,0.619 -0.607,1.52 -0.607,2.702c0,1.181 0.204,2.067 0.612,2.658c0.408,0.591 0.992,0.886 1.751,0.886Z" style="fill:#c73d27;fill-rule:nonzero;"/><path d="M252.692,127.148l-0.634,-1.633l-0.086,0c-0.552,0.695 -1.119,1.176 -1.703,1.445c-0.583,0.269 -1.344,0.403 -2.282,0.403c-1.153,0 -2.061,-0.33 -2.724,-0.988c-0.662,-0.659 -0.993,-1.597 -0.993,-2.815c0,-1.275 0.446,-2.215 1.337,-2.82c0.892,-0.605 2.236,-0.94 4.034,-1.004l2.084,-0.065l0,-0.526c0,-1.217 -0.623,-1.826 -1.869,-1.826c-0.96,0 -2.088,0.29 -3.384,0.87l-1.085,-2.213c1.382,-0.723 2.915,-1.085 4.598,-1.085c1.611,0 2.846,0.351 3.706,1.053c0.859,0.702 1.289,1.769 1.289,3.201l0,8.003l-2.288,0Zm-0.967,-5.564l-1.268,0.043c-0.952,0.028 -1.661,0.2 -2.127,0.515c-0.465,0.315 -0.698,0.795 -0.698,1.44c0,0.923 0.53,1.385 1.59,1.385c0.759,0 1.366,-0.218 1.821,-0.655c0.454,-0.437 0.682,-1.017 0.682,-1.74l0,-0.988Z" style="fill:#c73d27;fill-rule:nonzero;"/><path d="M265.056,114.913c0.444,0 0.813,0.032 1.106,0.096l-0.247,3.073c-0.265,-0.072 -0.587,-0.108 -0.967,-0.108c-1.045,0 -1.86,0.269 -2.443,0.806c-0.584,0.537 -0.876,1.289 -0.876,2.256l0,6.112l-3.276,0l0,-12.01l2.481,0l0.484,2.02l0.161,0c0.372,-0.673 0.875,-1.216 1.509,-1.628c0.634,-0.411 1.323,-0.617 2.068,-0.617Z" style="fill:#c73d27;fill-rule:nonzero;"/><path d="M271.705,127.363c-1.41,0 -2.519,-0.548 -3.324,-1.644c-0.806,-1.095 -1.209,-2.614 -1.209,-4.554c0,-1.97 0.41,-3.504 1.23,-4.603c0.82,-1.1 1.95,-1.649 3.389,-1.649c1.511,0 2.664,0.587 3.459,1.761l0.108,0c-0.165,-0.895 -0.247,-1.693 -0.247,-2.395l0,-3.846l3.287,0l0,16.715l-2.514,0l-0.634,-1.558l-0.139,0c-0.745,1.182 -1.88,1.773 -3.406,1.773Zm1.15,-2.611c0.838,0 1.452,-0.243 1.842,-0.73c0.39,-0.487 0.603,-1.314 0.639,-2.481l0,-0.355c0,-1.289 -0.199,-2.213 -0.596,-2.771c-0.397,-0.559 -1.044,-0.838 -1.939,-0.838c-0.73,0 -1.298,0.309 -1.703,0.929c-0.404,0.619 -0.607,1.52 -0.607,2.702c0,1.181 0.205,2.067 0.613,2.658c0.408,0.591 0.992,0.886 1.751,0.886Z" style="fill:#c73d27;fill-rule:nonzero;"/><path d="M290.203,123.582c0,1.231 -0.428,2.17 -1.283,2.814c-0.856,0.645 -2.136,0.967 -3.841,0.967c-0.873,0 -1.618,-0.059 -2.234,-0.177c-0.616,-0.119 -1.192,-0.292 -1.73,-0.521l0,-2.707c0.609,0.286 1.295,0.526 2.058,0.719c0.762,0.194 1.434,0.29 2.014,0.29c1.189,0 1.783,-0.343 1.783,-1.031c0,-0.258 -0.079,-0.467 -0.236,-0.628c-0.158,-0.161 -0.43,-0.344 -0.817,-0.548c-0.386,-0.204 -0.902,-0.442 -1.547,-0.715c-0.923,-0.386 -1.602,-0.744 -2.035,-1.074c-0.434,-0.329 -0.749,-0.707 -0.946,-1.133c-0.197,-0.426 -0.295,-0.951 -0.295,-1.574c0,-1.067 0.414,-1.892 1.241,-2.476c0.827,-0.584 2,-0.875 3.518,-0.875c1.446,0 2.854,0.315 4.221,0.945l-0.988,2.363c-0.601,-0.258 -1.164,-0.469 -1.686,-0.634c-0.523,-0.164 -1.057,-0.247 -1.601,-0.247c-0.967,0 -1.45,0.262 -1.45,0.785c0,0.293 0.156,0.547 0.467,0.762c0.312,0.215 0.994,0.534 2.047,0.956c0.938,0.38 1.625,0.734 2.062,1.064c0.437,0.329 0.759,0.709 0.967,1.138c0.208,0.43 0.311,0.942 0.311,1.537Z" style="fill:#c73d27;fill-rule:nonzero;"/></g></g></svg>