<?xml version="1.0" encoding="UTF-8" standalone="no"?><!DOCTYPE svg PUBLIC "-//W3C//DTD SVG 1.1//EN" "http://www.w3.org/Graphics/SVG/1.1/DTD/svg11.dtd"><svg width="100%" height="100%" viewBox="0 0 346 89" version="1.1" xmlns="http://www.w3.org/2000/svg" xmlns:xlink="http://www.w3.org/1999/xlink" xml:space="preserve" style="fill-rule:evenodd;clip-rule:evenodd;stroke-linejoin:round;stroke-miterlimit:1.41421;"><g id="consumer-four"><g><path d="M18.893,26.69c0.714,0 0.952,0.856 2.856,-0.214c1.427,0.642 1.666,0.428 2.856,-0.428c1.427,0.428 2.141,0.214 2.617,-0.213c0,0 0,-0.214 0.237,-0.214c0.238,1.283 1.428,2.353 2.856,2.567c2.38,0.428 4.045,-1.283 4.045,-1.283c0,0 1.428,-0.642 1.666,-1.07c0.239,-0.428 -0.713,-0.428 -1.189,-1.069c0.237,-1.284 -0.953,-2.995 -3.094,-3.423c-1.666,-0.428 -3.807,1.069 -4.283,2.352c0,0.214 0,0.428 0,0.642l-0.237,-0.214c0,0 -1.428,-0.428 -2.856,0.856c-0.952,-0.213 -1.904,-0.428 -2.617,0.642c-0.952,-0.428 -2.38,0.214 -2.856,0.856c-0.714,0.856 -2.617,-0.428 -2.617,-0.428l0.237,2.139c0,-0.001 1.666,-1.498 2.379,-1.498Z" style="fill:#c73d27;fill-rule:nonzero;"/><path d="M117.647,49.365c-1.427,-2.353 -2.617,-1.07 -3.332,-1.498c-0.713,-0.428 -0.237,-2.139 -1.189,-2.995c-0.953,-1.069 -2.38,-0.213 -3.094,-0.856c-0.713,-0.642 -0.237,-1.283 -0.952,-2.352c-0.714,-1.07 -2.142,-0.856 -2.379,-0.856c-0.477,-0.642 -1.19,-0.856 -1.904,-1.07c-1.666,-0.428 -3.332,0.642 -3.807,1.498c-1.666,-0.214 -2.38,1.069 -0.476,1.497c0.476,1.283 1.19,2.567 2.856,2.781c0.713,0.214 1.427,0 2.142,-0.214c0,0 0.237,0.856 0.952,1.498c-1.666,-0.214 -5.473,6.204 -7.377,9.626c0,0 -2.618,-1.711 -3.57,-1.711c-0.476,0 -0.714,1.069 -0.952,2.353c-2.142,-1.07 -6.425,1.283 -7.377,1.283c-0.952,0 -2.856,-0.856 -3.569,-0.642c-0.953,0.214 2.617,4.278 2.617,4.278l0.237,0c-0.952,0.428 -1.427,0.642 -1.903,0.642c-0.952,0 -4.522,-0.856 -4.522,-0.428c0,0.428 5.712,4.065 5.712,4.065c0,0 7.138,-1.712 9.756,-2.353c0.476,0 1.19,0 1.666,0c-0.713,0.428 -0.713,0.856 -0.476,0.856c0.476,0 3.093,0.428 4.998,-0.214c2.379,0.428 5.235,0.428 7.852,-0.641c2.617,-1.07 2.38,-5.563 1.428,-9.627l6.663,-4.92Zm-18.56,7.487l0.237,-0.214c-0.237,0 -0.237,0 -0.237,0.214Z" style="fill:#c73d27;fill-rule:nonzero;"/><path d="M4.377,44.872c-0.476,0.214 -2.379,1.498 -1.665,2.139c0.952,0.856 2.617,-0.641 2.617,-0.641c0,0 -1.428,1.283 -0.238,2.139c1.19,0.642 3.093,-2.781 3.332,-3.209c0.714,0.642 1.427,1.07 2.142,1.07c1.19,0.214 2.379,-0.214 3.093,-0.856l0,0.214c0,0 2.617,-0.214 2.617,-1.07c0,-0.856 -1.427,-0.856 -1.427,-0.856c0.237,-1.497 -0.238,-3.423 -3.093,-4.064c-1.428,-0.214 -4.046,0.641 -4.284,2.995l-0.237,-0.642c0,0 -5.949,0.428 -5.711,2.353c0.475,1.498 2.379,0.642 2.854,0.428Z" style="fill:#c73d27;fill-rule:nonzero;"/><path d="M35.55,62.413c-0.476,0.214 -0.952,0.856 -1.666,1.284c0,-2.14 0,-4.493 -0.713,-4.493c-0.952,0 -2.38,3.209 -2.856,3.423c-0.476,0.214 -3.332,0.642 -4.759,1.07c-1.428,-0.214 -3.332,-0.428 -5.235,-0.428c-2.618,-2.14 -6.663,-14.547 -9.757,-14.547c-0.476,0 -2.142,1.925 -3.332,4.706l0,-0.213c-0.713,1.711 -3.093,12.621 -2.855,13.262c0.237,0.856 -5.712,2.139 -3.807,2.781l8.567,0c0,0 0.237,-1.283 0.237,-2.781c0.952,0.856 2.142,1.498 3.332,2.139c8.804,0 21.416,0 21.416,0c0,0 2.142,-4.706 2.38,-5.562c0.476,-0.641 0,-1.282 -0.952,-0.641Z" style="fill:#c73d27;fill-rule:nonzero;"/><path d="M82.191,53.429c0.476,0 0.714,0 1.19,0c1.903,0 5.235,0.856 6.901,-1.711c2.38,-3.423 -1.666,-19.895 -4.045,-19.895c-0.238,0 -0.238,0 -0.477,0c-13.802,1.711 -14.039,8.985 -14.277,10.054c0.238,0.642 1.666,0 1.904,-0.213c0.713,-0.428 0.952,-0.856 1.189,-1.498c0,1.283 0.952,2.567 2.618,2.781c-0.238,0 -0.714,0 -1.19,0c-2.38,0.428 -4.522,7.487 -4.522,7.487c0,0 -4.045,2.139 -3.093,2.567c0.952,0.428 6.187,-0.642 6.187,-0.642l3.332,-4.278c0,0.214 0,0.428 0,0.642c-0.714,2.567 -0.952,5.347 -0.952,5.347l-2.617,1.498c0,0 0.713,1.283 7.138,-0.428c0.238,-0.642 0.476,-1.283 0.714,-1.711Zm-4.997,-10.482c1.427,0.214 3.093,-0.428 3.569,-1.926c0.476,-1.283 0,-2.995 -1.666,-3.636c-0.476,-0.214 -1.19,-0.214 -1.666,-0.214c1.428,-0.642 3.807,-1.069 5.235,-1.497c-1.427,3.85 -2.142,9.198 -2.142,9.198c0,0 -1.426,-1.711 -3.33,-1.925Z" style="fill:#c73d27;fill-rule:nonzero;"/><path d="M83.857,23.908c-0.714,0.642 -1.19,1.498 -1.19,1.712c-0.237,0.641 -1.427,0.213 -1.427,0.641c-0.238,0.428 1.19,1.498 1.19,1.498c0,0 1.189,2.139 3.093,2.139c1.903,0 3.807,-0.856 4.045,-2.995c0.238,-1.926 -0.952,-3.637 -3.093,-4.065c-0.714,-0.214 -1.428,0.214 -2.142,0.428l-3.332,-2.139c0.714,1.284 1.666,2.14 2.856,2.781Z" style="fill:#c73d27;fill-rule:nonzero;"/><path d="M64.106,39.525c-1.428,-0.214 -4.283,1.925 -5.473,3.208c-1.19,-0.641 -3.332,-12.407 -4.521,-11.979c-0.714,0.213 -1.428,0.428 -2.142,1.069c-2.856,1.283 -9.757,16.258 -9.995,16.9c-0.237,0.428 -0.952,1.069 -1.666,1.497c-2.379,-1.711 -4.283,-2.781 -5.949,-3.636c0.238,-2.781 0,-5.563 -1.427,-5.99c0.714,0 1.19,0.214 1.666,0.428c0.714,0.856 1.427,2.567 1.666,2.139c0.476,-1.069 0.237,-3.85 -0.952,-4.492c-0.476,-0.214 -0.476,-0.642 -4.998,-0.428c-0.238,-3.851 -0.952,-7.915 -2.142,-8.557c-2.379,-1.069 -12.85,12.408 -7.377,21.178c4.521,0.428 5.235,0.213 8.091,-1.711c-0.238,0.856 -0.952,5.989 -0.952,5.989c0,0 5.235,1.07 8.091,0.642c1.665,-0.428 -2.618,-2.567 -2.618,-2.567c0,0 0,-0.642 0.238,-1.498c2.856,2.139 6.425,5.348 7.615,6.204c2.855,-0.214 6.425,-3.851 5.949,-4.065c-0.952,-0.428 -1.666,0 -3.094,0c-0.952,-1.069 -1.903,-1.925 -2.855,-2.567c0.952,-0.214 2.142,-0.428 3.093,-0.642c2.856,2.996 12.136,1.926 12.136,1.926c0,0 1.428,4.278 1.904,4.278c0.238,0 0.714,-0.856 1.19,-2.139c2.142,0.856 5.473,0.214 5.473,0.214c0,0 -0.477,-1.498 -1.19,-2.567c2.142,-8.556 1.191,-12.834 0.239,-12.834Zm-33.315,1.711l0,-0.214c0.476,-0.214 0.952,-0.214 1.19,-0.214c-0.238,0 -0.714,0.214 -1.19,0.428Zm18.324,3.636c0,0 0,0.214 0,0Z" style="fill:#c73d27;fill-rule:nonzero;"/><path d="M53.398,29.043c1.666,0.213 4.283,-1.07 4.521,-3.209c0,-0.642 0,-1.283 -0.237,-1.926l-0.238,-0.213c-0.476,-1.07 -1.427,-2.139 -2.856,-2.139c-2.379,-0.214 -4.759,1.283 -4.759,3.636c0,2.354 1.903,3.637 3.569,3.851Z" style="fill:#c73d27;fill-rule:nonzero;"/></g><g transform="matrix(0.575692,0,0,0.575692,-44.893,-159.989)"><text x="281.658px" y="307.369px" style="font-family:'OpenSans-Bold', 'Open Sans', sans-serif;font-weight:700;font-size:38.215px;fill:#c73d27;">Educate one another</text><text x="322.242px" y="345.584px" style="font-family:'OpenSans-Bold', 'Open Sans', sans-serif;font-weight:700;font-size:38.215px;fill:#c73d27;">and discuss food</text><text x="325.526px" y="383.799px" style="font-family:'OpenSans-Bold', 'Open Sans', sans-serif;font-weight:700;font-size:38.215px;fill:#c73d27;">work<tspan x="422.183px 444.761px " y="383.799px 383.799px ">er</tspan> issues in</text><text x="349.933px" y="422.014px" style="font-family:'OpenSans-Bold', 'Open Sans', sans-serif;font-weight:700;font-size:38.215px;fill:#c73d27;">your daily life</text></g></g></svg>