<?xml version="1.0" encoding="UTF-8" standalone="no"?><!DOCTYPE svg PUBLIC "-//W3C//DTD SVG 1.1//EN" "http://www.w3.org/Graphics/SVG/1.1/DTD/svg11.dtd"><svg width="100%" height="100%" viewBox="0 0 346 89" version="1.1" xmlns="http://www.w3.org/2000/svg" xmlns:xlink="http://www.w3.org/1999/xlink" xml:space="preserve" style="fill-rule:evenodd;clip-rule:evenodd;stroke-linejoin:round;stroke-miterlimit:1.41421;"><g id="consumer-four"><g><path d="M18.893,26.69c0.714,0 0.952,0.856 2.856,-0.214c1.427,0.642 1.666,0.428 2.856,-0.428c1.427,0.428 2.141,0.214 2.617,-0.213c0,0 0,-0.214 0.237,-0.214c0.238,1.283 1.428,2.353 2.856,2.567c2.38,0.428 4.045,-1.283 4.045,-1.283c0,0 1.428,-0.642 1.666,-1.07c0.239,-0.428 -0.713,-0.428 -1.189,-1.069c0.237,-1.284 -0.953,-2.995 -3.094,-3.423c-1.666,-0.428 -3.807,1.069 -4.283,2.352c0,0.214 0,0.428 0,0.642l-0.237,-0.214c0,0 -1.428,-0.428 -2.856,0.856c-0.952,-0.213 -1.904,-0.428 -2.617,0.642c-0.952,-0.428 -2.38,0.214 -2.856,0.856c-0.714,0.856 -2.617,-0.428 -2.617,-0.428l0.237,2.139c0,-0.001 1.666,-1.498 2.379,-1.498Z" style="fill:#c73d27;fill-rule:nonzero;"/><path d="M117.647,49.365c-1.427,-2.353 -2.617,-1.07 -3.332,-1.498c-0.713,-0.428 -0.237,-2.139 -1.189,-2.995c-0.953,-1.069 -2.38,-0.213 -3.094,-0.856c-0.713,-0.642 -0.237,-1.283 -0.952,-2.352c-0.714,-1.07 -2.142,-0.856 -2.379,-0.856c-0.477,-0.642 -1.19,-0.856 -1.904,-1.07c-1.666,-0.428 -3.332,0.642 -3.807,1.498c-1.666,-0.214 -2.38,1.069 -0.476,1.497c0.476,1.283 1.19,2.567 2.856,2.781c0.713,0.214 1.427,0 2.142,-0.214c0,0 0.237,0.856 0.952,1.498c-1.666,-0.214 -5.473,6.204 -7.377,9.626c0,0 -2.618,-1.711 -3.57,-1.711c-0.476,0 -0.714,1.069 -0.952,2.353c-2.142,-1.07 -6.425,1.283 -7.377,1.283c-0.952,0 -2.856,-0.856 -3.569,-0.642c-0.953,0.214 2.617,4.278 2.617,4.278l0.237,0c-0.952,0.428 -1.427,0.642 -1.903,0.642c-0.952,0 -4.522,-0.856 -4.522,-0.428c0,0.428 5.712,4.065 5.712,4.065c0,0 7.138,-1.712 9.756,-2.353c0.476,0 1.19,0 1.666,0c-0.713,0.428 -0.713,0.856 -0.476,0.856c0.476,0 3.093,0.428 4.998,-0.214c2.379,0.428 5.235,0.428 7.852,-0.641c2.617,-1.07 2.38,-5.563 1.428,-9.627l6.663,-4.92Zm-18.56,7.487l0.237,-0.214c-0.237,0 -0.237,0 -0.237,0.214Z" style="fill:#c73d27;fill-rule:nonzero;"/><path d="M4.377,44.872c-0.476,0.214 -2.379,1.498 -1.665,2.139c0.952,0.856 2.617,-0.641 2.617,-0.641c0,0 -1.428,1.283 -0.238,2.139c1.19,0.642 3.093,-2.781 3.332,-3.209c0.714,0.642 1.427,1.07 2.142,1.07c1.19,0.214 2.379,-0.214 3.093,-0.856l0,0.214c0,0 2.617,-0.214 2.617,-1.07c0,-0.856 -1.427,-0.856 -1.427,-0.856c0.237,-1.497 -0.238,-3.423 -3.093,-4.064c-1.428,-0.214 -4.046,0.641 -4.284,2.995l-0.237,-0.642c0,0 -5.949,0.428 -5.711,2.353c0.475,1.498 2.379,0.642 2.854,0.428Z" style="fill:#c73d27;fill-rule:nonzero;"/><path d="M35.55,62.413c-0.476,0.214 -0.952,0.856 -1.666,1.284c0,-2.14 0,-4.493 -0.713,-4.493c-0.952,0 -2.38,3.209 -2.856,3.423c-0.476,0.214 -3.332,0.642 -4.759,1.07c-1.428,-0.214 -3.332,-0.428 -5.235,-0.428c-2.618,-2.14 -6.663,-14.547 -9.757,-14.547c-0.476,0 -2.142,1.925 -3.332,4.706l0,-0.213c-0.713,1.711 -3.093,12.621 -2.855,13.262c0.237,0.856 -5.712,2.139 -3.807,2.781l8.567,0c0,0 0.237,-1.283 0.237,-2.781c0.952,0.856 2.142,1.498 3.332,2.139c8.804,0 21.416,0 21.416,0c0,0 2.142,-4.706 2.38,-5.562c0.476,-0.641 0,-1.282 -0.952,-0.641Z" style="fill:#c73d27;fill-rule:nonzero;"/><path d="M82.191,53.429c0.476,0 0.714,0 1.19,0c1.903,0 5.235,0.856 6.901,-1.711c2.38,-3.423 -1.666,-19.895 -4.045,-19.895c-0.238,0 -0.238,0 -0.477,0c-13.802,1.711 -14.039,8.985 -14.277,10.054c0.238,0.642 1.666,0 1.904,-0.213c0.713,-0.428 0.952,-0.856 1.189,-1.498c0,1.283 0.952,2.567 2.618,2.781c-0.238,0 -0.714,0 -1.19,0c-2.38,0.428 -4.522,7.487 -4.522,7.487c0,0 -4.045,2.139 -3.093,2.567c0.952,0.428 6.187,-0.642 6.187,-0.642l3.332,-4.278c0,0.214 0,0.428 0,0.642c-0.714,2.567 -0.952,5.347 -0.952,5.347l-2.617,1.498c0,0 0.713,1.283 7.138,-0.428c0.238,-0.642 0.476,-1.283 0.714,-1.711Zm-4.997,-10.482c1.427,0.214 3.093,-0.428 3.569,-1.926c0.476,-1.283 0,-2.995 -1.666,-3.636c-0.476,-0.214 -1.19,-0.214 -1.666,-0.214c1.428,-0.642 3.807,-1.069 5.235,-1.497c-1.427,3.85 -2.142,9.198 -2.142,9.198c0,0 -1.426,-1.711 -3.33,-1.925Z" style="fill:#c73d27;fill-rule:nonzero;"/><path d="M83.857,23.908c-0.714,0.642 -1.19,1.498 -1.19,1.712c-0.237,0.641 -1.427,0.213 -1.427,0.641c-0.238,0.428 1.19,1.498 1.19,1.498c0,0 1.189,2.139 3.093,2.139c1.903,0 3.807,-0.856 4.045,-2.995c0.238,-1.926 -0.952,-3.637 -3.093,-4.065c-0.714,-0.214 -1.428,0.214 -2.142,0.428l-3.332,-2.139c0.714,1.284 1.666,2.14 2.856,2.781Z" style="fill:#c73d27;fill-rule:nonzero;"/><path d="M64.106,39.525c-1.428,-0.214 -4.283,1.925 -5.473,3.208c-1.19,-0.641 -3.332,-12.407 -4.521,-11.979c-0.714,0.213 -1.428,0.428 -2.142,1.069c-2.856,1.283 -9.757,16.258 -9.995,16.9c-0.237,0.428 -0.952,1.069 -1.666,1.497c-2.379,-1.711 -4.283,-2.781 -5.949,-3.636c0.238,-2.781 0,-5.563 -1.427,-5.99c0.714,0 1.19,0.214 1.666,0.428c0.714,0.856 1.427,2.567 1.666,2.139c0.476,-1.069 0.237,-3.85 -0.952,-4.492c-0.476,-0.214 -0.476,-0.642 -4.998,-0.428c-0.238,-3.851 -0.952,-7.915 -2.142,-8.557c-2.379,-1.069 -12.85,12.408 -7.377,21.178c4.521,0.428 5.235,0.213 8.091,-1.711c-0.238,0.856 -0.952,5.989 -0.952,5.989c0,0 5.235,1.07 8.091,0.642c1.665,-0.428 -2.618,-2.567 -2.618,-2.567c0,0 0,-0.642 0.238,-1.498c2.856,2.139 6.425,5.348 7.615,6.204c2.855,-0.214 6.425,-3.851 5.949,-4.065c-0.952,-0.428 -1.666,0 -3.094,0c-0.952,-1.069 -1.903,-1.925 -2.855,-2.567c0.952,-0.214 2.142,-0.428 3.093,-0.642c2.856,2.996 12.136,1.926 12.136,1.926c0,0 1.428,4.278 1.904,4.278c0.238,0 0.714,-0.856 1.19,-2.139c2.142,0.856 5.473,0.214 5.473,0.214c0,0 -0.477,-1.498 -1.19,-2.567c2.142,-8.556 1.191,-12.834 0.239,-12.834Zm-33.315,1.711l0,-0.214c0.476,-0.214 0.952,-0.214 1.19,-0.214c-0.238,0 -0.714,0.214 -1.19,0.428Zm18.324,3.636c0,0 0,0.214 0,0Z" style="fill:#c73d27;fill-rule:nonzero;"/><path d="M53.398,29.043c1.666,0.213 4.283,-1.07 4.521,-3.209c0,-0.642 0,-1.283 -0.237,-1.926l-0.238,-0.213c-0.476,-1.07 -1.427,-2.139 -2.856,-2.139c-2.379,-0.214 -4.759,1.283 -4.759,3.636c0,2.354 1.903,3.637 3.569,3.851Z" style="fill:#c73d27;fill-rule:nonzero;"/></g><g><path d="M128.277,16.961l-9.045,0l0,-15.705l9.045,0l0,2.729l-5.715,0l0,3.448l5.317,0l0,2.729l-5.317,0l0,4.049l5.715,0l0,2.75Z" style="fill:#c73d27;fill-rule:nonzero;"/><path d="M135.098,17.176c-1.411,0 -2.519,-0.548 -3.325,-1.643c-0.805,-1.096 -1.208,-2.614 -1.208,-4.555c0,-1.969 0.41,-3.504 1.23,-4.603c0.82,-1.099 1.949,-1.649 3.389,-1.649c1.511,0 2.664,0.587 3.459,1.762l0.107,0c-0.164,-0.895 -0.247,-1.694 -0.247,-2.396l0,-3.845l3.287,0l0,16.714l-2.513,0l-0.634,-1.557l-0.14,0c-0.745,1.181 -1.88,1.772 -3.405,1.772Zm1.149,-2.61c0.838,0 1.452,-0.244 1.843,-0.731c0.39,-0.487 0.603,-1.314 0.639,-2.481l0,-0.354c0,-1.29 -0.199,-2.213 -0.596,-2.772c-0.398,-0.559 -1.044,-0.838 -1.939,-0.838c-0.731,0 -1.298,0.31 -1.703,0.929c-0.405,0.62 -0.607,1.52 -0.607,2.702c0,1.182 0.204,2.068 0.612,2.659c0.409,0.591 0.992,0.886 1.751,0.886Z" style="fill:#c73d27;fill-rule:nonzero;"/><path d="M153.725,16.961l-0.441,-1.536l-0.171,0c-0.351,0.559 -0.849,0.99 -1.494,1.295c-0.644,0.304 -1.378,0.456 -2.202,0.456c-1.411,0 -2.474,-0.377 -3.19,-1.133c-0.716,-0.756 -1.074,-1.842 -1.074,-3.26l0,-7.831l3.276,0l0,7.014c0,0.867 0.154,1.517 0.462,1.95c0.308,0.433 0.798,0.65 1.472,0.65c0.916,0 1.579,-0.306 1.987,-0.919c0.408,-0.612 0.612,-1.627 0.612,-3.045l0,-5.65l3.277,0l0,12.009l-2.514,0Z" style="fill:#c73d27;fill-rule:nonzero;"/><path d="M164.553,17.176c-3.738,0 -5.607,-2.051 -5.607,-6.155c0,-2.041 0.508,-3.6 1.525,-4.678c1.017,-1.078 2.474,-1.617 4.372,-1.617c1.389,0 2.635,0.272 3.738,0.816l-0.967,2.536c-0.515,-0.208 -0.995,-0.378 -1.439,-0.511c-0.444,-0.132 -0.888,-0.198 -1.332,-0.198c-1.704,0 -2.557,1.21 -2.557,3.631c0,2.348 0.853,3.523 2.557,3.523c0.63,0 1.214,-0.084 1.751,-0.252c0.537,-0.169 1.074,-0.432 1.611,-0.79l0,2.804c-0.53,0.336 -1.065,0.569 -1.606,0.698c-0.54,0.129 -1.222,0.193 -2.046,0.193Z" style="fill:#c73d27;fill-rule:nonzero;"/><path d="M178.614,16.961l-0.633,-1.632l-0.086,0c-0.552,0.694 -1.119,1.176 -1.703,1.444c-0.584,0.269 -1.344,0.403 -2.283,0.403c-1.153,0 -2.06,-0.329 -2.723,-0.988c-0.662,-0.659 -0.993,-1.597 -0.993,-2.814c0,-1.275 0.445,-2.215 1.337,-2.82c0.892,-0.605 2.236,-0.94 4.034,-1.005l2.084,-0.064l0,-0.527c0,-1.217 -0.623,-1.826 -1.869,-1.826c-0.96,0 -2.088,0.29 -3.384,0.87l-1.085,-2.212c1.382,-0.724 2.915,-1.085 4.597,-1.085c1.612,0 2.847,0.351 3.707,1.052c0.859,0.702 1.289,1.769 1.289,3.201l0,8.003l-2.289,0Zm-0.966,-5.564l-1.268,0.043c-0.952,0.029 -1.661,0.2 -2.127,0.516c-0.465,0.315 -0.698,0.794 -0.698,1.439c0,0.924 0.53,1.386 1.59,1.386c0.759,0 1.366,-0.219 1.821,-0.656c0.454,-0.436 0.682,-1.016 0.682,-1.74l0,-0.988Z" style="fill:#c73d27;fill-rule:nonzero;"/><path d="M189.335,14.566c0.573,0 1.261,-0.125 2.063,-0.376l0,2.438c-0.817,0.366 -1.819,0.548 -3.008,0.548c-1.311,0 -2.265,-0.331 -2.863,-0.993c-0.598,-0.663 -0.897,-1.656 -0.897,-2.981l0,-5.79l-1.568,0l0,-1.386l1.804,-1.096l0.946,-2.535l2.094,0l0,2.557l3.363,0l0,2.46l-3.363,0l0,5.79c0,0.465 0.131,0.809 0.393,1.031c0.261,0.222 0.607,0.333 1.036,0.333Z" style="fill:#c73d27;fill-rule:nonzero;"/><path d="M198.799,7.057c-0.695,0 -1.239,0.22 -1.633,0.661c-0.394,0.44 -0.619,1.065 -0.677,1.874l4.598,0c-0.014,-0.809 -0.225,-1.434 -0.634,-1.874c-0.408,-0.441 -0.959,-0.661 -1.654,-0.661Zm0.462,10.119c-1.934,0 -3.445,-0.533 -4.533,-1.6c-1.089,-1.067 -1.633,-2.578 -1.633,-4.534c0,-2.012 0.503,-3.568 1.509,-4.667c1.006,-1.099 2.398,-1.649 4.174,-1.649c1.697,0 3.018,0.483 3.963,1.45c0.946,0.967 1.418,2.303 1.418,4.007l0,1.59l-7.745,0c0.036,0.931 0.312,1.658 0.827,2.181c0.516,0.522 1.239,0.784 2.17,0.784c0.724,0 1.408,-0.075 2.052,-0.226c0.645,-0.15 1.318,-0.39 2.02,-0.72l0,2.536c-0.573,0.286 -1.186,0.499 -1.837,0.639c-0.652,0.139 -1.447,0.209 -2.385,0.209Z" style="fill:#c73d27;fill-rule:nonzero;"/><path d="M215.149,10.935c0,1.189 0.195,2.088 0.585,2.696c0.39,0.609 1.026,0.913 1.907,0.913c0.874,0 1.502,-0.302 1.885,-0.907c0.383,-0.605 0.575,-1.506 0.575,-2.702c0,-1.189 -0.194,-2.08 -0.58,-2.675c-0.387,-0.594 -1.021,-0.891 -1.902,-0.891c-0.873,0 -1.504,0.295 -1.89,0.886c-0.387,0.591 -0.58,1.484 -0.58,2.68Zm8.303,0c0,1.955 -0.515,3.484 -1.546,4.587c-1.032,1.103 -2.468,1.654 -4.308,1.654c-1.153,0 -2.17,-0.252 -3.051,-0.757c-0.881,-0.505 -1.558,-1.23 -2.03,-2.175c-0.473,-0.946 -0.709,-2.049 -0.709,-3.309c0,-1.962 0.512,-3.488 1.536,-4.576c1.024,-1.089 2.464,-1.633 4.318,-1.633c1.153,0 2.17,0.251 3.051,0.752c0.881,0.501 1.558,1.221 2.03,2.159c0.473,0.938 0.709,2.038 0.709,3.298Z" style="fill:#c73d27;fill-rule:nonzero;"/><path d="M237.245,16.961l-3.276,0l0,-7.014c0,-0.867 -0.154,-1.517 -0.462,-1.95c-0.308,-0.433 -0.798,-0.65 -1.472,-0.65c-0.916,0 -1.579,0.306 -1.987,0.919c-0.408,0.612 -0.612,1.627 -0.612,3.045l0,5.65l-3.277,0l0,-12.009l2.503,0l0.441,1.536l0.182,0c0.366,-0.58 0.869,-1.019 1.51,-1.316c0.641,-0.297 1.369,-0.446 2.186,-0.446c1.396,0 2.456,0.378 3.179,1.133c0.724,0.756 1.085,1.846 1.085,3.271l0,7.831Z" style="fill:#c73d27;fill-rule:nonzero;"/><path d="M245.592,7.057c-0.695,0 -1.239,0.22 -1.633,0.661c-0.394,0.44 -0.619,1.065 -0.677,1.874l4.598,0c-0.014,-0.809 -0.225,-1.434 -0.634,-1.874c-0.408,-0.441 -0.959,-0.661 -1.654,-0.661Zm0.462,10.119c-1.934,0 -3.445,-0.533 -4.533,-1.6c-1.089,-1.067 -1.633,-2.578 -1.633,-4.534c0,-2.012 0.503,-3.568 1.509,-4.667c1.006,-1.099 2.398,-1.649 4.174,-1.649c1.697,0 3.018,0.483 3.963,1.45c0.946,0.967 1.418,2.303 1.418,4.007l0,1.59l-7.745,0c0.036,0.931 0.312,1.658 0.827,2.181c0.516,0.522 1.239,0.784 2.17,0.784c0.724,0 1.408,-0.075 2.052,-0.226c0.645,-0.15 1.318,-0.39 2.02,-0.72l0,2.536c-0.573,0.286 -1.186,0.499 -1.837,0.639c-0.652,0.139 -1.447,0.209 -2.385,0.209Z" style="fill:#c73d27;fill-rule:nonzero;"/><path d="M266.958,16.961l-0.634,-1.632l-0.085,0c-0.552,0.694 -1.119,1.176 -1.703,1.444c-0.584,0.269 -1.345,0.403 -2.283,0.403c-1.153,0 -2.061,-0.329 -2.723,-0.988c-0.662,-0.659 -0.994,-1.597 -0.994,-2.814c0,-1.275 0.446,-2.215 1.338,-2.82c0.891,-0.605 2.236,-0.94 4.033,-1.005l2.084,-0.064l0,-0.527c0,-1.217 -0.623,-1.826 -1.869,-1.826c-0.959,0 -2.087,0.29 -3.383,0.87l-1.085,-2.212c1.382,-0.724 2.914,-1.085 4.597,-1.085c1.612,0 2.847,0.351 3.706,1.052c0.86,0.702 1.289,1.769 1.289,3.201l0,8.003l-2.288,0Zm-0.967,-5.564l-1.267,0.043c-0.953,0.029 -1.662,0.2 -2.127,0.516c-0.466,0.315 -0.698,0.794 -0.698,1.439c0,0.924 0.53,1.386 1.59,1.386c0.759,0 1.366,-0.219 1.82,-0.656c0.455,-0.436 0.682,-1.016 0.682,-1.74l0,-0.988Z" style="fill:#c73d27;fill-rule:nonzero;"/><path d="M283.705,16.961l-3.276,0l0,-7.014c0,-0.867 -0.154,-1.517 -0.462,-1.95c-0.308,-0.433 -0.798,-0.65 -1.472,-0.65c-0.916,0 -1.579,0.306 -1.987,0.919c-0.408,0.612 -0.612,1.627 -0.612,3.045l0,5.65l-3.277,0l0,-12.009l2.503,0l0.441,1.536l0.182,0c0.366,-0.58 0.869,-1.019 1.51,-1.316c0.641,-0.297 1.369,-0.446 2.186,-0.446c1.396,0 2.456,0.378 3.179,1.133c0.724,0.756 1.085,1.846 1.085,3.271l0,7.831Z" style="fill:#c73d27;fill-rule:nonzero;"/><path d="M289.689,10.935c0,1.189 0.195,2.088 0.585,2.696c0.39,0.609 1.026,0.913 1.907,0.913c0.874,0 1.502,-0.302 1.885,-0.907c0.383,-0.605 0.575,-1.506 0.575,-2.702c0,-1.189 -0.193,-2.08 -0.58,-2.675c-0.387,-0.594 -1.021,-0.891 -1.902,-0.891c-0.873,0 -1.503,0.295 -1.89,0.886c-0.387,0.591 -0.58,1.484 -0.58,2.68Zm8.303,0c0,1.955 -0.515,3.484 -1.546,4.587c-1.032,1.103 -2.468,1.654 -4.308,1.654c-1.153,0 -2.17,-0.252 -3.051,-0.757c-0.881,-0.505 -1.557,-1.23 -2.03,-2.175c-0.473,-0.946 -0.709,-2.049 -0.709,-3.309c0,-1.962 0.512,-3.488 1.536,-4.576c1.024,-1.089 2.464,-1.633 4.318,-1.633c1.153,0 2.17,0.251 3.051,0.752c0.881,0.501 1.558,1.221 2.03,2.159c0.473,0.938 0.709,2.038 0.709,3.298Z" style="fill:#c73d27;fill-rule:nonzero;"/><path d="M305.759,14.566c0.573,0 1.26,-0.125 2.063,-0.376l0,2.438c-0.817,0.366 -1.819,0.548 -3.008,0.548c-1.311,0 -2.265,-0.331 -2.863,-0.993c-0.598,-0.663 -0.897,-1.656 -0.897,-2.981l0,-5.79l-1.568,0l0,-1.386l1.804,-1.096l0.946,-2.535l2.094,0l0,2.557l3.363,0l0,2.46l-3.363,0l0,5.79c0,0.465 0.131,0.809 0.392,1.031c0.262,0.222 0.607,0.333 1.037,0.333Z" style="fill:#c73d27;fill-rule:nonzero;"/><path d="M321.335,16.961l-3.276,0l0,-7.014c0,-1.733 -0.645,-2.6 -1.934,-2.6c-0.916,0 -1.579,0.312 -1.987,0.935c-0.408,0.623 -0.612,1.633 -0.612,3.029l0,5.65l-3.277,0l0,-16.714l3.277,0l0,3.405c0,0.265 -0.025,0.888 -0.076,1.869l-0.075,0.967l0.172,0c0.731,-1.175 1.891,-1.762 3.481,-1.762c1.41,0 2.481,0.38 3.211,1.139c0.731,0.759 1.096,1.847 1.096,3.265l0,7.831Z" style="fill:#c73d27;fill-rule:nonzero;"/><path d="M329.682,7.057c-0.695,0 -1.239,0.22 -1.633,0.661c-0.394,0.44 -0.619,1.065 -0.677,1.874l4.598,0c-0.014,-0.809 -0.226,-1.434 -0.634,-1.874c-0.408,-0.441 -0.959,-0.661 -1.654,-0.661Zm0.462,10.119c-1.934,0 -3.445,-0.533 -4.533,-1.6c-1.089,-1.067 -1.633,-2.578 -1.633,-4.534c0,-2.012 0.503,-3.568 1.509,-4.667c1.006,-1.099 2.397,-1.649 4.173,-1.649c1.698,0 3.019,0.483 3.964,1.45c0.946,0.967 1.418,2.303 1.418,4.007l0,1.59l-7.745,0c0.036,0.931 0.312,1.658 0.827,2.181c0.516,0.522 1.239,0.784 2.17,0.784c0.723,0 1.407,-0.075 2.052,-0.226c0.644,-0.15 1.318,-0.39 2.019,-0.72l0,2.536c-0.572,0.286 -1.185,0.499 -1.836,0.639c-0.652,0.139 -1.447,0.209 -2.385,0.209Z" style="fill:#c73d27;fill-rule:nonzero;"/><path d="M344.409,4.726c0.444,0 0.813,0.032 1.107,0.097l-0.247,3.072c-0.265,-0.072 -0.587,-0.107 -0.967,-0.107c-1.046,0 -1.86,0.268 -2.444,0.805c-0.584,0.537 -0.875,1.289 -0.875,2.256l0,6.112l-3.277,0l0,-12.009l2.482,0l0.483,2.019l0.161,0c0.373,-0.673 0.876,-1.215 1.51,-1.627c0.633,-0.412 1.323,-0.618 2.067,-0.618Z" style="fill:#c73d27;fill-rule:nonzero;"/><path d="M149.965,38.961l-0.634,-1.632l-0.086,0c-0.551,0.694 -1.119,1.176 -1.702,1.444c-0.584,0.269 -1.345,0.403 -2.283,0.403c-1.153,0 -2.061,-0.329 -2.723,-0.988c-0.663,-0.659 -0.994,-1.597 -0.994,-2.814c0,-1.275 0.446,-2.215 1.338,-2.82c0.891,-0.605 2.236,-0.94 4.033,-1.005l2.084,-0.064l0,-0.527c0,-1.217 -0.623,-1.826 -1.869,-1.826c-0.959,0 -2.087,0.29 -3.384,0.87l-1.085,-2.212c1.383,-0.724 2.915,-1.085 4.598,-1.085c1.611,0 2.847,0.351 3.706,1.052c0.859,0.702 1.289,1.769 1.289,3.201l0,8.003l-2.288,0Zm-0.967,-5.564l-1.267,0.043c-0.953,0.029 -1.662,0.2 -2.127,0.516c-0.466,0.315 -0.698,0.794 -0.698,1.439c0,0.924 0.529,1.386 1.589,1.386c0.759,0 1.366,-0.219 1.821,-0.656c0.455,-0.436 0.682,-1.016 0.682,-1.74l0,-0.988Z" style="fill:#c73d27;fill-rule:nonzero;"/><path d="M166.712,38.961l-3.276,0l0,-7.014c0,-0.867 -0.154,-1.517 -0.462,-1.95c-0.308,-0.433 -0.799,-0.65 -1.472,-0.65c-0.916,0 -1.579,0.306 -1.987,0.919c-0.408,0.612 -0.612,1.627 -0.612,3.045l0,5.65l-3.277,0l0,-12.009l2.503,0l0.441,1.536l0.182,0c0.365,-0.58 0.869,-1.019 1.509,-1.316c0.641,-0.297 1.37,-0.446 2.187,-0.446c1.396,0 2.456,0.378 3.179,1.133c0.723,0.756 1.085,1.846 1.085,3.271l0,7.831Z" style="fill:#c73d27;fill-rule:nonzero;"/><path d="M173.888,39.176c-1.411,0 -2.519,-0.548 -3.325,-1.643c-0.805,-1.096 -1.208,-2.614 -1.208,-4.555c0,-1.969 0.41,-3.504 1.23,-4.603c0.82,-1.099 1.949,-1.649 3.389,-1.649c1.511,0 2.664,0.587 3.459,1.762l0.107,0c-0.164,-0.895 -0.247,-1.694 -0.247,-2.396l0,-3.845l3.287,0l0,16.714l-2.513,0l-0.634,-1.557l-0.14,0c-0.745,1.181 -1.88,1.772 -3.405,1.772Zm1.149,-2.61c0.838,0 1.452,-0.244 1.843,-0.731c0.39,-0.487 0.603,-1.314 0.639,-2.481l0,-0.354c0,-1.29 -0.199,-2.213 -0.596,-2.772c-0.398,-0.559 -1.044,-0.838 -1.939,-0.838c-0.731,0 -1.298,0.31 -1.703,0.929c-0.405,0.62 -0.607,1.52 -0.607,2.702c0,1.182 0.204,2.068 0.612,2.659c0.409,0.591 0.992,0.886 1.751,0.886Z" style="fill:#c73d27;fill-rule:nonzero;"/><path d="M193.525,39.176c-1.411,0 -2.519,-0.548 -3.325,-1.643c-0.806,-1.096 -1.209,-2.614 -1.209,-4.555c0,-1.969 0.41,-3.504 1.23,-4.603c0.82,-1.099 1.95,-1.649 3.39,-1.649c1.511,0 2.664,0.587 3.459,1.762l0.107,0c-0.165,-0.895 -0.247,-1.694 -0.247,-2.396l0,-3.845l3.287,0l0,16.714l-2.514,0l-0.633,-1.557l-0.14,0c-0.745,1.181 -1.88,1.772 -3.405,1.772Zm1.149,-2.61c0.838,0 1.452,-0.244 1.842,-0.731c0.391,-0.487 0.604,-1.314 0.64,-2.481l0,-0.354c0,-1.29 -0.199,-2.213 -0.597,-2.772c-0.397,-0.559 -1.043,-0.838 -1.939,-0.838c-0.73,0 -1.298,0.31 -1.702,0.929c-0.405,0.62 -0.607,1.52 -0.607,2.702c0,1.182 0.204,2.068 0.612,2.659c0.408,0.591 0.992,0.886 1.751,0.886Z" style="fill:#c73d27;fill-rule:nonzero;"/><path d="M203.504,23.847c0,-1.067 0.595,-1.6 1.783,-1.6c1.189,0 1.784,0.533 1.784,1.6c0,0.509 -0.149,0.904 -0.446,1.187c-0.297,0.283 -0.743,0.424 -1.338,0.424c-1.188,0 -1.783,-0.537 -1.783,-1.611Zm3.416,15.114l-3.276,0l0,-12.009l3.276,0l0,12.009Z" style="fill:#c73d27;fill-rule:nonzero;"/><path d="M218.737,35.395c0,1.232 -0.428,2.17 -1.284,2.814c-0.856,0.645 -2.136,0.967 -3.84,0.967c-0.874,0 -1.619,-0.059 -2.235,-0.177c-0.616,-0.118 -1.192,-0.292 -1.729,-0.521l0,-2.707c0.608,0.286 1.294,0.526 2.057,0.72c0.762,0.193 1.434,0.29 2.014,0.29c1.189,0 1.783,-0.344 1.783,-1.031c0,-0.258 -0.079,-0.468 -0.236,-0.629c-0.158,-0.161 -0.43,-0.344 -0.817,-0.548c-0.386,-0.204 -0.902,-0.442 -1.546,-0.714c-0.924,-0.387 -1.603,-0.745 -2.036,-1.074c-0.433,-0.33 -0.748,-0.708 -0.945,-1.134c-0.197,-0.426 -0.296,-0.95 -0.296,-1.573c0,-1.067 0.414,-1.893 1.241,-2.476c0.827,-0.584 2,-0.876 3.518,-0.876c1.447,0 2.854,0.315 4.222,0.945l-0.989,2.364c-0.601,-0.258 -1.163,-0.469 -1.686,-0.634c-0.523,-0.165 -1.056,-0.247 -1.601,-0.247c-0.967,0 -1.45,0.261 -1.45,0.784c0,0.294 0.156,0.548 0.467,0.763c0.312,0.215 0.994,0.533 2.047,0.956c0.938,0.379 1.625,0.734 2.062,1.063c0.437,0.33 0.759,0.709 0.967,1.139c0.208,0.43 0.312,0.942 0.312,1.536Z" style="fill:#c73d27;fill-rule:nonzero;"/><path d="M226.17,39.176c-3.738,0 -5.607,-2.051 -5.607,-6.155c0,-2.041 0.508,-3.6 1.525,-4.678c1.017,-1.078 2.474,-1.617 4.372,-1.617c1.39,0 2.636,0.272 3.738,0.816l-0.966,2.536c-0.516,-0.208 -0.996,-0.378 -1.44,-0.511c-0.444,-0.132 -0.888,-0.198 -1.332,-0.198c-1.704,0 -2.556,1.21 -2.556,3.631c0,2.348 0.852,3.523 2.556,3.523c0.63,0 1.214,-0.084 1.751,-0.252c0.537,-0.169 1.074,-0.432 1.612,-0.79l0,2.804c-0.53,0.336 -1.066,0.569 -1.606,0.698c-0.541,0.129 -1.223,0.193 -2.047,0.193Z" style="fill:#c73d27;fill-rule:nonzero;"/><path d="M241.113,38.961l-0.441,-1.536l-0.172,0c-0.351,0.559 -0.848,0.99 -1.493,1.295c-0.644,0.304 -1.379,0.456 -2.202,0.456c-1.411,0 -2.474,-0.377 -3.191,-1.133c-0.716,-0.756 -1.074,-1.842 -1.074,-3.26l0,-7.831l3.277,0l0,7.014c0,0.867 0.154,1.517 0.462,1.95c0.307,0.433 0.798,0.65 1.471,0.65c0.917,0 1.579,-0.306 1.988,-0.919c0.408,-0.612 0.612,-1.627 0.612,-3.045l0,-5.65l3.276,0l0,12.009l-2.513,0Z" style="fill:#c73d27;fill-rule:nonzero;"/><path d="M255.443,35.395c0,1.232 -0.428,2.17 -1.284,2.814c-0.856,0.645 -2.136,0.967 -3.84,0.967c-0.874,0 -1.619,-0.059 -2.235,-0.177c-0.616,-0.118 -1.192,-0.292 -1.729,-0.521l0,-2.707c0.608,0.286 1.294,0.526 2.057,0.72c0.763,0.193 1.434,0.29 2.014,0.29c1.189,0 1.783,-0.344 1.783,-1.031c0,-0.258 -0.079,-0.468 -0.236,-0.629c-0.158,-0.161 -0.43,-0.344 -0.817,-0.548c-0.386,-0.204 -0.902,-0.442 -1.546,-0.714c-0.924,-0.387 -1.603,-0.745 -2.036,-1.074c-0.433,-0.33 -0.748,-0.708 -0.945,-1.134c-0.197,-0.426 -0.296,-0.95 -0.296,-1.573c0,-1.067 0.414,-1.893 1.241,-2.476c0.827,-0.584 2,-0.876 3.518,-0.876c1.447,0 2.854,0.315 4.222,0.945l-0.989,2.364c-0.601,-0.258 -1.163,-0.469 -1.686,-0.634c-0.523,-0.165 -1.056,-0.247 -1.601,-0.247c-0.966,0 -1.45,0.261 -1.45,0.784c0,0.294 0.156,0.548 0.467,0.763c0.312,0.215 0.994,0.533 2.047,0.956c0.938,0.379 1.625,0.734 2.062,1.063c0.437,0.33 0.759,0.709 0.967,1.139c0.208,0.43 0.312,0.942 0.312,1.536Z" style="fill:#c73d27;fill-rule:nonzero;"/><path d="M266.378,35.395c0,1.232 -0.428,2.17 -1.284,2.814c-0.855,0.645 -2.135,0.967 -3.84,0.967c-0.874,0 -1.618,-0.059 -2.234,-0.177c-0.616,-0.118 -1.193,-0.292 -1.73,-0.521l0,-2.707c0.609,0.286 1.295,0.526 2.057,0.72c0.763,0.193 1.434,0.29 2.015,0.29c1.188,0 1.783,-0.344 1.783,-1.031c0,-0.258 -0.079,-0.468 -0.237,-0.629c-0.157,-0.161 -0.429,-0.344 -0.816,-0.548c-0.387,-0.204 -0.902,-0.442 -1.547,-0.714c-0.924,-0.387 -1.602,-0.745 -2.035,-1.074c-0.434,-0.33 -0.749,-0.708 -0.946,-1.134c-0.197,-0.426 -0.295,-0.95 -0.295,-1.573c0,-1.067 0.413,-1.893 1.241,-2.476c0.827,-0.584 1.999,-0.876 3.518,-0.876c1.446,0 2.853,0.315 4.221,0.945l-0.988,2.364c-0.602,-0.258 -1.164,-0.469 -1.687,-0.634c-0.522,-0.165 -1.056,-0.247 -1.6,-0.247c-0.967,0 -1.45,0.261 -1.45,0.784c0,0.294 0.155,0.548 0.467,0.763c0.311,0.215 0.994,0.533 2.046,0.956c0.938,0.379 1.626,0.734 2.063,1.063c0.437,0.33 0.759,0.709 0.967,1.139c0.207,0.43 0.311,0.942 0.311,1.536Z" style="fill:#c73d27;fill-rule:nonzero;"/><path d="M281.288,29.412l-2.836,0l0,9.549l-3.276,0l0,-9.549l-1.805,0l0,-1.579l1.805,-0.881l0,-0.881c0,-1.368 0.337,-2.367 1.01,-2.997c0.673,-0.63 1.751,-0.946 3.233,-0.946c1.132,0 2.138,0.169 3.019,0.505l-0.838,2.407c-0.659,-0.208 -1.268,-0.312 -1.826,-0.312c-0.466,0 -0.802,0.138 -1.01,0.414c-0.208,0.275 -0.312,0.628 -0.312,1.058l0,0.752l2.836,0l0,2.46Z" style="fill:#c73d27;fill-rule:nonzero;"/><path d="M285.779,32.935c0,1.189 0.195,2.088 0.585,2.696c0.39,0.609 1.026,0.913 1.907,0.913c0.873,0 1.502,-0.302 1.885,-0.907c0.383,-0.605 0.575,-1.506 0.575,-2.702c0,-1.189 -0.194,-2.08 -0.58,-2.675c-0.387,-0.594 -1.021,-0.891 -1.902,-0.891c-0.873,0 -1.504,0.295 -1.89,0.886c-0.387,0.591 -0.58,1.484 -0.58,2.68Zm8.303,0c0,1.955 -0.515,3.484 -1.547,4.587c-1.031,1.103 -2.467,1.654 -4.307,1.654c-1.153,0 -2.17,-0.252 -3.051,-0.757c-0.881,-0.505 -1.558,-1.23 -2.03,-2.175c-0.473,-0.946 -0.709,-2.049 -0.709,-3.309c0,-1.962 0.512,-3.488 1.536,-4.576c1.024,-1.089 2.463,-1.633 4.318,-1.633c1.153,0 2.17,0.251 3.051,0.752c0.881,0.501 1.558,1.221 2.03,2.159c0.473,0.938 0.709,2.038 0.709,3.298Z" style="fill:#c73d27;fill-rule:nonzero;"/><path d="M299.4,32.935c0,1.189 0.195,2.088 0.585,2.696c0.39,0.609 1.026,0.913 1.907,0.913c0.874,0 1.502,-0.302 1.885,-0.907c0.383,-0.605 0.575,-1.506 0.575,-2.702c0,-1.189 -0.194,-2.08 -0.58,-2.675c-0.387,-0.594 -1.021,-0.891 -1.902,-0.891c-0.873,0 -1.504,0.295 -1.89,0.886c-0.387,0.591 -0.58,1.484 -0.58,2.68Zm8.303,0c0,1.955 -0.515,3.484 -1.547,4.587c-1.031,1.103 -2.467,1.654 -4.307,1.654c-1.153,0 -2.17,-0.252 -3.051,-0.757c-0.881,-0.505 -1.558,-1.23 -2.03,-2.175c-0.473,-0.946 -0.709,-2.049 -0.709,-3.309c0,-1.962 0.512,-3.488 1.536,-4.576c1.024,-1.089 2.464,-1.633 4.318,-1.633c1.153,0 2.17,0.251 3.051,0.752c0.881,0.501 1.558,1.221 2.03,2.159c0.473,0.938 0.709,2.038 0.709,3.298Z" style="fill:#c73d27;fill-rule:nonzero;"/><path d="M314.213,39.176c-1.411,0 -2.519,-0.548 -3.325,-1.643c-0.805,-1.096 -1.208,-2.614 -1.208,-4.555c0,-1.969 0.41,-3.504 1.23,-4.603c0.82,-1.099 1.95,-1.649 3.389,-1.649c1.511,0 2.664,0.587 3.459,1.762l0.107,0c-0.164,-0.895 -0.247,-1.694 -0.247,-2.396l0,-3.845l3.288,0l0,16.714l-2.514,0l-0.634,-1.557l-0.14,0c-0.744,1.181 -1.879,1.772 -3.405,1.772Zm1.15,-2.61c0.837,0 1.452,-0.244 1.842,-0.731c0.39,-0.487 0.603,-1.314 0.639,-2.481l0,-0.354c0,-1.29 -0.199,-2.213 -0.596,-2.772c-0.398,-0.559 -1.044,-0.838 -1.939,-0.838c-0.731,0 -1.298,0.31 -1.703,0.929c-0.404,0.62 -0.607,1.52 -0.607,2.702c0,1.182 0.204,2.068 0.613,2.659c0.408,0.591 0.991,0.886 1.751,0.886Z" style="fill:#c73d27;fill-rule:nonzero;"/><path d="M154.101,60.961l-0.924,-4.2l-1.246,-5.306l-0.075,0l-2.192,9.506l-3.523,0l-3.416,-12.009l3.265,0l1.386,5.317c0.222,0.953 0.448,2.267 0.677,3.942l0.064,0c0.029,-0.544 0.154,-1.407 0.376,-2.588l0.172,-0.914l1.483,-5.757l3.609,0l1.407,5.757c0.029,0.158 0.074,0.391 0.135,0.699c0.06,0.308 0.12,0.635 0.177,0.983c0.057,0.347 0.109,0.687 0.156,1.02c0.046,0.333 0.073,0.6 0.08,0.8l0.065,0c0.064,-0.515 0.179,-1.222 0.343,-2.121c0.165,-0.899 0.283,-1.506 0.355,-1.821l1.439,-5.317l3.212,0l-3.459,12.009l-3.566,0Z" style="fill:#c73d27;fill-rule:nonzero;"/><path d="M165.67,54.935c0,1.189 0.195,2.088 0.586,2.696c0.39,0.609 1.025,0.913 1.906,0.913c0.874,0 1.502,-0.302 1.886,-0.907c0.383,-0.605 0.574,-1.506 0.574,-2.702c0,-1.189 -0.193,-2.08 -0.58,-2.675c-0.386,-0.594 -1.02,-0.891 -1.901,-0.891c-0.874,0 -1.504,0.295 -1.891,0.886c-0.386,0.591 -0.58,1.484 -0.58,2.68Zm8.304,0c0,1.955 -0.516,3.484 -1.547,4.587c-1.031,1.103 -2.467,1.654 -4.308,1.654c-1.153,0 -2.17,-0.252 -3.05,-0.757c-0.881,-0.505 -1.558,-1.23 -2.031,-2.175c-0.472,-0.946 -0.709,-2.049 -0.709,-3.309c0,-1.962 0.512,-3.488 1.536,-4.576c1.025,-1.089 2.464,-1.633 4.319,-1.633c1.153,0 2.17,0.251 3.051,0.752c0.88,0.501 1.557,1.221 2.03,2.159c0.473,0.938 0.709,2.038 0.709,3.298Z" style="fill:#c73d27;fill-rule:nonzero;"/><path d="M183.384,48.726c0.444,0 0.813,0.032 1.106,0.097l-0.247,3.072c-0.265,-0.072 -0.587,-0.107 -0.966,-0.107c-1.046,0 -1.861,0.268 -2.444,0.805c-0.584,0.537 -0.876,1.289 -0.876,2.256l0,6.112l-3.276,0l0,-12.009l2.481,0l0.484,2.019l0.161,0c0.372,-0.673 0.875,-1.215 1.509,-1.627c0.634,-0.412 1.323,-0.618 2.068,-0.618Z" style="fill:#c73d27;fill-rule:nonzero;"/><path d="M189.819,54.43l1.428,-1.826l3.363,-3.652l3.695,0l-4.77,5.21l5.06,6.799l-3.781,0l-3.459,-4.866l-1.407,1.128l0,3.738l-3.277,0l0,-16.714l3.277,0l0,7.455l-0.172,2.728l0.043,0Z" style="fill:#c73d27;fill-rule:nonzero;"/><path d="M204.847,51.057c-0.695,0 -1.239,0.22 -1.633,0.661c-0.394,0.44 -0.619,1.065 -0.677,1.874l4.598,0c-0.014,-0.809 -0.226,-1.434 -0.634,-1.874c-0.408,-0.441 -0.959,-0.661 -1.654,-0.661Zm0.462,10.119c-1.934,0 -3.445,-0.533 -4.533,-1.6c-1.089,-1.067 -1.633,-2.578 -1.633,-4.534c0,-2.012 0.503,-3.568 1.509,-4.667c1.006,-1.099 2.397,-1.649 4.173,-1.649c1.698,0 3.019,0.483 3.964,1.45c0.946,0.967 1.418,2.303 1.418,4.007l0,1.59l-7.745,0c0.036,0.931 0.312,1.658 0.827,2.181c0.516,0.522 1.239,0.784 2.17,0.784c0.724,0 1.407,-0.075 2.052,-0.226c0.645,-0.15 1.318,-0.39 2.02,-0.72l0,2.536c-0.573,0.286 -1.186,0.499 -1.837,0.639c-0.652,0.139 -1.447,0.209 -2.385,0.209Z" style="fill:#c73d27;fill-rule:nonzero;"/><path d="M219.574,48.726c0.444,0 0.813,0.032 1.107,0.097l-0.247,3.072c-0.265,-0.072 -0.587,-0.107 -0.967,-0.107c-1.046,0 -1.86,0.268 -2.444,0.805c-0.583,0.537 -0.875,1.289 -0.875,2.256l0,6.112l-3.277,0l0,-12.009l2.482,0l0.483,2.019l0.161,0c0.373,-0.673 0.876,-1.215 1.51,-1.627c0.633,-0.412 1.323,-0.618 2.067,-0.618Z" style="fill:#c73d27;fill-rule:nonzero;"/><path d="M228.437,45.847c0,-1.067 0.594,-1.6 1.783,-1.6c1.189,0 1.783,0.533 1.783,1.6c0,0.509 -0.148,0.904 -0.446,1.187c-0.297,0.283 -0.743,0.424 -1.337,0.424c-1.189,0 -1.783,-0.537 -1.783,-1.611Zm3.416,15.114l-3.277,0l0,-12.009l3.277,0l0,12.009Z" style="fill:#c73d27;fill-rule:nonzero;"/><path d="M243.669,57.395c0,1.232 -0.428,2.17 -1.284,2.814c-0.855,0.645 -2.135,0.967 -3.84,0.967c-0.874,0 -1.618,-0.059 -2.234,-0.177c-0.616,-0.118 -1.193,-0.292 -1.73,-0.521l0,-2.707c0.609,0.286 1.295,0.526 2.057,0.72c0.763,0.193 1.435,0.29 2.015,0.29c1.188,0 1.783,-0.344 1.783,-1.031c0,-0.258 -0.079,-0.468 -0.237,-0.629c-0.157,-0.161 -0.429,-0.344 -0.816,-0.548c-0.387,-0.204 -0.902,-0.442 -1.547,-0.714c-0.924,-0.387 -1.602,-0.745 -2.035,-1.074c-0.434,-0.33 -0.749,-0.708 -0.946,-1.134c-0.197,-0.426 -0.295,-0.95 -0.295,-1.573c0,-1.067 0.413,-1.893 1.241,-2.476c0.827,-0.584 1.999,-0.876 3.518,-0.876c1.446,0 2.853,0.315 4.221,0.945l-0.988,2.364c-0.602,-0.258 -1.164,-0.469 -1.687,-0.634c-0.522,-0.165 -1.056,-0.247 -1.6,-0.247c-0.967,0 -1.45,0.261 -1.45,0.784c0,0.294 0.155,0.548 0.467,0.763c0.311,0.215 0.994,0.533 2.046,0.956c0.939,0.379 1.626,0.734 2.063,1.063c0.437,0.33 0.759,0.709 0.967,1.139c0.207,0.43 0.311,0.942 0.311,1.536Z" style="fill:#c73d27;fill-rule:nonzero;"/><path d="M254.605,57.395c0,1.232 -0.428,2.17 -1.284,2.814c-0.856,0.645 -2.136,0.967 -3.84,0.967c-0.874,0 -1.619,-0.059 -2.235,-0.177c-0.616,-0.118 -1.192,-0.292 -1.729,-0.521l0,-2.707c0.609,0.286 1.294,0.526 2.057,0.72c0.763,0.193 1.434,0.29 2.014,0.29c1.189,0 1.783,-0.344 1.783,-1.031c0,-0.258 -0.078,-0.468 -0.236,-0.629c-0.158,-0.161 -0.43,-0.344 -0.816,-0.548c-0.387,-0.204 -0.903,-0.442 -1.547,-0.714c-0.924,-0.387 -1.603,-0.745 -2.036,-1.074c-0.433,-0.33 -0.748,-0.708 -0.945,-1.134c-0.197,-0.426 -0.296,-0.95 -0.296,-1.573c0,-1.067 0.414,-1.893 1.241,-2.476c0.827,-0.584 2,-0.876 3.518,-0.876c1.447,0 2.854,0.315 4.222,0.945l-0.988,2.364c-0.602,-0.258 -1.164,-0.469 -1.687,-0.634c-0.523,-0.165 -1.056,-0.247 -1.601,-0.247c-0.966,0 -1.45,0.261 -1.45,0.784c0,0.294 0.156,0.548 0.468,0.763c0.311,0.215 0.993,0.533 2.046,0.956c0.938,0.379 1.626,0.734 2.062,1.063c0.437,0.33 0.76,0.709 0.967,1.139c0.208,0.43 0.312,0.942 0.312,1.536Z" style="fill:#c73d27;fill-rule:nonzero;"/><path d="M265.669,60.961l-0.44,-1.536l-0.172,0c-0.351,0.559 -0.849,0.99 -1.493,1.295c-0.645,0.304 -1.379,0.456 -2.202,0.456c-1.411,0 -2.475,-0.377 -3.191,-1.133c-0.716,-0.756 -1.074,-1.842 -1.074,-3.26l0,-7.831l3.276,0l0,7.014c0,0.867 0.154,1.517 0.462,1.95c0.308,0.433 0.799,0.65 1.472,0.65c0.917,0 1.579,-0.306 1.987,-0.919c0.408,-0.612 0.612,-1.627 0.612,-3.045l0,-5.65l3.277,0l0,12.009l-2.514,0Z" style="fill:#c73d27;fill-rule:nonzero;"/><path d="M276.594,51.057c-0.695,0 -1.239,0.22 -1.633,0.661c-0.394,0.44 -0.619,1.065 -0.677,1.874l4.598,0c-0.014,-0.809 -0.226,-1.434 -0.634,-1.874c-0.408,-0.441 -0.959,-0.661 -1.654,-0.661Zm0.462,10.119c-1.934,0 -3.445,-0.533 -4.533,-1.6c-1.089,-1.067 -1.633,-2.578 -1.633,-4.534c0,-2.012 0.503,-3.568 1.509,-4.667c1.006,-1.099 2.397,-1.649 4.174,-1.649c1.697,0 3.018,0.483 3.963,1.45c0.946,0.967 1.418,2.303 1.418,4.007l0,1.59l-7.745,0c0.036,0.931 0.312,1.658 0.827,2.181c0.516,0.522 1.239,0.784 2.17,0.784c0.724,0 1.408,-0.075 2.052,-0.226c0.645,-0.15 1.318,-0.39 2.02,-0.72l0,2.536c-0.573,0.286 -1.186,0.499 -1.837,0.639c-0.652,0.139 -1.447,0.209 -2.385,0.209Z" style="fill:#c73d27;fill-rule:nonzero;"/><path d="M292.997,57.395c0,1.232 -0.428,2.17 -1.283,2.814c-0.856,0.645 -2.136,0.967 -3.841,0.967c-0.873,0 -1.618,-0.059 -2.234,-0.177c-0.616,-0.118 -1.192,-0.292 -1.73,-0.521l0,-2.707c0.609,0.286 1.295,0.526 2.058,0.72c0.762,0.193 1.434,0.29 2.014,0.29c1.189,0 1.783,-0.344 1.783,-1.031c0,-0.258 -0.079,-0.468 -0.236,-0.629c-0.158,-0.161 -0.43,-0.344 -0.817,-0.548c-0.387,-0.204 -0.902,-0.442 -1.547,-0.714c-0.924,-0.387 -1.602,-0.745 -2.035,-1.074c-0.434,-0.33 -0.749,-0.708 -0.946,-1.134c-0.197,-0.426 -0.295,-0.95 -0.295,-1.573c0,-1.067 0.414,-1.893 1.241,-2.476c0.827,-0.584 1.999,-0.876 3.518,-0.876c1.446,0 2.854,0.315 4.221,0.945l-0.988,2.364c-0.601,-0.258 -1.164,-0.469 -1.686,-0.634c-0.523,-0.165 -1.057,-0.247 -1.601,-0.247c-0.967,0 -1.45,0.261 -1.45,0.784c0,0.294 0.156,0.548 0.467,0.763c0.312,0.215 0.994,0.533 2.046,0.956c0.939,0.379 1.626,0.734 2.063,1.063c0.437,0.33 0.759,0.709 0.967,1.139c0.207,0.43 0.311,0.942 0.311,1.536Z" style="fill:#c73d27;fill-rule:nonzero;"/><path d="M301.129,45.847c0,-1.067 0.595,-1.6 1.783,-1.6c1.189,0 1.784,0.533 1.784,1.6c0,0.509 -0.149,0.904 -0.446,1.187c-0.297,0.283 -0.743,0.424 -1.338,0.424c-1.188,0 -1.783,-0.537 -1.783,-1.611Zm3.416,15.114l-3.276,0l0,-12.009l3.276,0l0,12.009Z" style="fill:#c73d27;fill-rule:nonzero;"/><path d="M319.069,60.961l-3.277,0l0,-7.014c0,-0.867 -0.154,-1.517 -0.462,-1.95c-0.308,-0.433 -0.798,-0.65 -1.471,-0.65c-0.917,0 -1.579,0.306 -1.988,0.919c-0.408,0.612 -0.612,1.627 -0.612,3.045l0,5.65l-3.276,0l0,-12.009l2.503,0l0.44,1.536l0.183,0c0.365,-0.58 0.868,-1.019 1.509,-1.316c0.641,-0.297 1.37,-0.446 2.186,-0.446c1.396,0 2.456,0.378 3.18,1.133c0.723,0.756 1.085,1.846 1.085,3.271l0,7.831Z" style="fill:#c73d27;fill-rule:nonzero;"/><path d="M156.561,70.952l3.588,0l2.266,6.756c0.194,0.588 0.326,1.282 0.398,2.084l0.064,0c0.079,-0.737 0.233,-1.432 0.462,-2.084l2.224,-6.756l3.512,0l-5.081,13.546c-0.465,1.253 -1.129,2.191 -1.992,2.814c-0.863,0.623 -1.871,0.935 -3.024,0.935c-0.566,0 -1.121,-0.061 -1.665,-0.183l0,-2.6c0.394,0.093 0.823,0.14 1.289,0.14c0.58,0 1.087,-0.177 1.52,-0.532c0.433,-0.354 0.771,-0.89 1.015,-1.606l0.193,-0.591l-4.769,-11.923Z" style="fill:#c73d27;fill-rule:nonzero;"/><path d="M173.405,76.935c0,1.189 0.195,2.088 0.585,2.696c0.39,0.609 1.026,0.913 1.907,0.913c0.873,0 1.502,-0.302 1.885,-0.907c0.383,-0.605 0.575,-1.506 0.575,-2.702c0,-1.189 -0.194,-2.08 -0.58,-2.675c-0.387,-0.594 -1.021,-0.891 -1.902,-0.891c-0.873,0 -1.504,0.295 -1.89,0.886c-0.387,0.591 -0.58,1.484 -0.58,2.68Zm8.303,0c0,1.955 -0.515,3.484 -1.547,4.587c-1.031,1.103 -2.467,1.654 -4.307,1.654c-1.153,0 -2.17,-0.252 -3.051,-0.757c-0.881,-0.505 -1.558,-1.23 -2.03,-2.175c-0.473,-0.946 -0.709,-2.049 -0.709,-3.309c0,-1.962 0.512,-3.488 1.536,-4.576c1.024,-1.089 2.463,-1.633 4.318,-1.633c1.153,0 2.17,0.251 3.051,0.752c0.881,0.501 1.558,1.221 2.03,2.159c0.473,0.938 0.709,2.038 0.709,3.298Z" style="fill:#c73d27;fill-rule:nonzero;"/><path d="M192.923,82.961l-0.44,-1.536l-0.172,0c-0.351,0.559 -0.849,0.99 -1.493,1.295c-0.645,0.304 -1.379,0.456 -2.203,0.456c-1.41,0 -2.474,-0.377 -3.19,-1.133c-0.716,-0.756 -1.074,-1.842 -1.074,-3.26l0,-7.831l3.276,0l0,7.014c0,0.867 0.154,1.517 0.462,1.95c0.308,0.433 0.799,0.65 1.472,0.65c0.916,0 1.579,-0.306 1.987,-0.919c0.408,-0.612 0.612,-1.627 0.612,-3.045l0,-5.65l3.277,0l0,12.009l-2.514,0Z" style="fill:#c73d27;fill-rule:nonzero;"/><path d="M205.577,70.726c0.444,0 0.813,0.032 1.107,0.097l-0.247,3.072c-0.265,-0.072 -0.587,-0.107 -0.967,-0.107c-1.046,0 -1.86,0.268 -2.444,0.805c-0.584,0.537 -0.875,1.289 -0.875,2.256l0,6.112l-3.277,0l0,-12.009l2.482,0l0.483,2.019l0.161,0c0.373,-0.673 0.876,-1.215 1.51,-1.627c0.633,-0.412 1.323,-0.618 2.067,-0.618Z" style="fill:#c73d27;fill-rule:nonzero;"/><path d="M218.382,83.176c-1.411,0 -2.519,-0.548 -3.325,-1.643c-0.805,-1.096 -1.208,-2.614 -1.208,-4.555c0,-1.969 0.41,-3.504 1.23,-4.603c0.82,-1.099 1.95,-1.649 3.389,-1.649c1.511,0 2.664,0.587 3.459,1.762l0.107,0c-0.164,-0.895 -0.247,-1.694 -0.247,-2.396l0,-3.845l3.287,0l0,16.714l-2.513,0l-0.634,-1.557l-0.14,0c-0.744,1.181 -1.88,1.772 -3.405,1.772Zm1.149,-2.61c0.838,0 1.452,-0.244 1.843,-0.731c0.39,-0.487 0.603,-1.314 0.639,-2.481l0,-0.354c0,-1.29 -0.199,-2.213 -0.596,-2.772c-0.398,-0.559 -1.044,-0.838 -1.939,-0.838c-0.731,0 -1.298,0.31 -1.703,0.929c-0.404,0.62 -0.607,1.52 -0.607,2.702c0,1.182 0.204,2.068 0.613,2.659c0.408,0.591 0.991,0.886 1.75,0.886Z" style="fill:#c73d27;fill-rule:nonzero;"/><path d="M236.128,82.961l-0.634,-1.632l-0.086,0c-0.551,0.694 -1.119,1.176 -1.702,1.444c-0.584,0.269 -1.345,0.403 -2.283,0.403c-1.153,0 -2.061,-0.329 -2.723,-0.988c-0.662,-0.659 -0.994,-1.597 -0.994,-2.814c0,-1.275 0.446,-2.215 1.338,-2.82c0.891,-0.605 2.236,-0.94 4.033,-1.005l2.084,-0.064l0,-0.527c0,-1.217 -0.623,-1.826 -1.869,-1.826c-0.959,0 -2.087,0.29 -3.384,0.87l-1.085,-2.212c1.383,-0.724 2.915,-1.085 4.598,-1.085c1.611,0 2.847,0.351 3.706,1.052c0.86,0.702 1.289,1.769 1.289,3.201l0,8.003l-2.288,0Zm-0.967,-5.564l-1.267,0.043c-0.953,0.029 -1.662,0.2 -2.127,0.516c-0.466,0.315 -0.698,0.794 -0.698,1.439c0,0.924 0.53,1.386 1.589,1.386c0.76,0 1.366,-0.219 1.821,-0.656c0.455,-0.436 0.682,-1.016 0.682,-1.74l0,-0.988Z" style="fill:#c73d27;fill-rule:nonzero;"/><path d="M241.65,67.847c0,-1.067 0.594,-1.6 1.783,-1.6c1.189,0 1.783,0.533 1.783,1.6c0,0.509 -0.149,0.904 -0.446,1.187c-0.297,0.283 -0.743,0.424 -1.337,0.424c-1.189,0 -1.783,-0.537 -1.783,-1.611Zm3.416,15.114l-3.277,0l0,-12.009l3.277,0l0,12.009Z" style="fill:#c73d27;fill-rule:nonzero;"/><rect x="248.503" y="66.247" width="3.276" height="16.715" style="fill:#c73d27;fill-rule:nonzero;"/><path d="M253.498,70.952l3.588,0l2.267,6.756c0.193,0.588 0.326,1.282 0.397,2.084l0.065,0c0.078,-0.737 0.232,-1.432 0.462,-2.084l2.223,-6.756l3.513,0l-5.081,13.546c-0.466,1.253 -1.13,2.191 -1.993,2.814c-0.863,0.623 -1.871,0.935 -3.024,0.935c-0.565,0 -1.12,-0.061 -1.665,-0.183l0,-2.6c0.394,0.093 0.824,0.14 1.289,0.14c0.58,0 1.087,-0.177 1.52,-0.532c0.434,-0.354 0.772,-0.89 1.015,-1.606l0.194,-0.591l-4.77,-11.923Z" style="fill:#c73d27;fill-rule:nonzero;"/><rect x="273.447" y="66.247" width="3.276" height="16.715" style="fill:#c73d27;fill-rule:nonzero;"/><path d="M280.021,67.847c0,-1.067 0.594,-1.6 1.783,-1.6c1.189,0 1.783,0.533 1.783,1.6c0,0.509 -0.148,0.904 -0.446,1.187c-0.297,0.283 -0.743,0.424 -1.337,0.424c-1.189,0 -1.783,-0.537 -1.783,-1.611Zm3.416,15.114l-3.277,0l0,-12.009l3.277,0l0,12.009Z" style="fill:#c73d27;fill-rule:nonzero;"/><path d="M293.513,73.412l-2.836,0l0,9.549l-3.276,0l0,-9.549l-1.805,0l0,-1.579l1.805,-0.881l0,-0.881c0,-1.368 0.336,-2.367 1.009,-2.997c0.674,-0.63 1.751,-0.946 3.234,-0.946c1.131,0 2.137,0.169 3.018,0.505l-0.838,2.407c-0.658,-0.208 -1.267,-0.312 -1.826,-0.312c-0.465,0 -0.802,0.138 -1.009,0.414c-0.208,0.275 -0.312,0.628 -0.312,1.058l0,0.752l2.836,0l0,2.46Z" style="fill:#c73d27;fill-rule:nonzero;"/><path d="M300.366,73.057c-0.694,0 -1.238,0.22 -1.632,0.661c-0.394,0.44 -0.62,1.065 -0.677,1.874l4.598,0c-0.015,-0.809 -0.226,-1.434 -0.634,-1.874c-0.408,-0.441 -0.96,-0.661 -1.655,-0.661Zm0.462,10.119c-1.933,0 -3.444,-0.533 -4.533,-1.6c-1.088,-1.067 -1.633,-2.578 -1.633,-4.534c0,-2.012 0.503,-3.568 1.51,-4.667c1.006,-1.099 2.397,-1.649 4.173,-1.649c1.697,0 3.019,0.483 3.964,1.45c0.945,0.967 1.418,2.303 1.418,4.007l0,1.59l-7.745,0c0.035,0.931 0.311,1.658 0.827,2.181c0.515,0.522 1.239,0.784 2.17,0.784c0.723,0 1.407,-0.075 2.052,-0.226c0.644,-0.15 1.317,-0.39 2.019,-0.72l0,2.536c-0.573,0.286 -1.185,0.499 -1.837,0.639c-0.652,0.139 -1.446,0.209 -2.385,0.209Z" style="fill:#c73d27;fill-rule:nonzero;"/></g></g></svg>