<?xml version="1.0" encoding="UTF-8" standalone="no"?><!DOCTYPE svg PUBLIC "-//W3C//DTD SVG 1.1//EN" "http://www.w3.org/Graphics/SVG/1.1/DTD/svg11.dtd"><svg width="100%" height="100%" viewBox="0 0 351 96" version="1.1" xmlns="http://www.w3.org/2000/svg" xmlns:xlink="http://www.w3.org/1999/xlink" xml:space="preserve" style="fill-rule:evenodd;clip-rule:evenodd;stroke-linejoin:round;stroke-miterlimit:1.41421;"><g id="consumer-one"><g transform="matrix(0.682175,0,0,0.682175,-59.0853,-177.913)"><text x="297.263px" y="302.837px" style="font-family:'OpenSans-Bold', 'Open Sans', sans-serif;font-weight:700;font-size:32.25px;fill:#c73d27;">Support workplace</text><text x="305.523px" y="335.087px" style="font-family:'OpenSans-Bold', 'Open Sans', sans-serif;font-weight:700;font-size:32.25px;fill:#c73d27;">justice campaigns</text><text x="314.656px" y="367.337px" style="font-family:'OpenSans-Bold', 'Open Sans', sans-serif;font-weight:700;font-size:32.25px;fill:#c73d27;">and union drives</text></g><g id="icon-1"><path d="M15.791,95.411l0,-38.419c0,-0.116 0.003,-0.23 0.01,-0.344c-0.002,-0.063 -0.002,-0.129 -0.002,-0.195l0,-13.206l-4.977,8.721c-1.476,2.581 -4.914,3.643 -7.68,2.368c-2.762,-1.275 -3.809,-4.406 -2.336,-6.988l9.767,-17.109c0.168,-0.294 0.361,-0.566 0.573,-0.821c0.881,-2.286 3.302,-3.935 6.146,-3.935l23.395,0c2.844,0 5.263,1.649 6.145,3.937c0.211,0.253 0.407,0.525 0.571,0.819l0.119,0.209l0.118,-0.209c0.168,-0.294 0.361,-0.566 0.573,-0.821c0.881,-2.286 3.302,-3.935 6.147,-3.935l23.394,0c2.844,0 5.263,1.649 6.145,3.937c0.211,0.253 0.407,0.525 0.571,0.819l0.119,0.209l0.118,-0.209c0.169,-0.294 0.361,-0.566 0.573,-0.821c0.882,-2.286 3.302,-3.935 6.147,-3.935l23.394,0c2.844,0 5.264,1.649 6.145,3.937c0.211,0.253 0.407,0.525 0.571,0.819l9.769,17.109c1.473,2.582 0.427,5.713 -2.335,6.988c-2.767,1.275 -6.205,0.213 -7.68,-2.368l-4.977,-8.719l0,13.204c0,0.171 -0.008,0.338 -0.023,0.504c0,0.012 0,0.024 0,0.035l0,38.419l-12.508,0l0,-33.116l-1.353,0l0,33.116l-12.508,0l0,-38.419c0,-0.116 0.004,-0.23 0.01,-0.344c-0.002,-0.063 -0.002,-0.129 -0.002,-0.195l0,-1.599c-2.042,0.175 -4.121,-0.694 -5.344,-2.328c-1.223,1.634 -3.298,2.501 -5.343,2.328l0.002,1.599c0,0.171 -0.008,0.338 -0.023,0.504c0,0.012 0,0.024 0,0.035l0,38.419l-12.508,0l0,-33.116l-1.353,0l0,33.116l-12.508,0l0,-38.419c0,-0.116 0.004,-0.23 0.01,-0.344c-0.001,-0.063 -0.001,-0.129 -0.001,-0.195l0,-1.599c-2.043,0.175 -4.122,-0.694 -5.345,-2.328c-1.223,1.634 -3.3,2.503 -5.343,2.328l0.002,1.599c0,0.171 -0.008,0.338 -0.023,0.504c0,0.012 0,0.024 0,0.035l0,38.419l-12.502,0l0,-33.116l-1.352,0l0,33.116l-12.508,0l0,0Zm1.772,-84.719c0,-5.776 5.216,-10.465 11.642,-10.465c6.424,0 11.64,4.689 11.64,10.465c0,5.777 -5.216,10.464 -11.64,10.464c-6.426,-0.001 -11.642,-4.688 -11.642,-10.464Zm37.068,0c0,-5.776 5.216,-10.465 11.642,-10.465c6.424,0 11.64,4.689 11.64,10.465c0,5.777 -5.216,10.464 -11.64,10.464c-6.426,-0.001 -11.642,-4.688 -11.642,-10.464Zm37.068,0c0,-5.776 5.216,-10.465 11.643,-10.465c6.424,0 11.64,4.689 11.64,10.465c0,5.777 -5.216,10.464 -11.64,10.464c-6.427,-0.001 -11.643,-4.688 -11.643,-10.464Z" style="fill:#c73d27;fill-rule:nonzero;"/></g></g></svg>