<?xml version="1.0" encoding="UTF-8" standalone="no"?><!DOCTYPE svg PUBLIC "-//W3C//DTD SVG 1.1//EN" "http://www.w3.org/Graphics/SVG/1.1/DTD/svg11.dtd"><svg width="100%" height="100%" viewBox="0 0 351 96" version="1.1" xmlns="http://www.w3.org/2000/svg" xmlns:xlink="http://www.w3.org/1999/xlink" xml:space="preserve" style="fill-rule:evenodd;clip-rule:evenodd;stroke-linejoin:round;stroke-miterlimit:1.41421;"><g id="consumer-one"><g><path d="M154.948,24.314c0,1.418 -0.511,2.535 -1.531,3.352c-1.021,0.816 -2.44,1.224 -4.259,1.224c-1.676,0 -3.159,-0.315 -4.448,-0.945l0,-3.094c1.06,0.473 1.957,0.806 2.691,0.999c0.734,0.194 1.406,0.29 2.014,0.29c0.731,0 1.291,-0.139 1.682,-0.418c0.39,-0.28 0.585,-0.695 0.585,-1.247c0,-0.307 -0.086,-0.581 -0.258,-0.821c-0.172,-0.24 -0.424,-0.471 -0.757,-0.693c-0.333,-0.222 -1.012,-0.577 -2.036,-1.064c-0.959,-0.451 -1.679,-0.884 -2.159,-1.299c-0.48,-0.416 -0.863,-0.899 -1.149,-1.451c-0.287,-0.551 -0.43,-1.196 -0.43,-1.933c0,-1.39 0.471,-2.482 1.413,-3.277c0.941,-0.795 2.243,-1.192 3.904,-1.192c0.817,0 1.596,0.097 2.337,0.29c0.741,0.193 1.516,0.466 2.325,0.816l-1.074,2.589c-0.838,-0.343 -1.531,-0.583 -2.078,-0.719c-0.548,-0.136 -1.087,-0.205 -1.617,-0.205c-0.63,0 -1.114,0.147 -1.45,0.441c-0.337,0.294 -0.505,0.677 -0.505,1.149c0,0.294 0.068,0.55 0.204,0.768c0.136,0.219 0.353,0.43 0.65,0.634c0.297,0.204 1.001,0.571 2.111,1.101c1.468,0.702 2.474,1.406 3.018,2.111c0.545,0.705 0.817,1.57 0.817,2.594Z" style="fill:#c73d27;fill-rule:nonzero;"/><path d="M166.044,28.676l-0.44,-1.536l-0.172,0c-0.351,0.558 -0.849,0.99 -1.493,1.294c-0.645,0.304 -1.379,0.456 -2.202,0.456c-1.411,0 -2.475,-0.377 -3.191,-1.133c-0.716,-0.755 -1.074,-1.842 -1.074,-3.26l0,-7.831l3.276,0l0,7.015c0,0.866 0.154,1.516 0.462,1.949c0.308,0.434 0.799,0.65 1.472,0.65c0.917,0 1.579,-0.306 1.987,-0.918c0.409,-0.613 0.613,-1.628 0.613,-3.046l0,-5.65l3.276,0l0,12.01l-2.514,0Z" style="fill:#c73d27;fill-rule:nonzero;"/><path d="M178.591,28.89c-1.411,0 -2.517,-0.512 -3.319,-1.536l-0.172,0c0.115,1.003 0.172,1.583 0.172,1.741l0,4.866l-3.276,0l0,-17.295l2.664,0l0.461,1.557l0.151,0c0.766,-1.188 1.901,-1.783 3.405,-1.783c1.418,0 2.528,0.548 3.33,1.644c0.802,1.096 1.203,2.617 1.203,4.565c0,1.282 -0.188,2.396 -0.564,3.341c-0.376,0.945 -0.911,1.665 -1.606,2.159c-0.694,0.494 -1.511,0.741 -2.449,0.741Zm-0.967,-9.829c-0.809,0 -1.4,0.249 -1.772,0.747c-0.372,0.498 -0.566,1.319 -0.58,2.465l0,0.355c0,1.289 0.191,2.213 0.575,2.771c0.383,0.559 0.99,0.838 1.82,0.838c1.468,0 2.203,-1.21 2.203,-3.631c0,-1.181 -0.181,-2.068 -0.543,-2.658c-0.362,-0.591 -0.929,-0.887 -1.703,-0.887Z" style="fill:#c73d27;fill-rule:nonzero;"/><path d="M192.513,28.89c-1.411,0 -2.517,-0.512 -3.319,-1.536l-0.172,0c0.114,1.003 0.172,1.583 0.172,1.741l0,4.866l-3.277,0l0,-17.295l2.664,0l0.462,1.557l0.151,0c0.766,-1.188 1.901,-1.783 3.405,-1.783c1.418,0 2.528,0.548 3.33,1.644c0.802,1.096 1.203,2.617 1.203,4.565c0,1.282 -0.188,2.396 -0.564,3.341c-0.376,0.945 -0.911,1.665 -1.606,2.159c-0.694,0.494 -1.511,0.741 -2.449,0.741Zm-0.967,-9.829c-0.809,0 -1.4,0.249 -1.772,0.747c-0.373,0.498 -0.566,1.319 -0.58,2.465l0,0.355c0,1.289 0.191,2.213 0.574,2.771c0.384,0.559 0.991,0.838 1.821,0.838c1.468,0 2.202,-1.21 2.202,-3.631c0,-1.181 -0.18,-2.068 -0.542,-2.658c-0.362,-0.591 -0.929,-0.887 -1.703,-0.887Z" style="fill:#c73d27;fill-rule:nonzero;"/><path d="M202.45,22.649c0,1.189 0.195,2.088 0.585,2.697c0.39,0.608 1.026,0.913 1.907,0.913c0.873,0 1.502,-0.303 1.885,-0.908c0.383,-0.605 0.575,-1.506 0.575,-2.702c0,-1.189 -0.194,-2.08 -0.58,-2.675c-0.387,-0.594 -1.021,-0.891 -1.902,-0.891c-0.873,0 -1.504,0.295 -1.89,0.886c-0.387,0.591 -0.58,1.484 -0.58,2.68Zm8.303,0c0,1.955 -0.515,3.484 -1.547,4.587c-1.031,1.103 -2.467,1.654 -4.307,1.654c-1.153,0 -2.17,-0.252 -3.051,-0.757c-0.881,-0.505 -1.558,-1.23 -2.03,-2.175c-0.473,-0.945 -0.709,-2.048 -0.709,-3.309c0,-1.962 0.512,-3.487 1.536,-4.576c1.024,-1.088 2.463,-1.633 4.318,-1.633c1.153,0 2.17,0.251 3.051,0.752c0.881,0.502 1.558,1.221 2.03,2.159c0.473,0.939 0.709,2.038 0.709,3.298Z" style="fill:#c73d27;fill-rule:nonzero;"/><path d="M220.163,16.44c0.444,0 0.813,0.033 1.107,0.097l-0.247,3.072c-0.265,-0.071 -0.587,-0.107 -0.967,-0.107c-1.046,0 -1.86,0.268 -2.444,0.805c-0.583,0.538 -0.875,1.29 -0.875,2.256l0,6.113l-3.277,0l0,-12.01l2.482,0l0.483,2.019l0.161,0c0.373,-0.673 0.876,-1.215 1.51,-1.627c0.633,-0.412 1.323,-0.618 2.067,-0.618Z" style="fill:#c73d27;fill-rule:nonzero;"/><path d="M228.51,26.28c0.573,0 1.261,-0.125 2.063,-0.376l0,2.439c-0.817,0.365 -1.819,0.547 -3.008,0.547c-1.311,0 -2.265,-0.331 -2.863,-0.993c-0.598,-0.663 -0.897,-1.656 -0.897,-2.981l0,-5.79l-1.568,0l0,-1.386l1.804,-1.096l0.946,-2.535l2.094,0l0,2.557l3.363,0l0,2.46l-3.363,0l0,5.79c0,0.465 0.131,0.809 0.393,1.031c0.261,0.222 0.606,0.333 1.036,0.333Z" style="fill:#c73d27;fill-rule:nonzero;"/><path d="M248.587,28.676l-0.924,-4.201l-1.246,-5.306l-0.075,0l-2.191,9.507l-3.524,0l-3.416,-12.01l3.266,0l1.386,5.317c0.222,0.953 0.447,2.267 0.676,3.943l0.065,0c0.029,-0.545 0.154,-1.408 0.376,-2.589l0.172,-0.913l1.482,-5.758l3.61,0l1.407,5.758c0.028,0.157 0.073,0.39 0.134,0.698c0.061,0.308 0.12,0.636 0.177,0.983c0.058,0.347 0.11,0.687 0.156,1.02c0.047,0.333 0.073,0.6 0.081,0.801l0.064,0c0.065,-0.516 0.179,-1.223 0.344,-2.122c0.165,-0.899 0.283,-1.506 0.354,-1.821l1.44,-5.317l3.212,0l-3.459,12.01l-3.567,0Z" style="fill:#c73d27;fill-rule:nonzero;"/><path d="M260.157,22.649c0,1.189 0.195,2.088 0.585,2.697c0.39,0.608 1.026,0.913 1.907,0.913c0.874,0 1.502,-0.303 1.885,-0.908c0.383,-0.605 0.575,-1.506 0.575,-2.702c0,-1.189 -0.194,-2.08 -0.58,-2.675c-0.387,-0.594 -1.021,-0.891 -1.902,-0.891c-0.873,0 -1.504,0.295 -1.89,0.886c-0.387,0.591 -0.58,1.484 -0.58,2.68Zm8.303,0c0,1.955 -0.515,3.484 -1.547,4.587c-1.031,1.103 -2.467,1.654 -4.307,1.654c-1.153,0 -2.17,-0.252 -3.051,-0.757c-0.881,-0.505 -1.558,-1.23 -2.03,-2.175c-0.473,-0.945 -0.709,-2.048 -0.709,-3.309c0,-1.962 0.512,-3.487 1.536,-4.576c1.024,-1.088 2.463,-1.633 4.318,-1.633c1.153,0 2.17,0.251 3.051,0.752c0.881,0.502 1.558,1.221 2.03,2.159c0.473,0.939 0.709,2.038 0.709,3.298Z" style="fill:#c73d27;fill-rule:nonzero;"/><path d="M277.871,16.44c0.444,0 0.812,0.033 1.106,0.097l-0.247,3.072c-0.265,-0.071 -0.587,-0.107 -0.967,-0.107c-1.045,0 -1.86,0.268 -2.444,0.805c-0.583,0.538 -0.875,1.29 -0.875,2.256l0,6.113l-3.277,0l0,-12.01l2.482,0l0.483,2.019l0.161,0c0.373,-0.673 0.876,-1.215 1.51,-1.627c0.633,-0.412 1.323,-0.618 2.068,-0.618Z" style="fill:#c73d27;fill-rule:nonzero;"/><path d="M284.305,22.144l1.429,-1.826l3.362,-3.652l3.695,0l-4.769,5.21l5.059,6.8l-3.781,0l-3.459,-4.867l-1.407,1.128l0,3.739l-3.276,0l0,-16.715l3.276,0l0,7.455l-0.172,2.728l0.043,0Z" style="fill:#c73d27;fill-rule:nonzero;"/><path d="M301.396,28.89c-1.411,0 -2.517,-0.512 -3.319,-1.536l-0.172,0c0.114,1.003 0.172,1.583 0.172,1.741l0,4.866l-3.277,0l0,-17.295l2.664,0l0.462,1.557l0.151,0c0.766,-1.188 1.901,-1.783 3.405,-1.783c1.418,0 2.528,0.548 3.33,1.644c0.802,1.096 1.203,2.617 1.203,4.565c0,1.282 -0.188,2.396 -0.564,3.341c-0.376,0.945 -0.911,1.665 -1.606,2.159c-0.695,0.494 -1.511,0.741 -2.449,0.741Zm-0.967,-9.829c-0.809,0 -1.4,0.249 -1.772,0.747c-0.373,0.498 -0.566,1.319 -0.58,2.465l0,0.355c0,1.289 0.191,2.213 0.574,2.771c0.383,0.559 0.99,0.838 1.821,0.838c1.468,0 2.202,-1.21 2.202,-3.631c0,-1.181 -0.181,-2.068 -0.542,-2.658c-0.362,-0.591 -0.929,-0.887 -1.703,-0.887Z" style="fill:#c73d27;fill-rule:nonzero;"/><rect x="308.722" y="11.961" width="3.276" height="16.715" style="fill:#c73d27;fill-rule:nonzero;"/><path d="M323.063,28.676l-0.634,-1.633l-0.086,0c-0.551,0.694 -1.119,1.176 -1.702,1.445c-0.584,0.268 -1.345,0.402 -2.283,0.402c-1.153,0 -2.061,-0.329 -2.723,-0.988c-0.663,-0.659 -0.994,-1.597 -0.994,-2.814c0,-1.275 0.446,-2.215 1.337,-2.82c0.892,-0.605 2.237,-0.94 4.034,-1.004l2.084,-0.065l0,-0.526c0,-1.218 -0.623,-1.826 -1.869,-1.826c-0.96,0 -2.088,0.29 -3.384,0.87l-1.085,-2.213c1.382,-0.724 2.915,-1.085 4.598,-1.085c1.611,0 2.847,0.351 3.706,1.053c0.859,0.701 1.289,1.768 1.289,3.201l0,8.003l-2.288,0Zm-0.967,-5.565l-1.267,0.043c-0.953,0.029 -1.662,0.201 -2.127,0.516c-0.466,0.315 -0.699,0.795 -0.699,1.439c0,0.924 0.53,1.386 1.59,1.386c0.759,0 1.366,-0.218 1.821,-0.655c0.455,-0.437 0.682,-1.017 0.682,-1.741l0,-0.988Z" style="fill:#c73d27;fill-rule:nonzero;"/><path d="M333.601,28.89c-3.738,0 -5.607,-2.051 -5.607,-6.155c0,-2.041 0.508,-3.6 1.525,-4.678c1.017,-1.078 2.474,-1.617 4.372,-1.617c1.389,0 2.635,0.272 3.738,0.817l-0.967,2.535c-0.515,-0.208 -0.995,-0.378 -1.439,-0.51c-0.444,-0.133 -0.888,-0.199 -1.332,-0.199c-1.704,0 -2.557,1.21 -2.557,3.631c0,2.349 0.853,3.523 2.557,3.523c0.63,0 1.214,-0.084 1.751,-0.252c0.537,-0.169 1.074,-0.432 1.611,-0.79l0,2.804c-0.53,0.336 -1.065,0.569 -1.606,0.698c-0.54,0.129 -1.222,0.193 -2.046,0.193Z" style="fill:#c73d27;fill-rule:nonzero;"/><path d="M345.009,18.771c-0.694,0 -1.239,0.221 -1.633,0.661c-0.394,0.44 -0.619,1.065 -0.676,1.875l4.597,0c-0.014,-0.81 -0.225,-1.435 -0.634,-1.875c-0.408,-0.44 -0.959,-0.661 -1.654,-0.661Zm0.462,10.119c-1.934,0 -3.445,-0.533 -4.533,-1.6c-1.089,-1.067 -1.633,-2.578 -1.633,-4.533c0,-2.013 0.503,-3.568 1.509,-4.668c1.007,-1.099 2.398,-1.649 4.174,-1.649c1.697,0 3.018,0.484 3.964,1.45c0.945,0.967 1.418,2.303 1.418,4.007l0,1.59l-7.746,0c0.036,0.931 0.312,1.658 0.828,2.181c0.515,0.523 1.238,0.784 2.169,0.784c0.724,0 1.408,-0.075 2.052,-0.226c0.645,-0.15 1.318,-0.39 2.02,-0.719l0,2.535c-0.573,0.286 -1.185,0.499 -1.837,0.639c-0.652,0.14 -1.447,0.209 -2.385,0.209Z" style="fill:#c73d27;fill-rule:nonzero;"/><path d="M150.087,55.961c-0.838,0 -1.558,-0.09 -2.159,-0.269l0,-2.578c0.501,0.136 1.013,0.204 1.536,0.204c0.551,0 0.954,-0.154 1.208,-0.462c0.254,-0.308 0.382,-0.762 0.382,-1.364l0,-12.826l3.276,0l0,13.309c0,1.275 -0.369,2.258 -1.106,2.949c-0.738,0.691 -1.784,1.037 -3.137,1.037Zm0.827,-20.4c0,-1.067 0.594,-1.6 1.783,-1.6c1.189,0 1.783,0.533 1.783,1.6c0,0.509 -0.148,0.905 -0.445,1.187c-0.298,0.283 -0.743,0.425 -1.338,0.425c-1.189,0 -1.783,-0.537 -1.783,-1.612Z" style="fill:#c73d27;fill-rule:nonzero;"/><path d="M166.275,50.676l-0.44,-1.536l-0.172,0c-0.351,0.558 -0.849,0.99 -1.493,1.294c-0.645,0.304 -1.379,0.456 -2.202,0.456c-1.411,0 -2.475,-0.377 -3.191,-1.133c-0.716,-0.755 -1.074,-1.842 -1.074,-3.26l0,-7.831l3.276,0l0,7.015c0,0.866 0.154,1.516 0.462,1.949c0.308,0.434 0.799,0.65 1.472,0.65c0.917,0 1.579,-0.306 1.987,-0.918c0.408,-0.613 0.613,-1.628 0.613,-3.046l0,-5.65l3.276,0l0,12.01l-2.514,0Z" style="fill:#c73d27;fill-rule:nonzero;"/><path d="M180.605,47.109c0,1.232 -0.428,2.17 -1.283,2.815c-0.856,0.644 -2.136,0.966 -3.841,0.966c-0.873,0 -1.618,-0.059 -2.234,-0.177c-0.616,-0.118 -1.192,-0.292 -1.73,-0.521l0,-2.707c0.609,0.287 1.295,0.527 2.058,0.72c0.762,0.193 1.434,0.29 2.014,0.29c1.189,0 1.783,-0.344 1.783,-1.031c0,-0.258 -0.079,-0.468 -0.236,-0.629c-0.158,-0.161 -0.43,-0.343 -0.817,-0.548c-0.386,-0.204 -0.902,-0.442 -1.547,-0.714c-0.923,-0.387 -1.602,-0.745 -2.035,-1.074c-0.434,-0.33 -0.749,-0.707 -0.946,-1.133c-0.197,-0.427 -0.295,-0.951 -0.295,-1.574c0,-1.067 0.414,-1.893 1.241,-2.476c0.827,-0.584 2,-0.876 3.518,-0.876c1.446,0 2.854,0.315 4.221,0.946l-0.988,2.363c-0.601,-0.258 -1.164,-0.469 -1.686,-0.634c-0.523,-0.165 -1.057,-0.247 -1.601,-0.247c-0.967,0 -1.45,0.261 -1.45,0.784c0,0.294 0.156,0.548 0.467,0.763c0.312,0.215 0.994,0.533 2.047,0.956c0.938,0.38 1.625,0.734 2.062,1.063c0.437,0.33 0.759,0.709 0.967,1.139c0.208,0.43 0.311,0.942 0.311,1.536Z" style="fill:#c73d27;fill-rule:nonzero;"/><path d="M188.222,48.28c0.572,0 1.26,-0.125 2.062,-0.376l0,2.439c-0.816,0.365 -1.819,0.547 -3.008,0.547c-1.31,0 -2.265,-0.331 -2.863,-0.993c-0.598,-0.663 -0.897,-1.656 -0.897,-2.981l0,-5.79l-1.568,0l0,-1.386l1.805,-1.096l0.945,-2.535l2.095,0l0,2.557l3.362,0l0,2.46l-3.362,0l0,5.79c0,0.465 0.131,0.809 0.392,1.031c0.261,0.222 0.607,0.333 1.037,0.333Z" style="fill:#c73d27;fill-rule:nonzero;"/><path d="M192.572,35.561c0,-1.067 0.595,-1.6 1.783,-1.6c1.189,0 1.784,0.533 1.784,1.6c0,0.509 -0.149,0.905 -0.446,1.187c-0.297,0.283 -0.743,0.425 -1.338,0.425c-1.188,0 -1.783,-0.537 -1.783,-1.612Zm3.416,15.115l-3.276,0l0,-12.01l3.276,0l0,12.01Z" style="fill:#c73d27;fill-rule:nonzero;"/><path d="M204.303,50.89c-3.739,0 -5.608,-2.051 -5.608,-6.155c0,-2.041 0.509,-3.6 1.526,-4.678c1.017,-1.078 2.474,-1.617 4.372,-1.617c1.389,0 2.635,0.272 3.738,0.817l-0.967,2.535c-0.515,-0.208 -0.995,-0.378 -1.439,-0.51c-0.444,-0.133 -0.888,-0.199 -1.332,-0.199c-1.705,0 -2.557,1.21 -2.557,3.631c0,2.349 0.852,3.523 2.557,3.523c0.63,0 1.214,-0.084 1.751,-0.252c0.537,-0.169 1.074,-0.432 1.611,-0.79l0,2.804c-0.53,0.336 -1.065,0.569 -1.606,0.698c-0.541,0.129 -1.223,0.193 -2.046,0.193Z" style="fill:#c73d27;fill-rule:nonzero;"/><path d="M215.711,40.771c-0.695,0 -1.239,0.221 -1.633,0.661c-0.394,0.44 -0.619,1.065 -0.677,1.875l4.598,0c-0.014,-0.81 -0.226,-1.435 -0.634,-1.875c-0.408,-0.44 -0.96,-0.661 -1.654,-0.661Zm0.462,10.119c-1.934,0 -3.445,-0.533 -4.533,-1.6c-1.089,-1.067 -1.633,-2.578 -1.633,-4.533c0,-2.013 0.503,-3.568 1.509,-4.668c1.006,-1.099 2.397,-1.649 4.173,-1.649c1.698,0 3.019,0.484 3.964,1.45c0.946,0.967 1.418,2.303 1.418,4.007l0,1.59l-7.745,0c0.036,0.931 0.312,1.658 0.827,2.181c0.516,0.523 1.239,0.784 2.17,0.784c0.723,0 1.407,-0.075 2.052,-0.226c0.644,-0.15 1.318,-0.39 2.019,-0.719l0,2.535c-0.572,0.286 -1.185,0.499 -1.836,0.639c-0.652,0.14 -1.447,0.209 -2.385,0.209Z" style="fill:#c73d27;fill-rule:nonzero;"/><path d="M234.327,50.89c-3.738,0 -5.607,-2.051 -5.607,-6.155c0,-2.041 0.508,-3.6 1.525,-4.678c1.017,-1.078 2.474,-1.617 4.372,-1.617c1.389,0 2.636,0.272 3.738,0.817l-0.966,2.535c-0.516,-0.208 -0.996,-0.378 -1.44,-0.51c-0.444,-0.133 -0.888,-0.199 -1.332,-0.199c-1.704,0 -2.557,1.21 -2.557,3.631c0,2.349 0.853,3.523 2.557,3.523c0.63,0 1.214,-0.084 1.751,-0.252c0.537,-0.169 1.074,-0.432 1.611,-0.79l0,2.804c-0.53,0.336 -1.065,0.569 -1.606,0.698c-0.54,0.129 -1.222,0.193 -2.046,0.193Z" style="fill:#c73d27;fill-rule:nonzero;"/><path d="M248.389,50.676l-0.634,-1.633l-0.086,0c-0.552,0.694 -1.119,1.176 -1.703,1.445c-0.583,0.268 -1.344,0.402 -2.283,0.402c-1.153,0 -2.06,-0.329 -2.723,-0.988c-0.662,-0.659 -0.993,-1.597 -0.993,-2.814c0,-1.275 0.445,-2.215 1.337,-2.82c0.892,-0.605 2.236,-0.94 4.034,-1.004l2.084,-0.065l0,-0.526c0,-1.218 -0.623,-1.826 -1.869,-1.826c-0.96,0 -2.088,0.29 -3.384,0.87l-1.085,-2.213c1.382,-0.724 2.915,-1.085 4.598,-1.085c1.611,0 2.846,0.351 3.706,1.053c0.859,0.701 1.289,1.768 1.289,3.201l0,8.003l-2.288,0Zm-0.967,-5.565l-1.268,0.043c-0.952,0.029 -1.661,0.201 -2.127,0.516c-0.465,0.315 -0.698,0.795 -0.698,1.439c0,0.924 0.53,1.386 1.59,1.386c0.759,0 1.366,-0.218 1.821,-0.655c0.454,-0.437 0.682,-1.017 0.682,-1.741l0,-0.988Z" style="fill:#c73d27;fill-rule:nonzero;"/><path d="M264.803,50.676l-3.277,0l0,-7.015c0,-0.867 -0.145,-1.516 -0.435,-1.95c-0.29,-0.433 -0.746,-0.65 -1.369,-0.65c-0.838,0 -1.447,0.308 -1.827,0.924c-0.379,0.616 -0.569,1.629 -0.569,3.04l0,5.651l-3.276,0l0,-12.01l2.503,0l0.44,1.536l0.183,0c0.322,-0.551 0.787,-0.983 1.396,-1.294c0.609,-0.312 1.307,-0.468 2.095,-0.468c1.797,0 3.015,0.588 3.652,1.762l0.29,0c0.323,-0.559 0.797,-0.992 1.424,-1.3c0.626,-0.308 1.333,-0.462 2.121,-0.462c1.361,0 2.39,0.349 3.089,1.048c0.698,0.698 1.047,1.817 1.047,3.357l0,7.831l-3.287,0l0,-7.015c0,-0.867 -0.145,-1.516 -0.435,-1.95c-0.29,-0.433 -0.747,-0.65 -1.37,-0.65c-0.802,0 -1.402,0.287 -1.799,0.86c-0.398,0.573 -0.596,1.482 -0.596,2.728l0,6.027Z" style="fill:#c73d27;fill-rule:nonzero;"/><path d="M282.248,50.89c-1.411,0 -2.517,-0.512 -3.319,-1.536l-0.172,0c0.114,1.003 0.172,1.583 0.172,1.741l0,4.866l-3.277,0l0,-17.295l2.664,0l0.462,1.557l0.151,0c0.766,-1.188 1.901,-1.783 3.405,-1.783c1.418,0 2.528,0.548 3.33,1.644c0.802,1.096 1.203,2.617 1.203,4.565c0,1.282 -0.188,2.396 -0.564,3.341c-0.376,0.945 -0.911,1.665 -1.606,2.159c-0.694,0.494 -1.511,0.741 -2.449,0.741Zm-0.967,-9.829c-0.809,0 -1.4,0.249 -1.772,0.747c-0.373,0.498 -0.566,1.319 -0.58,2.465l0,0.355c0,1.289 0.191,2.213 0.574,2.771c0.383,0.559 0.99,0.838 1.821,0.838c1.468,0 2.202,-1.21 2.202,-3.631c0,-1.181 -0.181,-2.068 -0.542,-2.658c-0.362,-0.591 -0.929,-0.887 -1.703,-0.887Z" style="fill:#c73d27;fill-rule:nonzero;"/><path d="M297.201,50.676l-0.634,-1.633l-0.086,0c-0.551,0.694 -1.119,1.176 -1.702,1.445c-0.584,0.268 -1.345,0.402 -2.283,0.402c-1.153,0 -2.061,-0.329 -2.723,-0.988c-0.663,-0.659 -0.994,-1.597 -0.994,-2.814c0,-1.275 0.446,-2.215 1.338,-2.82c0.891,-0.605 2.236,-0.94 4.033,-1.004l2.084,-0.065l0,-0.526c0,-1.218 -0.623,-1.826 -1.869,-1.826c-0.96,0 -2.087,0.29 -3.384,0.87l-1.085,-2.213c1.383,-0.724 2.915,-1.085 4.598,-1.085c1.611,0 2.847,0.351 3.706,1.053c0.859,0.701 1.289,1.768 1.289,3.201l0,8.003l-2.288,0Zm-0.967,-5.565l-1.267,0.043c-0.953,0.029 -1.662,0.201 -2.127,0.516c-0.466,0.315 -0.699,0.795 -0.699,1.439c0,0.924 0.53,1.386 1.59,1.386c0.759,0 1.366,-0.218 1.821,-0.655c0.455,-0.437 0.682,-1.017 0.682,-1.741l0,-0.988Z" style="fill:#c73d27;fill-rule:nonzero;"/><path d="M302.723,35.561c0,-1.067 0.594,-1.6 1.783,-1.6c1.189,0 1.783,0.533 1.783,1.6c0,0.509 -0.149,0.905 -0.446,1.187c-0.297,0.283 -0.743,0.425 -1.337,0.425c-1.189,0 -1.783,-0.537 -1.783,-1.612Zm3.416,15.115l-3.277,0l0,-12.01l3.277,0l0,12.01Z" style="fill:#c73d27;fill-rule:nonzero;"/><path d="M320.028,38.666l0,1.665l-1.88,0.483c0.344,0.537 0.516,1.139 0.516,1.805c0,1.289 -0.449,2.293 -1.348,3.013c-0.899,0.72 -2.147,1.08 -3.744,1.08l-0.591,-0.032l-0.483,-0.054c-0.337,0.258 -0.505,0.544 -0.505,0.859c0,0.473 0.602,0.709 1.805,0.709l2.041,0c1.317,0 2.322,0.283 3.013,0.849c0.691,0.566 1.037,1.396 1.037,2.492c0,1.404 -0.586,2.492 -1.757,3.266c-1.171,0.773 -2.852,1.16 -5.043,1.16c-1.676,0 -2.956,-0.292 -3.841,-0.876c-0.884,-0.583 -1.326,-1.402 -1.326,-2.454c0,-0.724 0.225,-1.329 0.677,-1.816c0.451,-0.487 1.113,-0.834 1.987,-1.042c-0.337,-0.143 -0.63,-0.377 -0.881,-0.703c-0.251,-0.326 -0.376,-0.672 -0.376,-1.037c0,-0.458 0.132,-0.84 0.397,-1.144c0.265,-0.304 0.649,-0.603 1.15,-0.897c-0.63,-0.272 -1.13,-0.709 -1.499,-1.31c-0.368,-0.602 -0.553,-1.311 -0.553,-2.127c0,-1.311 0.426,-2.324 1.278,-3.04c0.853,-0.717 2.07,-1.075 3.653,-1.075c0.336,0 0.736,0.031 1.198,0.092c0.461,0.06 0.757,0.105 0.886,0.134l4.189,0Zm-9.27,13.707c0,0.451 0.216,0.806 0.65,1.063c0.433,0.258 1.04,0.387 1.82,0.387c1.175,0 2.095,-0.161 2.761,-0.483c0.666,-0.323 0.999,-0.763 0.999,-1.322c0,-0.451 -0.197,-0.762 -0.591,-0.934c-0.394,-0.172 -1.002,-0.258 -1.826,-0.258l-1.697,0c-0.602,0 -1.105,0.141 -1.509,0.424c-0.405,0.283 -0.607,0.657 -0.607,1.123Zm1.192,-9.775c0,0.651 0.149,1.167 0.446,1.546c0.297,0.38 0.75,0.57 1.359,0.57c0.616,0 1.067,-0.19 1.353,-0.57c0.287,-0.379 0.43,-0.895 0.43,-1.546c0,-1.447 -0.594,-2.17 -1.783,-2.17c-1.203,0 -1.805,0.723 -1.805,2.17Z" style="fill:#c73d27;fill-rule:nonzero;"/><path d="M333.091,50.676l-3.277,0l0,-7.015c0,-0.867 -0.154,-1.516 -0.462,-1.95c-0.308,-0.433 -0.798,-0.65 -1.471,-0.65c-0.917,0 -1.579,0.307 -1.988,0.919c-0.408,0.612 -0.612,1.627 -0.612,3.045l0,5.651l-3.276,0l0,-12.01l2.503,0l0.44,1.536l0.183,0c0.365,-0.58 0.868,-1.019 1.509,-1.316c0.641,-0.297 1.37,-0.446 2.186,-0.446c1.397,0 2.456,0.378 3.18,1.134c0.723,0.755 1.085,1.845 1.085,3.271l0,7.831Z" style="fill:#c73d27;fill-rule:nonzero;"/><path d="M344.843,47.109c0,1.232 -0.428,2.17 -1.284,2.815c-0.856,0.644 -2.136,0.966 -3.84,0.966c-0.874,0 -1.619,-0.059 -2.235,-0.177c-0.616,-0.118 -1.192,-0.292 -1.729,-0.521l0,-2.707c0.609,0.287 1.294,0.527 2.057,0.72c0.763,0.193 1.434,0.29 2.014,0.29c1.189,0 1.783,-0.344 1.783,-1.031c0,-0.258 -0.079,-0.468 -0.236,-0.629c-0.158,-0.161 -0.43,-0.343 -0.816,-0.548c-0.387,-0.204 -0.903,-0.442 -1.547,-0.714c-0.924,-0.387 -1.603,-0.745 -2.036,-1.074c-0.433,-0.33 -0.748,-0.707 -0.945,-1.133c-0.197,-0.427 -0.296,-0.951 -0.296,-1.574c0,-1.067 0.414,-1.893 1.241,-2.476c0.827,-0.584 2,-0.876 3.518,-0.876c1.447,0 2.854,0.315 4.222,0.946l-0.989,2.363c-0.601,-0.258 -1.163,-0.469 -1.686,-0.634c-0.523,-0.165 -1.056,-0.247 -1.601,-0.247c-0.966,0 -1.45,0.261 -1.45,0.784c0,0.294 0.156,0.548 0.467,0.763c0.312,0.215 0.994,0.533 2.047,0.956c0.938,0.38 1.626,0.734 2.062,1.063c0.437,0.33 0.759,0.709 0.967,1.139c0.208,0.43 0.312,0.942 0.312,1.536Z" style="fill:#c73d27;fill-rule:nonzero;"/><path d="M164.911,72.676l-0.634,-1.633l-0.086,0c-0.551,0.694 -1.119,1.176 -1.702,1.445c-0.584,0.268 -1.345,0.402 -2.283,0.402c-1.153,0 -2.061,-0.329 -2.723,-0.988c-0.663,-0.659 -0.994,-1.597 -0.994,-2.814c0,-1.275 0.446,-2.215 1.338,-2.82c0.891,-0.605 2.236,-0.94 4.033,-1.004l2.084,-0.065l0,-0.526c0,-1.218 -0.623,-1.826 -1.869,-1.826c-0.96,0 -2.087,0.29 -3.384,0.87l-1.085,-2.213c1.383,-0.724 2.915,-1.085 4.598,-1.085c1.611,0 2.847,0.351 3.706,1.053c0.859,0.701 1.289,1.768 1.289,3.201l0,8.003l-2.288,0Zm-0.967,-5.565l-1.267,0.043c-0.953,0.029 -1.662,0.201 -2.127,0.516c-0.466,0.315 -0.699,0.795 -0.699,1.439c0,0.924 0.53,1.386 1.59,1.386c0.759,0 1.366,-0.218 1.821,-0.655c0.455,-0.437 0.682,-1.017 0.682,-1.741l0,-0.988Z" style="fill:#c73d27;fill-rule:nonzero;"/><path d="M181.658,72.676l-3.276,0l0,-7.015c0,-0.867 -0.154,-1.516 -0.462,-1.95c-0.308,-0.433 -0.799,-0.65 -1.472,-0.65c-0.917,0 -1.579,0.307 -1.987,0.919c-0.408,0.612 -0.612,1.627 -0.612,3.045l0,5.651l-3.277,0l0,-12.01l2.503,0l0.441,1.536l0.182,0c0.365,-0.58 0.868,-1.019 1.509,-1.316c0.641,-0.297 1.37,-0.446 2.186,-0.446c1.397,0 2.457,0.378 3.18,1.134c0.723,0.755 1.085,1.845 1.085,3.271l0,7.831Z" style="fill:#c73d27;fill-rule:nonzero;"/><path d="M188.834,72.89c-1.411,0 -2.519,-0.547 -3.325,-1.643c-0.805,-1.096 -1.208,-2.614 -1.208,-4.555c0,-1.969 0.41,-3.503 1.23,-4.603c0.82,-1.099 1.949,-1.649 3.389,-1.649c1.511,0 2.664,0.588 3.459,1.762l0.107,0c-0.164,-0.895 -0.247,-1.694 -0.247,-2.395l0,-3.846l3.287,0l0,16.715l-2.513,0l-0.634,-1.558l-0.14,0c-0.745,1.182 -1.88,1.772 -3.405,1.772Zm1.149,-2.61c0.838,0 1.452,-0.243 1.843,-0.73c0.39,-0.487 0.603,-1.314 0.639,-2.482l0,-0.354c0,-1.289 -0.199,-2.213 -0.596,-2.772c-0.398,-0.558 -1.044,-0.838 -1.939,-0.838c-0.731,0 -1.298,0.31 -1.703,0.93c-0.405,0.619 -0.607,1.52 -0.607,2.701c0,1.182 0.204,2.068 0.612,2.659c0.409,0.591 0.992,0.886 1.751,0.886Z" style="fill:#c73d27;fill-rule:nonzero;"/><path d="M213.176,72.676l-0.441,-1.536l-0.172,0c-0.351,0.558 -0.848,0.99 -1.493,1.294c-0.644,0.304 -1.378,0.456 -2.202,0.456c-1.411,0 -2.474,-0.377 -3.19,-1.133c-0.717,-0.755 -1.075,-1.842 -1.075,-3.26l0,-7.831l3.277,0l0,7.015c0,0.866 0.154,1.516 0.462,1.949c0.308,0.434 0.798,0.65 1.471,0.65c0.917,0 1.579,-0.306 1.988,-0.918c0.408,-0.613 0.612,-1.628 0.612,-3.046l0,-5.65l3.276,0l0,12.01l-2.513,0Z" style="fill:#c73d27;fill-rule:nonzero;"/><path d="M230.213,72.676l-3.277,0l0,-7.015c0,-0.867 -0.154,-1.516 -0.461,-1.95c-0.308,-0.433 -0.799,-0.65 -1.472,-0.65c-0.917,0 -1.579,0.307 -1.987,0.919c-0.409,0.612 -0.613,1.627 -0.613,3.045l0,5.651l-3.276,0l0,-12.01l2.503,0l0.44,1.536l0.183,0c0.365,-0.58 0.868,-1.019 1.509,-1.316c0.641,-0.297 1.37,-0.446 2.186,-0.446c1.397,0 2.457,0.378 3.18,1.134c0.723,0.755 1.085,1.845 1.085,3.271l0,7.831Z" style="fill:#c73d27;fill-rule:nonzero;"/><path d="M233.446,57.561c0,-1.067 0.595,-1.6 1.783,-1.6c1.189,0 1.784,0.533 1.784,1.6c0,0.509 -0.149,0.905 -0.446,1.187c-0.297,0.283 -0.743,0.425 -1.338,0.425c-1.188,0 -1.783,-0.537 -1.783,-1.612Zm3.416,15.115l-3.276,0l0,-12.01l3.276,0l0,12.01Z" style="fill:#c73d27;fill-rule:nonzero;"/><path d="M242.91,66.649c0,1.189 0.195,2.088 0.586,2.697c0.39,0.608 1.025,0.913 1.906,0.913c0.874,0 1.502,-0.303 1.885,-0.908c0.384,-0.605 0.575,-1.506 0.575,-2.702c0,-1.189 -0.193,-2.08 -0.58,-2.675c-0.387,-0.594 -1.02,-0.891 -1.901,-0.891c-0.874,0 -1.504,0.295 -1.891,0.886c-0.387,0.591 -0.58,1.484 -0.58,2.68Zm8.304,0c0,1.955 -0.516,3.484 -1.547,4.587c-1.031,1.103 -2.467,1.654 -4.308,1.654c-1.153,0 -2.17,-0.252 -3.051,-0.757c-0.88,-0.505 -1.557,-1.23 -2.03,-2.175c-0.472,-0.945 -0.709,-2.048 -0.709,-3.309c0,-1.962 0.512,-3.487 1.536,-4.576c1.024,-1.088 2.464,-1.633 4.319,-1.633c1.153,0 2.17,0.251 3.051,0.752c0.88,0.502 1.557,1.221 2.03,2.159c0.472,0.939 0.709,2.038 0.709,3.298Z" style="fill:#c73d27;fill-rule:nonzero;"/><path d="M265.007,72.676l-3.277,0l0,-7.015c0,-0.867 -0.154,-1.516 -0.462,-1.95c-0.307,-0.433 -0.798,-0.65 -1.471,-0.65c-0.917,0 -1.579,0.307 -1.988,0.919c-0.408,0.612 -0.612,1.627 -0.612,3.045l0,5.651l-3.276,0l0,-12.01l2.503,0l0.44,1.536l0.183,0c0.365,-0.58 0.868,-1.019 1.509,-1.316c0.641,-0.297 1.37,-0.446 2.186,-0.446c1.397,0 2.456,0.378 3.18,1.134c0.723,0.755 1.085,1.845 1.085,3.271l0,7.831Z" style="fill:#c73d27;fill-rule:nonzero;"/><path d="M277.897,72.89c-1.41,0 -2.519,-0.547 -3.324,-1.643c-0.806,-1.096 -1.209,-2.614 -1.209,-4.555c0,-1.969 0.41,-3.503 1.23,-4.603c0.82,-1.099 1.95,-1.649 3.389,-1.649c1.511,0 2.664,0.588 3.459,1.762l0.108,0c-0.165,-0.895 -0.247,-1.694 -0.247,-2.395l0,-3.846l3.287,0l0,16.715l-2.514,0l-0.634,-1.558l-0.139,0c-0.745,1.182 -1.88,1.772 -3.406,1.772Zm1.15,-2.61c0.838,0 1.452,-0.243 1.842,-0.73c0.39,-0.487 0.603,-1.314 0.639,-2.482l0,-0.354c0,-1.289 -0.199,-2.213 -0.596,-2.772c-0.397,-0.558 -1.044,-0.838 -1.939,-0.838c-0.73,0 -1.298,0.31 -1.703,0.93c-0.404,0.619 -0.607,1.52 -0.607,2.701c0,1.182 0.205,2.068 0.613,2.659c0.408,0.591 0.992,0.886 1.751,0.886Z" style="fill:#c73d27;fill-rule:nonzero;"/><path d="M294.72,60.44c0.444,0 0.812,0.033 1.106,0.097l-0.247,3.072c-0.265,-0.071 -0.587,-0.107 -0.967,-0.107c-1.045,0 -1.86,0.268 -2.444,0.805c-0.583,0.538 -0.875,1.29 -0.875,2.256l0,6.113l-3.277,0l0,-12.01l2.482,0l0.483,2.019l0.161,0c0.373,-0.673 0.876,-1.215 1.51,-1.627c0.634,-0.412 1.323,-0.618 2.068,-0.618Z" style="fill:#c73d27;fill-rule:nonzero;"/><path d="M297.867,57.561c0,-1.067 0.594,-1.6 1.783,-1.6c1.189,0 1.783,0.533 1.783,1.6c0,0.509 -0.148,0.905 -0.445,1.187c-0.298,0.283 -0.743,0.425 -1.338,0.425c-1.189,0 -1.783,-0.537 -1.783,-1.612Zm3.416,15.115l-3.276,0l0,-12.01l3.276,0l0,12.01Z" style="fill:#c73d27;fill-rule:nonzero;"/><path d="M307.578,72.676l-4.576,-12.01l3.427,0l2.32,6.843c0.258,0.866 0.419,1.686 0.483,2.46l0.065,0c0.036,-0.688 0.197,-1.508 0.483,-2.46l2.31,-6.843l3.426,0l-4.576,12.01l-3.362,0Z" style="fill:#c73d27;fill-rule:nonzero;"/><path d="M322.209,62.771c-0.695,0 -1.239,0.221 -1.633,0.661c-0.394,0.44 -0.619,1.065 -0.677,1.875l4.598,0c-0.014,-0.81 -0.226,-1.435 -0.634,-1.875c-0.408,-0.44 -0.959,-0.661 -1.654,-0.661Zm0.462,10.119c-1.934,0 -3.445,-0.533 -4.533,-1.6c-1.089,-1.067 -1.633,-2.578 -1.633,-4.533c0,-2.013 0.503,-3.568 1.509,-4.668c1.006,-1.099 2.397,-1.649 4.173,-1.649c1.698,0 3.019,0.484 3.964,1.45c0.946,0.967 1.418,2.303 1.418,4.007l0,1.59l-7.745,0c0.036,0.931 0.312,1.658 0.827,2.181c0.516,0.523 1.239,0.784 2.17,0.784c0.723,0 1.407,-0.075 2.052,-0.226c0.644,-0.15 1.318,-0.39 2.019,-0.719l0,2.535c-0.572,0.286 -1.185,0.499 -1.836,0.639c-0.652,0.14 -1.447,0.209 -2.385,0.209Z" style="fill:#c73d27;fill-rule:nonzero;"/><path d="M338.612,69.109c0,1.232 -0.428,2.17 -1.283,2.815c-0.856,0.644 -2.136,0.966 -3.841,0.966c-0.874,0 -1.618,-0.059 -2.234,-0.177c-0.616,-0.118 -1.193,-0.292 -1.73,-0.521l0,-2.707c0.609,0.287 1.295,0.527 2.057,0.72c0.763,0.193 1.435,0.29 2.015,0.29c1.188,0 1.783,-0.344 1.783,-1.031c0,-0.258 -0.079,-0.468 -0.237,-0.629c-0.157,-0.161 -0.429,-0.343 -0.816,-0.548c-0.387,-0.204 -0.902,-0.442 -1.547,-0.714c-0.924,-0.387 -1.602,-0.745 -2.035,-1.074c-0.434,-0.33 -0.749,-0.707 -0.946,-1.133c-0.197,-0.427 -0.295,-0.951 -0.295,-1.574c0,-1.067 0.413,-1.893 1.241,-2.476c0.827,-0.584 1.999,-0.876 3.518,-0.876c1.446,0 2.853,0.315 4.221,0.946l-0.988,2.363c-0.602,-0.258 -1.164,-0.469 -1.687,-0.634c-0.522,-0.165 -1.056,-0.247 -1.6,-0.247c-0.967,0 -1.45,0.261 -1.45,0.784c0,0.294 0.155,0.548 0.467,0.763c0.312,0.215 0.994,0.533 2.046,0.956c0.939,0.38 1.626,0.734 2.063,1.063c0.437,0.33 0.759,0.709 0.967,1.139c0.207,0.43 0.311,0.942 0.311,1.536Z" style="fill:#c73d27;fill-rule:nonzero;"/></g><g id="icon-1"><path d="M15.791,95.411l0,-38.419c0,-0.116 0.003,-0.23 0.01,-0.344c-0.002,-0.063 -0.002,-0.129 -0.002,-0.195l0,-13.206l-4.977,8.721c-1.476,2.581 -4.914,3.643 -7.68,2.368c-2.762,-1.275 -3.809,-4.406 -2.336,-6.988l9.767,-17.109c0.168,-0.294 0.361,-0.566 0.573,-0.821c0.881,-2.286 3.302,-3.935 6.146,-3.935l23.395,0c2.844,0 5.263,1.649 6.145,3.937c0.211,0.253 0.407,0.525 0.571,0.819l0.119,0.209l0.118,-0.209c0.168,-0.294 0.361,-0.566 0.573,-0.821c0.881,-2.286 3.302,-3.935 6.147,-3.935l23.394,0c2.844,0 5.263,1.649 6.145,3.937c0.211,0.253 0.407,0.525 0.571,0.819l0.119,0.209l0.118,-0.209c0.169,-0.294 0.361,-0.566 0.573,-0.821c0.882,-2.286 3.302,-3.935 6.147,-3.935l23.394,0c2.844,0 5.264,1.649 6.145,3.937c0.211,0.253 0.407,0.525 0.571,0.819l9.769,17.109c1.473,2.582 0.427,5.713 -2.335,6.988c-2.767,1.275 -6.205,0.213 -7.68,-2.368l-4.977,-8.719l0,13.204c0,0.171 -0.008,0.338 -0.023,0.504c0,0.012 0,0.024 0,0.035l0,38.419l-12.508,0l0,-33.116l-1.353,0l0,33.116l-12.508,0l0,-38.419c0,-0.116 0.004,-0.23 0.01,-0.344c-0.002,-0.063 -0.002,-0.129 -0.002,-0.195l0,-1.599c-2.042,0.175 -4.121,-0.694 -5.344,-2.328c-1.223,1.634 -3.298,2.501 -5.343,2.328l0.002,1.599c0,0.171 -0.008,0.338 -0.023,0.504c0,0.012 0,0.024 0,0.035l0,38.419l-12.508,0l0,-33.116l-1.353,0l0,33.116l-12.508,0l0,-38.419c0,-0.116 0.004,-0.23 0.01,-0.344c-0.001,-0.063 -0.001,-0.129 -0.001,-0.195l0,-1.599c-2.043,0.175 -4.122,-0.694 -5.345,-2.328c-1.223,1.634 -3.3,2.503 -5.343,2.328l0.002,1.599c0,0.171 -0.008,0.338 -0.023,0.504c0,0.012 0,0.024 0,0.035l0,38.419l-12.502,0l0,-33.116l-1.352,0l0,33.116l-12.508,0l0,0Zm1.772,-84.719c0,-5.776 5.216,-10.465 11.642,-10.465c6.424,0 11.64,4.689 11.64,10.465c0,5.777 -5.216,10.464 -11.64,10.464c-6.426,-0.001 -11.642,-4.688 -11.642,-10.464Zm37.068,0c0,-5.776 5.216,-10.465 11.642,-10.465c6.424,0 11.64,4.689 11.64,10.465c0,5.777 -5.216,10.464 -11.64,10.464c-6.426,-0.001 -11.642,-4.688 -11.642,-10.464Zm37.068,0c0,-5.776 5.216,-10.465 11.643,-10.465c6.424,0 11.64,4.689 11.64,10.465c0,5.777 -5.216,10.464 -11.64,10.464c-6.427,-0.001 -11.643,-4.688 -11.643,-10.464Z" style="fill:#c73d27;fill-rule:nonzero;"/></g></g></svg>