<?xml version="1.0" encoding="UTF-8" standalone="no"?><!DOCTYPE svg PUBLIC "-//W3C//DTD SVG 1.1//EN" "http://www.w3.org/Graphics/SVG/1.1/DTD/svg11.dtd"><svg width="100%" height="100%" viewBox="0 0 343 87" version="1.1" xmlns="http://www.w3.org/2000/svg" xmlns:xlink="http://www.w3.org/1999/xlink" xml:space="preserve" style="fill-rule:evenodd;clip-rule:evenodd;stroke-linejoin:round;stroke-miterlimit:1.41421;"><g id="consumer-two"><g id="icon-2"><path d="M101.135,27.84l-33.502,11.758l11.898,21.321l3.205,-0.658l0.868,1.562l25.856,-8.985l-8.325,-24.998Z" style="fill:#c73d27;fill-rule:nonzero;"/><path d="M67.588,42.498c0,0 -0.801,0.801 -1.87,0.801c-1.07,0 -5.703,-2.082 -6.327,-2.483c-0.623,-0.4 -2.049,-1.682 -4.633,-1.041c-2.584,0.64 -6.148,1.682 -6.683,2.083c-0.534,0.4 -1.604,1.761 -1.604,2.243c0,0.481 -0.623,1.878 -0.891,2.02c-0.268,0.143 -1.426,1.825 -0.357,2.786c1.069,0.961 2.14,0.721 3.119,0.401c0.98,-0.323 3.453,-3.027 3.453,-3.667c0,-0.641 -0.668,-2.261 -0.668,-2.261c0,0 1.581,-0.134 1.671,1.214c0.089,1.348 0.98,-1.134 3.387,0.949c2.405,2.083 8.388,6.132 8.388,6.132c0,0 4.106,-0.019 4.729,-0.339c0.624,-0.319 -0.182,0.483 -0.57,0.768c-0.386,0.286 -2.168,0.733 -2.168,0.733c0,0 1.573,1.374 1.84,2.016c0.266,0.641 1.246,2.75 1.246,2.75l5.335,-2.289c-0.001,0.001 -5.882,-11.534 -7.397,-12.816Z" style="fill:#c73d27;fill-rule:nonzero;"/><path d="M4.55,27.164l31.831,10.873l3.654,0.898c0,0 0.386,0.261 0,1.041c-0.387,0.78 -10.822,21.845 -10.822,21.845l-2.811,-1.202l-1.091,2.062l-25.172,-9.926l4.411,-25.591Z" style="fill:#c73d27;fill-rule:nonzero;"/><path d="M40.814,41.417c0,0 2.985,-0.361 4.9,-1.282c1.916,-0.921 5.97,-2.402 7.262,-2.042c1.292,0.361 1.301,0.453 1.301,0.453c0,0 -5.601,1.81 -6.759,2.25c-1.159,0.441 -2.163,2.361 -2.207,2.801c-0.045,0.442 -1.145,2.757 -1.502,3.117c-0.358,0.359 -0.925,2.463 0.768,3.424c1.692,0.961 2.606,0.33 3.052,0.169c0.445,-0.158 2.295,-0.722 3.23,-1.964c0.936,-1.242 2.005,-2.522 2.873,-2.323c0.868,0.201 1.159,-0.118 2.806,1.444c1.65,1.561 5.413,3.965 5.413,3.965c0,0 5.35,3.991 5.502,4.324c0.354,0.776 1.75,3.065 1.526,3.631c-0.15,0.387 -0.629,1.618 -2.018,1.776c-0.743,0.085 -1.158,-0.239 -1.158,-0.239l-4.765,-4.766l-1.693,-1.991c0,0 0.357,2.151 0.624,2.473c0.267,0.32 3.321,3.219 3.653,3.564c0.524,0.542 1.38,1.096 1.562,1.486c0.376,0.798 -0.714,2.359 -2.097,2.359c-1.38,0 -2.205,-0.488 -2.205,-0.488l-3.209,-2.636l-1.269,-1.412c0,0 0.045,1.532 0.267,1.852c0.223,0.32 3.698,3.164 3.698,3.164l0.491,0.32c0,0 0.087,0.401 -0.714,0.921c-0.801,0.52 -2.133,0.688 -2.267,0.647c-0.133,-0.04 -3.724,-3.45 -4.148,-3.732c-0.423,-0.279 0,1.358 0,1.358l1.205,1.005l1.775,1.721c0,0 0.139,0.042 -0.485,0.523c-0.623,0.479 -3.177,0.321 -3.177,0.321c0,0 1.684,-1.944 0.182,-3.086c-0.797,-0.606 -1.103,-0.726 -1.103,-0.726c0.348,-0.723 0.679,-1.657 0.368,-2.458c-0.313,-0.801 -1.08,-1.543 -1.926,-1.742c-0.846,-0.201 -2.217,0.15 -2.217,0.15c0,0 0.183,-1.35 -1.213,-2.274c-0.846,-0.561 -2.364,-0.503 -3.555,0.247c-0.661,0.416 -2.248,1.546 -2.248,1.546c0.045,-0.33 -1.683,-3.543 -5.225,-2.311l-2.049,-1.565l6.751,-13.974Z" style="fill:#c73d27;fill-rule:nonzero;"/><path d="M35.267,58.13c0,0 -0.521,1.707 0.056,2.159c2.406,1.893 3.709,1.393 3.709,1.393c0,0 0,0.8 0.891,1.762c0.891,0.961 2.673,1.641 2.673,1.641c0,0 -0.357,0.411 0.446,1.212c0.801,0.801 2.25,1.532 3.875,1.021c0,0 -0.512,0.431 0.468,1.231c0.98,0.8 1.36,0.772 2.34,0.691c0.98,-0.081 2.406,-1.551 2.406,-1.551c0,0 1.17,-1.606 0,-2.485c-0.897,-0.673 -2.128,-0.219 -2.305,-0.019c-0.178,0.199 1.326,-1.484 1.537,-2.674c0.176,-1.001 -0.457,-1.462 -1.437,-1.742c-0.979,-0.279 -1.874,0.102 -2.406,0.541c-0.598,0.494 -1.136,0.852 -1.136,0.852l-2.725,1.721c0,0 2.825,-2.272 3.292,-3.263c0.259,-0.548 0.182,-1.45 -0.568,-1.863c-0.51,-0.278 -0.98,-0.62 -2.005,-0.401c-0.194,0.043 -2.851,1.764 -2.851,1.764l-0.936,0.601l-0.668,0.359c0,0 0.713,-1.122 0,-1.802c-0.712,-0.681 -1.575,-2.04 -4.656,-1.148Z" style="fill:#c73d27;fill-rule:nonzero;"/></g><g transform="matrix(0.56301,0,0,0.56301,-32.369,-156.272)"><text x="285.743px" y="302.647px" style="font-family:'OpenSans-Bold', 'Open Sans', sans-serif;font-weight:700;font-size:32px;fill:#c73d27;">Pur<tspan x="340.758px 357.211px " y="302.647px 302.647px ">ch</tspan>ase pr<tspan x="474.836px 494.649px " y="302.647px 302.647px ">od</tspan>ucts fr<tspan x="616.774px 636.586px " y="302.647px 302.647px ">om</tspan></text><text x="289.829px" y="334.647px" style="font-family:'OpenSans-Bold', 'Open Sans', sans-serif;font-weight:700;font-size:32px;fill:#c73d27;">companies that ar<tspan x="580.688px 599.594px " y="334.647px 334.647px ">e </tspan>fair</text><text x="302.539px" y="366.647px" style="font-family:'OpenSans-Bold', 'Open Sans', sans-serif;font-weight:700;font-size:32px;fill:#c73d27;">tr<tspan x="330.321px 349.649px " y="366.647px 366.647px ">ad</tspan>e, union-made, or</text><text x="353.032px" y="398.647px" style="font-family:'OpenSans-Bold', 'Open Sans', sans-serif;font-weight:700;font-size:32px;fill:#c73d27;">have high labor</text><text x="396.985px" y="430.647px" style="font-family:'OpenSans-Bold', 'Open Sans', sans-serif;font-weight:700;font-size:32px;fill:#c73d27;">standar<tspan x="520.61px 540.86px " y="430.647px 430.647px ">ds</tspan></text></g></g></svg>