<?xml version="1.0" encoding="UTF-8" standalone="no"?><!DOCTYPE svg PUBLIC "-//W3C//DTD SVG 1.1//EN" "http://www.w3.org/Graphics/SVG/1.1/DTD/svg11.dtd"><svg width="100%" height="100%" viewBox="0 0 351 72" version="1.1" xmlns="http://www.w3.org/2000/svg" xmlns:xlink="http://www.w3.org/1999/xlink" xml:space="preserve" style="fill-rule:evenodd;clip-rule:evenodd;stroke-linejoin:round;stroke-miterlimit:1.41421;"><g id="consumer-three"><g transform="matrix(0.586522,0,0,0.586522,-41.9268,-158.002)"><text x="283.049px" y="306.833px" style="font-family:'OpenSans-Bold', 'Open Sans', sans-serif;font-weight:700;font-size:37.509px;fill:#c73d27;">Call on policymak<tspan x="612.336px 634.497px " y="306.833px 306.833px ">er</tspan>s</text><text x="335.806px" y="344.343px" style="font-family:'OpenSans-Bold', 'Open Sans', sans-serif;font-weight:700;font-size:37.509px;fill:#c73d27;">to support pr<tspan x="582.125px 605.348px " y="344.343px 344.343px ">o-</tspan></text><text x="307.408px" y="381.852px" style="font-family:'OpenSans-Bold', 'Open Sans', sans-serif;font-weight:700;font-size:37.509px;fill:#c73d27;">work<tspan x="402.28px 424.441px " y="381.852px 381.852px ">er</tspan> legislation</text></g><g id="icon-3"><path d="M109.952,26.689l-12.377,5.258l-0.018,-0.017c0,0 -11.096,0.35 -20.318,3.87c-2.789,1.067 -5.441,2.435 -7.805,3.836l-8.704,-23.841c-0.015,-0.035 -0.412,-0.91 -1.359,-1.086l-19.539,-2.529l0.005,-11.753l-0.03,-0.212l-5.49,0l0,11.022l-19.297,-2.672c-1.066,0 -1.549,1.087 -1.57,1.136l-13.317,36.335c-0.06,0.168 -0.078,0.359 -0.024,0.728c0.032,0.176 0.104,0.353 0.286,0.638c0.111,0.137 0.254,0.262 0.389,0.35c0.058,0.061 5.84,5.919 14.241,5.919c8.561,0 14.18,-5.863 14.197,-5.888c0.169,-0.108 0.311,-0.234 0.502,-0.483c0.12,-0.196 0.193,-0.367 0.254,-0.684c0.015,-0.229 -0.004,-0.413 -0.103,-0.679l-12.215,-33.8l16.658,2.119l0,50.098l-10.837,0l0,4.938l26.913,0l0,-4.938l-10.593,0l0.031,-49.157l16.968,2.34l-12.585,34.583c-0.06,0.167 -0.078,0.357 -0.025,0.725c0.033,0.178 0.105,0.356 0.288,0.638c0.111,0.138 0.253,0.265 0.389,0.351c0.057,0.062 5.841,5.921 14.242,5.921c8.561,0 14.179,-5.864 14.195,-5.889c0.17,-0.108 0.312,-0.232 0.502,-0.482c0.122,-0.196 0.191,-0.368 0.256,-0.683c0.015,-0.228 -0.004,-0.414 -0.105,-0.68l-2.641,-7.235c3.387,-1.278 6.207,-1.821 6.207,-1.821c0,0 -3.36,5.258 -2.078,8.955c0.425,1.257 1.332,1.905 2.075,2.233c0.342,-1.488 1.05,-3.834 2.437,-5.848c1.617,-2.348 2.961,-3.241 3.018,-3.276c0.441,-0.285 1.034,-0.16 1.321,0.296c0.289,0.459 0.16,1.061 -0.277,1.346c-0.025,0.024 -1.119,0.78 -2.494,2.773c-1.571,2.283 -2.163,5.165 -2.319,6.125c0.329,0.582 0.834,1.281 1.547,1.758c0.428,0.294 0.849,0.378 1.223,0.372c0.245,-1.287 0.698,-2.932 1.521,-4.365c1.181,-2.059 2.216,-2.815 2.331,-2.895c0.437,-0.31 1.033,-0.191 1.329,0.252c0.3,0.445 0.196,1.051 -0.229,1.346c-0.033,0.03 -0.828,0.646 -1.778,2.3c-0.623,1.091 -1.003,2.37 -1.228,3.442c0.376,0.564 0.967,1.273 1.65,1.462c2.641,0.728 4.055,-1.725 4.055,-1.725l1.776,-3.129c0,0 2.693,0.285 4.428,-0.498c4.948,-1.932 9.484,-8.889 10.336,-10.272l9.189,-3.9l-5.404,-13.028Zm-84.211,18.232l-21.43,0l10.714,-30.194l10.716,30.194Zm22.65,6.082l10.716,-30.193l7.345,20.698c-4.027,2.68 -6.66,5.023 -6.66,5.023c0,0 -1.547,1.59 -0.763,2.58c1.014,1.304 2.157,0.432 2.895,0.088c0.731,-0.332 2.59,-1.468 6.171,-3.064l1.729,4.869l-21.433,0l0,-0.001Z" style="fill:#c73d27;fill-rule:nonzero;"/></g></g></svg>