<?xml version="1.0" encoding="UTF-8" standalone="no"?><!DOCTYPE svg PUBLIC "-//W3C//DTD SVG 1.1//EN" "http://www.w3.org/Graphics/SVG/1.1/DTD/svg11.dtd"><svg width="100%" height="100%" viewBox="0 0 346 60" version="1.1" xmlns="http://www.w3.org/2000/svg" xmlns:xlink="http://www.w3.org/1999/xlink" xml:space="preserve" style="fill-rule:evenodd;clip-rule:evenodd;stroke-linejoin:round;stroke-miterlimit:1.41421;"><g id="consumer-three"><g transform="matrix(0.5,0,0,0.5,11.3061,-134.389)"><text x="280.134px" y="302.648px" style="font-family:'OpenSans-Bold', 'Open Sans', sans-serif;font-weight:700;font-size:32px;fill:#c73d27;">The public can call on</text><text x="280.134px" y="334.648px" style="font-family:'OpenSans-Bold', 'Open Sans', sans-serif;font-weight:700;font-size:32px;fill:#c73d27;">policymak<tspan x="444.337px 463.244px " y="334.648px 334.648px ">er</tspan>s to support</text><text x="280.134px" y="366.648px" style="font-family:'OpenSans-Bold', 'Open Sans', sans-serif;font-weight:700;font-size:32px;fill:#c73d27;">pr<tspan x="314.275px 334.087px " y="366.648px 366.648px ">o-</tspan>work<tspan x="425.322px 444.228px " y="366.648px 366.648px ">er</tspan> legislation.</text></g><g id="number-three"><rect x="108.568" y="15.252" width="32.66" height="29.36" style="fill:#c73d27;"/><path d="M131.007,25.747c0,1.018 -0.343,1.861 -1.028,2.529c-0.685,0.667 -1.651,1.114 -2.899,1.341l0,0.083c0.988,0.172 1.761,0.556 2.32,1.151c0.559,0.596 0.838,1.327 0.838,2.193c0,1.487 -0.681,2.632 -2.044,3.438c-1.363,0.805 -3.207,1.208 -5.535,1.208c-0.887,0 -1.72,-0.071 -2.497,-0.212c-0.776,-0.141 -1.418,-0.342 -1.923,-0.603l0,-3.427c1.279,0.688 2.722,1.032 4.329,1.032c1.056,0 1.847,-0.16 2.371,-0.48c0.525,-0.32 0.787,-0.779 0.787,-1.378c0,-0.372 -0.104,-0.65 -0.311,-0.836c-0.207,-0.186 -0.535,-0.322 -0.987,-0.408c-0.452,-0.085 -1.087,-0.129 -1.906,-0.129l-0.965,0l0.609,-3.003l0.895,0c1.126,0 2.002,-0.16 2.629,-0.48c0.628,-0.32 0.942,-0.759 0.942,-1.316c0,-0.316 -0.138,-0.571 -0.414,-0.764c-0.276,-0.192 -0.654,-0.289 -1.136,-0.289c-0.896,0 -1.929,0.289 -3.101,0.868l-1.813,-2.56c0.964,-0.557 1.896,-0.951 2.795,-1.182c0.9,-0.231 1.889,-0.346 2.968,-0.346c1.539,0 2.769,0.32 3.692,0.96c0.922,0.64 1.384,1.509 1.384,2.61Z" style="fill:#fff;fill-rule:nonzero;"/></g><g id="icon-3"><path d="M93.816,23.057l-10.551,4.482l-0.015,-0.014c0,0 -9.459,0.299 -17.321,3.299c-2.378,0.91 -4.638,2.076 -6.654,3.27l-7.42,-20.324c-0.013,-0.03 -0.351,-0.775 -1.159,-0.926l-16.656,-2.155l0.004,-10.02l-0.025,-0.181l-4.68,0l0,9.397l-16.451,-2.278c-0.908,0 -1.32,0.926 -1.338,0.968l-11.353,30.975c-0.051,0.144 -0.066,0.306 -0.02,0.621c0.028,0.15 0.089,0.301 0.244,0.543c0.095,0.118 0.216,0.224 0.332,0.299c0.049,0.052 4.978,5.046 12.139,5.046c7.299,0 12.089,-4.998 12.103,-5.02c0.145,-0.092 0.265,-0.199 0.428,-0.411c0.103,-0.167 0.165,-0.314 0.216,-0.583c0.013,-0.196 -0.003,-0.352 -0.087,-0.579l-10.413,-28.814l14.201,1.806l0,42.708l-9.239,0l0,4.209l22.943,0l0,-4.209l-9.03,0l0.026,-41.906l14.465,1.995l-10.729,29.482c-0.051,0.142 -0.066,0.304 -0.021,0.618c0.028,0.151 0.09,0.303 0.245,0.544c0.095,0.118 0.217,0.225 0.332,0.299c0.049,0.052 4.979,5.048 12.141,5.048c7.298,0 12.088,-5 12.102,-5.021c0.144,-0.092 0.265,-0.198 0.428,-0.411c0.104,-0.167 0.162,-0.314 0.217,-0.582c0.013,-0.195 -0.003,-0.353 -0.089,-0.579l-2.251,-6.169c2.887,-1.089 5.291,-1.552 5.291,-1.552c0,0 -2.865,4.482 -1.771,7.634c0.362,1.072 1.135,1.624 1.769,1.903c0.291,-1.268 0.895,-3.268 2.077,-4.984c1.378,-2.002 2.524,-2.763 2.573,-2.794c0.375,-0.243 0.882,-0.136 1.126,0.253c0.246,0.392 0.136,0.905 -0.237,1.147c-0.02,0.021 -0.953,0.665 -2.125,2.364c-1.34,1.947 -1.844,4.404 -1.977,5.222c0.28,0.496 0.71,1.092 1.319,1.499c0.364,0.25 0.723,0.322 1.042,0.317c0.209,-1.098 0.595,-2.5 1.297,-3.722c1.006,-1.755 1.889,-2.399 1.987,-2.468c0.373,-0.263 0.881,-0.162 1.133,0.215c0.255,0.38 0.167,0.896 -0.195,1.147c-0.028,0.026 -0.706,0.551 -1.516,1.962c-0.531,0.93 -0.855,2.02 -1.047,2.934c0.32,0.481 0.824,1.085 1.406,1.246c2.252,0.621 3.458,-1.47 3.458,-1.47l1.514,-2.667c0,0 2.295,0.242 3.775,-0.425c4.217,-1.648 8.084,-7.578 8.811,-8.757l7.833,-3.324l-4.607,-11.107Zm-71.788,15.543l-18.269,0l9.133,-25.74l9.136,25.74Zm19.309,5.185l9.135,-25.739l6.261,17.644c-3.433,2.285 -5.677,4.282 -5.677,4.282c0,0 -1.319,1.355 -0.651,2.2c0.865,1.111 1.839,0.368 2.468,0.074c0.623,-0.282 2.208,-1.251 5.261,-2.612l1.474,4.151l-18.271,0l0,0Z" style="fill:#c73d27;fill-rule:nonzero;"/></g></g></svg>