<?xml version="1.0" encoding="UTF-8" standalone="no"?><!DOCTYPE svg PUBLIC "-//W3C//DTD SVG 1.1//EN" "http://www.w3.org/Graphics/SVG/1.1/DTD/svg11.dtd"><svg width="100%" height="100%" viewBox="0 0 337 113" version="1.1" xmlns="http://www.w3.org/2000/svg" xmlns:xlink="http://www.w3.org/1999/xlink" xml:space="preserve" style="fill-rule:evenodd;clip-rule:evenodd;stroke-linejoin:round;stroke-miterlimit:1.41421;"><g id="consumer-one"><g transform="matrix(0.5,0,0,0.5,6.12992,-138.766)"><text x="280.134px" y="302.648px" style="font-family:'OpenSans', 'Open Sans', sans-serif;font-size:32px;fill:#c73d27;">W<tspan x="309.119px 328.447px " y="302.648px 302.648px ">or</tspan>kplace justice</text><text x="280.134px" y="334.648px" style="font-family:'OpenSans', 'Open Sans', sans-serif;font-size:32px;fill:#c73d27;">campaigns and union</text><text x="280.134px" y="366.648px" style="font-family:'OpenSans', 'Open Sans', sans-serif;font-size:32px;fill:#c73d27;">drive need the support of</text><text x="280.134px" y="398.648px" style="font-family:'OpenSans', 'Open Sans', sans-serif;font-size:32px;fill:#c73d27;">consumers to help</text><text x="280.134px" y="430.648px" style="font-family:'OpenSans', 'Open Sans', sans-serif;font-size:32px;fill:#c73d27;">str<tspan x="319.119px 337.072px " y="430.648px 430.648px ">en</tspan>gthen food work<tspan x="601.947px 619.9px " y="430.648px 430.648px ">er</tspan>s’</text><text x="280.134px" y="462.648px" style="font-family:'OpenSans', 'Open Sans', sans-serif;font-size:32px;fill:#c73d27;">eﬀorts to win better pay</text><text x="280.134px" y="494.648px" style="font-family:'OpenSans', 'Open Sans', sans-serif;font-size:32px;fill:#c73d27;">and working conditions.</text></g><g id="icon-1"><path d="M11.544,99.306l0,-28.159c0,-0.085 0.003,-0.169 0.007,-0.252c-0.001,-0.046 -0.001,-0.095 -0.001,-0.143l0,-9.679l-3.648,6.392c-1.082,1.891 -3.601,2.67 -5.629,1.735c-2.024,-0.935 -2.791,-3.229 -1.712,-5.121l7.159,-12.541c0.123,-0.215 0.264,-0.414 0.42,-0.601c0.646,-1.676 2.42,-2.884 4.505,-2.884l17.147,0c2.084,0 3.858,1.208 4.504,2.885c0.154,0.186 0.298,0.385 0.418,0.6l0.087,0.153l0.087,-0.153c0.124,-0.215 0.265,-0.414 0.42,-0.601c0.646,-1.676 2.42,-2.884 4.505,-2.884l17.147,0c2.085,0 3.858,1.208 4.504,2.885c0.155,0.186 0.298,0.385 0.419,0.6l0.087,0.153l0.086,-0.153c0.124,-0.215 0.265,-0.414 0.42,-0.601c0.646,-1.676 2.42,-2.884 4.505,-2.884l17.147,0c2.085,0 3.858,1.208 4.504,2.885c0.155,0.186 0.299,0.385 0.419,0.6l7.16,12.541c1.08,1.892 0.313,4.186 -1.712,5.121c-2.027,0.935 -4.547,0.156 -5.628,-1.735l-3.648,-6.391l0,9.678c0,0.125 -0.006,0.248 -0.017,0.37c0,0.008 0,0.017 0,0.025l0,28.159l-9.168,0l0,-24.272l-0.992,0l0,24.272l-9.167,0l0,-28.159c0,-0.085 0.002,-0.169 0.007,-0.252c-0.001,-0.046 -0.001,-0.095 -0.001,-0.143l0,-1.172c-1.497,0.128 -3.021,-0.509 -3.917,-1.706c-0.897,1.197 -2.418,1.833 -3.916,1.706l0.001,1.172c0,0.125 -0.006,0.248 -0.017,0.37c0,0.008 0,0.017 0,0.025l0,28.159l-9.168,0l0,-24.272l-0.991,0l0,24.272l-9.168,0l0,-28.159c0,-0.085 0.003,-0.169 0.007,-0.252c-0.001,-0.046 -0.001,-0.095 -0.001,-0.143l0,-1.172c-1.497,0.128 -3.021,-0.509 -3.917,-1.706c-0.896,1.197 -2.419,1.834 -3.916,1.706l0.001,1.172c0,0.125 -0.006,0.248 -0.017,0.37c0,0.008 0,0.017 0,0.025l0,28.159l-9.163,0l0,-24.272l-0.991,0l0,24.272l-9.168,0l0,0Zm1.299,-62.094c0,-4.234 3.823,-7.671 8.533,-7.671c4.708,0 8.531,3.437 8.531,7.671c0,4.233 -3.823,7.669 -8.531,7.669c-4.71,0 -8.533,-3.436 -8.533,-7.669Zm27.169,0c0,-4.234 3.823,-7.671 8.533,-7.671c4.708,0 8.531,3.437 8.531,7.671c0,4.233 -3.823,7.669 -8.531,7.669c-4.71,0 -8.533,-3.436 -8.533,-7.669Zm27.169,0c0,-4.234 3.823,-7.671 8.534,-7.671c4.708,0 8.531,3.437 8.531,7.671c0,4.233 -3.823,7.669 -8.531,7.669c-4.711,0 -8.534,-3.436 -8.534,-7.669Z" style="fill:#c73d27;fill-rule:nonzero;"/></g><g id="number-one"><rect x="103.215" y="49.744" width="32.66" height="29.36" style="fill:#c73d27;"/><path d="M121.612,71.975l-4.467,0l1.999,-8.247c0.214,-0.908 0.505,-1.789 0.872,-2.642c-0.597,0.468 -1.098,0.822 -1.504,1.063l-2.331,1.29l-1.733,-2.601l7.118,-3.953l3.571,0l-3.525,15.09Z" style="fill:#fff;fill-rule:nonzero;"/></g></g></svg>