<?xml version="1.0" encoding="UTF-8" standalone="no"?><!DOCTYPE svg PUBLIC "-//W3C//DTD SVG 1.1//EN" "http://www.w3.org/Graphics/SVG/1.1/DTD/svg11.dtd"><svg width="100%" height="100%" viewBox="0 0 345 97" version="1.1" xmlns="http://www.w3.org/2000/svg" xmlns:xlink="http://www.w3.org/1999/xlink" xml:space="preserve" style="fill-rule:evenodd;clip-rule:evenodd;stroke-linejoin:round;stroke-miterlimit:1.41421;"><g id="consuer-two"><g id="icon-2"><path d="M89.42,32.932l-29.613,10.393l10.517,18.845l2.832,-0.582l0.768,1.381l22.854,-7.942l-7.358,-22.095Z" style="fill:#c73d27;fill-rule:nonzero;"/><path d="M59.767,45.888c0,0 -0.708,0.708 -1.653,0.708c-0.946,0 -5.041,-1.84 -5.592,-2.195c-0.551,-0.353 -1.811,-1.487 -4.095,-0.92c-2.284,0.566 -5.435,1.487 -5.907,1.841c-0.473,0.354 -1.418,1.557 -1.418,1.983c0,0.425 -0.55,1.66 -0.787,1.786c-0.237,0.125 -1.261,1.612 -0.316,2.462c0.945,0.849 1.891,0.637 2.756,0.354c0.867,-0.285 3.053,-2.676 3.053,-3.241c0,-0.566 -0.59,-1.998 -0.59,-1.998c0,0 1.397,-0.119 1.476,1.073c0.079,1.191 0.867,-1.003 2.994,0.838c2.125,1.842 7.414,5.42 7.414,5.42c0,0 3.63,-0.016 4.18,-0.299c0.551,-0.283 -0.161,0.427 -0.504,0.679c-0.341,0.252 -1.916,0.648 -1.916,0.648c0,0 1.39,1.214 1.626,1.782c0.236,0.566 1.102,2.43 1.102,2.43l4.715,-2.023c-0.001,0 -5.199,-10.195 -6.538,-11.328Z" style="fill:#c73d27;fill-rule:nonzero;"/><path d="M4.048,32.334l28.136,9.611l3.229,0.793c0,0 0.342,0.231 0,0.921c-0.342,0.689 -9.566,19.309 -9.566,19.309l-2.484,-1.063l-0.964,1.823l-22.25,-8.774l3.899,-22.62Z" style="fill:#c73d27;fill-rule:nonzero;"/><path d="M36.102,44.933c0,0 2.638,-0.319 4.331,-1.133c1.693,-0.814 5.277,-2.124 6.419,-1.805c1.141,0.319 1.15,0.399 1.15,0.399c0,0 -4.951,1.601 -5.975,1.99c-1.024,0.389 -1.911,2.086 -1.951,2.476c-0.039,0.39 -1.011,2.436 -1.327,2.754c-0.316,0.318 -0.818,2.177 0.679,3.027c1.496,0.849 2.303,0.292 2.698,0.149c0.393,-0.139 2.028,-0.638 2.855,-1.736c0.827,-1.098 1.772,-2.229 2.539,-2.053c0.767,0.178 1.024,-0.104 2.48,1.276c1.459,1.38 4.784,3.505 4.784,3.505c0,0 4.729,3.528 4.863,3.822c0.314,0.685 1.547,2.709 1.35,3.21c-0.133,0.341 -0.557,1.429 -1.784,1.57c-0.657,0.074 -1.023,-0.212 -1.023,-0.212l-4.212,-4.212l-1.497,-1.761c0,0 0.316,1.902 0.552,2.186c0.236,0.283 2.935,2.846 3.229,3.151c0.462,0.479 1.219,0.968 1.38,1.313c0.333,0.705 -0.631,2.085 -1.853,2.085c-1.22,0 -1.949,-0.431 -1.949,-0.431l-2.836,-2.33l-1.122,-1.248c0,0 0.039,1.354 0.236,1.637c0.197,0.283 3.268,2.797 3.268,2.797l0.434,0.282c0,0 0.077,0.354 -0.631,0.814c-0.708,0.46 -1.886,0.608 -2.003,0.572c-0.118,-0.035 -3.292,-3.05 -3.667,-3.298c-0.374,-0.248 0,1.2 0,1.2l1.065,0.888l1.569,1.521c0,0 0.123,0.037 -0.429,0.462c-0.551,0.424 -2.808,0.284 -2.808,0.284c0,0 1.489,-1.718 0.161,-2.728c-0.705,-0.535 -0.974,-0.641 -0.974,-0.641c0.307,-0.639 0.6,-1.465 0.324,-2.173c-0.276,-0.708 -0.954,-1.364 -1.702,-1.54c-0.747,-0.177 -1.959,0.133 -1.959,0.133c0,0 0.161,-1.193 -1.073,-2.01c-0.747,-0.496 -2.089,-0.445 -3.142,0.219c-0.584,0.367 -1.987,1.366 -1.987,1.366c0.04,-0.292 -1.488,-3.132 -4.619,-2.043l-1.811,-1.383l5.968,-12.351Z" style="fill:#c73d27;fill-rule:nonzero;"/><path d="M31.199,59.705c0,0 -0.461,1.508 0.049,1.909c2.127,1.673 3.279,1.23 3.279,1.23c0,0 0,0.707 0.787,1.558c0.788,0.85 2.363,1.451 2.363,1.451c0,0 -0.315,0.363 0.394,1.071c0.708,0.708 1.989,1.354 3.426,0.902c0,0 -0.454,0.381 0.413,1.088c0.866,0.707 1.201,0.682 2.068,0.611c0.866,-0.071 2.127,-1.371 2.127,-1.371c0,0 1.034,-1.419 0,-2.196c-0.793,-0.595 -1.881,-0.194 -2.037,-0.018c-0.158,0.177 1.172,-1.31 1.358,-2.363c0.155,-0.885 -0.404,-1.292 -1.27,-1.539c-0.866,-0.247 -1.656,0.09 -2.127,0.478c-0.529,0.437 -1.004,0.753 -1.004,0.753l-2.409,1.521c0,0 2.497,-2.008 2.91,-2.884c0.229,-0.485 0.161,-1.282 -0.502,-1.647c-0.45,-0.245 -0.866,-0.548 -1.772,-0.354c-0.171,0.038 -2.52,1.559 -2.52,1.559l-0.827,0.531l-0.591,0.318c0,0 0.63,-0.993 0,-1.594c-0.629,-0.601 -1.392,-1.803 -4.115,-1.014Z" style="fill:#c73d27;fill-rule:nonzero;"/></g><g id="number-two"><rect x="108.568" y="36.267" width="32.66" height="29.36" style="fill:#c73d27;"/><path d="M128.962,58.498l-11.539,0l0.609,-2.643l5.545,-4.5c1.898,-1.521 2.847,-2.763 2.847,-3.726c0,-0.337 -0.099,-0.59 -0.298,-0.759c-0.199,-0.168 -0.451,-0.253 -0.758,-0.253c-0.918,0 -1.994,0.506 -3.226,1.517l-2.136,-2.662c1.791,-1.521 3.862,-2.282 6.212,-2.282c1.401,0 2.53,0.343 3.388,1.027c0.857,0.685 1.286,1.612 1.286,2.782c0,1.046 -0.333,2.026 -0.999,2.942c-0.666,0.915 -1.807,1.998 -3.421,3.251l-2.355,1.817l0,0.124l5.626,0l-0.781,3.365Z" style="fill:#fff;fill-rule:nonzero;"/></g><g transform="matrix(0.5,0,0,0.5,7.0775,-138.808)"><text x="280.134px" y="302.647px" style="font-family:'OpenSans', 'Open Sans', sans-serif;font-size:32px;fill:#c73d27;">Consumers can also</text><text x="280.134px" y="334.647px" style="font-family:'OpenSans', 'Open Sans', sans-serif;font-size:32px;fill:#c73d27;">support food work<tspan x="557.119px 575.072px " y="334.647px 334.647px ">er</tspan>s b<tspan x="630.681px " y="334.647px ">y</tspan></text><text x="280.134px" y="366.647px" style="font-family:'OpenSans', 'Open Sans', sans-serif;font-size:32px;fill:#c73d27;">pur<tspan x="331.806px 347.04px " y="366.647px 366.647px ">ch</tspan>asing pr<tspan x="485.353px 504.681px " y="366.647px 366.647px ">od</tspan>ucts fr<tspan x="617.306px 636.634px " y="366.647px 366.647px ">om</tspan></text><text x="280.134px" y="398.647px" style="font-family:'OpenSans', 'Open Sans', sans-serif;font-size:32px;fill:#c73d27;">companies that ar<tspan x="549.697px 567.65px " y="398.647px 398.647px ">e </tspan>fair</text><text x="280.134px" y="430.647px" style="font-family:'OpenSans', 'Open Sans', sans-serif;font-size:32px;fill:#c73d27;">tr<tspan x="303.853px 321.65px " y="430.647px 430.647px ">ad</tspan>e, union-made, or</text><text x="280.134px" y="462.647px" style="font-family:'OpenSans', 'Open Sans', sans-serif;font-size:32px;fill:#c73d27;">have high labor standar<tspan x="633.119px 652.728px " y="462.647px 462.647px ">ds</tspan>.</text></g></g></svg>